<?xml version="1.0" encoding="UTF-8" standalone="no"?>
<svg
   xmlns:dc="http://purl.org/dc/elements/1.1/"
   xmlns:cc="http://creativecommons.org/ns#"
   xmlns:rdf="http://www.w3.org/1999/02/22-rdf-syntax-ns#"
   xmlns:svg="http://www.w3.org/2000/svg"
   xmlns="http://www.w3.org/2000/svg"
   xmlns:xlink="http://www.w3.org/1999/xlink"
   xmlns:sodipodi="http://sodipodi.sourceforge.net/DTD/sodipodi-0.dtd"
   xmlns:inkscape="http://www.inkscape.org/namespaces/inkscape"
   id="Layer_1"
   data-name="Layer 1"
   viewBox="0 0 255.12 85.04"
   version="1.1"
   sodipodi:docname="Aetna.svg"
   inkscape:version="0.92.4 (5da689c313, 2019-01-14)">
  <metadata
     id="metadata35">
    <rdf:RDF>
      <cc:Work
         rdf:about="">
        <dc:format>image/svg+xml</dc:format>
        <dc:type
           rdf:resource="http://purl.org/dc/dcmitype/StillImage" />
        <dc:title>Artboard 3 copy 40</dc:title>
      </cc:Work>
    </rdf:RDF>
  </metadata>
  <sodipodi:namedview
     pagecolor="#ffffff"
     bordercolor="#666666"
     borderopacity="1"
     objecttolerance="10"
     gridtolerance="10"
     guidetolerance="10"
     inkscape:pageopacity="0"
     inkscape:pageshadow="2"
     inkscape:window-width="1366"
     inkscape:window-height="705"
     id="namedview33"
     showgrid="false"
     inkscape:zoom="1.28"
     inkscape:cx="60.674694"
     inkscape:cy="77.905991"
     inkscape:window-x="-8"
     inkscape:window-y="-8"
     inkscape:window-maximized="1"
     inkscape:current-layer="Layer_1-7" />
  <defs
     id="defs12">
    <style
       id="style10">.cls-1{fill:#2b5097;fill-rule:evenodd;}</style>
    <clipPath
       clip-path="url(#SVGID_23_)"
       id="SVGID_24_-2">
      <use
         height="100%"
         width="100%"
         y="0"
         x="0"
         style="overflow:visible"
         id="use91-7"
         overflow="visible"
         xlink:href="#SVGID_15_" />
    </clipPath>
    <clipPath
       clip-path="url(#SVGID_23_)"
       id="clipPath3453">
      <use
         height="100%"
         width="100%"
         y="0"
         x="0"
         style="overflow:visible"
         id="use3455"
         overflow="visible"
         xlink:href="#SVGID_15_" />
    </clipPath>
    <clipPath
       clip-path="url(#SVGID_23_)"
       id="clipPath3457">
      <use
         height="100%"
         width="100%"
         y="0"
         x="0"
         style="overflow:visible"
         id="use3459"
         overflow="visible"
         xlink:href="#SVGID_15_" />
    </clipPath>
    <clipPath
       clip-path="url(#SVGID_23_)"
       id="clipPath3461">
      <use
         height="100%"
         width="100%"
         y="0"
         x="0"
         style="overflow:visible"
         id="use3463"
         overflow="visible"
         xlink:href="#SVGID_15_" />
    </clipPath>
    <clipPath
       clip-path="url(#SVGID_23_)"
       id="clipPath3465">
      <use
         height="100%"
         width="100%"
         y="0"
         x="0"
         style="overflow:visible"
         id="use3467"
         overflow="visible"
         xlink:href="#SVGID_15_" />
    </clipPath>
    <clipPath
       clip-path="url(#SVGID_23_)"
       id="clipPath3469">
      <use
         height="100%"
         width="100%"
         y="0"
         x="0"
         style="overflow:visible"
         id="use3471"
         overflow="visible"
         xlink:href="#SVGID_15_" />
    </clipPath>
    <clipPath
       clip-path="url(#SVGID_23_)"
       id="clipPath3473">
      <use
         height="100%"
         width="100%"
         y="0"
         x="0"
         style="overflow:visible"
         id="use3475"
         overflow="visible"
         xlink:href="#SVGID_15_" />
    </clipPath>
    <clipPath
       clip-path="url(#SVGID_23_)"
       id="clipPath3477">
      <use
         height="100%"
         width="100%"
         y="0"
         x="0"
         style="overflow:visible"
         id="use3479"
         overflow="visible"
         xlink:href="#SVGID_15_" />
    </clipPath>
    <clipPath
       id="SVGID_6_-3">
      <use
         height="100%"
         width="100%"
         y="0"
         x="0"
         style="overflow:visible"
         id="use33-6"
         overflow="visible"
         xlink:href="#SVGID_5_" />
    </clipPath>
    <clipPath
       clip-path="url(#SVGID_23_)"
       id="clipPath3483">
      <use
         height="100%"
         width="100%"
         y="0"
         x="0"
         style="overflow:visible"
         id="use3485"
         overflow="visible"
         xlink:href="#SVGID_15_" />
    </clipPath>
    <clipPath
       clip-path="url(#SVGID_23_)"
       id="SVGID_24_-2-4">
      <use
         height="100%"
         width="100%"
         y="0"
         x="0"
         style="overflow:visible"
         id="use91-7-4"
         overflow="visible"
         xlink:href="#SVGID_15_" />
    </clipPath>
    <clipPath
       clip-path="url(#SVGID_23_)"
       id="clipPath3626">
      <use
         height="100%"
         width="100%"
         y="0"
         x="0"
         style="overflow:visible"
         id="use3628"
         overflow="visible"
         xlink:href="#SVGID_15_" />
    </clipPath>
    <clipPath
       clip-path="url(#SVGID_23_)"
       id="clipPath3630">
      <use
         height="100%"
         width="100%"
         y="0"
         x="0"
         style="overflow:visible"
         id="use3632"
         overflow="visible"
         xlink:href="#SVGID_15_" />
    </clipPath>
    <clipPath
       clip-path="url(#SVGID_23_)"
       id="clipPath3634">
      <use
         height="100%"
         width="100%"
         y="0"
         x="0"
         style="overflow:visible"
         id="use3636"
         overflow="visible"
         xlink:href="#SVGID_15_" />
    </clipPath>
    <clipPath
       clip-path="url(#SVGID_23_)"
       id="clipPath3638">
      <use
         height="100%"
         width="100%"
         y="0"
         x="0"
         style="overflow:visible"
         id="use3640"
         overflow="visible"
         xlink:href="#SVGID_15_" />
    </clipPath>
    <clipPath
       clip-path="url(#SVGID_23_)"
       id="clipPath3642">
      <use
         height="100%"
         width="100%"
         y="0"
         x="0"
         style="overflow:visible"
         id="use3644"
         overflow="visible"
         xlink:href="#SVGID_15_" />
    </clipPath>
    <clipPath
       clip-path="url(#SVGID_23_)"
       id="clipPath3646">
      <use
         height="100%"
         width="100%"
         y="0"
         x="0"
         style="overflow:visible"
         id="use3648"
         overflow="visible"
         xlink:href="#SVGID_15_" />
    </clipPath>
    <clipPath
       clip-path="url(#SVGID_23_)"
       id="clipPath3650">
      <use
         height="100%"
         width="100%"
         y="0"
         x="0"
         style="overflow:visible"
         id="use3652"
         overflow="visible"
         xlink:href="#SVGID_15_" />
    </clipPath>
    <clipPath
       clip-path="url(#SVGID_23_)"
       id="SVGID_24_-2-8">
      <use
         height="100%"
         width="100%"
         y="0"
         x="0"
         style="overflow:visible"
         id="use91-7-7"
         overflow="visible"
         xlink:href="#SVGID_15_" />
    </clipPath>
    <clipPath
       clip-path="url(#SVGID_23_)"
       id="clipPath3790">
      <use
         height="100%"
         width="100%"
         y="0"
         x="0"
         style="overflow:visible"
         id="use3792"
         overflow="visible"
         xlink:href="#SVGID_15_" />
    </clipPath>
    <clipPath
       clip-path="url(#SVGID_23_)"
       id="clipPath3794">
      <use
         height="100%"
         width="100%"
         y="0"
         x="0"
         style="overflow:visible"
         id="use3796"
         overflow="visible"
         xlink:href="#SVGID_15_" />
    </clipPath>
    <clipPath
       clip-path="url(#SVGID_23_)"
       id="clipPath3798">
      <use
         height="100%"
         width="100%"
         y="0"
         x="0"
         style="overflow:visible"
         id="use3800"
         overflow="visible"
         xlink:href="#SVGID_15_" />
    </clipPath>
    <clipPath
       clip-path="url(#SVGID_23_)"
       id="clipPath3802">
      <use
         height="100%"
         width="100%"
         y="0"
         x="0"
         style="overflow:visible"
         id="use3804"
         overflow="visible"
         xlink:href="#SVGID_15_" />
    </clipPath>
    <clipPath
       clip-path="url(#SVGID_23_)"
       id="clipPath3806">
      <use
         height="100%"
         width="100%"
         y="0"
         x="0"
         style="overflow:visible"
         id="use3808"
         overflow="visible"
         xlink:href="#SVGID_15_" />
    </clipPath>
    <clipPath
       clip-path="url(#SVGID_23_)"
       id="clipPath3810">
      <use
         height="100%"
         width="100%"
         y="0"
         x="0"
         style="overflow:visible"
         id="use3812"
         overflow="visible"
         xlink:href="#SVGID_15_" />
    </clipPath>
    <clipPath
       clip-path="url(#SVGID_23_)"
       id="clipPath3814">
      <use
         height="100%"
         width="100%"
         y="0"
         x="0"
         style="overflow:visible"
         id="use3816"
         overflow="visible"
         xlink:href="#SVGID_15_" />
    </clipPath>
    <clipPath
       clip-path="url(#SVGID_23_)"
       id="clipPath3818">
      <use
         height="100%"
         width="100%"
         y="0"
         x="0"
         style="overflow:visible"
         id="use3820"
         overflow="visible"
         xlink:href="#SVGID_15_" />
    </clipPath>
    <clipPath
       id="SVGID_6_-3-4">
      <use
         height="100%"
         width="100%"
         y="0"
         x="0"
         style="overflow:visible"
         id="use33-6-5"
         overflow="visible"
         xlink:href="#SVGID_5_" />
    </clipPath>
    <clipPath
       clip-path="url(#SVGID_23_)"
       id="SVGID_24_-2-8-1">
      <use
         height="100%"
         width="100%"
         y="0"
         x="0"
         style="overflow:visible"
         id="use91-7-7-4"
         overflow="visible"
         xlink:href="#SVGID_15_" />
    </clipPath>
    <clipPath
       id="SVGID_6_-3-4-6">
      <use
         height="100%"
         width="100%"
         y="0"
         x="0"
         style="overflow:visible"
         id="use33-6-5-6"
         overflow="visible"
         xlink:href="#SVGID_5_" />
    </clipPath>
    <clipPath
       clip-path="url(#SVGID_23_)"
       id="SVGID_24_-2-8-3">
      <use
         height="100%"
         width="100%"
         y="0"
         x="0"
         style="overflow:visible"
         id="use91-7-7-0"
         overflow="visible"
         xlink:href="#SVGID_15_" />
    </clipPath>
    <clipPath
       clip-path="url(#SVGID_23_)"
       id="clipPath3951">
      <use
         height="100%"
         width="100%"
         y="0"
         x="0"
         style="overflow:visible"
         id="use3953"
         overflow="visible"
         xlink:href="#SVGID_15_" />
    </clipPath>
    <clipPath
       clip-path="url(#SVGID_23_)"
       id="clipPath3955">
      <use
         height="100%"
         width="100%"
         y="0"
         x="0"
         style="overflow:visible"
         id="use3957"
         overflow="visible"
         xlink:href="#SVGID_15_" />
    </clipPath>
    <clipPath
       clip-path="url(#SVGID_23_)"
       id="clipPath3959">
      <use
         height="100%"
         width="100%"
         y="0"
         x="0"
         style="overflow:visible"
         id="use3961"
         overflow="visible"
         xlink:href="#SVGID_15_" />
    </clipPath>
    <clipPath
       clip-path="url(#SVGID_23_)"
       id="clipPath3963">
      <use
         height="100%"
         width="100%"
         y="0"
         x="0"
         style="overflow:visible"
         id="use3965"
         overflow="visible"
         xlink:href="#SVGID_15_" />
    </clipPath>
    <clipPath
       clip-path="url(#SVGID_23_)"
       id="clipPath3967">
      <use
         height="100%"
         width="100%"
         y="0"
         x="0"
         style="overflow:visible"
         id="use3969"
         overflow="visible"
         xlink:href="#SVGID_15_" />
    </clipPath>
    <clipPath
       clip-path="url(#SVGID_23_)"
       id="clipPath3971">
      <use
         height="100%"
         width="100%"
         y="0"
         x="0"
         style="overflow:visible"
         id="use3973"
         overflow="visible"
         xlink:href="#SVGID_15_" />
    </clipPath>
    <clipPath
       clip-path="url(#SVGID_23_)"
       id="clipPath3975">
      <use
         height="100%"
         width="100%"
         y="0"
         x="0"
         style="overflow:visible"
         id="use3977"
         overflow="visible"
         xlink:href="#SVGID_15_" />
    </clipPath>
    <rect
       height="500"
       width="800"
       y="-176"
       x="-130.438"
       id="SVGID_1_" />
    <rect
       height="500"
       width="800"
       y="-176"
       x="-130.438"
       id="SVGID_3_" />
    <rect
       height="146.554"
       width="144.311"
       y="0.72299999"
       x="0.47600001"
       id="SVGID_5_" />
    <rect
       height="500"
       width="800"
       y="-176"
       x="-130.438"
       id="SVGID_7_" />
    <rect
       height="500"
       width="800"
       y="-176"
       x="-130.438"
       id="SVGID_8_" />
    <rect
       height="500"
       width="800"
       y="-176"
       x="-130.438"
       id="SVGID_9_" />
    <rect
       height="500"
       width="800"
       y="-176"
       x="-130.438"
       id="SVGID_10_" />
    <rect
       height="500"
       width="800"
       y="-176"
       x="-130.438"
       id="SVGID_11_" />
    <rect
       height="500"
       width="800"
       y="-176"
       x="-130.438"
       id="SVGID_12_" />
    <rect
       height="500"
       width="800"
       y="-176"
       x="-130.438"
       id="SVGID_13_" />
    <rect
       height="500"
       width="800"
       y="-176"
       x="-130.438"
       id="SVGID_14_" />
    <rect
       height="500"
       width="800"
       y="-176"
       x="-130.438"
       id="SVGID_15_" />
    <clipPath
       id="_clipPath_f0UbNDBXQ8aHAFPmOgnXs5adxYD8xIe2">
      <rect
         id="rect252"
         height="30"
         width="121" />
    </clipPath>
  </defs>
  <title
     id="title14">Artboard 3 copy 40</title>
  <style
     id="style401"
     type="text/css">
	.st0{stroke:#000000;stroke-width:0.7024;stroke-miterlimit:10;}
	.st1{fill-rule:evenodd;clip-rule:evenodd;fill:url(#SVGID_1_);}
	.st2{fill-rule:evenodd;clip-rule:evenodd;fill:url(#SVGID_2_);}
	.st3{fill-rule:evenodd;clip-rule:evenodd;fill:url(#SVGID_3_);}
</style>
  <g
     id="g524"
     transform="matrix(0.32763442,0,0,0.33108194,-3.3589898,-13.966892)">
    <g
       id="Layer_1-7">
      <g
         id="g431" />
      <g
         style="isolation:isolate"
         id="g274"
         transform="matrix(4.2083794,0,0,3.9049737,232.14509,107.31117)">
        <g
           id="g261"
           clip-path="url(#_clipPath_f0UbNDBXQ8aHAFPmOgnXs5adxYD8xIe2)">
          <path
             id="path257"
             d="m 64.043,24.255 0.314,5.176 c -1.631,0.386 -3.304,0.567 -4.98,0.54 -5.167,0 -7.922,-2.177 -7.922,-7.481 0,-4.157 0.079,-8.725 0.118,-11.225 h -2.677 c 0,-1.128 0,-2.745 0,-3.922 4.02,-0.667 5.285,-2.941 5.883,-7.333 H 59.2 c -0.157,1.814 -0.294,4.441 -0.294,6.225 h 4.696 v 5.03 h -4.764 v 9.059 c 0,3.509 0.705,4.47 3.127,4.47 0.727,-0.001 1.442,-0.186 2.078,-0.539 z M 88.71,18.637 c 0,-1.961 0,-4.588 0,-4.588 0,-5.882 -2.578,-8.539 -9.882,-8.539 -4.098,0 -7.02,0.715 -11.598,0.715 0.255,4.138 0.264,9.246 0.245,12.402 -0.02,3.157 -0.108,8.981 -0.245,10.844 h 7.843 c -0.177,-1.863 -0.343,-7.226 -0.314,-10.844 0,-2.058 0,-4.549 0.108,-7.892 0.919,-0.311 1.883,-0.47 2.853,-0.47 2.745,0 3.627,1.284 3.627,4.833 0,0 0,2.226 0,3.529 0,3.216 -0.107,8.981 -0.245,10.844 h 7.843 C 88.847,27.608 88.691,22.245 88.71,18.627 Z m -52.47,1.03 c -0.844,0 -2.275,0 -3,-0.059 v 0.157 c 0,3.333 2.186,5.441 6.235,5.441 2.199,-0.01 4.358,-0.591 6.265,-1.686 l 0.284,5.205 c -2.472,0.906 -5.094,1.336 -7.726,1.265 -8.225,0 -12.176,-2.814 -12.862,-10.441 -0.981,0 -2.353,-0.098 -4.285,-0.108 -0.049,1.343 -0.098,2.53 -0.098,3.52 -0.048,2.175 0.067,4.351 0.343,6.51 -4.509,0 -8,0.5 -11.549,0.5 -6.715,0 -9.078,-2.785 -9.078,-7.53 0,-4.745 3.794,-7.088 11.99,-7.088 h 1.128 v -0.49 c 0,-3.255 -0.981,-4.618 -4.295,-4.618 -2.25,0.067 -4.455,0.654 -6.441,1.716 L 2.877,6.765 C 5.6,5.844 8.464,5.412 11.338,5.49 c 7.186,0 9.892,2.363 9.892,8.883 0,0.362 0,0.715 0,1.058 1.755,0 3.039,0 4.215,0.108 C 26.171,9.108 29.367,5.51 37.436,5.51 c 6.647,0 9.705,2.794 9.705,7 0.04,4.892 -3.676,7.157 -10.901,7.157 z m -22.422,5.509 c -0.118,-1.578 -0.069,-3.862 -0.049,-5.813 -0.275,0 -0.657,0 -0.98,0 -3.412,0 -4.775,1.147 -4.775,3.166 0,2.02 1.069,2.942 3.569,2.942 0.754,-0.008 1.504,-0.107 2.235,-0.295 z m 21.569,-9.47 c 3.156,0 4.666,-1.059 4.666,-3.333 0,-1.618 -1.098,-2.5 -2.794,-2.5 -2.99,0 -4.029,2.392 -4.029,5.656 v 0.118 c 0.568,0.049 1.372,0.059 2.127,0.059 z m 76.99,13.725 c -4.51,0 -8,0.5 -11.549,0.5 -6.716,0 -9.079,-2.784 -9.079,-7.529 0,-4.745 3.785,-7.088 11.991,-7.088 h 1.127 v -0.49 c 0,-3.255 -0.98,-4.618 -4.294,-4.618 -2.251,0.067 -4.455,0.654 -6.441,1.716 L 93.857,6.725 c 2.737,-0.933 5.619,-1.372 8.51,-1.294 7.196,0 9.892,2.363 9.892,8.883 0,3.49 -0.225,6.48 -0.225,8.588 -0.071,2.194 0.024,4.389 0.284,6.569 z m -7.569,-4.294 c -0.117,-1.578 -0.068,-3.862 -0.049,-5.813 -0.274,0 -0.657,0 -0.98,0 -3.412,0 -4.775,1.147 -4.775,3.166 0,2.02 1.069,2.941 3.569,2.941 0.743,0.003 1.483,-0.082 2.206,-0.255 z"
             inkscape:connector-curvature="0"
             style="fill:#7d3f98" />
          <path
             id="path259"
             d="M 114.857,10.539 C 114.593,10.234 114.39,9.882 114.259,9.5 114.12,9.096 114.05,8.672 114.053,8.245 c -0.002,-0.428 0.071,-0.852 0.216,-1.255 0.139,-0.362 0.345,-0.695 0.608,-0.98 0.275,-0.297 0.609,-0.534 0.98,-0.696 0.825,-0.345 1.754,-0.345 2.579,0 0.372,0.16 0.706,0.397 0.98,0.696 0.262,0.286 0.468,0.618 0.608,0.98 0.145,0.402 0.218,0.827 0.216,1.255 0.001,0.428 -0.072,0.852 -0.216,1.255 -0.134,0.383 -0.34,0.735 -0.608,1.039 -0.275,0.297 -0.609,0.534 -0.98,0.696 -0.825,0.345 -1.754,0.345 -2.579,0 -0.379,-0.157 -0.72,-0.395 -1,-0.696 z m 1.196,0.216 c 0.335,0.153 0.7,0.23 1.069,0.225 0.369,0.008 0.734,-0.069 1.069,-0.225 0.3,-0.142 0.567,-0.346 0.784,-0.598 0.218,-0.257 0.384,-0.553 0.49,-0.873 0.111,-0.332 0.167,-0.679 0.167,-1.029 -0.004,-0.334 -0.061,-0.664 -0.167,-0.98 -0.107,-0.317 -0.273,-0.61 -0.49,-0.863 -0.216,-0.253 -0.483,-0.457 -0.784,-0.598 -0.679,-0.295 -1.45,-0.295 -2.128,0 -0.301,0.141 -0.568,0.345 -0.784,0.598 -0.217,0.253 -0.384,0.546 -0.49,0.863 -0.107,0.316 -0.163,0.646 -0.167,0.98 -0.009,0.52 0.116,1.033 0.363,1.49 0.244,0.438 0.617,0.791 1.068,1.01 z m -0.068,-4.471 h 0.558 0.491 c 0.415,-0.039 0.83,0.076 1.166,0.324 0.232,0.21 0.361,0.511 0.353,0.823 0.003,0.15 -0.02,0.3 -0.068,0.442 -0.045,0.124 -0.112,0.241 -0.196,0.343 -0.08,0.097 -0.177,0.18 -0.285,0.245 -0.102,0.064 -0.215,0.111 -0.333,0.137 v 0 l 0.98,1.578 c -0.051,0.032 -0.108,0.055 -0.166,0.069 h -0.157 c -0.092,0 -0.182,-0.02 -0.265,-0.059 -0.092,-0.048 -0.167,-0.124 -0.216,-0.215 l -0.784,-1.304 h -0.48 v 1.529 h -0.579 z m 1.166,1.794 c 0.53,0 0.794,-0.225 0.794,-0.686 0.012,-0.178 -0.065,-0.351 -0.205,-0.461 -0.204,-0.121 -0.441,-0.176 -0.677,-0.156 h -0.284 -0.226 v 0 1.274 z"
             inkscape:connector-curvature="0"
             style="fill:#7d3f98" />
        </g>
      </g>
    </g>
    <g
       id="Layer_2" />
  </g>
</svg>
