<svg id="Layer_1" data-name="Layer 1" xmlns="http://www.w3.org/2000/svg" viewBox="0 0 255.12 85.04"><defs><style>.cls-1{fill:#2b5097;fill-rule:evenodd;}</style></defs><title>Artboard 3 copy 40</title><path class="cls-1" d="M59.64,57.9,62,50.29h9.21l2.12,7.61h7.79L72.93,29.21c-.53-1.95-1.42-2.48-3.37-2.48H58.23v2.66h.88c1.6,0,2.13.35,2.13,1.41a7.13,7.13,0,0,1-.53,2.66L52.56,57.9ZM70.09,45.33H63l3.72-12.4,3.36,12.4Z"/><path class="cls-1" d="M90.46,57.9V29a2.06,2.06,0,0,0-2.3-2.3H81.25v2.66h.36c1.41,0,1.94.53,1.94,1.77V57.9Z"/><path class="cls-1" d="M103,57.9V29a2.14,2.14,0,0,0-2.31-2.3h-6.9v2.66h.35c1.24,0,1.95.53,1.95,1.77V57.9Z"/><path class="cls-1" d="M115.61,57.9V36.82a2.09,2.09,0,0,0-2.12-2.3H106.4V37h.36a1.7,1.7,0,0,1,1.94,2V57.9Zm.18-28.34c0-2.12-1.42-3.36-4.07-3.36-2.48,0-4.08,1.24-4.08,3.36s1.6,3.19,4.08,3.19c2.65,0,4.07-1.06,4.07-3.19Z"/><path class="cls-1" d="M122.34,40.9l.71-.18a17,17,0,0,1,4.07-1.24,9.26,9.26,0,0,1,2.13-.18c2.12,0,3,.71,3,2.84v.53c-3.37.53-4.25.71-5.85,1.06a13.2,13.2,0,0,0-2.83.89c-2.83,1.24-4.07,3.36-4.07,6.9,0,4.43,1.77,6.56,5.66,6.56A9.18,9.18,0,0,0,129.6,57a16.86,16.86,0,0,0,2.84-2.13v.71c0,1.59.71,2.3,1.94,2.3h6.56V55.42h-.18c-1.24,0-1.95-.53-1.95-1.77V42.14c0-5.85-1.95-8-7.79-8a26.94,26.94,0,0,0-5.49.71,15.63,15.63,0,0,0-4.78,1.77l1.59,4.25Zm9.92,5.67v4.6A6.12,6.12,0,0,1,128,53.3c-1.6,0-2.13-.71-2.13-2.48s.53-2.66,2-3.19a17.84,17.84,0,0,1,4.43-1.06Z"/><path class="cls-1" d="M151.57,57.9V42c1.59-1.42,2.65-2,4.25-2s2.12.71,2.12,3V57.9h6.73V42c0-3.36-.35-4.6-1.24-5.84A5.38,5.38,0,0,0,159,34.35c-2.65,0-4.78.88-7.79,3.54V36.65c0-1.42-.53-2.13-2-2.13h-6.91V37h.36a1.7,1.7,0,0,1,1.95,2V57.9Z"/><path class="cls-1" d="M186.28,53.3H175.83l10.09-14V34.52H171.05c-1.77,0-2.48.71-2.48,2.48v4.25h2.48v-.53c0-1.24.53-1.77,1.95-1.77h5.49l-10.1,14v5h17.89V53.3Z"/><path class="cls-1" d="M247.56,43.38c0-14.53-10.8-25.15-25.33-25.15-14.34,0-25,10.62-25,25.15,0,14.34,10.63,25.15,25.15,25.15,14.35,0,25.15-10.81,25.15-25.15Zm-4.25,0c0,12.22-8.86,21.25-21.08,21.25-12,0-20.72-9-20.72-21.25,0-12.4,8.68-21.26,20.72-21.26,12.22,0,21.08,8.86,21.08,21.26ZM215.5,56.48V33.81h-3.72c-1.95,0-2.83.89-2.83,2.84V56.48Zm13.64,0h6.55V36.65c0-1.95-.71-2.84-2.83-2.84h-3.72V56.48Zm-3.54,0V30.27c0-2.12-.71-2.83-2.84-2.83h-6v2.83h.53c1.42,0,1.77.35,1.77,1.77V56.48Z"/></svg>