<svg id="Layer_1" data-name="Layer 1" xmlns="http://www.w3.org/2000/svg" viewBox="0 0 255.12 85.04"><defs><style>.cls-1{fill:#ec174c;}.cls-2{fill:#002f5e;}</style></defs><title>Artboard 3 copy 39</title><path class="cls-1" d="M79.56,75.75s96.85-23.8,168.61-7l.22-.78S185.78,49.45,80.76,72Z"/><path class="cls-2" d="M125.92,29.06V33a7.13,7.13,0,0,1,2-2.87,8,8,0,0,1,5.12-1.75,8.68,8.68,0,0,1,2.89.51,6.86,6.86,0,0,1,4.2,4.5,8.81,8.81,0,0,1,8-4.95,8.45,8.45,0,0,1,6,2.31c2.54,2.48,2.64,5.18,2.64,11.94V58.23h-7.45V44.43c0-4.67-.1-5.63-.86-6.87a3.3,3.3,0,0,0-3.1-1.63,3.86,3.86,0,0,0-3.19,1.69c-.81,1.41-.81,3.83-.81,6.19V58.23h-7.45V43.53c0-3.15,0-4.56-.76-5.86a3.56,3.56,0,0,0-3-1.74,4,4,0,0,0-1.93.51C126,37.67,126,39.81,126,45.33v12.9h-7.45V29.06Z"/><path class="cls-2" d="M186.42,29.06H194l-7.6,29.17h-6.95l-4.41-19.71L170.7,58.23h-7l-7.61-29.17h7.61l4,18.24,4.11-18.24h6.59l4,18.24Z"/><path class="cls-2" d="M209.66,43.31c0,2.64-.35,5.18-1.92,7.09A4.36,4.36,0,0,1,204.49,52c-1.46,0-3.14-.91-4.15-3.44a13.19,13.19,0,0,1-.81-5,11.21,11.21,0,0,1,1.57-6.42A4.74,4.74,0,0,1,204.8,35a4,4,0,0,1,3,1.46C208.75,37.56,209.66,39.53,209.66,43.31Zm.39,14.92h7.3V29H210.2v3.78a7,7,0,0,0-6.48-4.45c-5,0-11.46,4.28-11.46,15.76,0,9.13,4.66,14.76,10.9,14.76A7.61,7.61,0,0,0,210.05,55Z"/><path class="cls-2" d="M234.55,29.06h7.58L233.79,58c-.61,2-1.57,5.36-3,7-1.37,1.46-3,2.14-9,2.14-.86,0-1.22-.06-2-.11V60.54h2c.71,0,2.38,0,3.14-.73A4.17,4.17,0,0,0,226,56.88a9.83,9.83,0,0,0-.56-2.48l-8.11-25.34h8.11l4.77,19.65Z"/><path class="cls-2" d="M101.88,27.13l4,15.35H98.09Zm-4.72-8.75L84.64,58.23h9.19l2.34-8.47H107.9l2.39,8.47h9.25l-13-39.85Z"/><path class="cls-2" d="M241,63.44h-.68l0-1.88c0-.2,0-.55,0-.67l-.15.54-.61,2H239l-.62-2c0-.08-.13-.44-.15-.52a5.23,5.23,0,0,1,0,.65l0,1.88h-.68V60.17h.9l.79,2.47.75-2.47H241Zm-4.63,0h-.69V60.75h-1v-.58h2.73v.58h-1Z"/></svg>