<?xml version="1.0" encoding="UTF-8" standalone="no"?>
<svg
   xmlns:dc="http://purl.org/dc/elements/1.1/"
   xmlns:cc="http://creativecommons.org/ns#"
   xmlns:rdf="http://www.w3.org/1999/02/22-rdf-syntax-ns#"
   xmlns:svg="http://www.w3.org/2000/svg"
   xmlns="http://www.w3.org/2000/svg"
   xmlns:xlink="http://www.w3.org/1999/xlink"
   xmlns:sodipodi="http://sodipodi.sourceforge.net/DTD/sodipodi-0.dtd"
   xmlns:inkscape="http://www.inkscape.org/namespaces/inkscape"
   id="Layer_1"
   data-name="Layer 1"
   viewBox="0 0 255.12 85.04"
   version="1.1"
   sodipodi:docname="Amynta.svg"
   inkscape:version="0.92.4 (5da689c313, 2019-01-14)">
  <metadata
     id="metadata35">
    <rdf:RDF>
      <cc:Work
         rdf:about="">
        <dc:format>image/svg+xml</dc:format>
        <dc:type
           rdf:resource="http://purl.org/dc/dcmitype/StillImage" />
        <dc:title>Artboard 3 copy 40</dc:title>
      </cc:Work>
    </rdf:RDF>
  </metadata>
  <sodipodi:namedview
     pagecolor="#ffffff"
     bordercolor="#666666"
     borderopacity="1"
     objecttolerance="10"
     gridtolerance="10"
     guidetolerance="10"
     inkscape:pageopacity="0"
     inkscape:pageshadow="2"
     inkscape:window-width="1366"
     inkscape:window-height="705"
     id="namedview33"
     showgrid="false"
     inkscape:zoom="1.28"
     inkscape:cx="60.674694"
     inkscape:cy="77.905991"
     inkscape:window-x="-8"
     inkscape:window-y="-8"
     inkscape:window-maximized="1"
     inkscape:current-layer="Layer_1-7" />
  <defs
     id="defs12">
    <style
       id="style10">.cls-1{fill:#2b5097;fill-rule:evenodd;}</style>
    <clipPath
       clip-path="url(#SVGID_23_)"
       id="SVGID_24_-2">
      <use
         height="100%"
         width="100%"
         y="0"
         x="0"
         style="overflow:visible"
         id="use91-7"
         overflow="visible"
         xlink:href="#SVGID_15_" />
    </clipPath>
    <clipPath
       clip-path="url(#SVGID_23_)"
       id="clipPath3453">
      <use
         height="100%"
         width="100%"
         y="0"
         x="0"
         style="overflow:visible"
         id="use3455"
         overflow="visible"
         xlink:href="#SVGID_15_" />
    </clipPath>
    <clipPath
       clip-path="url(#SVGID_23_)"
       id="clipPath3457">
      <use
         height="100%"
         width="100%"
         y="0"
         x="0"
         style="overflow:visible"
         id="use3459"
         overflow="visible"
         xlink:href="#SVGID_15_" />
    </clipPath>
    <clipPath
       clip-path="url(#SVGID_23_)"
       id="clipPath3461">
      <use
         height="100%"
         width="100%"
         y="0"
         x="0"
         style="overflow:visible"
         id="use3463"
         overflow="visible"
         xlink:href="#SVGID_15_" />
    </clipPath>
    <clipPath
       clip-path="url(#SVGID_23_)"
       id="clipPath3465">
      <use
         height="100%"
         width="100%"
         y="0"
         x="0"
         style="overflow:visible"
         id="use3467"
         overflow="visible"
         xlink:href="#SVGID_15_" />
    </clipPath>
    <clipPath
       clip-path="url(#SVGID_23_)"
       id="clipPath3469">
      <use
         height="100%"
         width="100%"
         y="0"
         x="0"
         style="overflow:visible"
         id="use3471"
         overflow="visible"
         xlink:href="#SVGID_15_" />
    </clipPath>
    <clipPath
       clip-path="url(#SVGID_23_)"
       id="clipPath3473">
      <use
         height="100%"
         width="100%"
         y="0"
         x="0"
         style="overflow:visible"
         id="use3475"
         overflow="visible"
         xlink:href="#SVGID_15_" />
    </clipPath>
    <clipPath
       clip-path="url(#SVGID_23_)"
       id="clipPath3477">
      <use
         height="100%"
         width="100%"
         y="0"
         x="0"
         style="overflow:visible"
         id="use3479"
         overflow="visible"
         xlink:href="#SVGID_15_" />
    </clipPath>
    <clipPath
       id="SVGID_6_-3">
      <use
         height="100%"
         width="100%"
         y="0"
         x="0"
         style="overflow:visible"
         id="use33-6"
         overflow="visible"
         xlink:href="#SVGID_5_" />
    </clipPath>
    <clipPath
       clip-path="url(#SVGID_23_)"
       id="clipPath3483">
      <use
         height="100%"
         width="100%"
         y="0"
         x="0"
         style="overflow:visible"
         id="use3485"
         overflow="visible"
         xlink:href="#SVGID_15_" />
    </clipPath>
    <clipPath
       clip-path="url(#SVGID_23_)"
       id="SVGID_24_-2-4">
      <use
         height="100%"
         width="100%"
         y="0"
         x="0"
         style="overflow:visible"
         id="use91-7-4"
         overflow="visible"
         xlink:href="#SVGID_15_" />
    </clipPath>
    <clipPath
       clip-path="url(#SVGID_23_)"
       id="clipPath3626">
      <use
         height="100%"
         width="100%"
         y="0"
         x="0"
         style="overflow:visible"
         id="use3628"
         overflow="visible"
         xlink:href="#SVGID_15_" />
    </clipPath>
    <clipPath
       clip-path="url(#SVGID_23_)"
       id="clipPath3630">
      <use
         height="100%"
         width="100%"
         y="0"
         x="0"
         style="overflow:visible"
         id="use3632"
         overflow="visible"
         xlink:href="#SVGID_15_" />
    </clipPath>
    <clipPath
       clip-path="url(#SVGID_23_)"
       id="clipPath3634">
      <use
         height="100%"
         width="100%"
         y="0"
         x="0"
         style="overflow:visible"
         id="use3636"
         overflow="visible"
         xlink:href="#SVGID_15_" />
    </clipPath>
    <clipPath
       clip-path="url(#SVGID_23_)"
       id="clipPath3638">
      <use
         height="100%"
         width="100%"
         y="0"
         x="0"
         style="overflow:visible"
         id="use3640"
         overflow="visible"
         xlink:href="#SVGID_15_" />
    </clipPath>
    <clipPath
       clip-path="url(#SVGID_23_)"
       id="clipPath3642">
      <use
         height="100%"
         width="100%"
         y="0"
         x="0"
         style="overflow:visible"
         id="use3644"
         overflow="visible"
         xlink:href="#SVGID_15_" />
    </clipPath>
    <clipPath
       clip-path="url(#SVGID_23_)"
       id="clipPath3646">
      <use
         height="100%"
         width="100%"
         y="0"
         x="0"
         style="overflow:visible"
         id="use3648"
         overflow="visible"
         xlink:href="#SVGID_15_" />
    </clipPath>
    <clipPath
       clip-path="url(#SVGID_23_)"
       id="clipPath3650">
      <use
         height="100%"
         width="100%"
         y="0"
         x="0"
         style="overflow:visible"
         id="use3652"
         overflow="visible"
         xlink:href="#SVGID_15_" />
    </clipPath>
    <clipPath
       clip-path="url(#SVGID_23_)"
       id="SVGID_24_-2-8">
      <use
         height="100%"
         width="100%"
         y="0"
         x="0"
         style="overflow:visible"
         id="use91-7-7"
         overflow="visible"
         xlink:href="#SVGID_15_" />
    </clipPath>
    <clipPath
       clip-path="url(#SVGID_23_)"
       id="clipPath3790">
      <use
         height="100%"
         width="100%"
         y="0"
         x="0"
         style="overflow:visible"
         id="use3792"
         overflow="visible"
         xlink:href="#SVGID_15_" />
    </clipPath>
    <clipPath
       clip-path="url(#SVGID_23_)"
       id="clipPath3794">
      <use
         height="100%"
         width="100%"
         y="0"
         x="0"
         style="overflow:visible"
         id="use3796"
         overflow="visible"
         xlink:href="#SVGID_15_" />
    </clipPath>
    <clipPath
       clip-path="url(#SVGID_23_)"
       id="clipPath3798">
      <use
         height="100%"
         width="100%"
         y="0"
         x="0"
         style="overflow:visible"
         id="use3800"
         overflow="visible"
         xlink:href="#SVGID_15_" />
    </clipPath>
    <clipPath
       clip-path="url(#SVGID_23_)"
       id="clipPath3802">
      <use
         height="100%"
         width="100%"
         y="0"
         x="0"
         style="overflow:visible"
         id="use3804"
         overflow="visible"
         xlink:href="#SVGID_15_" />
    </clipPath>
    <clipPath
       clip-path="url(#SVGID_23_)"
       id="clipPath3806">
      <use
         height="100%"
         width="100%"
         y="0"
         x="0"
         style="overflow:visible"
         id="use3808"
         overflow="visible"
         xlink:href="#SVGID_15_" />
    </clipPath>
    <clipPath
       clip-path="url(#SVGID_23_)"
       id="clipPath3810">
      <use
         height="100%"
         width="100%"
         y="0"
         x="0"
         style="overflow:visible"
         id="use3812"
         overflow="visible"
         xlink:href="#SVGID_15_" />
    </clipPath>
    <clipPath
       clip-path="url(#SVGID_23_)"
       id="clipPath3814">
      <use
         height="100%"
         width="100%"
         y="0"
         x="0"
         style="overflow:visible"
         id="use3816"
         overflow="visible"
         xlink:href="#SVGID_15_" />
    </clipPath>
    <clipPath
       clip-path="url(#SVGID_23_)"
       id="clipPath3818">
      <use
         height="100%"
         width="100%"
         y="0"
         x="0"
         style="overflow:visible"
         id="use3820"
         overflow="visible"
         xlink:href="#SVGID_15_" />
    </clipPath>
    <clipPath
       id="SVGID_6_-3-4">
      <use
         height="100%"
         width="100%"
         y="0"
         x="0"
         style="overflow:visible"
         id="use33-6-5"
         overflow="visible"
         xlink:href="#SVGID_5_" />
    </clipPath>
    <clipPath
       clip-path="url(#SVGID_23_)"
       id="SVGID_24_-2-8-1">
      <use
         height="100%"
         width="100%"
         y="0"
         x="0"
         style="overflow:visible"
         id="use91-7-7-4"
         overflow="visible"
         xlink:href="#SVGID_15_" />
    </clipPath>
    <clipPath
       id="SVGID_6_-3-4-6">
      <use
         height="100%"
         width="100%"
         y="0"
         x="0"
         style="overflow:visible"
         id="use33-6-5-6"
         overflow="visible"
         xlink:href="#SVGID_5_" />
    </clipPath>
    <clipPath
       clip-path="url(#SVGID_23_)"
       id="SVGID_24_-2-8-3">
      <use
         height="100%"
         width="100%"
         y="0"
         x="0"
         style="overflow:visible"
         id="use91-7-7-0"
         overflow="visible"
         xlink:href="#SVGID_15_" />
    </clipPath>
    <clipPath
       clip-path="url(#SVGID_23_)"
       id="clipPath3951">
      <use
         height="100%"
         width="100%"
         y="0"
         x="0"
         style="overflow:visible"
         id="use3953"
         overflow="visible"
         xlink:href="#SVGID_15_" />
    </clipPath>
    <clipPath
       clip-path="url(#SVGID_23_)"
       id="clipPath3955">
      <use
         height="100%"
         width="100%"
         y="0"
         x="0"
         style="overflow:visible"
         id="use3957"
         overflow="visible"
         xlink:href="#SVGID_15_" />
    </clipPath>
    <clipPath
       clip-path="url(#SVGID_23_)"
       id="clipPath3959">
      <use
         height="100%"
         width="100%"
         y="0"
         x="0"
         style="overflow:visible"
         id="use3961"
         overflow="visible"
         xlink:href="#SVGID_15_" />
    </clipPath>
    <clipPath
       clip-path="url(#SVGID_23_)"
       id="clipPath3963">
      <use
         height="100%"
         width="100%"
         y="0"
         x="0"
         style="overflow:visible"
         id="use3965"
         overflow="visible"
         xlink:href="#SVGID_15_" />
    </clipPath>
    <clipPath
       clip-path="url(#SVGID_23_)"
       id="clipPath3967">
      <use
         height="100%"
         width="100%"
         y="0"
         x="0"
         style="overflow:visible"
         id="use3969"
         overflow="visible"
         xlink:href="#SVGID_15_" />
    </clipPath>
    <clipPath
       clip-path="url(#SVGID_23_)"
       id="clipPath3971">
      <use
         height="100%"
         width="100%"
         y="0"
         x="0"
         style="overflow:visible"
         id="use3973"
         overflow="visible"
         xlink:href="#SVGID_15_" />
    </clipPath>
    <clipPath
       clip-path="url(#SVGID_23_)"
       id="clipPath3975">
      <use
         height="100%"
         width="100%"
         y="0"
         x="0"
         style="overflow:visible"
         id="use3977"
         overflow="visible"
         xlink:href="#SVGID_15_" />
    </clipPath>
    <rect
       height="500"
       width="800"
       y="-176"
       x="-130.438"
       id="SVGID_1_" />
    <rect
       height="500"
       width="800"
       y="-176"
       x="-130.438"
       id="SVGID_3_" />
    <rect
       height="146.554"
       width="144.311"
       y="0.72299999"
       x="0.47600001"
       id="SVGID_5_" />
    <rect
       height="500"
       width="800"
       y="-176"
       x="-130.438"
       id="SVGID_7_" />
    <rect
       height="500"
       width="800"
       y="-176"
       x="-130.438"
       id="SVGID_8_" />
    <rect
       height="500"
       width="800"
       y="-176"
       x="-130.438"
       id="SVGID_9_" />
    <rect
       height="500"
       width="800"
       y="-176"
       x="-130.438"
       id="SVGID_10_" />
    <rect
       height="500"
       width="800"
       y="-176"
       x="-130.438"
       id="SVGID_11_" />
    <rect
       height="500"
       width="800"
       y="-176"
       x="-130.438"
       id="SVGID_12_" />
    <rect
       height="500"
       width="800"
       y="-176"
       x="-130.438"
       id="SVGID_13_" />
    <rect
       height="500"
       width="800"
       y="-176"
       x="-130.438"
       id="SVGID_14_" />
    <rect
       height="500"
       width="800"
       y="-176"
       x="-130.438"
       id="SVGID_15_" />
  </defs>
  <title
     id="title14">Artboard 3 copy 40</title>
  <style
     id="style401"
     type="text/css">
	.st0{stroke:#000000;stroke-width:0.7024;stroke-miterlimit:10;}
	.st1{fill-rule:evenodd;clip-rule:evenodd;fill:url(#SVGID_1_);}
	.st2{fill-rule:evenodd;clip-rule:evenodd;fill:url(#SVGID_2_);}
	.st3{fill-rule:evenodd;clip-rule:evenodd;fill:url(#SVGID_3_);}
</style>
  <g
     id="g524"
     transform="matrix(0.32763442,0,0,0.33108194,-3.3589898,-13.966892)">
    <g
       id="Layer_1-7">
      <g
         id="g431" />
      <g
         id="g472"
         transform="matrix(0.9081056,0,0,0.9306243,81.539811,42.647866)">
        <g
           id="g447">
          <g
             id="g445">
            <path
               id="path433"
               d="m 143.1,100.9 v 76.6 h -25.6 v -7.6 c -5.1,6.1 -12.6,8.9 -22.6,8.9 -20.8,0 -37.6,-15.3 -37.6,-39.7 0,-24.3 16.8,-39.4 37.6,-39.4 8.9,0 16.1,2.5 21.3,7.9 V 101 h 26.9 z m -26.4,38.2 c 0,-11.6 -7.1,-18.1 -16.1,-18.1 -9,0 -16.1,6.5 -16.1,18.1 0,11.7 7.1,18.4 16.1,18.4 9,0 16.1,-6.7 16.1,-18.4 z"
               class="st0"
               inkscape:connector-curvature="0"
               style="stroke:#000000;stroke-width:0.70240003;stroke-miterlimit:10" />
            <path
               id="path435"
               d="m 287.5,133.7 v 43.8 h -26.9 v -39.4 c 0,-11 -4.5,-15.7 -11.6,-15.7 -7.8,0 -13.4,5.2 -13.4,17.1 v 38 h -26.9 v -39.4 c 0,-11 -4.4,-15.7 -11.6,-15.7 -7.9,0 -13.6,5.2 -13.6,17.1 v 38 h -26.9 v -76.6 h 25.6 v 8.1 c 5.8,-6.2 13.9,-9.3 22.9,-9.3 10.5,0 19.4,3.8 24.7,12 6.1,-7.6 15.5,-12 26.6,-12 18,-0.1 31.1,10.3 31.1,34 z"
               class="st0"
               inkscape:connector-curvature="0"
               style="stroke:#000000;stroke-width:0.70240003;stroke-miterlimit:10" />
            <path
               id="path437"
               d="m 378.5,100.9 v 62.6 c 0,29 -16.3,42.7 -44.1,42.7 -14.6,0 -28.1,-3.4 -37.3,-10 l 9.8,-18.8 c 6.1,5.1 16.1,8.2 25,8.2 13.9,0 19.8,-6.5 19.8,-18.5 v -1.7 c -5.8,5.5 -13.3,8.2 -21.5,8.2 -18.8,0 -32.5,-10.7 -32.5,-35.1 v -37.6 h 26.9 v 33.2 c 0,12 4.7,16.7 12.7,16.7 7.9,0 14.4,-5.4 14.4,-18.1 v -31.8 z"
               class="st0"
               inkscape:connector-curvature="0"
               style="stroke:#000000;stroke-width:0.70240003;stroke-miterlimit:10" />
            <path
               id="path439"
               d="m 473.8,133.7 v 43.8 H 447 v -39.4 c 0,-11 -4.8,-15.7 -12.6,-15.7 -8.6,0 -15.3,5.4 -15.3,18.1 v 37 h -26.9 v -76.6 h 25.6 v 8.3 c 6.1,-6.4 14.7,-9.6 24.3,-9.6 18,0 31.7,10.4 31.7,34.1 z"
               class="st0"
               inkscape:connector-curvature="0"
               style="stroke:#000000;stroke-width:0.70240003;stroke-miterlimit:10" />
            <path
               id="path441"
               d="m 537.8,174.4 c -4.7,3 -11.6,4.4 -18.7,4.4 -19.6,0 -31,-9.6 -31,-29.3 V 83.8 H 515 v 19.9 h 17.4 v 20.1 H 515 v 25.4 c 0,5.7 3.1,8.8 7.9,8.8 3,0 5.9,-0.8 8.2,-2.4 z"
               class="st0"
               inkscape:connector-curvature="0"
               style="stroke:#000000;stroke-width:0.70240003;stroke-miterlimit:10" />
            <path
               id="path443"
               d="m 626.2,100.9 v 76.6 h -25.6 v -7.6 c -5.1,6.1 -12.6,8.9 -22.6,8.9 -20.8,0 -37.6,-15.3 -37.6,-39.7 0,-24.3 16.8,-39.4 37.6,-39.4 8.9,0 16.1,2.5 21.3,7.9 V 101 h 26.9 z m -26.5,38.2 c 0,-11.6 -7.1,-18.1 -16.1,-18.1 -9,0 -16.1,6.5 -16.1,18.1 0,11.7 7.1,18.4 16.1,18.4 9,0 16.1,-6.7 16.1,-18.4 z"
               class="st0"
               inkscape:connector-curvature="0"
               style="stroke:#000000;stroke-width:0.70240003;stroke-miterlimit:10" />
          </g>
        </g>
        <g
           id="g470">
          <linearGradient
             y2="74.171997"
             x2="731.23218"
             y1="161.1662"
             x1="731.23218"
             gradientUnits="userSpaceOnUse"
             id="SVGID_1_-2">
            <stop
               id="stop449"
               style="stop-color:#551155"
               offset="0" />
            <stop
               id="stop451"
               style="stop-color:#993399"
               offset="1" />
          </linearGradient>
          <path
             style="clip-rule:evenodd;fill:url(#SVGID_1_-2);fill-rule:evenodd"
             id="path454"
             d="m 748.4,135 c -0.6,1.2 -1.2,2.4 -1.9,3.6 -0.9,1.6 -1.7,3.1 -2.7,4.7 -4.1,6.6 -8.9,12.6 -14.4,17.9 l -0.2,-0.1 -5.8,-3.3 -11.8,-6.8 c -2.3,-1.3 -4.6,-2.8 -6.8,-4.5 5.4,-4.1 10.1,-9 14,-14.6 0.7,-1.1 1.3,-2.1 2,-3.1 6.3,-10.2 9.6,-21.8 9.6,-33.9 0,-6.8 0,-13.9 0,-20.7 10.2,3 18.2,7.6 27.2,12.8 v 7.8 c 0,12.1 -2.3,23.8 -6.9,34.8 -0.7,1.8 -1.5,3.6 -2.3,5.4 z"
             class="st1"
             inkscape:connector-curvature="0" />
          <linearGradient
             y2="93.618401"
             x2="719.03082"
             y1="93.622299"
             x1="663.04211"
             gradientUnits="userSpaceOnUse"
             id="SVGID_2_-3">
            <stop
               id="stop456"
               style="stop-color:#FFDD00"
               offset="0" />
            <stop
               id="stop458"
               style="stop-color:#FF9900"
               offset="1" />
          </linearGradient>
          <path
             style="clip-rule:evenodd;fill:url(#SVGID_2_-3);fill-rule:evenodd"
             id="path461"
             d="m 698.2,70.8 c 1.4,-0.1 2.7,-0.2 4.1,-0.2 1.9,-0.1 3.5,0 5.4,0 7.7,0.2 15.3,1.4 22.7,3.5 v 0.2 6.7 c 0,7 0.4,14.8 -0.5,21.7 -6.2,-2.6 -12.9,-4.2 -19.7,-4.8 -1.3,-0.1 -2.5,-0.1 -3.7,-0.2 -11.9,-0.3 -23.7,2.6 -34.1,8.6 -5.9,3.4 -11.8,6.9 -17.7,10.3 -1.8,-7.3 -2.7,-14.7 -2.7,-22.1 v -7.8 l 6.7,-3.9 c 10.5,-6.1 21.8,-9.9 33.6,-11.5 2.1,-0.1 4,-0.3 5.9,-0.5 z"
             class="st2"
             inkscape:connector-curvature="0" />
          <linearGradient
             y2="158.0079"
             x2="703.38849"
             y1="123.9814"
             x1="672.76398"
             gradientUnits="userSpaceOnUse"
             id="SVGID_3_-3">
            <stop
               id="stop463"
               style="stop-color:#AA1133"
               offset="0" />
            <stop
               id="stop465"
               style="stop-color:#FF0000"
               offset="1" />
          </linearGradient>
          <path
             style="clip-rule:evenodd;fill:url(#SVGID_3_-3);fill-rule:evenodd"
             id="path468"
             d="m 667.9,146.2 c -0.8,-1.1 -1.5,-2.3 -2.2,-3.4 -1,-1.6 -1.8,-3 -2.7,-4.7 -3.7,-6.8 -6.4,-14 -8.3,-21.5 l 0.2,-0.1 5.8,-3.4 11.7,-6.8 c 2.3,-1.3 4.8,-2.6 7.3,-3.6 0.9,6.7 2.8,13.3 5.7,19.4 0.5,1.2 1.1,2.2 1.7,3.3 5.7,10.5 14.1,19.3 24.5,25.3 5.9,3.4 12,6.9 17.9,10.3 -5.4,5.2 -11.5,9.6 -17.9,13.3 l -6.8,3.9 -6.8,-3.9 c -10.5,-6 -19.5,-13.9 -26.7,-23.4 -1.2,-1.5 -2.3,-3.1 -3.4,-4.7 z"
             class="st3"
             inkscape:connector-curvature="0" />
        </g>
      </g>
    </g>
    <g
       id="Layer_2" />
  </g>
</svg>
