<?xml version="1.0" encoding="UTF-8" standalone="no"?>
<svg
   xmlns:dc="http://purl.org/dc/elements/1.1/"
   xmlns:cc="http://creativecommons.org/ns#"
   xmlns:rdf="http://www.w3.org/1999/02/22-rdf-syntax-ns#"
   xmlns:svg="http://www.w3.org/2000/svg"
   xmlns="http://www.w3.org/2000/svg"
   xmlns:xlink="http://www.w3.org/1999/xlink"
   xmlns:sodipodi="http://sodipodi.sourceforge.net/DTD/sodipodi-0.dtd"
   xmlns:inkscape="http://www.inkscape.org/namespaces/inkscape"
   id="Layer_1"
   data-name="Layer 1"
   viewBox="0 0 255.12 85.04"
   version="1.1"
   sodipodi:docname="Aura.svg"
   inkscape:version="0.92.4 (5da689c313, 2019-01-14)">
  <metadata
     id="metadata35">
    <rdf:RDF>
      <cc:Work
         rdf:about="">
        <dc:format>image/svg+xml</dc:format>
        <dc:type
           rdf:resource="http://purl.org/dc/dcmitype/StillImage" />
        <dc:title>Artboard 3 copy 40</dc:title>
      </cc:Work>
    </rdf:RDF>
  </metadata>
  <sodipodi:namedview
     pagecolor="#ffffff"
     bordercolor="#666666"
     borderopacity="1"
     objecttolerance="10"
     gridtolerance="10"
     guidetolerance="10"
     inkscape:pageopacity="0"
     inkscape:pageshadow="2"
     inkscape:window-width="1366"
     inkscape:window-height="705"
     id="namedview33"
     showgrid="false"
     inkscape:zoom="1.28"
     inkscape:cx="60.674694"
     inkscape:cy="77.905991"
     inkscape:window-x="-8"
     inkscape:window-y="-8"
     inkscape:window-maximized="1"
     inkscape:current-layer="Layer_1-7" />
  <defs
     id="defs12">
    <style
       id="style10">.cls-1{fill:#2b5097;fill-rule:evenodd;}</style>
    <clipPath
       clip-path="url(#SVGID_23_)"
       id="SVGID_24_-2">
      <use
         height="100%"
         width="100%"
         y="0"
         x="0"
         style="overflow:visible"
         id="use91-7"
         overflow="visible"
         xlink:href="#SVGID_15_" />
    </clipPath>
    <clipPath
       clip-path="url(#SVGID_23_)"
       id="clipPath3453">
      <use
         height="100%"
         width="100%"
         y="0"
         x="0"
         style="overflow:visible"
         id="use3455"
         overflow="visible"
         xlink:href="#SVGID_15_" />
    </clipPath>
    <clipPath
       clip-path="url(#SVGID_23_)"
       id="clipPath3457">
      <use
         height="100%"
         width="100%"
         y="0"
         x="0"
         style="overflow:visible"
         id="use3459"
         overflow="visible"
         xlink:href="#SVGID_15_" />
    </clipPath>
    <clipPath
       clip-path="url(#SVGID_23_)"
       id="clipPath3461">
      <use
         height="100%"
         width="100%"
         y="0"
         x="0"
         style="overflow:visible"
         id="use3463"
         overflow="visible"
         xlink:href="#SVGID_15_" />
    </clipPath>
    <clipPath
       clip-path="url(#SVGID_23_)"
       id="clipPath3465">
      <use
         height="100%"
         width="100%"
         y="0"
         x="0"
         style="overflow:visible"
         id="use3467"
         overflow="visible"
         xlink:href="#SVGID_15_" />
    </clipPath>
    <clipPath
       clip-path="url(#SVGID_23_)"
       id="clipPath3469">
      <use
         height="100%"
         width="100%"
         y="0"
         x="0"
         style="overflow:visible"
         id="use3471"
         overflow="visible"
         xlink:href="#SVGID_15_" />
    </clipPath>
    <clipPath
       clip-path="url(#SVGID_23_)"
       id="clipPath3473">
      <use
         height="100%"
         width="100%"
         y="0"
         x="0"
         style="overflow:visible"
         id="use3475"
         overflow="visible"
         xlink:href="#SVGID_15_" />
    </clipPath>
    <clipPath
       clip-path="url(#SVGID_23_)"
       id="clipPath3477">
      <use
         height="100%"
         width="100%"
         y="0"
         x="0"
         style="overflow:visible"
         id="use3479"
         overflow="visible"
         xlink:href="#SVGID_15_" />
    </clipPath>
    <clipPath
       id="SVGID_6_-3">
      <use
         height="100%"
         width="100%"
         y="0"
         x="0"
         style="overflow:visible"
         id="use33-6"
         overflow="visible"
         xlink:href="#SVGID_5_" />
    </clipPath>
    <clipPath
       clip-path="url(#SVGID_23_)"
       id="clipPath3483">
      <use
         height="100%"
         width="100%"
         y="0"
         x="0"
         style="overflow:visible"
         id="use3485"
         overflow="visible"
         xlink:href="#SVGID_15_" />
    </clipPath>
    <clipPath
       clip-path="url(#SVGID_23_)"
       id="SVGID_24_-2-4">
      <use
         height="100%"
         width="100%"
         y="0"
         x="0"
         style="overflow:visible"
         id="use91-7-4"
         overflow="visible"
         xlink:href="#SVGID_15_" />
    </clipPath>
    <clipPath
       clip-path="url(#SVGID_23_)"
       id="clipPath3626">
      <use
         height="100%"
         width="100%"
         y="0"
         x="0"
         style="overflow:visible"
         id="use3628"
         overflow="visible"
         xlink:href="#SVGID_15_" />
    </clipPath>
    <clipPath
       clip-path="url(#SVGID_23_)"
       id="clipPath3630">
      <use
         height="100%"
         width="100%"
         y="0"
         x="0"
         style="overflow:visible"
         id="use3632"
         overflow="visible"
         xlink:href="#SVGID_15_" />
    </clipPath>
    <clipPath
       clip-path="url(#SVGID_23_)"
       id="clipPath3634">
      <use
         height="100%"
         width="100%"
         y="0"
         x="0"
         style="overflow:visible"
         id="use3636"
         overflow="visible"
         xlink:href="#SVGID_15_" />
    </clipPath>
    <clipPath
       clip-path="url(#SVGID_23_)"
       id="clipPath3638">
      <use
         height="100%"
         width="100%"
         y="0"
         x="0"
         style="overflow:visible"
         id="use3640"
         overflow="visible"
         xlink:href="#SVGID_15_" />
    </clipPath>
    <clipPath
       clip-path="url(#SVGID_23_)"
       id="clipPath3642">
      <use
         height="100%"
         width="100%"
         y="0"
         x="0"
         style="overflow:visible"
         id="use3644"
         overflow="visible"
         xlink:href="#SVGID_15_" />
    </clipPath>
    <clipPath
       clip-path="url(#SVGID_23_)"
       id="clipPath3646">
      <use
         height="100%"
         width="100%"
         y="0"
         x="0"
         style="overflow:visible"
         id="use3648"
         overflow="visible"
         xlink:href="#SVGID_15_" />
    </clipPath>
    <clipPath
       clip-path="url(#SVGID_23_)"
       id="clipPath3650">
      <use
         height="100%"
         width="100%"
         y="0"
         x="0"
         style="overflow:visible"
         id="use3652"
         overflow="visible"
         xlink:href="#SVGID_15_" />
    </clipPath>
    <clipPath
       clip-path="url(#SVGID_23_)"
       id="SVGID_24_-2-8">
      <use
         height="100%"
         width="100%"
         y="0"
         x="0"
         style="overflow:visible"
         id="use91-7-7"
         overflow="visible"
         xlink:href="#SVGID_15_" />
    </clipPath>
    <clipPath
       clip-path="url(#SVGID_23_)"
       id="clipPath3790">
      <use
         height="100%"
         width="100%"
         y="0"
         x="0"
         style="overflow:visible"
         id="use3792"
         overflow="visible"
         xlink:href="#SVGID_15_" />
    </clipPath>
    <clipPath
       clip-path="url(#SVGID_23_)"
       id="clipPath3794">
      <use
         height="100%"
         width="100%"
         y="0"
         x="0"
         style="overflow:visible"
         id="use3796"
         overflow="visible"
         xlink:href="#SVGID_15_" />
    </clipPath>
    <clipPath
       clip-path="url(#SVGID_23_)"
       id="clipPath3798">
      <use
         height="100%"
         width="100%"
         y="0"
         x="0"
         style="overflow:visible"
         id="use3800"
         overflow="visible"
         xlink:href="#SVGID_15_" />
    </clipPath>
    <clipPath
       clip-path="url(#SVGID_23_)"
       id="clipPath3802">
      <use
         height="100%"
         width="100%"
         y="0"
         x="0"
         style="overflow:visible"
         id="use3804"
         overflow="visible"
         xlink:href="#SVGID_15_" />
    </clipPath>
    <clipPath
       clip-path="url(#SVGID_23_)"
       id="clipPath3806">
      <use
         height="100%"
         width="100%"
         y="0"
         x="0"
         style="overflow:visible"
         id="use3808"
         overflow="visible"
         xlink:href="#SVGID_15_" />
    </clipPath>
    <clipPath
       clip-path="url(#SVGID_23_)"
       id="clipPath3810">
      <use
         height="100%"
         width="100%"
         y="0"
         x="0"
         style="overflow:visible"
         id="use3812"
         overflow="visible"
         xlink:href="#SVGID_15_" />
    </clipPath>
    <clipPath
       clip-path="url(#SVGID_23_)"
       id="clipPath3814">
      <use
         height="100%"
         width="100%"
         y="0"
         x="0"
         style="overflow:visible"
         id="use3816"
         overflow="visible"
         xlink:href="#SVGID_15_" />
    </clipPath>
    <clipPath
       clip-path="url(#SVGID_23_)"
       id="clipPath3818">
      <use
         height="100%"
         width="100%"
         y="0"
         x="0"
         style="overflow:visible"
         id="use3820"
         overflow="visible"
         xlink:href="#SVGID_15_" />
    </clipPath>
    <clipPath
       id="SVGID_6_-3-4">
      <use
         height="100%"
         width="100%"
         y="0"
         x="0"
         style="overflow:visible"
         id="use33-6-5"
         overflow="visible"
         xlink:href="#SVGID_5_" />
    </clipPath>
    <clipPath
       clip-path="url(#SVGID_23_)"
       id="SVGID_24_-2-8-1">
      <use
         height="100%"
         width="100%"
         y="0"
         x="0"
         style="overflow:visible"
         id="use91-7-7-4"
         overflow="visible"
         xlink:href="#SVGID_15_" />
    </clipPath>
    <clipPath
       id="SVGID_6_-3-4-6">
      <use
         height="100%"
         width="100%"
         y="0"
         x="0"
         style="overflow:visible"
         id="use33-6-5-6"
         overflow="visible"
         xlink:href="#SVGID_5_" />
    </clipPath>
    <clipPath
       clip-path="url(#SVGID_23_)"
       id="SVGID_24_-2-8-3">
      <use
         height="100%"
         width="100%"
         y="0"
         x="0"
         style="overflow:visible"
         id="use91-7-7-0"
         overflow="visible"
         xlink:href="#SVGID_15_" />
    </clipPath>
    <clipPath
       clip-path="url(#SVGID_23_)"
       id="clipPath3951">
      <use
         height="100%"
         width="100%"
         y="0"
         x="0"
         style="overflow:visible"
         id="use3953"
         overflow="visible"
         xlink:href="#SVGID_15_" />
    </clipPath>
    <clipPath
       clip-path="url(#SVGID_23_)"
       id="clipPath3955">
      <use
         height="100%"
         width="100%"
         y="0"
         x="0"
         style="overflow:visible"
         id="use3957"
         overflow="visible"
         xlink:href="#SVGID_15_" />
    </clipPath>
    <clipPath
       clip-path="url(#SVGID_23_)"
       id="clipPath3959">
      <use
         height="100%"
         width="100%"
         y="0"
         x="0"
         style="overflow:visible"
         id="use3961"
         overflow="visible"
         xlink:href="#SVGID_15_" />
    </clipPath>
    <clipPath
       clip-path="url(#SVGID_23_)"
       id="clipPath3963">
      <use
         height="100%"
         width="100%"
         y="0"
         x="0"
         style="overflow:visible"
         id="use3965"
         overflow="visible"
         xlink:href="#SVGID_15_" />
    </clipPath>
    <clipPath
       clip-path="url(#SVGID_23_)"
       id="clipPath3967">
      <use
         height="100%"
         width="100%"
         y="0"
         x="0"
         style="overflow:visible"
         id="use3969"
         overflow="visible"
         xlink:href="#SVGID_15_" />
    </clipPath>
    <clipPath
       clip-path="url(#SVGID_23_)"
       id="clipPath3971">
      <use
         height="100%"
         width="100%"
         y="0"
         x="0"
         style="overflow:visible"
         id="use3973"
         overflow="visible"
         xlink:href="#SVGID_15_" />
    </clipPath>
    <clipPath
       clip-path="url(#SVGID_23_)"
       id="clipPath3975">
      <use
         height="100%"
         width="100%"
         y="0"
         x="0"
         style="overflow:visible"
         id="use3977"
         overflow="visible"
         xlink:href="#SVGID_15_" />
    </clipPath>
    <rect
       height="500"
       width="800"
       y="-176"
       x="-130.438"
       id="SVGID_1_" />
    <rect
       height="500"
       width="800"
       y="-176"
       x="-130.438"
       id="SVGID_3_" />
    <rect
       height="146.554"
       width="144.311"
       y="0.72299999"
       x="0.47600001"
       id="SVGID_5_" />
    <rect
       height="500"
       width="800"
       y="-176"
       x="-130.438"
       id="SVGID_7_" />
    <rect
       height="500"
       width="800"
       y="-176"
       x="-130.438"
       id="SVGID_8_" />
    <rect
       height="500"
       width="800"
       y="-176"
       x="-130.438"
       id="SVGID_9_" />
    <rect
       height="500"
       width="800"
       y="-176"
       x="-130.438"
       id="SVGID_10_" />
    <rect
       height="500"
       width="800"
       y="-176"
       x="-130.438"
       id="SVGID_11_" />
    <rect
       height="500"
       width="800"
       y="-176"
       x="-130.438"
       id="SVGID_12_" />
    <rect
       height="500"
       width="800"
       y="-176"
       x="-130.438"
       id="SVGID_13_" />
    <rect
       height="500"
       width="800"
       y="-176"
       x="-130.438"
       id="SVGID_14_" />
    <rect
       height="500"
       width="800"
       y="-176"
       x="-130.438"
       id="SVGID_15_" />
    <clipPath
       id="_clipPath_f0UbNDBXQ8aHAFPmOgnXs5adxYD8xIe2">
      <rect
         id="rect252"
         height="30"
         width="121" />
    </clipPath>
  </defs>
  <title
     id="title14">Artboard 3 copy 40</title>
  <style
     id="style401"
     type="text/css">
	.st0{stroke:#000000;stroke-width:0.7024;stroke-miterlimit:10;}
	.st1{fill-rule:evenodd;clip-rule:evenodd;fill:url(#SVGID_1_);}
	.st2{fill-rule:evenodd;clip-rule:evenodd;fill:url(#SVGID_2_);}
	.st3{fill-rule:evenodd;clip-rule:evenodd;fill:url(#SVGID_3_);}
</style>
  <g
     id="g524"
     transform="matrix(0.32763442,0,0,0.33108194,-3.3589898,-13.966892)">
    <g
       id="Layer_1-7">
      <g
         id="g431" />
      <g
         style="fill:none"
         id="g139"
         transform="matrix(3.0521824,0,0,3.0204003,238.64927,115.45626)">
        <path
           id="path107"
           d="M 30.04,0.785 V 3.452 C 21.723,-1.522 11.001,0.222 4.715,7.57 a 19.583,19.583 0 0 0 0,25.49 C 11,40.41 21.723,42.153 30.04,37.178 v 2.16 H 41.93 V 0.785 Z m -10.19,26.43 a 7.01,7.01 0 0 1 -6.497,-4.268 6.927,6.927 0 0 1 1.484,-7.594 7.044,7.044 0 0 1 7.632,-1.544 6.962,6.962 0 0 1 4.356,6.413 6.91,6.91 0 0 1 -2.022,4.939 7.006,7.006 0 0 1 -4.953,2.053 z"
           inkscape:connector-curvature="0"
           style="fill:#ed1c24" />
        <path
           id="path109"
           d="m 34.508,20.232 a 2.6,2.6 0 0 0 -1.656,-2.416 c 0.77,-0.862 0.878,-2.125 0.264,-3.103 A 2.625,2.625 0 0 0 30.194,13.585 2.586,2.586 0 0 0 30.18,10.284 2.629,2.629 0 0 0 26.916,9.659 2.595,2.595 0 0 0 25.423,6.875 2.629,2.629 0 0 0 22.326,7.571 2.615,2.615 0 0 0 19.82,5.72 a 2.615,2.615 0 0 0 -2.506,1.851 2.629,2.629 0 0 0 -3.101,-0.7 2.595,2.595 0 0 0 -1.492,2.788 2.63,2.63 0 0 0 -3.264,0.625 2.586,2.586 0 0 0 -0.014,3.301 2.625,2.625 0 0 0 -2.922,1.128 2.586,2.586 0 0 0 0.264,3.103 2.6,2.6 0 0 0 -1.658,2.418 2.6,2.6 0 0 0 1.658,2.418 2.582,2.582 0 0 0 -0.267,3.104 2.622,2.622 0 0 0 2.925,1.123 2.59,2.59 0 0 0 0.019,3.298 2.632,2.632 0 0 0 3.258,0.632 2.599,2.599 0 0 0 1.497,2.78 2.632,2.632 0 0 0 3.097,-0.692 2.615,2.615 0 0 0 2.506,1.851 2.615,2.615 0 0 0 2.506,-1.851 2.629,2.629 0 0 0 3.097,0.696 2.595,2.595 0 0 0 1.493,-2.784 c 1.1,0.587 2.462,0.322 3.259,-0.632 a 2.589,2.589 0 0 0 0.019,-3.298 2.625,2.625 0 0 0 2.922,-1.128 2.585,2.585 0 0 0 -0.264,-3.102 c 1,-0.39 1.657,-1.35 1.656,-2.417 z m -14.652,6.982 a 7.01,7.01 0 0 1 -6.497,-4.267 6.927,6.927 0 0 1 1.484,-7.594 7.044,7.044 0 0 1 7.632,-1.544 6.962,6.962 0 0 1 4.356,6.413 6.91,6.91 0 0 1 -2.025,4.941 7.005,7.005 0 0 1 -4.957,2.051 z"
           inkscape:connector-curvature="0"
           style="fill:#b92128" />
        <path
           id="path111"
           d="M 45.476,19.444 V 0.636 H 58.68 v 19.769 c 0,5.628 2.961,8.57 7.534,8.57 4.77,0 7.343,-2.942 7.343,-8.57 V 0.636 h 13.2 v 18.808 c 0,15.094 -8.822,20.533 -20.863,20.533 C 54.042,39.967 45.476,34.552 45.476,19.444 Z"
           inkscape:connector-curvature="0"
           style="clip-rule:evenodd;fill:#f15a24;fill-rule:evenodd" />
        <path
           id="path113"
           d="m 49.572,3.567 a 2.94,2.94 0 0 0 2.948,2.931 2.94,2.94 0 0 0 -2.85,2.93 2.94,2.94 0 0 0 2.85,2.929 2.94,2.94 0 0 0 -2.85,2.929 2.94,2.94 0 0 0 2.85,2.929 2.946,2.946 0 0 0 -2.895,2.383 2.928,2.928 0 0 0 1.811,3.273 2.912,2.912 0 0 0 -0.293,3.492 2.957,2.957 0 0 0 3.288,1.27 2.916,2.916 0 0 0 0.024,3.713 2.964,2.964 0 0 0 3.67,0.71 2.923,2.923 0 0 0 1.681,3.135 2.96,2.96 0 0 0 3.488,-0.783 2.948,2.948 0 0 0 2.823,2.078 2.948,2.948 0 0 0 2.823,-2.078 2.964,2.964 0 0 0 3.488,0.78 2.927,2.927 0 0 0 1.685,-3.132 2.961,2.961 0 0 0 3.676,-0.705 2.912,2.912 0 0 0 0.014,-3.719 c 1.26,0.35 2.6,-0.167 3.293,-1.269 a 2.912,2.912 0 0 0 -0.298,-3.496 2.924,2.924 0 0 0 1.817,-3.274 2.942,2.942 0 0 0 -2.904,-2.378 2.955,2.955 0 0 0 2.64,-1.435 c 0.549,-0.921 0.549,-2.067 0,-2.988 a 2.955,2.955 0 0 0 -2.64,-1.435 2.956,2.956 0 0 0 2.64,-1.435 C 82.9,10 82.9,8.854 82.351,7.933 a 2.955,2.955 0 0 0 -2.64,-1.435 c 1.63,0 2.951,-1.312 2.951,-2.93 A 2.941,2.941 0 0 0 79.712,0.636 H 73.568 V 21 l -0.079,1.097 c -0.484,4.522 -2.992,6.877 -7.254,6.877 -4.09,0 -6.87,-2.338 -7.428,-6.836 l -0.1,-1.324 V 0.636 H 52.52 a 2.94,2.94 0 0 0 -2.948,2.931 z"
           inkscape:connector-curvature="0"
           style="clip-rule:evenodd;fill:#f47621;fill-rule:evenodd" />
        <path
           id="path115"
           d="M 109.993,0 C 98.067,0.06 89.337,5.523 89.337,20.53 v 18.807 h 13.194 V 19.572 c 0,-5.628 2.576,-8.573 7.343,-8.573 h 0.112 z"
           inkscape:connector-curvature="0"
           style="clip-rule:evenodd;fill:#29abe2;fill-rule:evenodd" />
        <path
           id="path117"
           d="m 102.548,18.983 0.078,-1.093 c 0.481,-4.525 2.992,-6.88 7.255,-6.88 h 0.112 V 2.484 c -1.3,0 -2.447,0.848 -2.821,2.085 a 2.961,2.961 0 0 0 -3.49,-0.788 2.924,2.924 0 0 0 -1.683,3.137 2.964,2.964 0 0 0 -3.67,0.71 2.916,2.916 0 0 0 -0.023,3.713 2.957,2.957 0 0 0 -3.29,1.272 2.912,2.912 0 0 0 0.298,3.494 2.924,2.924 0 0 0 -1.817,3.272 2.942,2.942 0 0 0 2.9,2.38 2.956,2.956 0 0 0 -2.639,1.435 2.914,2.914 0 0 0 0,2.988 2.956,2.956 0 0 0 2.64,1.435 2.94,2.94 0 0 0 -2.951,2.931 2.94,2.94 0 0 0 2.95,2.93 2.956,2.956 0 0 0 -2.639,1.436 2.914,2.914 0 0 0 0,2.988 2.956,2.956 0 0 0 2.64,1.435 h 6.133 V 19.572 c 0,-0.203 0.005,-0.4 0.017,-0.589 z"
           inkscape:connector-curvature="0"
           style="clip-rule:evenodd;fill:#158ecf;fill-rule:evenodd" />
        <path
           id="path119"
           d="m 140.013,0.785 v 2.667 c -8.318,-4.974 -19.04,-3.23 -25.326,4.118 a 19.584,19.584 0 0 0 0,25.49 c 6.286,7.35 17.008,9.093 25.326,4.118 v 2.16 h 11.888 V 0.785 Z m -10.192,26.43 a 7.01,7.01 0 0 1 -6.497,-4.268 6.927,6.927 0 0 1 1.484,-7.594 7.043,7.043 0 0 1 7.632,-1.544 6.962,6.962 0 0 1 4.356,6.413 6.91,6.91 0 0 1 -2.022,4.939 7.005,7.005 0 0 1 -4.953,2.053 z"
           inkscape:connector-curvature="0"
           style="fill:#0071bc" />
        <path
           id="path121"
           d="m 144.48,20.232 a 2.603,2.603 0 0 0 -1.653,-2.416 2.584,2.584 0 0 0 0.264,-3.103 2.624,2.624 0 0 0 -2.921,-1.128 2.59,2.59 0 0 0 -0.025,-3.292 2.632,2.632 0 0 0 -3.253,-0.634 2.596,2.596 0 0 0 -1.493,-2.789 2.63,2.63 0 0 0 -3.101,0.701 2.614,2.614 0 0 0 -2.506,-1.851 2.614,2.614 0 0 0 -2.506,1.851 2.629,2.629 0 0 0 -3.097,-0.696 2.595,2.595 0 0 0 -1.493,2.784 2.632,2.632 0 0 0 -3.258,0.63 2.588,2.588 0 0 0 -0.023,3.296 2.626,2.626 0 0 0 -2.922,1.128 2.586,2.586 0 0 0 0.264,3.103 2.6,2.6 0 0 0 -1.657,2.418 2.6,2.6 0 0 0 1.657,2.418 2.584,2.584 0 0 0 -0.259,3.099 2.624,2.624 0 0 0 2.917,1.128 2.589,2.589 0 0 0 0.017,3.302 2.633,2.633 0 0 0 3.264,0.628 2.595,2.595 0 0 0 1.493,2.784 2.629,2.629 0 0 0 3.097,-0.696 2.614,2.614 0 0 0 2.506,1.851 2.614,2.614 0 0 0 2.506,-1.851 2.633,2.633 0 0 0 3.097,0.692 2.6,2.6 0 0 0 1.497,-2.78 2.632,2.632 0 0 0 3.258,-0.632 2.59,2.59 0 0 0 0.02,-3.298 2.624,2.624 0 0 0 2.921,-1.128 2.584,2.584 0 0 0 -0.264,-3.102 2.595,2.595 0 0 0 1.653,-2.417 z m -14.652,6.982 a 7.01,7.01 0 0 1 -6.497,-4.267 6.927,6.927 0 0 1 1.484,-7.594 7.043,7.043 0 0 1 7.632,-1.544 6.962,6.962 0 0 1 4.356,6.413 6.912,6.912 0 0 1 -2.024,4.941 7.006,7.006 0 0 1 -4.958,2.051 z"
           inkscape:connector-curvature="0"
           style="fill:#1751a7" />
      </g>
    </g>
    <g
       id="Layer_2" />
  </g>
</svg>
