<svg id="Layer_1" data-name="Layer 1" xmlns="http://www.w3.org/2000/svg" viewBox="0 0 260 86"><defs><style>.cls-1{fill:#df468d;}</style></defs><title>Artboard 21 copy 2</title><path class="cls-1" d="M240.23,58.72c.54-1.74.84-3.54,1.25-5.31.75-3.32,1.61-6.61,2.41-9.91.62-2.59,1.2-5.19,1.8-7.78a5.05,5.05,0,0,1,.18-.55c.07-.16.22-.14.36-.14l5.24,0c.2,0,.48-.11.53.25-.59,2.35-1.2,4.7-1.76,7.05-1,4-1.88,7.92-2.82,11.87a1.13,1.13,0,0,0,0,.26c-.77,2.92-1.48,5.86-2.11,8.82a2.33,2.33,0,0,0-.22,1c-.09.24-.13.49-.49.47-1.61-.12-3.2.26-4.81.12-.89-.08-1.13-.32-.95-1.18.3-1.38.67-2.74.9-4.14A1.07,1.07,0,0,1,240.23,58.72Z"/><path class="cls-1" d="M236.74,48a12.76,12.76,0,0,0-3.55-2.52,19.74,19.74,0,0,0-4.42-1,27.54,27.54,0,0,0-4.63-.05c-4.82.76-8.92,2.7-11.41,7.18a4.93,4.93,0,0,0-.63,2,8.24,8.24,0,0,0,2.26,8,13.43,13.43,0,0,0,6.26,3.22,26.66,26.66,0,0,0,3.77.33l1.44,0a28.62,28.62,0,0,0,9.51-1.74,1.34,1.34,0,0,0,1-1.13c.17-.87.44-1.73.67-2.6-.37-.16-.64.13-.93.24a30.32,30.32,0,0,1-6.91,2,13.33,13.33,0,0,1-7.64-.86,5.21,5.21,0,0,1-3.3-5.62c.13-.76.37-1.07,1.24-1.06,6,.1,12.11.12,18.17.19.62,0,.85-.18.91-.77A7.15,7.15,0,0,0,236.74,48ZM231.91,52c-1.95-.06-3.9,0-5.86-.07s-4,0-5.94,0c-.61,0-.69-.17-.37-.66a7.68,7.68,0,0,1,6.09-3.67,9,9,0,0,1,4.49.59A3.94,3.94,0,0,1,232.66,51C232.81,51.75,232.69,52,231.91,52Z"/><path class="cls-1" d="M224.39,24.71c-1.93-.42-3.9-.6-5.86-.85-4.12-.51-8.25-1-12.38-1.42q-5.91-.6-11.84-.9c-4-.19-7.91-.38-11.87-.34-12.23.11-24.32,1.3-36.12,4.74a16.73,16.73,0,0,0-2.57.83A8,8,0,0,1,141,27.84a95,95,0,0,0-21,10.38c-1.39.84-2.71,1.78-4,2.73a2.59,2.59,0,0,1-1,.55l-.84.51c-.85-2.3-1.64-4.59-2.53-6.83-.34-.86-.25-1.3.61-1.74,2.06-1,4-2.21,6.07-3.32,3.55-1.7,7.12-3.37,10.79-4.8l2.69-1.05c3.52-1.16,7-2.33,10.62-3.23a126.14,126.14,0,0,1,19.61-3.34,147.08,147.08,0,0,1,19.24-.42c5.34.22,10.66.72,16,1.38a345.16,345.16,0,0,1,38.25,7.4c0,.15,0,.22-.2.14-2.34-.33-4.68-.68-7-1A37,37,0,0,0,224.39,24.71Z"/><path class="cls-1" d="M194.24,47.43c.2-.71.42-1.4.58-2.11a.68.68,0,0,1,.82-.61c1.52,0,3.05,0,4.57.06.49,0,.71-.13.84-.6.25-1,.58-1.88.85-2.83.09-.3.17-.52.55-.52,1.83,0,3.66,0,5.54,0l-.25,1.23c-.32.85-.94,1.88-.63,2.54s1.54.15,2.37.19,1.93,0,2.89,0c.46,0,.64.06.51.62-.52,2.29-.49,2.3-2.87,2.28l-3.48,0c-.33,0-.61,0-.72.41-.57,2.07-1.16,4.13-1.75,6.19-.46,1.54-1,3.06-1.37,4.62s.37,2.56,2.19,2.69a14.17,14.17,0,0,0,6.09-.87c.55-.21.79-.16.68.49-.07.45-.12.9-.16,1.35-.16,1.87.2,1.53-1.76,1.9a20.76,20.76,0,0,1-9.66-.16,7.21,7.21,0,0,1-1.78-.77,3.46,3.46,0,0,1-1.77-4.38c.13-.49.25-1,.38-1.47a28.61,28.61,0,0,1,1.31-5.07c.35-1.34.77-2.66,1.15-4,.16-.58,0-.78-.59-.78-1.22,0-2.43,0-3.65,0C194.79,47.82,194.36,47.94,194.24,47.43Z"/><path class="cls-1" d="M167.7,50.61c.45-1.83.93-3.66,1.34-5.5.12-.5.31-.63.79-.62,1.58,0,3.17.06,4.76,0,.62,0,.69.18.53.74-.25.88-.42,1.79-.67,2.87a27.84,27.84,0,0,1,3.8-2.24,15.54,15.54,0,0,1,9.42-1.29A6.59,6.59,0,0,1,192.53,48a3.15,3.15,0,0,1,.68,2.76,67.64,67.64,0,0,1-1.81,7.4c-.05.19-.22.33-.3.51-.44,1.66-.92,3.31-1.32,5-.12.53-.35.66-.86.65-1.52,0-3-.06-4.57,0-.62,0-.69-.19-.55-.74.36-1.45.67-2.91,1-4.36a68.59,68.59,0,0,1,1.5-6.94c.06-.28.14-.55.18-.83.42-2.95-1.46-3.76-3.68-3.65-2.94.14-5.36,1.63-7.75,3.18a3.57,3.57,0,0,0-1.66,2.42c-.4,1.91-.91,3.8-1.37,5.7a3.73,3.73,0,0,1-.47,1.17c-.29,1.12-.62,2.23-.86,3.36-.1.47-.31.58-.74.57-1.56,0-3.11-.06-4.67,0-.56,0-.68-.17-.54-.69.19-.73.32-1.48.48-2.23a1.16,1.16,0,0,1,0-.82c.74-2.93,1.22-5.92,2-8.85C167.31,51.14,167.31,50.76,167.7,50.61Z"/><path class="cls-1" d="M127.41,52.34c2.15-2.53,4.32-5.06,6.46-7.62A1.29,1.29,0,0,1,135,44.2c1.74,0,3.49,0,5.43.06l-3.27,3.91-5.58,6.71-6.25,7.36-.11.14c-1.46,1.77-1.74,1.86-4,1.63-.59-.05-.56-.49-.67-.82q-2.28-7.27-4.54-14.54c-.47-1.51-1-3-1.43-4.57l1-.06a1.09,1.09,0,0,1,.72-.19l3.57,0a.94.94,0,0,1,1,.77c1,3.45,1.85,7,2.79,10.42a4.55,4.55,0,0,0,.26.89c.38,0,.48-.29.64-.48.71-.85,1.44-1.68,2.14-2.53C126.9,52.69,127.06,52.4,127.41,52.34Z"/><path class="cls-1" d="M115.71,63.43c-.23-.67-.43-1.35-.64-2Q111,48.2,107,35a1,1,0,0,0-1.23-.89c-1.47,0-2.95,0-4.42,0a1.33,1.33,0,0,0-1.26.62c-2.57,3.56-5.17,7.1-7.76,10.64-1.78,2.42-3.57,4.82-5.35,7.24-.31.42-.63.84-.93,1.27-2.26,3.27-4.62,6.46-7,9.62v0c0,.32.24.25.42.25.54,0,1.07,0,1.61,0,1.48,0,3,.13,4.44,0l.28-.36c1.72-2.55,3.41-5.12,5.27-7.58.39-.54.53-1.26,1.49-1.24,4.62.08,9.24.11,13.85.12a.82.82,0,0,1,.93.72c.77,2.63,1.57,5.25,2.37,7.88.11.36.15.74.73.73,1.64,0,3.29,0,4.93,0C115.8,64,115.83,63.81,115.71,63.43ZM94.06,51.32l8.39-12.17c1.25,4.23,2.43,8.22,3.62,12.27Z"/><path class="cls-1" d="M164.94,44.36c-1-.1-2-.22-3-.3-5.91-.5-11.74-.24-17.37,1.89l-1.14.54c-4.19,2.11-7.07,5.17-7.27,10.14.35,3.38,2.42,5.41,5.38,6.6a14.26,14.26,0,0,0,12.13-.69c.54-.27,1.07-.58,1.73-.95-.2.87-.37,1.57-.55,2.35,1.93,0,3.79,0,5.66.06.47,0,.46-.35.54-.61.21-.76.39-1.53.59-2.3a1.89,1.89,0,0,0,.43-1c.69-3.11,1.49-6.19,2.2-9.3a1.17,1.17,0,0,0,0-.9c.36-1.6.69-3.2,1.1-4.78C165.6,44.55,165.41,44.41,164.94,44.36Zm-6.44,4.41c-.71,3-1.43,5.92-2.13,8.89a1.63,1.63,0,0,1-.75,1.06c-2.4,1.53-4.89,2.7-7.86,2.43-4.46-.4-6.65-4.52-4.41-8.4A10.86,10.86,0,0,1,150,47.91a23,23,0,0,1,6.36-.93C158.92,47,158.93,47,158.5,48.77Z"/></svg>