<svg id="Layer_1" data-name="Layer 1" xmlns="http://www.w3.org/2000/svg" viewBox="0 0 255.12 85.04"><defs><style>.cls-1{fill:#282867;}.cls-1,.cls-2{fill-rule:evenodd;}.cls-2{fill:#ec2029;}</style></defs><title>Artboard 3 copy 29</title><path class="cls-1" d="M64.56,22v38.5H82.79c2.61,0,6.66-.29,8.69-1.73A8.73,8.73,0,0,0,95,55a13.56,13.56,0,0,0,1.16-4.92v-.58c-.29-4.63-2.31-6.94-7.52-8.68a9,9,0,0,0,6.65-8.68,10.13,10.13,0,0,0-3.18-7.53A12.12,12.12,0,0,0,84.24,22H64.56ZM80.48,53.53H75.27v-9h5.5a5.75,5.75,0,0,1,3.76,1.16,4.35,4.35,0,0,1,1.16,3.18,4,4,0,0,1-1.16,3.19,4.55,4.55,0,0,1-3.76,1.45Zm0-16.5H75.27V29.5h5.21a4.62,4.62,0,0,1,3.18.87,5.15,5.15,0,0,1,1.16,2.89,5.15,5.15,0,0,1-1.16,2.9,4.62,4.62,0,0,1-3.18.87Z"/><path class="cls-1" d="M217.11,60.76l.58-7.52a13.11,13.11,0,0,0,5.21,2c8.1,2.32,11.58-3.47,4.92-4.92-3.48-.87-6.95-1.16-9.55-4.34a8.48,8.48,0,0,1-1.16-4.63,9.5,9.5,0,0,1,1.16-4.92,9.32,9.32,0,0,1,3.76-2.9c5.79-2.89,14.76-1.44,17.66.29l-.87,6.66c-1.74-1.45-11.58-4.34-12.45,0-.58,1.45,2,2.32,3.19,2.61a16.85,16.85,0,0,1,6.65,1.73c11,4.92,5.21,23.45-19.1,15.92Z"/><path class="cls-1" d="M213.63,61.63h-9.55V55.26c-3.18,9.26-16.5,8.11-19.68,2.61-1.45-1.74-2-4.63-2-8.4V32.11H192.5v15c-.57,9.84,11.29,8.1,11-2V32.39h10.13V61.63Z"/><path class="cls-1" d="M157.77,53.53l.29,7.23c-9,2.32-20.26,1.74-24.32-8.1a21.87,21.87,0,0,1-.87-6.66c.29-12.16,14.19-17.37,24.9-12.74l-.58,7.24c-2.61-1.74-9.84-2.89-12.74,1.45a9.85,9.85,0,0,0-1.15,4.63,7.82,7.82,0,0,0,1.15,4.34c2.32,2.89,5.21,4.92,13.32,2.61Z"/><path class="cls-1" d="M115.51,54.68a3.18,3.18,0,0,1-2.32,0,3.29,3.29,0,0,1-2.32-.87,4.12,4.12,0,0,1-.57-2,2.62,2.62,0,0,1,.86-2c.58-1.16,2-1.73,3.77-1.73h5.5c-.29,4.92-2.61,6.36-4.92,6.65Zm0-11.86c-7.53.29-14.77,1.73-14.77,10.42,0,6.36,6.37,8.39,11.29,8.39a12.46,12.46,0,0,0,3.48-.58c2.31-.58,3.47-2,5.78-4.34,0,.58-.28,4-.28,4.34h9.26a23.48,23.48,0,0,1-.29-6.37V42.24a10.77,10.77,0,0,0-8.11-10.13,34,34,0,0,0-6.36-.58c-3.77,0-7.82.29-11,2v6.66a24.16,24.16,0,0,1,11-2c2.89.29,5.21,1.45,5.21,4.64Z"/><polygon class="cls-1" points="155.74 46.29 166.16 32.4 177.74 32.4 167.32 46.29 155.74 46.29 155.74 46.29"/><path class="cls-2" d="M155.45,46.29c11,2.31,9.55,10.13,15.63,15.63,3.48,3.47,16.21,7.53,23.45,4-9.55-1.16-11.87-4.34-15.92-11.29-2.61-4-5.21-6.94-11.29-8.39Z"/></svg>