<svg id="Layer_1" data-name="Layer 1" xmlns="http://www.w3.org/2000/svg" viewBox="0 0 255.12 85.04"><defs><style>.cls-1{fill:#0e4689;}.cls-2{fill:#ffd102;}.cls-3{fill:#e42332;}</style></defs><title>Artboard 3 copy 36</title><path class="cls-1" d="M44.24,64c-1.4,0-3.8-.07-6.68-.07V40.6c1.93-.1,4.91-.17,7.73-.17,5,0,7.7,2,7.7,5.79a5.67,5.67,0,0,1-3.63,5.23v.07a5.15,5.15,0,0,1,4.06,5.24c0,3.4-2.27,7.28-9.18,7.28m.3-20c-.91,0-1.8,0-2.58.07v6.1c.55,0,1.09,0,1.8,0,3,0,4.58-1.26,4.58-3.33,0-1.73-1-2.88-3.8-2.88m-.65,9.57c-.33,0-1.45,0-1.93,0v6.55a22.38,22.38,0,0,0,2.42.13c2.87,0,4.33-1.38,4.33-3.5,0-2.29-1.93-3.22-4.82-3.22"/><path class="cls-1" d="M65.11,64a21.82,21.82,0,0,1,.17-3.09l0,0a6,6,0,0,1-5.66,3.45c-3.2,0-5.06-1.85-5.06-4.77,0-4.32,4.2-6.62,10.22-6.62V52c0-1.89-.89-2.88-3.45-2.88a11.32,11.32,0,0,0-5.23,1.43l-.4-3.9A18.85,18.85,0,0,1,62,45.48c5.7,0,7.3,2.33,7.3,6.3L69.45,64Zm-.36-8c-4.8,0-5.88,1.41-5.88,2.87A1.89,1.89,0,0,0,61,60.77c2.24,0,3.77-2.19,3.77-4.37Z"/><path class="cls-1" d="M210.76,64a21.77,21.77,0,0,1,.18-3.09l0,0a6,6,0,0,1-5.66,3.45c-3.21,0-5.06-1.85-5.06-4.77,0-4.32,4.21-6.62,10.23-6.62V52c0-1.89-.89-2.88-3.46-2.88a11.36,11.36,0,0,0-5.23,1.43l-.39-3.9a18.74,18.74,0,0,1,6.33-1.13c5.7,0,7.3,2.33,7.3,6.3L215.1,64Zm-.35-8c-4.81,0-5.88,1.41-5.88,2.87a1.88,1.88,0,0,0,2.1,1.93c2.24,0,3.78-2.19,3.78-4.37Z"/><path class="cls-1" d="M97.05,64.3c-4.92,0-8-2.62-8-8.77,0-5.64,2.89-10,9.15-10a12.89,12.89,0,0,1,3.63.51l-.45,4a9.14,9.14,0,0,0-3.21-.66c-2.89,0-4.35,2.18-4.35,5.6,0,3.1,1.18,5.21,4.21,5.21a7.93,7.93,0,0,0,3.48-.76l.36,4a13.93,13.93,0,0,1-4.84.84"/><path class="cls-1" d="M111.23,64.33c-5,0-8.27-2.65-8.27-9.09,0-5.64,3.68-9.72,9.05-9.72,5,0,8.26,2.84,8.26,9.06,0,5.68-3.74,9.75-9,9.75m.45-14.88c-2,0-4,1.6-4,5.31s1.32,5.61,4,5.61c2.24,0,3.95-1.86,3.95-5.53,0-3.5-1.21-5.39-3.89-5.39"/><path class="cls-1" d="M136.89,64.33c-5,0-8.26-2.65-8.26-9.09,0-5.64,3.67-9.72,9.05-9.72,5,0,8.26,2.84,8.26,9.06,0,5.68-3.74,9.75-9.05,9.75m.47-14.88c-2,0-4,1.6-4,5.31s1.32,5.61,3.95,5.61c2.25,0,4-1.86,4-5.53,0-3.5-1.21-5.39-3.88-5.39"/><path class="cls-1" d="M198.51,64h-4.84V46a21.18,21.18,0,0,1,4.84-.11Zm-2.28-20.42a2.82,2.82,0,1,1,2.85-2.84,2.84,2.84,0,0,1-2.85,2.84"/><path class="cls-1" d="M82.07,45.48a6.47,6.47,0,0,0-6,3.64l0,0,.12-3.23a14.16,14.16,0,0,0-4.21,1V64h4.59V55.24c0-3.17,1.81-5.87,4.13-5.87,1.68,0,2.18,1.14,2.18,3V64h4.51V51.27c0-3.17-1.27-5.79-5.26-5.79"/><path class="cls-1" d="M122.25,39.71V64h4.41V38.64a14.27,14.27,0,0,0-4.41,1.07"/><path class="cls-1" d="M185.6,46.39a5.34,5.34,0,0,0-5.09,3.06h0a22.34,22.34,0,0,0,.27-3.37V38.64a13.91,13.91,0,0,0-4.4,1.09V63.48a21.9,21.9,0,0,0,6.33.84c5.8,0,9.13-4,9.13-9.85,0-5.09-2.17-8.08-6.21-8.08M183,60.78a7.07,7.07,0,0,1-2.24-.31V55.61c0-2.87,1.35-5.54,3.59-5.54,2,0,2.89,1.63,2.89,4.85,0,4.26-1.77,5.86-4.24,5.86"/><path class="cls-1" d="M168.59,45.48a6.28,6.28,0,0,0-5.77,3.64,4.59,4.59,0,0,0-4.88-3.64,6.32,6.32,0,0,0-5.83,3.64h0a28.56,28.56,0,0,0,.21-3.26A13.76,13.76,0,0,0,148,46.92V64h4.57V55.31c0-3.38,2-5.94,4.05-5.94,1.75,0,2.1,1.35,2.1,3.14V64h4.49V55.31c0-3.53,2.06-5.94,4.06-5.94,1.67,0,2.11,1.2,2.11,3.14V64h4.55V51.52c0-4.11-1.89-6-5.31-6"/><path class="cls-1" d="M240.51,16.49a1.84,1.84,0,0,0-1.65-1,61,61,0,0,0-12.56.17,70.87,70.87,0,0,0-7.33,1c-2.59.52-5.19,1.1-7.92,1.91-.92.28-1.47.81-1.11,1.87.47,1.42.91,2.63,1.49,4.31.38,1.11,1.34,1.11,2.36.81,3-.9,5.94-1.59,8.77-2.14s5.37-.93,7.78-1.26a105.59,105.59,0,0,1,11.33-.74c.53,0,.88-.49.49-1.12Z"/><path class="cls-2" d="M244.92,24.53c-.37-.73-.7-1.15-2-1.18a86,86,0,0,0-14.66,1.17c-3.29.49-6.84,1.17-10.71,2.13-1.95.51-3.87,1-5.83,1.66s-3.92,1.32-5.84,2.06a2.27,2.27,0,0,0-1.62,2.34c.49,2,1,4.07,1.6,6.42a1.92,1.92,0,0,0,2.69,1c4.29-1.63,8.75-3,12.94-4.17s7.8-1.92,11.09-2.65c6.54-1.42,10-1.88,13.47-2.5.8-.14,1.15-.65.8-1.52Z"/><path class="cls-3" d="M247.43,39.69a1.48,1.48,0,0,1-.85,2.07c-1.23.5-2.14.82-3.66,1.42l-2.38.91-2.62,1c-3.73,1.43-8,3-13.26,5a2.1,2.1,0,0,1-2.7-1.43c-.87-2.77-1.85-5.45-2.8-7.95a1.86,1.86,0,0,1,1.29-2.52c2.69-.76,5.09-1.36,7.42-1.93s4.36-1,6.31-1.48c3.92-.89,6.43-1.42,9.1-1.9a1.64,1.64,0,0,1,2.1,1.16c.75,1.85,1.43,3.71,2.05,5.66"/></svg>