<svg id="Layer_1" data-name="Layer 1" xmlns="http://www.w3.org/2000/svg" viewBox="0 0 255.12 85.04"><defs><style>.cls-1{fill:#154a8a;}.cls-2{fill:#ffd000;}.cls-3{fill:#ec1c2d;}</style></defs><title>Artboard 3 copy 31</title><path class="cls-1" d="M189.4,49.75A5.51,5.51,0,0,0,185,45.24a9.7,9.7,0,0,0-1.32-.15,7.75,7.75,0,0,0-7.18,3.51c-.17.24-.23.54-.51.72-.24-.21-.25-.53-.36-.79a5.19,5.19,0,0,0-3.48-3.15,8,8,0,0,0-8.83,3.08c-.17.23-.32.47-.48.7-.09-1.21.16-2.4,0-3.61a17.16,17.16,0,0,0-4.42,1c-1.07.41-.86.25-.87,1.24V67.12c0,.14,0,.29,0,.44,0,.33.11.47.45.46h4.78c.35,0,.46-.15.45-.48,0-.62,0-1.24,0-1.86,0-3,0-6,0-8.93a8.14,8.14,0,0,1,1.9-5.22,4.37,4.37,0,0,1,2.16-1.47c1.48-.4,3.05,0,3.4,2a12.47,12.47,0,0,1,.14,2V67c0,.2,0,.41,0,.62s.08.43.4.43H176c.25,0,.38-.1.38-.36s0-.47,0-.71c0-3.16,0-6.31,0-9.47a9.17,9.17,0,0,1,1.44-5.29,5.25,5.25,0,0,1,2.3-2,2.53,2.53,0,0,1,3.8,2.24c0,.06,0,.12,0,.18.19,1.88.08,3.77.09,5.66,0,3,0,6.08,0,9.11,0,.62,0,.63.64.64,1.09,0,2.18,0,3.27,0h1.33c.29,0,.43-.12.42-.42,0-.15,0-.29,0-.44,0-4.84,0-9.68,0-14.51A12.82,12.82,0,0,0,189.4,49.75Z"/><path class="cls-2" d="M201.63,32.43c.47,1.85.92,3.71,1.41,5.56a1.68,1.68,0,0,0,1.72,1.36,3.69,3.69,0,0,0,1.47-.27,152.49,152.49,0,0,1,18.6-5.6c6.54-1.56,13.12-2.88,19.75-3.91,1.3-.2,1.58-.68,1.12-1.88-.59-1.51-1.2-3-1.77-4.53a2.13,2.13,0,0,0-2.23-1.51h-1.77v0c-.56,0-1.13,0-1.69,0a117.12,117.12,0,0,0-12,1.22,109.51,109.51,0,0,0-18.21,4.29c-1.64.55-3.28,1.13-4.9,1.76a2.34,2.34,0,0,0-1.63,3.14A3.59,3.59,0,0,1,201.63,32.43Z"/><path class="cls-1" d="M61.76,52.79c-.11,0-.24,0-.32-.19a3.77,3.77,0,0,1,.8-.48,6.87,6.87,0,0,0,3.43-7,6.24,6.24,0,0,0-4.62-5.47,12.83,12.83,0,0,0-4.17-.68c-3.18,0-6.37,0-9.55.16-.76,0-.77,0-.77.8V67.41c0,.73,0,.74.71.74l7.43.06a17.91,17.91,0,0,0,4.13-.39c4.36-1,7.14-3.81,7.45-8A6.52,6.52,0,0,0,61.76,52.79Zm-9.18-9.27a20.4,20.4,0,0,1,4.06,0c.15,0,.3,0,.44.06a3.22,3.22,0,0,1,2.85,2.74,3.75,3.75,0,0,1-1.79,3.93,7.23,7.23,0,0,1-3.31.84,19.62,19.62,0,0,1-2,0c-.74,0-.74,0-.75-.75,0-1,0-2.06,0-3.09s0-2.12,0-3.19C52,43.69,52.16,43.53,52.58,43.52ZM58.16,63a5.24,5.24,0,0,1-1.85.53,24.18,24.18,0,0,1-3.71,0c-.4,0-.56-.18-.56-.6,0-1.21,0-2.41,0-3.62s0-2.24,0-3.36c0-.44.1-.65.58-.65a17.72,17.72,0,0,1,4.48.28,5.27,5.27,0,0,1,.68.19,3.53,3.53,0,0,1,2.64,3.37A3.91,3.91,0,0,1,58.16,63Z"/><path class="cls-3" d="M246.38,38.57c-.61-1.94-1.3-3.85-2.09-5.73A1.73,1.73,0,0,0,242,31.6c-7.85,1.49-15.61,3.34-23.32,5.42-1.68.45-2.18,1.45-1.59,3.07.69,1.88,1.38,3.76,2,5.65.27.75.48,1.51.74,2.26A2.17,2.17,0,0,0,222,49.62a2.4,2.4,0,0,0,.95-.18Q234.1,45.33,245.22,41C246.51,40.47,246.8,39.89,246.38,38.57Z"/><path class="cls-1" d="M207.45,45.78a12.12,12.12,0,0,0-2.86-.53c-4.79-.38-9.29,1.82-11.26,6.68a15.1,15.1,0,0,0-.06,11.14,8,8,0,0,0,5.79,5.11,11.88,11.88,0,0,0,3.27.38A10.67,10.67,0,0,0,213,61.11,15.13,15.13,0,0,0,212.91,51,8.19,8.19,0,0,0,207.45,45.78ZM208,57a9.6,9.6,0,0,1-.81,4,4.49,4.49,0,0,1-5.67,2.48,3.84,3.84,0,0,1-2.53-2.3,10.68,10.68,0,0,1-.77-4.84,8.29,8.29,0,0,1,.63-3.1,4.71,4.71,0,0,1,5.66-2.89,4,4,0,0,1,2.85,2.54,7.24,7.24,0,0,1,.43,1.53A14.28,14.28,0,0,1,208,57Z"/><path class="cls-1" d="M86.17,67.15,86,54.42a24.32,24.32,0,0,0-.18-3.62,5.82,5.82,0,0,0-4-4.93,9.17,9.17,0,0,0-1.27-.35,20.46,20.46,0,0,0-8,.09,24.9,24.9,0,0,0-3.08.81.45.45,0,0,0-.38.57c.17,1.43.3,2.87.45,4.4.55-.25,1-.46,1.41-.63a12.83,12.83,0,0,1,6.39-1,3,3,0,0,1,3,3.21c0,.29,0,.59,0,.88s-.1.56-.54.59a31.34,31.34,0,0,0-3.34.28,14.48,14.48,0,0,0-5.31,1.84,6.89,6.89,0,0,0-3.47,5.36c-.3,3,1.06,5.86,4.57,6.51a9,9,0,0,0,2.73.09,7.31,7.31,0,0,0,5.55-3.37c.08-.13.09-.35.37-.34L80.78,67c0,.27,0,.53,0,.8a.32.32,0,0,0,.36.38l4.69,0c.26,0,.38-.12.37-.38S86.18,67.36,86.17,67.15Zm-5.84-8.5a5.55,5.55,0,0,1-2.76,5,3.47,3.47,0,0,1-1.87.47,2.38,2.38,0,0,1-2.52-1.53,2.77,2.77,0,0,1,1-3.08,5.38,5.38,0,0,1,1.92-.87,14.87,14.87,0,0,1,3.76-.43C80.16,58.21,80.35,58.28,80.33,58.65Z"/><path class="cls-1" d="M108.35,67.12V52.34a11.74,11.74,0,0,0,0-1.33c-.29-2.6-1.38-5.3-5.29-5.76a8.09,8.09,0,0,0-8.15,3.54c-.12.18-.18.43-.55.59,0-1.07.1-2,.14-3,0-.73,0-.75-.71-.66a19,19,0,0,0-3.87.87.84.84,0,0,0-.67.94q0,9.91,0,19.83a2.25,2.25,0,0,1,0,.26c-.06.44.15.56.56.55,1.53,0,3.07,0,4.6,0,.36,0,.57-.09.53-.49,0-.21,0-.41,0-.62,0-3.16,0-6.31,0-9.47a9.17,9.17,0,0,1,1.6-5.51,4.52,4.52,0,0,1,2.42-1.84c1.86-.53,3.51,0,3.72,2.44.06.67.09,1.35.09,2,0,4.16,0,8.32,0,12.48,0,1.08,0,1,.94,1h3.8c.88,0,.86.11.86-.86Z"/><path class="cls-1" d="M154.91,62.1a6.19,6.19,0,0,1-3.85,1,2.4,2.4,0,0,1-2.27-1.9,4.4,4.4,0,0,1-.1-1.14c0-2.1,0-4.19,0-6.29V50.57c0-.61,0-.61.65-.63h4.6c.3,0,.51-.06.51-.43,0-1.29,0-2.59,0-3.89,0-.3-.15-.42-.44-.41H149.3c-.61,0-.61,0-.63-.65v-8c0-.78,0-.8-.79-.7a19.37,19.37,0,0,0-4.38,1c-.69.25-.7.25-.7,1v6.46c0,.93.12.93-.89.93s-2.19,0-3.28,0c-.39,0-.59.08-.59.53,0,1.24,0,2.48,0,3.72,0,.38.12.51.51.51,1.17,0,2.35,0,3.53,0,.72,0,.72,0,.73.74,0,2.74,0,5.49,0,8.23,0,.88,0,1.77,0,2.65a6.57,6.57,0,0,0,4.89,6.14,11.47,11.47,0,0,0,6.85-.52c.29-.09.33-.29.33-.54C154.91,65.19,154.91,63.72,154.91,62.1Z"/><path class="cls-1" d="M134.31,56.28a9.43,9.43,0,0,0-1.74-.87c-1.15-.44-2.36-.71-3.55-1a7.24,7.24,0,0,1-2-.78,1.7,1.7,0,0,1-.89-1.44,2.32,2.32,0,0,1,1.94-2.47,2.25,2.25,0,0,1,2.66,1.53,2.48,2.48,0,0,1,.17.59.48.48,0,0,0,.57.49c1.53,0,3.07,0,4.6,0,.46,0,.54-.19.49-.59a6.67,6.67,0,0,0-3-4.91,8.46,8.46,0,0,0-7.52-1.09c-2.93.86-4.93,2.69-5.3,5.84s.84,5.62,3.81,6.82a20.13,20.13,0,0,0,2.61.8,16.83,16.83,0,0,1,3,.89,1.85,1.85,0,0,1,1.29,1.82,2.15,2.15,0,0,1-1.4,2,2.79,2.79,0,0,1-4-2,.28.28,0,0,1,0-.09c-.17-.7-.17-.7-.93-.71h-1.94c-.74,0-1.48,0-2.21,0-.57,0-.6,0-.56.61A6.65,6.65,0,0,0,125.31,68a11.06,11.06,0,0,0,7.12-.24,6.42,6.42,0,0,0,4.15-4.17,7.68,7.68,0,0,0,.26-3A5.36,5.36,0,0,0,134.31,56.28Z"/><path class="cls-1" d="M208.88,23.07a1.41,1.41,0,0,0,1.68,1.09,5,5,0,0,0,.87-.17c2.83-.83,5.68-1.54,8.57-2.11a102.51,102.51,0,0,1,16.83-2.06c1.15,0,2.3-.08,3.45-.14.77,0,1-.38.68-1.1-.52-1.25-1.08-2.48-1.6-3.73a2.16,2.16,0,0,0-1.87-1.4,44.74,44.74,0,0,0-5.7-.23,83.63,83.63,0,0,0-18,2.13c-1.75.4-3.5.82-5.22,1.34-1.25.38-1.54,1-1.13,2.2C207.91,20.29,208.39,21.68,208.88,23.07Z"/><path class="cls-1" d="M117.27,45.62a25.1,25.1,0,0,0-5.2.08c-.29,0-.42.15-.41.44s0,.42,0,.62V57.9c0,3.15,0,6.31,0,9.46,0,.78,0,.79.74.79h4.51c.76,0,.76,0,.76-.78,0-3.48,0-7,0-10.43V46.69c0-.21,0-.42,0-.62S117.57,45.64,117.27,45.62Z"/><path class="cls-1" d="M114.83,35.79a3.5,3.5,0,0,0-3.5,3.47,3.53,3.53,0,0,0,7,.05A3.5,3.5,0,0,0,114.83,35.79Z"/></svg>