<svg id="Layer_1" data-name="Layer 1" xmlns="http://www.w3.org/2000/svg" viewBox="0 0 255.12 85.04"><defs><style>.cls-1{fill:#ed2e3a;}</style></defs><title>Artboard 3 copy 42</title><path class="cls-1" d="M100.62,53.22q0-1.68-2-3.45a23.44,23.44,0,0,0-6.1-3.51q13.39-5-5.71-11.24l-9.23,4.53a33,33,0,0,0-10.89-4.5L54.56,41.22a19.7,19.7,0,0,1,11.19,3.47V56.62A26.56,26.56,0,0,1,54.61,59v.4h27a46.44,46.44,0,0,0,10.92-.7,18.69,18.69,0,0,0,6.1-2.37,3.82,3.82,0,0,0,2-3.06Zm-23-4.51V41.2q7.16,1,7.47,3.74c.2,1.62-2.28,2.88-7.47,3.77Zm0,8.69V49.87c7,1.38,10.53,3.39,10.47,6q-.19,3.66-10.47,1.52Z"/><path class="cls-1" d="M80.89,24.16c.78-.07,1.11-.47,1-1.21H74.14a1,1,0,0,0-1,1h-1.5c-.52,0-.8.35-.83,1l0,3c0-.63.27-1,.74-1h2l.6.6H71.76c-.08.87.24,1.32,1,1.34h1.44l-.42,3.54q-1,2.94-3.91,1.8a7.16,7.16,0,0,0,7.65,1,7.67,7.67,0,0,0,7.87-1c-1.72.63-2.9.06-3.54-1.69l-.93-8.25Zm-5.2,1.59q-.91-.06-.9-.9h1.8a.88.88,0,0,1-.9.9Z"/><path class="cls-1" d="M127,43.07c2.6-.59,3.83-1.82,3.68-3.66-.29-2.15-2-3.47-5-3.93H112.19c1,.49,1.57,1.14,1.59,2V51.23a3,3,0,0,1-1.59,2.21h12.86a8.58,8.58,0,0,0,5-1.5A4.71,4.71,0,0,0,132,48c0-2.79-1.68-4.43-5-4.9Zm-6.83-4.91c2.77-.31,4.1.3,4,1.85,0,2.15-1.31,3-4,2.57V38.16Zm0,12.28V44.79q6-.6,5.52,3.08c-.33,2.77-2.18,3.62-5.52,2.57Z"/><path class="cls-1" d="M165,35.53q1.92,1,1,3.44l-3.77,9.61-4.92-12.23a1.41,1.41,0,0,1,0-1h-7.4a2.61,2.61,0,0,1,1.45,1.7l6.77,16.53h5.21l7.3-18.06Z"/><path class="cls-1" d="M154.58,53.33a5.24,5.24,0,0,1-2.19-2.51l-6.5-15.39H138a1.75,1.75,0,0,1,1.31,2.19l-5.57,13.71a4.77,4.77,0,0,1-1.86,2h6.58a1.7,1.7,0,0,1-.85-2.39l1.26-3.06h5.95l1,2.13c.75,1.54.47,2.66-.82,3.32Zm-14.81-7.9,1.92-5.08,2.13,5.08Z"/><path class="cls-1" d="M218.63,37.47A2.65,2.65,0,0,1,220,35.53h-8.41A2.71,2.71,0,0,1,213,37.47V51.58a3.3,3.3,0,0,1-1.38,1.87H220a3,3,0,0,1-1.37-1.86V37.47Z"/><path class="cls-1" d="M207.7,40.1q-.3-3.83-4.94-4.66h-11.7a2.68,2.68,0,0,1,1.5,1.82V51.15a2.61,2.61,0,0,1-1.38,2.27h8.5a2.2,2.2,0,0,1-1.18-1.82V45.93Q202,53,204.17,53.42h6.48q-2.47-1.94-6.72-8.91,3.7-1,3.77-4.41Zm-9.31-1.9c2.18-.13,3.31.77,3.4,2.67-.13,1.9-1.27,3-3.4,3.4V38.2Z"/><path class="cls-1" d="M173.64,35.43A1.75,1.75,0,0,1,175,37.62l-5.57,13.71a4.77,4.77,0,0,1-1.86,2h6.58a1.69,1.69,0,0,1-.84-2.39l1.25-3.06h6l1,2.13c.75,1.54.47,2.66-.81,3.32h9.5A5.24,5.24,0,0,1,188,50.82l-6.5-15.39Zm1.75,10,1.91-5.08,2.13,5.08Z"/><path class="cls-1" d="M227.39,35.43a1.76,1.76,0,0,1,1.31,2.19l-5.58,13.71a5,5,0,0,1-1.85,2h6.58a1.7,1.7,0,0,1-.85-2.39l1.26-3.06h6l1,2.13c.74,1.54.47,2.66-.82,3.32h9.51a5.24,5.24,0,0,1-2.19-2.51l-6.5-15.39ZM231,40.35l2.14,5.08h-4.05L231,40.35Z"/><polygon class="cls-1" points="111.12 58.12 111.12 59.58 244.56 59.58 244.56 58.12 111.12 58.12 111.12 58.12"/></svg>