<svg id="Layer_1" data-name="Layer 1" xmlns="http://www.w3.org/2000/svg" viewBox="0 0 255.12 85.04"><defs><style>.cls-1,.cls-2{fill:#004481;}.cls-1{fill-rule:evenodd;}</style></defs><title>Artboard 3 copy 30</title><path class="cls-1" d="M188.82,65.6c-.27.5-.32.7-.9.93a2.06,2.06,0,0,1-.7,0c-.61-.21-.68-.57-.92-1L166,27.44a2.51,2.51,0,0,1-.37-1,.79.79,0,0,1,.82-1c2.16,0,4,.06,6,.06a1.34,1.34,0,0,1,1.35.7l13,25a7.5,7.5,0,0,0,.51.65c.46.19.79.05,1.06-.46L201,27.27s.78-1.71,1.54-1.71c2.05,0,4,.11,6.05.11.9,0,.9.71.85.9a22,22,0,0,0-1.12,2.19Z"/><path class="cls-1" d="M222.39,20.67c.28-.49.32-.7.9-.92a2.41,2.41,0,0,1,.71,0c.6.22.67.58.92,1l20.25,38.07a2.47,2.47,0,0,1,.38.95.79.79,0,0,1-.82,1c-2.17,0-4-.06-6-.06a1.36,1.36,0,0,1-1.35-.7l-13-25a7.81,7.81,0,0,0-.5-.65c-.46-.19-.79-.05-1.06.46L210.21,59s-.77,1.71-1.54,1.71c-2,0-4-.11-6-.11-.9,0-.9-.71-.85-.9a20,20,0,0,0,1.12-2.19Z"/><path class="cls-2" d="M164.49,49.77a13.32,13.32,0,0,0-2.12-3,7.17,7.17,0,0,0-2.89-1.94.62.62,0,0,1,.32-.32A7.27,7.27,0,0,0,162.18,42a9.32,9.32,0,0,0,1.39-5.14,9.49,9.49,0,0,1,0-1.41,10.92,10.92,0,0,0-2-5.23c-.09-.11-.18-.22-.28-.32a19.06,19.06,0,0,0-1.74-1.62c-.24-.17-.5-.32-.73-.5a10.81,10.81,0,0,0-3.21-1.4c-.18-.05-.37-.11-.55-.18a18.89,18.89,0,0,0-4.12-.32c-6.13.06-12.25,0-18.38,0a2.21,2.21,0,0,1-.68-.05,1.07,1.07,0,0,0-1.38,1.27,2.53,2.53,0,0,1,.18,1.05q0,17.5,0,35a18.77,18.77,0,0,1-.09,3,.71.71,0,0,0,.67.68l20,.06a27.86,27.86,0,0,0,5.74-.76c3.62-1.31,8.32-4.43,8.32-9.42C165.37,56.19,165.71,52.33,164.49,49.77ZM137.43,32.9c0-.75.27-1,1-1l12.15,0c.76,0,6,.52,6,5.23,0,3.28-1.61,5.37-4.4,5.37-1.32,0-11.7,0-13.81,0-.8,0-1-.21-1-1Zm16.92,27.51c-.63.15-5.84.4-7.75.4h-8c-1,0-1.17-.2-1.17-1.17v-10c0-1,.23-1.21,1.2-1.21h7.88c1.9,0,6.3-.12,8.53.64,2,.68,3.57,2.32,3.57,5.49A6,6,0,0,1,154.35,60.41Z"/><path class="cls-2" d="M123.62,49.48a12.23,12.23,0,0,0-5-5,.6.6,0,0,1,.32-.33,7.33,7.33,0,0,0,2.38-2.48,9.35,9.35,0,0,0,1.39-5.15,9.35,9.35,0,0,1,0-1.4,11,11,0,0,0-2-5.23,2.92,2.92,0,0,0-.28-.32A15.77,15.77,0,0,0,118.64,28c-.23-.18-.49-.33-.72-.51a10.78,10.78,0,0,0-3.21-1.39c-.19,0-.37-.12-.55-.18a18.29,18.29,0,0,0-4.12-.32c-6.13.06-12.26,0-18.38,0a2.21,2.21,0,0,1-.68,0,1.07,1.07,0,0,0-1.38,1.27,2.48,2.48,0,0,1,.18,1.05q0,17.5,0,35a18.93,18.93,0,0,1-.09,3,.7.7,0,0,0,.67.67c6.26,0,19.24.06,20,.06a27.66,27.66,0,0,0,5.73-.76c3.63-1.31,7.66-4.47,8.33-9.42A11.87,11.87,0,0,0,123.62,49.48ZM96.56,32.62c0-.76.27-1,1-1q6.08,0,12.15,0c.76,0,6,.51,6,5.22,0,3.28-1.82,4.84-4.58,5.26-1.21.19-11.52.13-13.63.13-.8,0-1-.22-1-1Zm16.92,27.51c-.63.15-5.84.39-7.75.4h-8c-1,0-1.17-.19-1.17-1.17v-10c0-1,.23-1.21,1.2-1.21h7.88c1.9,0,6.3-.12,8.53.64,2,.67,3.57,2.32,3.57,5.49A6,6,0,0,1,113.48,60.13Z"/></svg>