<?xml version="1.0" encoding="UTF-8" standalone="no"?>
<svg
   xmlns:dc="http://purl.org/dc/elements/1.1/"
   xmlns:cc="http://creativecommons.org/ns#"
   xmlns:rdf="http://www.w3.org/1999/02/22-rdf-syntax-ns#"
   xmlns:svg="http://www.w3.org/2000/svg"
   xmlns="http://www.w3.org/2000/svg"
   xmlns:xlink="http://www.w3.org/1999/xlink"
   xmlns:sodipodi="http://sodipodi.sourceforge.net/DTD/sodipodi-0.dtd"
   xmlns:inkscape="http://www.inkscape.org/namespaces/inkscape"
   id="Layer_1"
   data-name="Layer 1"
   viewBox="0 0 255.12 85.04"
   version="1.1"
   sodipodi:docname="CapitalOne.svg"
   inkscape:version="0.92.4 (5da689c313, 2019-01-14)">
  <metadata
     id="metadata35">
    <rdf:RDF>
      <cc:Work
         rdf:about="">
        <dc:format>image/svg+xml</dc:format>
        <dc:type
           rdf:resource="http://purl.org/dc/dcmitype/StillImage" />
        <dc:title>Artboard 3 copy 40</dc:title>
      </cc:Work>
    </rdf:RDF>
  </metadata>
  <sodipodi:namedview
     pagecolor="#ffffff"
     bordercolor="#666666"
     borderopacity="1"
     objecttolerance="10"
     gridtolerance="10"
     guidetolerance="10"
     inkscape:pageopacity="0"
     inkscape:pageshadow="2"
     inkscape:window-width="1366"
     inkscape:window-height="705"
     id="namedview33"
     showgrid="false"
     inkscape:zoom="1.28"
     inkscape:cx="60.674694"
     inkscape:cy="77.905991"
     inkscape:window-x="-8"
     inkscape:window-y="-8"
     inkscape:window-maximized="1"
     inkscape:current-layer="Layer_1-7" />
  <defs
     id="defs12">
    <style
       id="style10">.cls-1{fill:#2b5097;fill-rule:evenodd;}</style>
    <clipPath
       clip-path="url(#SVGID_23_)"
       id="SVGID_24_-2">
      <use
         height="100%"
         width="100%"
         y="0"
         x="0"
         style="overflow:visible"
         id="use91-7"
         overflow="visible"
         xlink:href="#SVGID_15_" />
    </clipPath>
    <clipPath
       clip-path="url(#SVGID_23_)"
       id="clipPath3453">
      <use
         height="100%"
         width="100%"
         y="0"
         x="0"
         style="overflow:visible"
         id="use3455"
         overflow="visible"
         xlink:href="#SVGID_15_" />
    </clipPath>
    <clipPath
       clip-path="url(#SVGID_23_)"
       id="clipPath3457">
      <use
         height="100%"
         width="100%"
         y="0"
         x="0"
         style="overflow:visible"
         id="use3459"
         overflow="visible"
         xlink:href="#SVGID_15_" />
    </clipPath>
    <clipPath
       clip-path="url(#SVGID_23_)"
       id="clipPath3461">
      <use
         height="100%"
         width="100%"
         y="0"
         x="0"
         style="overflow:visible"
         id="use3463"
         overflow="visible"
         xlink:href="#SVGID_15_" />
    </clipPath>
    <clipPath
       clip-path="url(#SVGID_23_)"
       id="clipPath3465">
      <use
         height="100%"
         width="100%"
         y="0"
         x="0"
         style="overflow:visible"
         id="use3467"
         overflow="visible"
         xlink:href="#SVGID_15_" />
    </clipPath>
    <clipPath
       clip-path="url(#SVGID_23_)"
       id="clipPath3469">
      <use
         height="100%"
         width="100%"
         y="0"
         x="0"
         style="overflow:visible"
         id="use3471"
         overflow="visible"
         xlink:href="#SVGID_15_" />
    </clipPath>
    <clipPath
       clip-path="url(#SVGID_23_)"
       id="clipPath3473">
      <use
         height="100%"
         width="100%"
         y="0"
         x="0"
         style="overflow:visible"
         id="use3475"
         overflow="visible"
         xlink:href="#SVGID_15_" />
    </clipPath>
    <clipPath
       clip-path="url(#SVGID_23_)"
       id="clipPath3477">
      <use
         height="100%"
         width="100%"
         y="0"
         x="0"
         style="overflow:visible"
         id="use3479"
         overflow="visible"
         xlink:href="#SVGID_15_" />
    </clipPath>
    <clipPath
       id="SVGID_6_-3">
      <use
         height="100%"
         width="100%"
         y="0"
         x="0"
         style="overflow:visible"
         id="use33-6"
         overflow="visible"
         xlink:href="#SVGID_5_" />
    </clipPath>
    <clipPath
       clip-path="url(#SVGID_23_)"
       id="clipPath3483">
      <use
         height="100%"
         width="100%"
         y="0"
         x="0"
         style="overflow:visible"
         id="use3485"
         overflow="visible"
         xlink:href="#SVGID_15_" />
    </clipPath>
    <clipPath
       clip-path="url(#SVGID_23_)"
       id="SVGID_24_-2-4">
      <use
         height="100%"
         width="100%"
         y="0"
         x="0"
         style="overflow:visible"
         id="use91-7-4"
         overflow="visible"
         xlink:href="#SVGID_15_" />
    </clipPath>
    <clipPath
       clip-path="url(#SVGID_23_)"
       id="clipPath3626">
      <use
         height="100%"
         width="100%"
         y="0"
         x="0"
         style="overflow:visible"
         id="use3628"
         overflow="visible"
         xlink:href="#SVGID_15_" />
    </clipPath>
    <clipPath
       clip-path="url(#SVGID_23_)"
       id="clipPath3630">
      <use
         height="100%"
         width="100%"
         y="0"
         x="0"
         style="overflow:visible"
         id="use3632"
         overflow="visible"
         xlink:href="#SVGID_15_" />
    </clipPath>
    <clipPath
       clip-path="url(#SVGID_23_)"
       id="clipPath3634">
      <use
         height="100%"
         width="100%"
         y="0"
         x="0"
         style="overflow:visible"
         id="use3636"
         overflow="visible"
         xlink:href="#SVGID_15_" />
    </clipPath>
    <clipPath
       clip-path="url(#SVGID_23_)"
       id="clipPath3638">
      <use
         height="100%"
         width="100%"
         y="0"
         x="0"
         style="overflow:visible"
         id="use3640"
         overflow="visible"
         xlink:href="#SVGID_15_" />
    </clipPath>
    <clipPath
       clip-path="url(#SVGID_23_)"
       id="clipPath3642">
      <use
         height="100%"
         width="100%"
         y="0"
         x="0"
         style="overflow:visible"
         id="use3644"
         overflow="visible"
         xlink:href="#SVGID_15_" />
    </clipPath>
    <clipPath
       clip-path="url(#SVGID_23_)"
       id="clipPath3646">
      <use
         height="100%"
         width="100%"
         y="0"
         x="0"
         style="overflow:visible"
         id="use3648"
         overflow="visible"
         xlink:href="#SVGID_15_" />
    </clipPath>
    <clipPath
       clip-path="url(#SVGID_23_)"
       id="clipPath3650">
      <use
         height="100%"
         width="100%"
         y="0"
         x="0"
         style="overflow:visible"
         id="use3652"
         overflow="visible"
         xlink:href="#SVGID_15_" />
    </clipPath>
    <clipPath
       clip-path="url(#SVGID_23_)"
       id="SVGID_24_-2-8">
      <use
         height="100%"
         width="100%"
         y="0"
         x="0"
         style="overflow:visible"
         id="use91-7-7"
         overflow="visible"
         xlink:href="#SVGID_15_" />
    </clipPath>
    <clipPath
       clip-path="url(#SVGID_23_)"
       id="clipPath3790">
      <use
         height="100%"
         width="100%"
         y="0"
         x="0"
         style="overflow:visible"
         id="use3792"
         overflow="visible"
         xlink:href="#SVGID_15_" />
    </clipPath>
    <clipPath
       clip-path="url(#SVGID_23_)"
       id="clipPath3794">
      <use
         height="100%"
         width="100%"
         y="0"
         x="0"
         style="overflow:visible"
         id="use3796"
         overflow="visible"
         xlink:href="#SVGID_15_" />
    </clipPath>
    <clipPath
       clip-path="url(#SVGID_23_)"
       id="clipPath3798">
      <use
         height="100%"
         width="100%"
         y="0"
         x="0"
         style="overflow:visible"
         id="use3800"
         overflow="visible"
         xlink:href="#SVGID_15_" />
    </clipPath>
    <clipPath
       clip-path="url(#SVGID_23_)"
       id="clipPath3802">
      <use
         height="100%"
         width="100%"
         y="0"
         x="0"
         style="overflow:visible"
         id="use3804"
         overflow="visible"
         xlink:href="#SVGID_15_" />
    </clipPath>
    <clipPath
       clip-path="url(#SVGID_23_)"
       id="clipPath3806">
      <use
         height="100%"
         width="100%"
         y="0"
         x="0"
         style="overflow:visible"
         id="use3808"
         overflow="visible"
         xlink:href="#SVGID_15_" />
    </clipPath>
    <clipPath
       clip-path="url(#SVGID_23_)"
       id="clipPath3810">
      <use
         height="100%"
         width="100%"
         y="0"
         x="0"
         style="overflow:visible"
         id="use3812"
         overflow="visible"
         xlink:href="#SVGID_15_" />
    </clipPath>
    <clipPath
       clip-path="url(#SVGID_23_)"
       id="clipPath3814">
      <use
         height="100%"
         width="100%"
         y="0"
         x="0"
         style="overflow:visible"
         id="use3816"
         overflow="visible"
         xlink:href="#SVGID_15_" />
    </clipPath>
    <clipPath
       clip-path="url(#SVGID_23_)"
       id="clipPath3818">
      <use
         height="100%"
         width="100%"
         y="0"
         x="0"
         style="overflow:visible"
         id="use3820"
         overflow="visible"
         xlink:href="#SVGID_15_" />
    </clipPath>
    <clipPath
       id="SVGID_6_-3-4">
      <use
         height="100%"
         width="100%"
         y="0"
         x="0"
         style="overflow:visible"
         id="use33-6-5"
         overflow="visible"
         xlink:href="#SVGID_5_" />
    </clipPath>
    <clipPath
       clip-path="url(#SVGID_23_)"
       id="SVGID_24_-2-8-1">
      <use
         height="100%"
         width="100%"
         y="0"
         x="0"
         style="overflow:visible"
         id="use91-7-7-4"
         overflow="visible"
         xlink:href="#SVGID_15_" />
    </clipPath>
    <clipPath
       id="SVGID_6_-3-4-6">
      <use
         height="100%"
         width="100%"
         y="0"
         x="0"
         style="overflow:visible"
         id="use33-6-5-6"
         overflow="visible"
         xlink:href="#SVGID_5_" />
    </clipPath>
    <clipPath
       clip-path="url(#SVGID_23_)"
       id="SVGID_24_-2-8-3">
      <use
         height="100%"
         width="100%"
         y="0"
         x="0"
         style="overflow:visible"
         id="use91-7-7-0"
         overflow="visible"
         xlink:href="#SVGID_15_" />
    </clipPath>
    <clipPath
       clip-path="url(#SVGID_23_)"
       id="clipPath3951">
      <use
         height="100%"
         width="100%"
         y="0"
         x="0"
         style="overflow:visible"
         id="use3953"
         overflow="visible"
         xlink:href="#SVGID_15_" />
    </clipPath>
    <clipPath
       clip-path="url(#SVGID_23_)"
       id="clipPath3955">
      <use
         height="100%"
         width="100%"
         y="0"
         x="0"
         style="overflow:visible"
         id="use3957"
         overflow="visible"
         xlink:href="#SVGID_15_" />
    </clipPath>
    <clipPath
       clip-path="url(#SVGID_23_)"
       id="clipPath3959">
      <use
         height="100%"
         width="100%"
         y="0"
         x="0"
         style="overflow:visible"
         id="use3961"
         overflow="visible"
         xlink:href="#SVGID_15_" />
    </clipPath>
    <clipPath
       clip-path="url(#SVGID_23_)"
       id="clipPath3963">
      <use
         height="100%"
         width="100%"
         y="0"
         x="0"
         style="overflow:visible"
         id="use3965"
         overflow="visible"
         xlink:href="#SVGID_15_" />
    </clipPath>
    <clipPath
       clip-path="url(#SVGID_23_)"
       id="clipPath3967">
      <use
         height="100%"
         width="100%"
         y="0"
         x="0"
         style="overflow:visible"
         id="use3969"
         overflow="visible"
         xlink:href="#SVGID_15_" />
    </clipPath>
    <clipPath
       clip-path="url(#SVGID_23_)"
       id="clipPath3971">
      <use
         height="100%"
         width="100%"
         y="0"
         x="0"
         style="overflow:visible"
         id="use3973"
         overflow="visible"
         xlink:href="#SVGID_15_" />
    </clipPath>
    <clipPath
       clip-path="url(#SVGID_23_)"
       id="clipPath3975">
      <use
         height="100%"
         width="100%"
         y="0"
         x="0"
         style="overflow:visible"
         id="use3977"
         overflow="visible"
         xlink:href="#SVGID_15_" />
    </clipPath>
    <rect
       height="500"
       width="800"
       y="-176"
       x="-130.438"
       id="SVGID_1_" />
    <rect
       height="500"
       width="800"
       y="-176"
       x="-130.438"
       id="SVGID_3_" />
    <rect
       height="146.554"
       width="144.311"
       y="0.72299999"
       x="0.47600001"
       id="SVGID_5_" />
    <rect
       height="500"
       width="800"
       y="-176"
       x="-130.438"
       id="SVGID_7_" />
    <rect
       height="500"
       width="800"
       y="-176"
       x="-130.438"
       id="SVGID_8_" />
    <rect
       height="500"
       width="800"
       y="-176"
       x="-130.438"
       id="SVGID_9_" />
    <rect
       height="500"
       width="800"
       y="-176"
       x="-130.438"
       id="SVGID_10_" />
    <rect
       height="500"
       width="800"
       y="-176"
       x="-130.438"
       id="SVGID_11_" />
    <rect
       height="500"
       width="800"
       y="-176"
       x="-130.438"
       id="SVGID_12_" />
    <rect
       height="500"
       width="800"
       y="-176"
       x="-130.438"
       id="SVGID_13_" />
    <rect
       height="500"
       width="800"
       y="-176"
       x="-130.438"
       id="SVGID_14_" />
    <rect
       height="500"
       width="800"
       y="-176"
       x="-130.438"
       id="SVGID_15_" />
    <clipPath
       id="_clipPath_f0UbNDBXQ8aHAFPmOgnXs5adxYD8xIe2">
      <rect
         id="rect252"
         height="30"
         width="121" />
    </clipPath>
  </defs>
  <title
     id="title14">Artboard 3 copy 40</title>
  <style
     id="style401"
     type="text/css">
	.st0{stroke:#000000;stroke-width:0.7024;stroke-miterlimit:10;}
	.st1{fill-rule:evenodd;clip-rule:evenodd;fill:url(#SVGID_1_);}
	.st2{fill-rule:evenodd;clip-rule:evenodd;fill:url(#SVGID_2_);}
	.st3{fill-rule:evenodd;clip-rule:evenodd;fill:url(#SVGID_3_);}
</style>
  <g
     id="g524"
     transform="matrix(0.32763442,0,0,0.33108194,-3.3589898,-13.966892)">
    <g
       id="Layer_1-7">
      <g
         id="g431" />
      <g
         id="g187"
         transform="matrix(3.4398095,0,0,3.4039912,128.52319,76.503486)">
        <path
           id="path163"
           d="m 120.44,46.071 c -0.01,0.01 -0.02,0.01 -0.02,0.02 -7.56,5.35 -16.51,10.97 -26.14,16.87 l -0.38,0.22 c -0.13,0.09 -0.16,0.27 -0.07,0.4 0.09,0.13 0.27,0.16 0.4,0.07 l 0.32,-0.17 c 8.17,-4.26 17.55,-9.32 26.99,-14.51 0.05,-0.03 0.1,-0.06 0.15,-0.08 -0.52,-0.86 -0.95,-1.8 -1.25,-2.82 z m 49.6,-40.15 c -11.91,-13.14 -88.56,-1.32 -121.15,5.8 l -0.76,0.16 c -0.16,0.03 -0.26,0.18 -0.23,0.33 0.03,0.16 0.18,0.26 0.33,0.23 l 0.75,-0.15 c 27,-4.81 83.16,-11.47 95.24,0.51 3.69,3.66 2.81,8.36 -1.47,13.92 2.3,1.48 3.94,3.81 4.68,6.72 16.7,-11.08 27.91,-21.67 22.61,-27.52 z"
           inkscape:connector-curvature="0"
           style="fill:#d03027" />
        <g
           id="g185"
           style="fill:#004977">
          <path
             id="path165"
             d="m 125.26,42.621 c 0.15,4.62 3.08,8.41 6.89,8.41 7.39,0 10.54,-9.08 10.32,-15.14 -0.16,-4.63 -3.16,-8.41 -6.97,-8.41 -6.35,-0.01 -10.46,9.03 -10.24,15.14 z m -3.9,-0.25 c -0.27,-7.89 5.91,-15.96 14.89,-15.96 6,0 9.93,4 10.15,10.13 0.29,8.32 -5.49,15.96 -14.88,15.96 -6.02,0 -9.95,-3.99 -10.16,-10.13 z"
             inkscape:connector-curvature="0" />
          <path
             id="path167"
             d="m 36.313,40.291 c -0.32,0.12 -0.73,0.24 -1.25,0.35 -0.51,0.12 -1.45,0.28 -2.81,0.5 -0.94,0.15 -1.59,0.34 -1.96,0.61 -0.35,0.26 -0.56,0.57 -0.62,0.96 -0.07,0.41 0.06,0.73 0.41,0.99 0.36,0.25 0.96,0.38 1.81,0.38 0.64,0 1.26,-0.1 1.86,-0.3 0.61,-0.2 1.13,-0.47 1.52,-0.81 0.29,-0.25 0.5,-0.57 0.66,-0.96 0.1,-0.26 0.23,-0.83 0.38,-1.72 z m 7.8,-4.85 c -0.03,0.72 -0.16,1.36 -0.35,2.47 l -1.32,7.41 c -0.11,0.66 0.13,1.17 0.74,1.53 l -0.04,0.29 -7.56,-0.01 -0.07,-1.88 c -1.1,0.66 -2.43,1.22 -3.63,1.55 -1.2,0.31 -2.17,0.44 -3.62,0.44 -2.44,0 -3.84,-0.25 -4.81,-1.1 -0.98,-0.87 -1.46,-1.45 -1.41,-2.65 0.04,-0.69 0.4,-1.58 0.91,-2.2 0.52,-0.63 1.24,-1.04 2.01,-1.41 0.78,-0.37 1.7,-0.64 3.03,-0.85 1.34,-0.22 3.2,-0.43 5.69,-0.64 1.31,-0.11 2.11,-0.41 2.48,-0.56 0.52,-0.2 0.73,-0.43 0.8,-0.85 0.14,-0.76 -0.1,-1.2 -1.12,-1.4 -2.72,-0.54 -7.83,0.35 -10.46,1 l 1.43,-3.86 c 3.47,-0.51 6.72,-0.83 10.15,-0.83 5.47,0 7.21,1.55 7.15,3.55 z"
             inkscape:connector-curvature="0" />
          <path
             id="path169"
             d="m 66.033,47.131 2.62,-14.81 h 7.24 l -2.62,14.81 z m 3.02,-18.24 c 0.22,-1.22 2.14,-2.2 4.28,-2.2 2.15,0 3.72,0.99 3.51,2.2 -0.23,1.22 -2.14,2.21 -4.3,2.21 -2.14,0 -3.7,-0.99 -3.49,-2.21 z"
             inkscape:connector-curvature="0" />
          <path
             id="path171"
             d="m 101.6,40.321 c -0.33,0.11 -0.75,0.23 -1.26,0.35 -0.51,0.12 -1.45,0.27 -2.81,0.49 -0.93,0.15 -1.59,0.34 -1.95,0.61 -0.35,0.25 -0.55,0.57 -0.63,0.95 -0.08,0.41 0.07,0.74 0.41,0.99 0.37,0.25 0.97,0.37 1.82,0.37 0.63,0 1.25,-0.09 1.86,-0.28 0.62,-0.21 1.13,-0.47 1.53,-0.81 0.28,-0.25 0.49,-0.58 0.64,-0.96 0.1,-0.25 0.23,-0.82 0.39,-1.71 z m 7.8,-4.86 c -0.03,0.73 -0.16,1.37 -0.36,2.47 l -1.31,7.42 c -0.11,0.65 0.13,1.17 0.74,1.53 l -0.04,0.26 -7.56,0.01 -0.06,-1.89 c -1.1,0.67 -2.44,1.23 -3.63,1.55 -1.2,0.32 -2.17,0.45 -3.64,0.45 -2.44,0 -3.83,-0.24 -4.8,-1.1 -0.99,-0.88 -1.46,-1.45 -1.41,-2.65 0.03,-0.7 0.39,-1.59 0.91,-2.2 0.52,-0.64 1.24,-1.04 2.02,-1.41 0.78,-0.37 1.7,-0.64 3.02,-0.86 1.34,-0.21 3.21,-0.43 5.7,-0.64 1.3,-0.11 2.1,-0.4 2.47,-0.55 0.53,-0.2 0.73,-0.43 0.81,-0.86 0.13,-0.75 -0.1,-1.19 -1.11,-1.4 -2.74,-0.54 -7.83,0.35 -10.46,1 l 1.42,-3.86 c 3.48,-0.51 6.72,-0.83 10.15,-0.83 5.45,0.01 7.19,1.57 7.14,3.56 z"
             inkscape:connector-curvature="0" />
          <path
             id="path173"
             d="m 21.063,41.811 c -2.36,0.47 -3.68,0.65 -6.01,0.65 -3.46,0 -6.21,-1.72 -6.06,-4.87 0.11,-2.1 2.59,-6.52 8.9,-6.52 1.99,0 3.54,0.35 5.63,1.54 l 0.92,-5.14 c -2.84,-1.07 -4.72,-1.23 -7.16,-1.21 -8.28,0.09 -16.22,3.85 -17.21,11.5 -1,7.77 8.49,9.72 12.7,9.7 2.43,-0.01 4.96,-0.11 7.32,-0.35 z"
             inkscape:connector-curvature="0" />
          <path
             id="path175"
             d="m 79.883,32.241 0.52,-3.02 7.57,-1.65 -0.81,4.66 h 3.71 l -0.7,2.98 -3.6,-0.01 -2.19,11.91 c 0,0 -7.29,-0.05 -7.32,0 l 2.18,-11.88 h -2.74 l 0.56,-3 h 2.82 z"
             inkscape:connector-curvature="0" />
          <polygon
             id="polygon177"
             points="109.38,47.13 113.09,26.47 120.27,26.67 116.75,47.12 "
             transform="translate(0.0033033,5.8907e-4)" />
          <path
             id="path179"
             d="m 56.453,35.791 c -0.95,0 -1.81,0.29 -2.57,0.86 -0.76,0.58 -1.24,1.42 -1.43,2.53 -0.23,1.29 -0.09,2.22 0.42,2.79 0.52,0.57 1.26,0.86 2.24,0.86 0.66,0 1.34,-0.12 1.84,-0.37 0.62,-0.33 1.05,-0.67 1.42,-1.22 0.4,-0.57 0.66,-1.21 0.8,-1.95 0.21,-1.17 0.03,-2.04 -0.51,-2.62 -0.53,-0.58 -1.26,-0.88 -2.21,-0.88 z m -13.18,16.45 3.53,-19.84 h 6.36 l -0.49,2.53 c 0.55,-0.76 1.43,-1.38 2.65,-1.88 1.23,-0.5 2.61,-0.87 4.11,-0.87 1.66,0 2.68,0.09 3.92,0.73 1.23,0.65 2.1,1.59 2.56,2.81 0.48,1.2 0.58,2.56 0.32,4.03 -0.43,2.45 -1.62,4.37 -3.58,5.79 -1.94,1.42 -3.69,1.79 -6.18,1.8 -0.88,0 -1.62,-0.09 -2.23,-0.24 -0.6,-0.16 -1.08,-0.35 -1.44,-0.58 -0.35,-0.23 -0.72,-0.56 -1.19,-1.08 l -1.18,6.8 z"
             inkscape:connector-curvature="0" />
          <path
             id="path181"
             d="m 174.69,37.611 c -0.04,-1.19 -0.64,-2 -1.87,-2 -2.97,0 -6.13,5.82 -6.67,8.16 4.87,0.01 8.66,-2.89 8.54,-6.16 z m 0.64,9.12 0.57,0.39 c -1.45,2.95 -4.4,5.32 -7.86,5.32 -2.83,0 -5.16,-1.89 -5.28,-5.43 -0.23,-6.35 5.72,-12.24 10.59,-12.24 2.09,0 4.03,0.91 4.11,3.16 0.18,5.05 -6.91,6.59 -11.58,6.7 -0.15,0.53 -0.21,1.06 -0.18,1.86 0.08,2.09 1.34,3.85 3.96,3.85 2.26,0 4.52,-1.82 5.67,-3.61 z"
             inkscape:connector-curvature="0" />
          <path
             id="path183"
             d="m 146.29,37.451 c 0.5,-0.07 1.31,-0.16 1.66,-0.16 0.53,0 1.03,0.1 1.06,0.63 0.01,0.31 -0.55,2.56 -0.67,3.08 l -1.13,4.98 c -0.46,2.04 -0.95,4.17 -1.39,5.86 h 2.9 l 1.63,-7.89 c 4.97,-5.18 6.89,-6.87 8.06,-6.87 0.53,0 0.89,0.28 0.92,0.91 0.03,0.91 -0.54,2.98 -0.73,3.58 l -1.66,5.75 c -0.38,1.29 -0.66,2.46 -0.63,3.29 0.05,1.26 0.81,1.82 1.95,1.82 2.12,0 3.66,-2.21 5,-4.38 l -0.39,-0.71 c -0.54,0.87 -1.8,2.78 -2.79,2.78 -0.31,0 -0.61,-0.21 -0.62,-0.73 -0.03,-0.67 0.25,-1.68 0.45,-2.35 l 1.85,-6.74 c 0.5,-1.86 0.73,-3.05 0.72,-3.69 -0.05,-1.26 -0.78,-1.85 -1.91,-1.85 -1.91,0 -4.44,1.4 -9.81,7.57 h -0.08 l 0.68,-3.01 c 0.37,-1.65 0.73,-3.37 1.07,-4.56 -1.86,0.67 -4.52,1.42 -6.16,1.74 z"
             inkscape:connector-curvature="0" />
        </g>
      </g>
    </g>
    <g
       id="Layer_2" />
  </g>
</svg>
