<?xml version="1.0" encoding="UTF-8" standalone="no"?>
<svg
   xmlns:dc="http://purl.org/dc/elements/1.1/"
   xmlns:cc="http://creativecommons.org/ns#"
   xmlns:rdf="http://www.w3.org/1999/02/22-rdf-syntax-ns#"
   xmlns:svg="http://www.w3.org/2000/svg"
   xmlns="http://www.w3.org/2000/svg"
   xmlns:sodipodi="http://sodipodi.sourceforge.net/DTD/sodipodi-0.dtd"
   xmlns:inkscape="http://www.inkscape.org/namespaces/inkscape"
   id="Layer_1"
   data-name="Layer 1"
   viewBox="0 0 255.12 85.04"
   version="1.1"
   sodipodi:docname="CBC.svg"
   inkscape:version="0.92.4 (5da689c313, 2019-01-14)">
  <metadata
     id="metadata35">
    <rdf:RDF>
      <cc:Work
         rdf:about="">
        <dc:format>image/svg+xml</dc:format>
        <dc:type
           rdf:resource="http://purl.org/dc/dcmitype/StillImage" />
        <dc:title>Artboard 3 copy 40</dc:title>
      </cc:Work>
    </rdf:RDF>
  </metadata>
  <sodipodi:namedview
     pagecolor="#ffffff"
     bordercolor="#666666"
     borderopacity="1"
     objecttolerance="10"
     gridtolerance="10"
     guidetolerance="10"
     inkscape:pageopacity="0"
     inkscape:pageshadow="2"
     inkscape:window-width="1366"
     inkscape:window-height="705"
     id="namedview33"
     showgrid="false"
     inkscape:zoom="2.56"
     inkscape:cx="88.675415"
     inkscape:cy="4.1300412"
     inkscape:window-x="-8"
     inkscape:window-y="-8"
     inkscape:window-maximized="1"
     inkscape:current-layer="Layer_1" />
  <defs
     id="defs12">
    <style
       id="style10">.cls-1{fill:#2b5097;fill-rule:evenodd;}</style>
  </defs>
  <title
     id="title14">Artboard 3 copy 40</title>
  <g
     id="g32"
     transform="matrix(0.0199589,0,0,-0.02005681,28.192059,123.62534)"
     style="fill:#000000;stroke:none">
    <path
       style="fill:#660080"
       id="path10"
       d="m 2243,5962 c -68,-42 -123,-80 -123,-84 0,-3 35,-62 77,-130 102,-164 136,-260 137,-388 1,-167 -57,-298 -183,-411 -141,-129 -322,-187 -489,-159 -180,30 -319,139 -453,357 l -75,121 -127,-80 c -70,-44 -127,-83 -127,-86 1,-24 207,-325 259,-379 337,-344 872,-344 1238,1 195,183 282,396 270,660 -9,195 -40,283 -178,506 -52,82 -96,150 -99,149 -3,0 -60,-35 -127,-77 z"
       inkscape:connector-curvature="0" />
    <path
       style="fill:#53676c"
       id="path12"
       d="m 6457,5154 c -4,-4 -7,-418 -7,-921 v -913 h 155 155 v 98 97 l 68,-65 c 143,-138 304,-184 500,-144 236,48 418,230 478,479 25,102 23,305 -4,406 -79,297 -307,479 -597,479 -160,0 -254,-40 -372,-158 l -73,-72 -2,357 -3,358 -146,3 c -80,1 -148,-1 -152,-4 z m 835,-776 c 204,-94 291,-397 177,-620 -72,-142 -237,-225 -391,-198 -199,36 -327,202 -328,426 0,187 106,348 271,408 68,25 198,17 271,-16 z"
       inkscape:connector-curvature="0" />
    <path
       style="fill:#53676c"
       id="path14"
       d="m 5589,4655 c -304,-74 -519,-355 -519,-679 0,-261 144,-498 370,-610 125,-61 213,-79 355,-73 179,7 309,61 443,183 l 64,57 -93,93 -92,93 -51,-45 c -28,-25 -85,-62 -125,-82 -70,-35 -81,-37 -165,-36 -119,1 -185,26 -266,101 -265,245 -124,726 220,751 120,8 203,-22 317,-115 l 57,-46 93,99 93,99 -60,57 c -74,68 -196,134 -288,153 -84,18 -278,18 -353,0 z"
       inkscape:connector-curvature="0" />
    <path
       style="fill:#53676c"
       id="path16"
       d="m 8465,4656 c -138,-39 -238,-96 -327,-187 -233,-238 -261,-628 -65,-901 240,-335 769,-373 1054,-76 l 43,44 -90,89 c -68,68 -94,87 -104,80 -7,-6 -40,-31 -72,-58 -255,-205 -607,-61 -653,268 -28,195 64,383 226,461 52,25 69,29 158,29 93,0 105,-2 165,-32 36,-18 89,-54 119,-80 l 54,-47 94,99 93,99 -38,39 c -55,58 -175,134 -251,159 -85,27 -328,36 -406,14 z"
       inkscape:connector-curvature="0" />
    <path
       id="path18"
       d="m 9314,3620 c -36,-14 -64,-59 -64,-102 0,-78 41,-118 121,-118 56,0 109,51 109,104 0,92 -83,150 -166,116 z m 97,-20 c 29,-16 52,-68 45,-103 -10,-50 -43,-77 -92,-77 -85,0 -126,100 -65,161 31,31 75,38 112,19 z"
       inkscape:connector-curvature="0" />
    <path
       style="fill:#53676c"
       id="path20"
       d="m 9320,3511 c 0,-34 4,-61 10,-61 6,0 10,12 10,26 0,21 4,25 23,22 14,-2 23,-11 25,-25 2,-13 10,-23 18,-23 10,0 12,5 8,12 -5,7 -8,33 -9,58 v 45 l -42,3 -43,3 z m 65,29 c 0,-8 -10,-16 -22,-18 -18,-3 -23,2 -23,18 0,16 5,21 23,18 12,-2 22,-10 22,-18 z"
       inkscape:connector-curvature="0" />
    <path
       id="path10-3"
       d="m 4135.753,4570.6714 c -42,67.9999 -80,123 -84,123 -3,0 -62,-35.0001 -130,-77.0001 -164,-102 -260,-135.9999 -388,-137 -167,-1 -298.0001,57 -411,183 -129,141.0001 -187.0001,322.0001 -159,489.0001 30,180 139,319 357,453 l 121,75 -80,127 c -44,70 -83,127 -86,127 -24,-1 -325.0001,-207 -379.0001,-259 -344,-337 -344,-872.0001 1.0001,-1238.0001 183,-194.9999 396,-281.9999 660,-269.9999 195,9 283,39.9999 506,177.9999 82,52.0001 150,96 149,99 0,3 -35,60 -77,127.0001 z"
       inkscape:connector-curvature="0"
       style="fill:#ff6600;stroke-width:1" />
    <path
       id="path10-0"
       d="m 480.39366,4500.9259 c 9.60396,-79.3457 21.02959,-145.2128 24.6607,-146.8906 2.72334,-1.2583 70.96307,5.7663 150.30893,15.3702 191.65962,23.8032 293.06755,14.4001 409.68261,-38.3819 152.0182,-69.1407 246.609,-176.7401 296.3368,-338.5181 57.9605,-182.106 34.6909,-370.7419 -60.7755,-510.5961 -102.7347,-150.8164 -259.9863,-231.2772 -514.08833,-261.4788 l -141.29998,-17.3296 19.35178,-148.8439 c 10.58057,-82.0004 22.07512,-150.1023 24.79845,-151.3607 22.20611,-9.159 381.85428,51.588 452.68578,76.142 453.6308,161.6295 678.0377,647.2906 518.3739,1124.2481 -84.3302,253.7763 -241.1945,422.0962 -485.8811,521.9382 -180.79166,73.6232 -273.67906,82.394 -533.99785,50.6585 -96.2493,-12.8095 -176.43402,-24.2288 -176.7846,-27.3716 -1.25836,-2.7234 6.60509,-69.1475 16.62841,-147.5857 z"
       inkscape:connector-curvature="0"
       style="fill:#ffcc00;stroke-width:1" />
    <path
       id="path10-0-8"
       d="m 3449.4264,2526.1066 c 46.0151,65.3498 81.6494,121.9113 80.077,125.5893 -1.1793,2.7585 -56.5548,43.25 -121.9047,89.2652 -158.2574,110.7004 -227.2581,185.6064 -278.4949,302.9085 -66.5679,153.1624 -64.7339,296.4162 6.7017,449.8501 78.9383,174.0424 222.5667,298.5249 387.1292,338.4275 177.3021,43.1738 347.96,-2.4097 556.8689,-150.1834 l 116.5277,-81.776 85.3274,123.4837 c 47.068,67.975 84.1481,126.2422 82.9688,129.0007 -10.354,21.6747 -318.0941,217.4631 -387.1354,246.6744 -445.0972,183.83 -937.0267,-26.4807 -1137.9407,-487.5822 -107.3632,-244.9227 -103.6281,-474.975 11.1853,-713.0041 84.9307,-175.7635 148.0281,-244.4928 362.5804,-395.2916 80.0483,-54.9572 147.2371,-100.1862 149.6024,-98.0874 2.7585,1.1793 41.411,55.7685 86.5069,120.7253 z"
       inkscape:connector-curvature="0"
       style="fill:#008000;stroke-width:1" />
    <path
       id="path10-0-3"
       d="m 1282.8493,2440.7306 c 77.9244,-23.5961 143.8576,-39.9972 146.7426,-37.3326 2.1638,1.9983 20.2006,67.8449 39.8253,144.9956 46.836,186.6047 92.2594,276.3394 183.8781,362.3619 119.7475,112.0013 254.8579,155.2747 424.6179,134.9842 191.8071,-21.009 360.4248,-119.65 457.2089,-264.96 104.4475,-156.5018 123.1973,-334.5316 59.8293,-581.377 l -34.7352,-137.4837 146.6596,-43.0309 c 80.7677,-23.7808 148.8232,-41.0326 150.9869,-39.0342 16.6095,16.7454 89.4068,373.4863 91.9295,448.8956 12.0491,484.7391 -362.7036,890.501 -867.9056,938.2744 -268.5798,25.9934 -483.1458,-49.9077 -665.1486,-234.866 -134.3385,-136.7201 -176.0934,-218.8506 -240.2658,-472.0602 -22.7175,-94.0609 -40.9414,-172.7284 -38.1187,-174.3376 2.1013,-2.2753 67.2718,-22.1917 144.4958,-45.0295 z"
       inkscape:connector-curvature="0"
       style="fill:#2a7fff;stroke-width:1.00678575" />
  </g>
</svg>
