<svg id="Layer_1" data-name="Layer 1" xmlns="http://www.w3.org/2000/svg" viewBox="0 0 255.12 85.04"><defs><style>.cls-1{fill:#ea0029;}.cls-2{fill:#00205c;}</style></defs><title>Artboard 3 copy 41</title><polygon class="cls-1" points="126.32 18.54 89.18 63.12 72.56 63.12 109.71 18.54 126.32 18.54"/><polygon class="cls-2" points="148.81 18.54 111.66 63.12 95.04 63.12 132.19 18.54 148.81 18.54"/><path class="cls-2" d="M150.37,58.19v-9a4.69,4.69,0,0,1,4.69-4.68h14.07v4.52H155.78a.89.89,0,0,0-.89.89v7.71a.93.93,0,0,0,.89.93h13.35v4.53h-14a4.71,4.71,0,0,1-4.75-4.65Z"/><rect class="cls-2" x="158.69" y="51.89" width="10.44" height="3.87"/><path class="cls-2" d="M130.23,49.22a4.69,4.69,0,0,1,4.69-4.68h13.89v4.52H135.64a.88.88,0,0,0-.88.89v7.71a.92.92,0,0,0,.88.93h13.17v4.53H135a5,5,0,0,1-4.77-4.93Z"/><path class="cls-2" d="M196.25,58.19v-9a4.69,4.69,0,0,1,4.69-4.68H215v4.52H201.66a.89.89,0,0,0-.89.89v7.71a.93.93,0,0,0,.89.93H215v4.53H201a4.71,4.71,0,0,1-4.75-4.65Z"/><rect class="cls-2" x="204.57" y="51.89" width="10.44" height="3.87"/><path class="cls-2" d="M175.74,49.06V63.12h-4.52V44.54h18.25a4.68,4.68,0,0,1,4.68,4.68v13.9h-4.6V50a.89.89,0,0,0-.89-.89H185V63.12h-4.61V49.06Z"/><path class="cls-2" d="M227.82,56.55l-6,3.8v2.77H217.1v-3.9a2.39,2.39,0,0,1,1.13-1.9l5.66-3.49-5.66-3.49a2.4,2.4,0,0,1-1.13-1.9v-3.9h4.69v2.77l6.06,3.79,6-3.79V44.54h4.68v3.9a2.4,2.4,0,0,1-1.13,1.9l-5.53,3.47,5.53,3.51a2.39,2.39,0,0,1,1.13,1.9v3.9h-4.68V60.35Z"/></svg>