<svg id="Layer_1" data-name="Layer 1" xmlns="http://www.w3.org/2000/svg" viewBox="0 0 255.12 85.04"><defs><style>.cls-1,.cls-2{fill:#2b5097;}.cls-1{fill-rule:evenodd;}</style></defs><title>Artboard 3 copy 44</title><path class="cls-1" d="M170.44,39.11a6.22,6.22,0,1,1-4.75-10.31,6,6,0,0,1,5,2.55c.13.19.19.19,0,.42a4.68,4.68,0,0,1-1.2.77c-.26.17-.47-.18-.47-.18A4.23,4.23,0,0,0,165.86,31a4.08,4.08,0,1,0,0,8.15,4.2,4.2,0,0,0,3-1.25s.29-.45.61-.25S171.07,38.38,170.44,39.11Z"/><path class="cls-1" d="M169.48,57.86a6.22,6.22,0,1,1-4.75-10.31,6.07,6.07,0,0,1,5,2.55c.13.19.19.19,0,.42a4.68,4.68,0,0,1-1.2.77c-.25.17-.47-.18-.47-.18a4.19,4.19,0,0,0-3.13-1.39,4.08,4.08,0,1,0,0,8.15,4.2,4.2,0,0,0,3-1.25s.29-.44.6-.25S170.1,57.13,169.48,57.86Z"/><rect class="cls-2" x="173.17" y="28.81" width="2.4" height="12.49" rx="0.32"/><rect class="cls-2" x="232.95" y="47.57" width="2.4" height="12.49" rx="0.32"/><path class="cls-1" d="M188.52,47.87a.31.31,0,0,0-.32-.28h-1.52a.28.28,0,0,0-.28.28V57s-.4,3,3.42,3h2.81a.29.29,0,0,0,.28-.28V58.25a.28.28,0,0,0-.28-.28h-2.85s-1.26.09-1.26-1Z"/><path class="cls-1" d="M194.94,33.66a.27.27,0,0,1,.28.28v1.52a.26.26,0,0,1-.28.26h-3.25a.82.82,0,0,0-.84.85V38.2a1,1,0,0,0,1.11,1h3a.27.27,0,0,1,.28.28V41a.28.28,0,0,1-.28.28h-3c-3.36,0-3.2-2.51-3.2-2.51V29.37c0-.6.65-.55.65-.55h5.53a.28.28,0,0,1,.28.28v1.52a.27.27,0,0,1-.28.28h-3.52a.69.69,0,0,0-.63.73v1.43a.65.65,0,0,0,.72.6Z"/><path class="cls-1" d="M186.3,33.21a4.4,4.4,0,1,0-8.79,0h0V41a.28.28,0,0,0,.28.28h1.53a.28.28,0,0,0,.28-.28V33.43h0a2.32,2.32,0,0,1,4.63,0h0V41a.28.28,0,0,0,.28.28H186a.28.28,0,0,0,.29-.28v-7.8Z"/><path class="cls-1" d="M174.13,53.8a4.1,4.1,0,1,1,4.1,4.09,4.11,4.11,0,0,1-4.1-4.09Zm4.1,6.35a6.36,6.36,0,1,0-6.36-6.35,6.36,6.36,0,0,0,6.36,6.35Z"/><path class="cls-1" d="M195.39,53.8a4.09,4.09,0,1,1,4.09,4.09,4.1,4.1,0,0,1-4.09-4.09Zm4.09,6.35a6.36,6.36,0,1,0-6.35-6.35,6.35,6.35,0,0,0,6.35,6.35Z"/><path class="cls-1" d="M207.65,59.76a.29.29,0,0,0,.29.28h1.52a.27.27,0,0,0,.28-.28V51.17a1.5,1.5,0,0,1,3,0v8.59A.28.28,0,0,0,213,60h1.53a.28.28,0,0,0,.28-.28V51.17a1.5,1.5,0,0,1,3,0v8.59a.28.28,0,0,0,.29.28h1.52a.27.27,0,0,0,.27-.28V51.21a3.53,3.53,0,0,0-3.53-3.52,3.48,3.48,0,0,0-2.3.86.75.75,0,0,1-.31.09.85.85,0,0,1-.34-.11,3.5,3.5,0,0,0-5.77,2.68Z"/><path class="cls-1" d="M231.34,55.81a4.7,4.7,0,0,1-9.35-.05V47.87a.3.3,0,0,1,.28-.29h5.07a2.52,2.52,0,0,1,2.53,2.52,2.48,2.48,0,0,1-.43,1.42s-.22.62.2.93h0a3.88,3.88,0,0,1,1.7,3.36Zm-4.63,1.95a2,2,0,1,0-2.17-2,2.09,2.09,0,0,0,2.17,2Zm-2.62-5.49c0,.5.25.42.25.42s.32.16.57-.61c.13-.4,1.33-.42,1.33-.42s1.07-.09,1.07-1.06a1.09,1.09,0,0,0-1.1-1.14h-1.37c-.84,0-.75.53-.75.53v2.28Z"/><path class="cls-1" d="M243.46,55.55a.55.55,0,0,0-.56-.65h-3.07a.55.55,0,0,0-.56.65v4.22a.28.28,0,0,1-.28.28h-1.52a.28.28,0,0,1-.27-.28V51.93a4.18,4.18,0,1,1,8.36,0v7.84a.3.3,0,0,1-.3.28h-1.52a.29.29,0,0,1-.28-.28V55.55Zm0-3.51a2.12,2.12,0,1,0-4.24,0s-.1.58.81.58h2.63s.8.06.8-.58Z"/><path class="cls-1" d="M112.8,59.78a22,22,0,1,1,5.52-34.9l-4.63,4.33a15.68,15.68,0,1,0-11.11,26.73,15.91,15.91,0,0,0,12.68-6.12s.37-.6.42,0,0,.34,0,.34a15.77,15.77,0,0,0,30.79,1.92l6,1.54a22,22,0,0,1-39.8,6.31Z"/><path class="cls-1" d="M116.16,44a14,14,0,0,1-13.45,9.91,13.78,13.78,0,1,1,9.91-23.46L108,35a7.61,7.61,0,1,0-5.44,12.92,7.8,7.8,0,0,0,7.33-5.49h0a22,22,0,0,1,42.65.08l-6,1.57A15.71,15.71,0,0,0,116.16,44Z"/><path class="cls-1" d="M138.85,49.9a7.59,7.59,0,1,1,0-3.81L145,44.53a13.78,13.78,0,1,0,0,7.06Z"/></svg>