<svg id="Layer_1" data-name="Layer 1" xmlns="http://www.w3.org/2000/svg" viewBox="0 0 255.12 85.04"><defs><style>.cls-1{fill:#df0d20;}</style></defs><title>Artboard 3 copy 35</title><path class="cls-1" d="M76.48,39.09a17.13,17.13,0,0,1,4.63-.64c6.56,0,11.83,3.41,11.83,7.56,0,2.22-1.61,4.76-4.8,7.06a18,18,0,0,1-4.63.63c-6.56,0-11.83-3.43-11.83-7.58,0-2.21,1.61-4.74,4.8-7m28.24-7c6.06,3.53,9.84,8.46,9.84,13.92,0,10.72-14.44,19.39-32.25,19.39a48.2,48.2,0,0,1-18-3.3,129.66,129.66,0,0,0,15.7.36c8.22-.48,28.29-4.37,28.29-14.63,0-8.56-15.73-11.28-21.82-10.94a40,40,0,0,0-9.09,1.51,35.05,35.05,0,0,1,10.36-4.27s10.78-2.57,17-2M50.06,46.06c0-10.7,14.44-19.37,32.25-19.37a48.75,48.75,0,0,1,18,3.28,135.71,135.71,0,0,0-15.69-.34C76.38,30.1,56.31,34,56.31,44.24c0,8.59,15.73,11.28,21.81,10.95a39.76,39.76,0,0,0,9.1-1.5A35,35,0,0,1,76.85,58s-10.77,2.55-17,2.06c-6.06-3.53-9.83-8.48-9.83-14"/><path d="M137.66,37.73a9.13,9.13,0,0,0-3.83-.85,10.53,10.53,0,0,0-6.76,2.71,10.41,10.41,0,0,0-3.39,6.13,7.2,7.2,0,0,0,1.7,6.32,7.93,7.93,0,0,0,5.89,2.47,13.54,13.54,0,0,0,3.94-.78l.8-5.22a5.85,5.85,0,0,1-4,1.78c-2.69,0-4.21-1.91-3.79-4.55a5.29,5.29,0,0,1,5.14-4.65,4,4,0,0,1,3.52,1.85Zm10.31-1c-4.79,0-9.75,3.56-10.53,8.62-.82,5.42,2.45,9.25,7.81,9.25a10.71,10.71,0,0,0,10.63-9.25c.77-5.06-3.11-8.62-7.91-8.62M147.34,41a3.89,3.89,0,0,1,4,4.42,5.77,5.77,0,0,1-5.46,5c-2.59,0-4.39-2.11-4-5A5.64,5.64,0,0,1,147.34,41m15.44-3.65h-4.34l-2.55,16.74h9.52l.57-3.69h-5.2Zm3.79,16.74h4.33l.86-5.56h2.45c3.78,0,6.16-1.73,6.77-5.68s-1.64-5.5-5.21-5.5h-6.63Zm6.36-13.24h.73c1.68,0,3.11,0,2.79,2.13s-1.85,2-3.43,2h-.73Zm16.15,10.32.64,2.92h4.61l-3.71-16.74h-4.74l-9,16.74h4.59l1.6-2.92Zm-.67-3.32h-3.6l2.61-5.34ZM202.46,41H206l.57-3.68H195.11L194.54,41h3.59l-2,13.06h4.34ZM215,47.21a5.49,5.49,0,0,0,4.38-4.74c.54-3.57-1.71-5.14-5-5.14h-6.48l-2.57,16.74h4.34l1-6.45,3.15,6.45h5.39Zm-3.28-6.56h.42c1.42,0,3,.27,2.69,2.1s-1.91,2.08-3.33,2.08h-.42Zm15.07-3.32h-4.33l-2.57,16.74h4.35Zm10.64,13.82.64,2.92h4.62L239,37.33h-4.72l-9,16.74h4.6l1.6-2.92Zm-.66-3.32h-3.6l2.6-5.34Z"/></svg>