<svg id="Layer_1" data-name="Layer 1" xmlns="http://www.w3.org/2000/svg" viewBox="0 0 255.12 85.04"><defs><style>.cls-1{fill:#6bbe47;}</style></defs><title>Artboard 3 copy 34</title><path d="M110.52,21.53h9.29v7.86h-9.29Zm0,10.71h9.29V63.32h-9.29Zm-23,19.26a16.7,16.7,0,0,1-32.95-3.81,16.64,16.64,0,0,1,32.89-3.47H78a7,7,0,0,0-6.73-4.38A6.69,6.69,0,0,0,65.93,42a8.59,8.59,0,0,0-2,5.71c0,4.54,3,7.91,7.39,7.91A7.16,7.16,0,0,0,78,51.5Zm2.87-19.26h8.74v4.53c.89-1.68,2.52-4.54,7.9-4.54V41.3h-.34c-4.76,0-7,1.73-7,6.1V63.32h-9.3ZM230.91,40h8.9V32.24h-8.9V21.53h-9.3V49.47c0,9.91,5.08,13.85,15.88,13.85h.76V55h-.34c-4.76,0-7-1.74-7-6.11ZM155.4,51.5a16.7,16.7,0,0,1-32.95-3.81,16.64,16.64,0,0,1,32.89-3.47h-9.41a7,7,0,0,0-6.73-4.38A6.66,6.66,0,0,0,133.83,42a8.55,8.55,0,0,0-2,5.71c0,4.54,3,7.91,7.39,7.91a7.16,7.16,0,0,0,6.73-4.15Zm39.86-.69c.35,3.44,3.55,5.86,7.19,5.86a6.14,6.14,0,0,0,5.37-2.62h9.6c-2.75,5.91-8,10.28-15,10.28A16.5,16.5,0,0,1,186,47.86c0-8.69,6.83-16.7,16.3-16.7a15.9,15.9,0,0,1,11.77,4.93,16.63,16.63,0,0,1,4.57,11.65,24.87,24.87,0,0,1-.18,3.07Zm14-6.69a7.23,7.23,0,0,0-13.94,0Zm33.21-11.26h-.76v-.62H244v.62h-.75v2.89h-.71Zm1.83,2.89V32.24h.95l.9,2.51.89-2.51h1v3.51h-.66l0-2.81-1,2.81H246l-1-2.81,0,2.81ZM168.24,54.1,177,63.32h13.14L174.85,47.51Zm-1-32.56H158V51.18l9.3-9.25Z"/><polygon class="cls-1" points="177.03 32.23 157.98 51.18 157.98 64.34 190.16 32.24 177.03 32.23"/></svg>