<svg id="Layer_1" data-name="Layer 1" xmlns="http://www.w3.org/2000/svg" viewBox="0 0 255.12 85.04"><defs><style>.cls-1{fill:#095684;}</style></defs><title>Artboard 3 copy 43</title><path class="cls-1" d="M220.18,51.73c.06-4.16,2.67-4,5.39-3.91,3.11.11,6.21,0,9.32,0a8.42,8.42,0,0,0,2.33-.39c.56-.17,1.14-.59,1-1.29s-.9-.62-1.44-.63c-2.51,0-5,0-7.52,0-2.18-.07-4.35-.53-5.13-2.88s.64-4.06,2.23-5.5a11.6,11.6,0,0,1,8-2.91c4.3,0,8.61-.06,12.92,0,.84,0,2.67-.83,2.37,1-.24,1.38-.07,3.66-2.66,3.63-4.1,0-8.21,0-12.32,0-1.32,0-2.59,0-3.47,1.67,1.34.79,2.73.43,4,.49,2.3.12,4.63,0,6.89.31,3.76.55,4.95,3.46,2.78,6.59a9.63,9.63,0,0,1-8,4.19c-8.21.18-16.42,0-24.63.15-1.54,0-1.83-.85-2.16-1.92-.74-2.49-1.45-5-2.23-7.47-.9-2.89-1.29-3-3.45-1-2.47,2.34-5.07,4.58-7.29,7.15s-4.77,3.71-8.14,3.21a22.67,22.67,0,0,0-3.3,0c-.27-1.11.68-1.41,1.18-1.9,4.29-4.2,8.7-8.29,12.93-12.56,3.61-3.64,7.91-3.88,12.53-3,1.84.34,2.51,1.77,3,3.37,1.33,4.39,2.68,8.77,4,13.15Z"/><path class="cls-1" d="M100.25,52.18c-3,0-5.61,0-8.18,0A1.77,1.77,0,0,1,90.19,51a9.11,9.11,0,0,0-.61-1c-1.18-2.09-3.54-4.37-3.23-6.21.36-2.13,4-.71,5.89-1.86.26-.15.58-.17.85-.3,1.07-.52,2.61-1,2.47-2.28-.16-1.64-1.9-1.48-3.12-1.61-7.25-.79-7.25-.77-9.72,6l-.89,2.55c-2.25,6.36-2.53,6.51-9.36,5.89-1.19-.1-1.62-.32-1.15-1.58q2.85-7.58,5.59-15.2a1.57,1.57,0,0,1,1.72-1.27c7.1.22,14.22-.48,21.31.5a10.91,10.91,0,0,1,2.31.6c3.34,1.27,3.81,3.81,1.14,6.15a12.86,12.86,0,0,1-5.58,2.82c-1.55.37-1.77.88-.9,2.2C98,48.15,99,50,100.25,52.18Z"/><path class="cls-1" d="M158.93,43.71c5.61-7.9,13.59-10.07,22.74-9.5,2.1.13,4.21-.07,6.3.07.89,0,2.73-.75,2.48.81-.22,1.41-.11,3.82-2.88,3.76-4-.1-8-.07-12,0-2.88,0-5.56.74-7.55,3-.95,1.1-1.67,2.33-1.15,3.83s2,1.83,3.44,1.86c2.3,0,4.6,0,6.9,0,1,0,2-.29,2-1.36s-1.17-.68-1.82-.72c-1.58-.08-3.18,0-4.77,0,.08-2.75,1.15-3.89,3.91-3.67,3.18.26,6.4.1,9.6,0,1.4,0,2.14.19,1.41,1.82-.64,1.46-1.12,3-1.66,4.49-1,2.89-3.32,3.89-6.11,3.94-4.2.08-8.41.11-12.61,0-6.43-.14-8.39-2.22-8.14-8.46Z"/><path class="cls-1" d="M159,43.68c-1.43-.19-1.3,1.22-1.8,1.89a14.91,14.91,0,0,1-11.31,6.52,96.35,96.35,0,0,1-11.4,0c-5.36-.26-7.69-4.15-5.34-9a15,15,0,0,1,13.24-8.93c3.09-.2,6.2-.08,9.31,0,5.94.11,8.09,2.8,6.89,8.6-.09.44-.11.75.37.91Zm-13.9-5c-2.39-.17-5.63-.23-7.86,2.75-1.07,1.43-2.23,3-1.33,4.92s2.69,1.37,4.24,1.42,3,.05,4.49,0a6.93,6.93,0,0,0,5.24-2.53c1.25-1.48,2.51-3.13,1.76-5.12s-2.88-1.26-4.48-1.43C146.74,38.63,146.33,38.67,145.07,38.67Z"/><path class="cls-1" d="M58.9,52.11c-2.81,0-5.62.14-8.41,0s-5.45-.92-6.67-3.81.34-5.32,2.16-7.34c4.12-4.56,9.49-6.52,15.54-6.67q5.57-.14,11.12,0c.86,0,2.68-.8,2.41.93-.21,1.36-.1,3.65-2.68,3.62-3.8,0-7.61,0-11.42,0-3,0-5.82.49-8,2.76-1.11,1.16-2.21,2.45-1.43,4.25s2.29,1.76,3.82,1.77c4.1,0,8.21,0,12.32,0,.89,0,2.74-.71,2.51.82s-.08,3.85-2.87,3.74-5.61,0-8.41,0Z"/><path class="cls-1" d="M108.48,52.18c5.94-7.5-1.09-12-3.16-18,2.54,0,4.88.05,7.22,0a2.16,2.16,0,0,1,2.08,1.37c.75,1.3,1.62,2.54,2.28,3.87s1.48,1.71,2.69.53c.71-.7,1.65-1.17,2.32-1.89,3.43-3.72,7.66-4.68,13-3.51-1.86,1.44-3.52,2.73-5.19,4-2.22,1.71-4.35,3.55-6.69,5.06a9,9,0,0,0-4.23,5.88c-.48,2.36-1.75,3-4,2.77C113,52,111.21,52.18,108.48,52.18Z"/></svg>