<?xml version="1.0" encoding="UTF-8" standalone="no"?>
<svg
   xmlns:dc="http://purl.org/dc/elements/1.1/"
   xmlns:cc="http://creativecommons.org/ns#"
   xmlns:rdf="http://www.w3.org/1999/02/22-rdf-syntax-ns#"
   xmlns:svg="http://www.w3.org/2000/svg"
   xmlns="http://www.w3.org/2000/svg"
   xmlns:xlink="http://www.w3.org/1999/xlink"
   xmlns:sodipodi="http://sodipodi.sourceforge.net/DTD/sodipodi-0.dtd"
   xmlns:inkscape="http://www.inkscape.org/namespaces/inkscape"
   id="Layer_1"
   data-name="Layer 1"
   viewBox="0 0 255.12 85.04"
   version="1.1"
   sodipodi:docname="Despegar.svg"
   inkscape:version="0.92.4 (5da689c313, 2019-01-14)">
  <metadata
     id="metadata35">
    <rdf:RDF>
      <cc:Work
         rdf:about="">
        <dc:format>image/svg+xml</dc:format>
        <dc:type
           rdf:resource="http://purl.org/dc/dcmitype/StillImage" />
        <dc:title>Artboard 3 copy 40</dc:title>
      </cc:Work>
    </rdf:RDF>
  </metadata>
  <sodipodi:namedview
     pagecolor="#ffffff"
     bordercolor="#666666"
     borderopacity="1"
     objecttolerance="10"
     gridtolerance="10"
     guidetolerance="10"
     inkscape:pageopacity="0"
     inkscape:pageshadow="2"
     inkscape:window-width="1366"
     inkscape:window-height="705"
     id="namedview33"
     showgrid="false"
     inkscape:zoom="1.28"
     inkscape:cx="60.674694"
     inkscape:cy="77.905991"
     inkscape:window-x="-8"
     inkscape:window-y="-8"
     inkscape:window-maximized="1"
     inkscape:current-layer="Layer_1" />
  <defs
     id="defs12">
    <style
       id="style10">.cls-1{fill:#2b5097;fill-rule:evenodd;}</style>
    <clipPath
       clip-path="url(#SVGID_23_)"
       id="SVGID_24_-2">
      <use
         height="100%"
         width="100%"
         y="0"
         x="0"
         style="overflow:visible"
         id="use91-7"
         overflow="visible"
         xlink:href="#SVGID_15_" />
    </clipPath>
    <clipPath
       clip-path="url(#SVGID_23_)"
       id="clipPath3453">
      <use
         height="100%"
         width="100%"
         y="0"
         x="0"
         style="overflow:visible"
         id="use3455"
         overflow="visible"
         xlink:href="#SVGID_15_" />
    </clipPath>
    <clipPath
       clip-path="url(#SVGID_23_)"
       id="clipPath3457">
      <use
         height="100%"
         width="100%"
         y="0"
         x="0"
         style="overflow:visible"
         id="use3459"
         overflow="visible"
         xlink:href="#SVGID_15_" />
    </clipPath>
    <clipPath
       clip-path="url(#SVGID_23_)"
       id="clipPath3461">
      <use
         height="100%"
         width="100%"
         y="0"
         x="0"
         style="overflow:visible"
         id="use3463"
         overflow="visible"
         xlink:href="#SVGID_15_" />
    </clipPath>
    <clipPath
       clip-path="url(#SVGID_23_)"
       id="clipPath3465">
      <use
         height="100%"
         width="100%"
         y="0"
         x="0"
         style="overflow:visible"
         id="use3467"
         overflow="visible"
         xlink:href="#SVGID_15_" />
    </clipPath>
    <clipPath
       clip-path="url(#SVGID_23_)"
       id="clipPath3469">
      <use
         height="100%"
         width="100%"
         y="0"
         x="0"
         style="overflow:visible"
         id="use3471"
         overflow="visible"
         xlink:href="#SVGID_15_" />
    </clipPath>
    <clipPath
       clip-path="url(#SVGID_23_)"
       id="clipPath3473">
      <use
         height="100%"
         width="100%"
         y="0"
         x="0"
         style="overflow:visible"
         id="use3475"
         overflow="visible"
         xlink:href="#SVGID_15_" />
    </clipPath>
    <clipPath
       clip-path="url(#SVGID_23_)"
       id="clipPath3477">
      <use
         height="100%"
         width="100%"
         y="0"
         x="0"
         style="overflow:visible"
         id="use3479"
         overflow="visible"
         xlink:href="#SVGID_15_" />
    </clipPath>
    <clipPath
       id="SVGID_6_-3">
      <use
         height="100%"
         width="100%"
         y="0"
         x="0"
         style="overflow:visible"
         id="use33-6"
         overflow="visible"
         xlink:href="#SVGID_5_" />
    </clipPath>
    <clipPath
       clip-path="url(#SVGID_23_)"
       id="clipPath3483">
      <use
         height="100%"
         width="100%"
         y="0"
         x="0"
         style="overflow:visible"
         id="use3485"
         overflow="visible"
         xlink:href="#SVGID_15_" />
    </clipPath>
    <clipPath
       clip-path="url(#SVGID_23_)"
       id="SVGID_24_-2-4">
      <use
         height="100%"
         width="100%"
         y="0"
         x="0"
         style="overflow:visible"
         id="use91-7-4"
         overflow="visible"
         xlink:href="#SVGID_15_" />
    </clipPath>
    <clipPath
       clip-path="url(#SVGID_23_)"
       id="clipPath3626">
      <use
         height="100%"
         width="100%"
         y="0"
         x="0"
         style="overflow:visible"
         id="use3628"
         overflow="visible"
         xlink:href="#SVGID_15_" />
    </clipPath>
    <clipPath
       clip-path="url(#SVGID_23_)"
       id="clipPath3630">
      <use
         height="100%"
         width="100%"
         y="0"
         x="0"
         style="overflow:visible"
         id="use3632"
         overflow="visible"
         xlink:href="#SVGID_15_" />
    </clipPath>
    <clipPath
       clip-path="url(#SVGID_23_)"
       id="clipPath3634">
      <use
         height="100%"
         width="100%"
         y="0"
         x="0"
         style="overflow:visible"
         id="use3636"
         overflow="visible"
         xlink:href="#SVGID_15_" />
    </clipPath>
    <clipPath
       clip-path="url(#SVGID_23_)"
       id="clipPath3638">
      <use
         height="100%"
         width="100%"
         y="0"
         x="0"
         style="overflow:visible"
         id="use3640"
         overflow="visible"
         xlink:href="#SVGID_15_" />
    </clipPath>
    <clipPath
       clip-path="url(#SVGID_23_)"
       id="clipPath3642">
      <use
         height="100%"
         width="100%"
         y="0"
         x="0"
         style="overflow:visible"
         id="use3644"
         overflow="visible"
         xlink:href="#SVGID_15_" />
    </clipPath>
    <clipPath
       clip-path="url(#SVGID_23_)"
       id="clipPath3646">
      <use
         height="100%"
         width="100%"
         y="0"
         x="0"
         style="overflow:visible"
         id="use3648"
         overflow="visible"
         xlink:href="#SVGID_15_" />
    </clipPath>
    <clipPath
       clip-path="url(#SVGID_23_)"
       id="clipPath3650">
      <use
         height="100%"
         width="100%"
         y="0"
         x="0"
         style="overflow:visible"
         id="use3652"
         overflow="visible"
         xlink:href="#SVGID_15_" />
    </clipPath>
    <clipPath
       clip-path="url(#SVGID_23_)"
       id="SVGID_24_-2-8">
      <use
         height="100%"
         width="100%"
         y="0"
         x="0"
         style="overflow:visible"
         id="use91-7-7"
         overflow="visible"
         xlink:href="#SVGID_15_" />
    </clipPath>
    <clipPath
       clip-path="url(#SVGID_23_)"
       id="clipPath3790">
      <use
         height="100%"
         width="100%"
         y="0"
         x="0"
         style="overflow:visible"
         id="use3792"
         overflow="visible"
         xlink:href="#SVGID_15_" />
    </clipPath>
    <clipPath
       clip-path="url(#SVGID_23_)"
       id="clipPath3794">
      <use
         height="100%"
         width="100%"
         y="0"
         x="0"
         style="overflow:visible"
         id="use3796"
         overflow="visible"
         xlink:href="#SVGID_15_" />
    </clipPath>
    <clipPath
       clip-path="url(#SVGID_23_)"
       id="clipPath3798">
      <use
         height="100%"
         width="100%"
         y="0"
         x="0"
         style="overflow:visible"
         id="use3800"
         overflow="visible"
         xlink:href="#SVGID_15_" />
    </clipPath>
    <clipPath
       clip-path="url(#SVGID_23_)"
       id="clipPath3802">
      <use
         height="100%"
         width="100%"
         y="0"
         x="0"
         style="overflow:visible"
         id="use3804"
         overflow="visible"
         xlink:href="#SVGID_15_" />
    </clipPath>
    <clipPath
       clip-path="url(#SVGID_23_)"
       id="clipPath3806">
      <use
         height="100%"
         width="100%"
         y="0"
         x="0"
         style="overflow:visible"
         id="use3808"
         overflow="visible"
         xlink:href="#SVGID_15_" />
    </clipPath>
    <clipPath
       clip-path="url(#SVGID_23_)"
       id="clipPath3810">
      <use
         height="100%"
         width="100%"
         y="0"
         x="0"
         style="overflow:visible"
         id="use3812"
         overflow="visible"
         xlink:href="#SVGID_15_" />
    </clipPath>
    <clipPath
       clip-path="url(#SVGID_23_)"
       id="clipPath3814">
      <use
         height="100%"
         width="100%"
         y="0"
         x="0"
         style="overflow:visible"
         id="use3816"
         overflow="visible"
         xlink:href="#SVGID_15_" />
    </clipPath>
    <clipPath
       clip-path="url(#SVGID_23_)"
       id="clipPath3818">
      <use
         height="100%"
         width="100%"
         y="0"
         x="0"
         style="overflow:visible"
         id="use3820"
         overflow="visible"
         xlink:href="#SVGID_15_" />
    </clipPath>
    <clipPath
       id="SVGID_6_-3-4">
      <use
         height="100%"
         width="100%"
         y="0"
         x="0"
         style="overflow:visible"
         id="use33-6-5"
         overflow="visible"
         xlink:href="#SVGID_5_" />
    </clipPath>
    <clipPath
       clip-path="url(#SVGID_23_)"
       id="SVGID_24_-2-8-1">
      <use
         height="100%"
         width="100%"
         y="0"
         x="0"
         style="overflow:visible"
         id="use91-7-7-4"
         overflow="visible"
         xlink:href="#SVGID_15_" />
    </clipPath>
    <clipPath
       id="SVGID_6_-3-4-6">
      <use
         height="100%"
         width="100%"
         y="0"
         x="0"
         style="overflow:visible"
         id="use33-6-5-6"
         overflow="visible"
         xlink:href="#SVGID_5_" />
    </clipPath>
    <clipPath
       clip-path="url(#SVGID_23_)"
       id="SVGID_24_-2-8-3">
      <use
         height="100%"
         width="100%"
         y="0"
         x="0"
         style="overflow:visible"
         id="use91-7-7-0"
         overflow="visible"
         xlink:href="#SVGID_15_" />
    </clipPath>
    <clipPath
       clip-path="url(#SVGID_23_)"
       id="clipPath3951">
      <use
         height="100%"
         width="100%"
         y="0"
         x="0"
         style="overflow:visible"
         id="use3953"
         overflow="visible"
         xlink:href="#SVGID_15_" />
    </clipPath>
    <clipPath
       clip-path="url(#SVGID_23_)"
       id="clipPath3955">
      <use
         height="100%"
         width="100%"
         y="0"
         x="0"
         style="overflow:visible"
         id="use3957"
         overflow="visible"
         xlink:href="#SVGID_15_" />
    </clipPath>
    <clipPath
       clip-path="url(#SVGID_23_)"
       id="clipPath3959">
      <use
         height="100%"
         width="100%"
         y="0"
         x="0"
         style="overflow:visible"
         id="use3961"
         overflow="visible"
         xlink:href="#SVGID_15_" />
    </clipPath>
    <clipPath
       clip-path="url(#SVGID_23_)"
       id="clipPath3963">
      <use
         height="100%"
         width="100%"
         y="0"
         x="0"
         style="overflow:visible"
         id="use3965"
         overflow="visible"
         xlink:href="#SVGID_15_" />
    </clipPath>
    <clipPath
       clip-path="url(#SVGID_23_)"
       id="clipPath3967">
      <use
         height="100%"
         width="100%"
         y="0"
         x="0"
         style="overflow:visible"
         id="use3969"
         overflow="visible"
         xlink:href="#SVGID_15_" />
    </clipPath>
    <clipPath
       clip-path="url(#SVGID_23_)"
       id="clipPath3971">
      <use
         height="100%"
         width="100%"
         y="0"
         x="0"
         style="overflow:visible"
         id="use3973"
         overflow="visible"
         xlink:href="#SVGID_15_" />
    </clipPath>
    <clipPath
       clip-path="url(#SVGID_23_)"
       id="clipPath3975">
      <use
         height="100%"
         width="100%"
         y="0"
         x="0"
         style="overflow:visible"
         id="use3977"
         overflow="visible"
         xlink:href="#SVGID_15_" />
    </clipPath>
    <rect
       height="500"
       width="800"
       y="-176"
       x="-130.438"
       id="SVGID_1_" />
    <rect
       height="500"
       width="800"
       y="-176"
       x="-130.438"
       id="SVGID_3_" />
    <rect
       height="146.554"
       width="144.311"
       y="0.72299999"
       x="0.47600001"
       id="SVGID_5_" />
    <rect
       height="500"
       width="800"
       y="-176"
       x="-130.438"
       id="SVGID_7_" />
    <rect
       height="500"
       width="800"
       y="-176"
       x="-130.438"
       id="SVGID_8_" />
    <rect
       height="500"
       width="800"
       y="-176"
       x="-130.438"
       id="SVGID_9_" />
    <rect
       height="500"
       width="800"
       y="-176"
       x="-130.438"
       id="SVGID_10_" />
    <rect
       height="500"
       width="800"
       y="-176"
       x="-130.438"
       id="SVGID_11_" />
    <rect
       height="500"
       width="800"
       y="-176"
       x="-130.438"
       id="SVGID_12_" />
    <rect
       height="500"
       width="800"
       y="-176"
       x="-130.438"
       id="SVGID_13_" />
    <rect
       height="500"
       width="800"
       y="-176"
       x="-130.438"
       id="SVGID_14_" />
    <rect
       height="500"
       width="800"
       y="-176"
       x="-130.438"
       id="SVGID_15_" />
  </defs>
  <title
     id="title14">Artboard 3 copy 40</title>
  <g
     id="g399"
     transform="matrix(1.991914,0,0,2.2337679,28.502943,9.540074)">
    <g
       transform="translate(-224.3553,-1.40688)"
       id="g3">
      <g
         id="g5">
        <defs
           id="defs7">
          <rect
             height="500"
             width="800"
             y="-176"
             x="-130.438"
             id="rect321" />
        </defs>
        <clipPath
           id="SVGID_2_">
          <use
             height="100%"
             width="100%"
             y="0"
             x="0"
             style="overflow:visible"
             id="use11"
             overflow="visible"
             xlink:href="#SVGID_1_" />
        </clipPath>
        <g
           id="g13"
           clip-path="url(#SVGID_2_)">
          <g
             id="g15">
            <defs
               id="defs17">
              <rect
                 height="500"
                 width="800"
                 y="-176"
                 x="-130.438"
                 id="rect326" />
            </defs>
            <clipPath
               id="SVGID_4_">
              <use
                 height="100%"
                 width="100%"
                 y="0"
                 x="0"
                 style="overflow:visible"
                 id="use21"
                 overflow="visible"
                 xlink:href="#SVGID_3_" />
            </clipPath>
            <g
               id="g23"
               clip-path="url(#SVGID_4_)">
              <g
                 style="opacity:0.3"
                 id="g25">
                <g
                   id="g27">
                  <defs
                     id="defs29">
                    <rect
                       height="146.554"
                       width="144.311"
                       y="0.72299999"
                       x="0.47600001"
                       id="rect331" />
                  </defs>
                  <clipPath
                     id="SVGID_6_">
                    <use
                       height="100%"
                       width="100%"
                       y="0"
                       x="0"
                       style="overflow:visible"
                       id="use33"
                       overflow="visible"
                       xlink:href="#SVGID_5_" />
                  </clipPath>
                </g>
              </g>
              <g
                 id="g37">
                <defs
                   id="defs39">
                  <rect
                     height="500"
                     width="800"
                     y="-176"
                     x="-130.438"
                     id="rect338" />
                </defs>
                <defs
                   id="defs42">
                  <rect
                     height="500"
                     width="800"
                     y="-176"
                     x="-130.438"
                     id="rect341" />
                </defs>
                <defs
                   id="defs45">
                  <rect
                     height="500"
                     width="800"
                     y="-176"
                     x="-130.438"
                     id="rect344" />
                </defs>
                <defs
                   id="defs48">
                  <rect
                     height="500"
                     width="800"
                     y="-176"
                     x="-130.438"
                     id="rect347" />
                </defs>
                <defs
                   id="defs51">
                  <rect
                     height="500"
                     width="800"
                     y="-176"
                     x="-130.438"
                     id="rect350" />
                </defs>
                <defs
                   id="defs54">
                  <rect
                     height="500"
                     width="800"
                     y="-176"
                     x="-130.438"
                     id="rect353" />
                </defs>
                <defs
                   id="defs57">
                  <rect
                     height="500"
                     width="800"
                     y="-176"
                     x="-130.438"
                     id="rect356" />
                </defs>
                <defs
                   id="defs60">
                  <rect
                     height="500"
                     width="800"
                     y="-176"
                     x="-130.438"
                     id="rect359" />
                </defs>
                <defs
                   id="defs63">
                  <rect
                     height="500"
                     width="800"
                     y="-176"
                     x="-130.438"
                     id="rect362" />
                </defs>
                <clipPath
                   id="SVGID_16_">
                  <use
                     height="100%"
                     width="100%"
                     y="0"
                     x="0"
                     style="overflow:visible"
                     id="use67"
                     overflow="visible"
                     xlink:href="#SVGID_7_" />
                </clipPath>
                <clipPath
                   clip-path="url(#SVGID_16_)"
                   id="SVGID_17_">
                  <use
                     height="100%"
                     width="100%"
                     y="0"
                     x="0"
                     style="overflow:visible"
                     id="use70"
                     overflow="visible"
                     xlink:href="#SVGID_8_" />
                </clipPath>
                <clipPath
                   clip-path="url(#SVGID_17_)"
                   id="SVGID_18_">
                  <use
                     height="100%"
                     width="100%"
                     y="0"
                     x="0"
                     style="overflow:visible"
                     id="use73"
                     overflow="visible"
                     xlink:href="#SVGID_9_" />
                </clipPath>
                <clipPath
                   clip-path="url(#SVGID_18_)"
                   id="SVGID_19_">
                  <use
                     height="100%"
                     width="100%"
                     y="0"
                     x="0"
                     style="overflow:visible"
                     id="use76"
                     overflow="visible"
                     xlink:href="#SVGID_10_" />
                </clipPath>
                <clipPath
                   clip-path="url(#SVGID_19_)"
                   id="SVGID_20_">
                  <use
                     height="100%"
                     width="100%"
                     y="0"
                     x="0"
                     style="overflow:visible"
                     id="use79"
                     overflow="visible"
                     xlink:href="#SVGID_11_" />
                </clipPath>
                <clipPath
                   clip-path="url(#SVGID_20_)"
                   id="SVGID_21_">
                  <use
                     height="100%"
                     width="100%"
                     y="0"
                     x="0"
                     style="overflow:visible"
                     id="use82"
                     overflow="visible"
                     xlink:href="#SVGID_12_" />
                </clipPath>
                <clipPath
                   clip-path="url(#SVGID_21_)"
                   id="SVGID_22_">
                  <use
                     height="100%"
                     width="100%"
                     y="0"
                     x="0"
                     style="overflow:visible"
                     id="use85"
                     overflow="visible"
                     xlink:href="#SVGID_13_" />
                </clipPath>
                <clipPath
                   clip-path="url(#SVGID_22_)"
                   id="SVGID_23_">
                  <use
                     height="100%"
                     width="100%"
                     y="0"
                     x="0"
                     style="overflow:visible"
                     id="use88"
                     overflow="visible"
                     xlink:href="#SVGID_14_" />
                </clipPath>
                <clipPath
                   clip-path="url(#SVGID_23_)"
                   id="SVGID_24_">
                  <use
                     height="100%"
                     width="100%"
                     y="0"
                     x="0"
                     style="overflow:visible"
                     id="use91"
                     overflow="visible"
                     xlink:href="#SVGID_15_" />
                </clipPath>
              </g>
            </g>
          </g>
        </g>
      </g>
    </g>
    <path
       style="opacity:0.3;fill:#550fed"
       inkscape:connector-curvature="0"
       id="path35"
       d="m 0.475,147.271 71.035,0.004 c 40.47,0 73.277,-32.808 73.277,-73.275 C 144.787,33.533 111.98,0.724 71.51,0.724 L 0.475,0.728 Z"
       clip-path="url(#SVGID_6_-3)"
       transform="matrix(0.18147387,0,0,0.18147387,1.0946744,1.13448)" />
    <path
       style="fill:#550fed"
       inkscape:connector-curvature="0"
       id="path93"
       d="m 0.816,0.723 c -0.114,0 -0.227,0.004 -0.341,0.004 v 146.544 c 0.114,0 0.227,0.004 0.341,0.004 40.47,0 73.277,-32.807 73.277,-73.275 C 74.093,33.532 41.286,0.723 0.816,0.723"
       clip-path="url(#SVGID_24_-2)"
       transform="matrix(0.18147387,0,0,0.18147387,1.0946744,1.13448)" />
    <path
       style="fill:#550fed"
       inkscape:connector-curvature="0"
       id="path95"
       d="m 222.061,45.844 h -8.597 c -0.222,0 -0.401,0.179 -0.401,0.4 v 15.772 c -2.652,-3.362 -7.242,-5.342 -12.496,-5.342 -12.899,0 -21.564,11.107 -21.564,21.48 0,10.561 7.912,21.482 21.151,21.482 5.136,0 9.992,-2.06 12.909,-5.424 v 3.947 c 0,0.222 0.179,0.4 0.401,0.4 h 8.597 c 0.222,0 0.401,-0.18 0.401,-0.4 V 46.244 c -10e-4,-0.221 -0.18,-0.4 -0.401,-0.4 m -20.832,44.888 c -6.799,0 -12.331,-5.643 -12.331,-12.578 0,-6.937 5.532,-12.578 12.331,-12.578 6.594,0 12.165,5.76 12.165,12.578 0,6.818 -5.572,12.578 -12.165,12.578"
       clip-path="url(#SVGID_24_-2)"
       transform="matrix(0.18147387,0,0,0.18147387,1.0946744,1.13448)" />
    <path
       style="fill:#550fed"
       inkscape:connector-curvature="0"
       id="path97"
       d="m 251.857,56.673 c -14.597,0 -22.473,11.068 -22.473,21.481 0,10.414 7.876,21.481 22.478,21.481 7.184,-0.083 13.9,-3.601 18.91,-9.905 0.073,-0.094 0.104,-0.211 0.08,-0.328 -0.021,-0.114 -0.096,-0.215 -0.197,-0.271 L 263.38,85.08 c -0.176,-0.098 -0.396,-0.051 -0.516,0.109 -2.963,3.951 -6.855,6.039 -11.253,6.039 -6.018,0 -11.108,-4.226 -11.791,-9.696 h 32.789 c 0.224,0 0.401,-0.179 0.401,-0.401 v -1.57 C 273.008,63.774 260.64,56.673 251.857,56.673 m -1.157,8.408 c 5.309,0 9.489,3.181 11.275,8.54 h -22.086 c 1.442,-5.282 5.544,-8.54 10.811,-8.54"
       clip-path="url(#SVGID_24_-2)"
       transform="matrix(0.18147387,0,0,0.18147387,1.0946744,1.13448)" />
    <path
       style="fill:#550fed"
       inkscape:connector-curvature="0"
       id="path99"
       d="m 301.863,74.702 -8.688,-1.655 c -3.326,-0.582 -4.877,-1.796 -4.877,-3.821 0,-3.015 3.584,-4.642 6.957,-4.642 3.521,0 7.049,1.471 10.488,4.37 0.082,0.07 0.189,0.103 0.297,0.093 0.105,-0.01 0.206,-0.063 0.271,-0.147 l 4.879,-6.035 c 0.069,-0.086 0.102,-0.197 0.086,-0.306 -0.017,-0.11 -0.074,-0.208 -0.164,-0.272 -5.452,-3.882 -10.418,-5.614 -16.105,-5.614 -10.574,0 -16.107,6.773 -16.107,13.463 0,6.547 4.125,9.857 14.713,11.803 l 4.878,0.908 c 3.237,0.596 4.88,2.021 4.88,4.234 0,1.896 -2.686,4.645 -7.536,4.645 -4.163,0 -9.094,-2.31 -12.271,-5.742 -0.073,-0.08 -0.179,-0.127 -0.287,-0.129 -0.115,-0.002 -0.217,0.043 -0.293,0.119 l -5.868,5.951 c -0.078,0.08 -0.12,0.188 -0.115,0.301 0.005,0.111 0.056,0.215 0.142,0.287 5.647,4.793 11.627,7.123 18.28,7.123 5.57,0 10.173,-1.607 13.31,-4.65 2.567,-2.487 4.039,-5.852 4.039,-9.227 -10e-4,-6.073 -3.57,-9.691 -10.909,-11.057"
       clip-path="url(#SVGID_24_-2)"
       transform="matrix(0.18147387,0,0,0.18147387,1.0946744,1.13448)" />
    <path
       style="fill:#550fed"
       inkscape:connector-curvature="0"
       id="path101"
       d="m 341.386,56.674 c -5.204,0 -9.754,1.93 -12.909,5.456 v -3.98 c 0,-0.222 -0.18,-0.401 -0.399,-0.401 h -8.599 c -0.223,0 -0.4,0.179 -0.4,0.401 v 53.817 c 0,0.223 0.179,0.4 0.4,0.4 h 8.599 c 0.221,0 0.399,-0.18 0.399,-0.4 V 94.295 c 2.652,3.361 7.242,5.342 12.496,5.342 12.899,0 21.564,-11.107 21.564,-21.482 0,-10.559 -7.912,-21.481 -21.151,-21.481 m -1.075,8.903 c 6.799,0 12.33,5.642 12.33,12.577 0,6.938 -5.531,12.58 -12.33,12.58 -6.594,0 -12.164,-5.76 -12.164,-12.58 -10e-4,-6.818 5.57,-12.577 12.164,-12.577"
       clip-path="url(#SVGID_24_-2)"
       transform="matrix(0.18147387,0,0,0.18147387,1.0946744,1.13448)" />
    <path
       style="fill:#550fed"
       inkscape:connector-curvature="0"
       id="path103"
       d="m 389.828,56.673 c -14.598,0 -22.473,11.068 -22.473,21.481 0,10.414 7.875,21.481 22.478,21.481 7.185,-0.083 13.899,-3.601 18.91,-9.905 0.073,-0.094 0.102,-0.211 0.079,-0.328 -0.022,-0.114 -0.096,-0.215 -0.198,-0.271 L 401.35,85.08 c -0.177,-0.098 -0.396,-0.051 -0.517,0.109 -2.963,3.951 -6.854,6.039 -11.253,6.039 -6.018,0 -11.107,-4.226 -11.791,-9.696 h 32.789 c 0.222,0 0.4,-0.179 0.4,-0.401 v -1.57 c 10e-4,-15.787 -12.367,-22.888 -21.15,-22.888 m -1.157,8.408 c 5.31,0 9.489,3.181 11.274,8.54 h -22.086 c 1.443,-5.282 5.545,-8.54 10.812,-8.54"
       clip-path="url(#SVGID_24_-2)"
       transform="matrix(0.18147387,0,0,0.18147387,1.0946744,1.13448)" />
    <path
       style="fill:#550fed"
       inkscape:connector-curvature="0"
       id="path105"
       d="m 457.949,57.748 h -8.103 c -0.222,0 -0.4,0.18 -0.4,0.401 v 3.777 c -2.929,-3.44 -7.144,-5.252 -12.248,-5.252 -10.347,0 -20.819,7.236 -20.819,21.068 0,13.668 9.975,20.818 19.827,20.818 5.372,0 9.495,-1.729 13.24,-5.584 v 1.629 c 0,7.848 -6.649,11.42 -12.826,11.42 -3.726,0 -7.396,-2.408 -9.098,-4.791 -0.062,-0.088 -0.157,-0.146 -0.263,-0.161 -0.105,-0.019 -0.214,0.008 -0.301,0.071 l -7.025,5.125 c -0.09,0.064 -0.148,0.162 -0.162,0.271 -0.015,0.107 0.017,0.219 0.086,0.305 4.095,5.062 10.516,8.084 17.176,8.084 5.628,0 10.88,-1.975 14.79,-5.561 4.271,-3.917 6.525,-9.337 6.525,-15.674 V 58.149 c 0.002,-0.221 -0.178,-0.401 -0.399,-0.401 m -20.006,31.911 c -6.763,0 -11.669,-5.081 -11.669,-12.083 0,-6.616 5.234,-12 11.669,-12 6.343,0 11.503,5.42 11.503,12.083 0,6.841 -4.945,12 -11.503,12"
       clip-path="url(#SVGID_24_-2)"
       transform="matrix(0.18147387,0,0,0.18147387,1.0946744,1.13448)" />
    <path
       style="fill:#550fed"
       inkscape:connector-curvature="0"
       id="path107"
       d="m 507.087,57.748 h -8.598 c -0.222,0 -0.4,0.18 -0.4,0.401 v 3.867 c -2.651,-3.362 -7.242,-5.342 -12.496,-5.342 -12.898,0 -21.563,11.107 -21.563,21.48 0,10.561 7.912,21.482 21.15,21.482 5.137,0 9.992,-2.06 12.909,-5.424 v 3.947 c 0,0.222 0.179,0.4 0.4,0.4 h 8.598 c 0.222,0 0.4,-0.18 0.4,-0.4 v -40.01 c 0,-0.221 -0.178,-0.401 -0.4,-0.401 m -20.832,32.984 c -6.8,0 -12.331,-5.643 -12.331,-12.578 0,-6.937 5.531,-12.578 12.331,-12.578 6.594,0 12.165,5.76 12.165,12.578 0,6.818 -5.571,12.578 -12.165,12.578"
       clip-path="url(#SVGID_24_-2)"
       transform="matrix(0.18147387,0,0,0.18147387,1.0946744,1.13448)" />
    <path
       style="fill:#550fed"
       inkscape:connector-curvature="0"
       id="path109"
       d="m 538.466,57.978 c -1.307,-0.841 -3.058,-1.304 -4.929,-1.304 -3.151,0 -5.971,1.694 -7.619,4.499 V 58.15 c 0,-0.222 -0.179,-0.401 -0.401,-0.401 h -8.101 c -0.223,0 -0.401,0.179 -0.401,0.401 v 40.012 c 0,0.222 0.18,0.4 0.401,0.4 h 8.598 c 0.222,0 0.401,-0.18 0.401,-0.4 V 71.708 c 0,-3.66 2.858,-5.634 5.551,-5.634 0.742,0 2.233,0.476 2.974,1.069 0.103,0.081 0.235,0.109 0.359,0.073 0.125,-0.036 0.225,-0.129 0.271,-0.251 l 3.058,-8.514 c 0.06,-0.177 -0.005,-0.373 -0.162,-0.473"
       clip-path="url(#SVGID_24_-2)"
       transform="matrix(0.18147387,0,0,0.18147387,1.0946744,1.13448)" />
  </g>
</svg>
