<?xml version="1.0" encoding="UTF-8" standalone="no"?>
<svg
   xmlns:dc="http://purl.org/dc/elements/1.1/"
   xmlns:cc="http://creativecommons.org/ns#"
   xmlns:rdf="http://www.w3.org/1999/02/22-rdf-syntax-ns#"
   xmlns:svg="http://www.w3.org/2000/svg"
   xmlns="http://www.w3.org/2000/svg"
   xmlns:sodipodi="http://sodipodi.sourceforge.net/DTD/sodipodi-0.dtd"
   xmlns:inkscape="http://www.inkscape.org/namespaces/inkscape"
   id="Layer_1"
   data-name="Layer 1"
   viewBox="0 0 260 86"
   version="1.1"
   sodipodi:docname="Doordash.svg"
   inkscape:version="0.92.4 (5da689c313, 2019-01-14)">
  <metadata
     id="metadata27">
    <rdf:RDF>
      <cc:Work
         rdf:about="">
        <dc:format>image/svg+xml</dc:format>
        <dc:type
           rdf:resource="http://purl.org/dc/dcmitype/StillImage" />
        <dc:title>Artboard 21 copy 2</dc:title>
      </cc:Work>
    </rdf:RDF>
  </metadata>
  <sodipodi:namedview
     pagecolor="#ffffff"
     bordercolor="#666666"
     borderopacity="1"
     objecttolerance="10"
     gridtolerance="10"
     guidetolerance="10"
     inkscape:pageopacity="0"
     inkscape:pageshadow="2"
     inkscape:window-width="1366"
     inkscape:window-height="705"
     id="namedview25"
     showgrid="false"
     inkscape:zoom="1.3423077"
     inkscape:cx="130"
     inkscape:cy="43"
     inkscape:window-x="-8"
     inkscape:window-y="-8"
     inkscape:window-maximized="1"
     inkscape:current-layer="Layer_1" />
  <defs
     id="defs4">
    <style
       id="style2">.cls-1{fill:#df468d;}</style>
  </defs>
  <title
     id="title6">Artboard 21 copy 2</title>
  <style
     id="style29"
     type="text/css">
	.st0{fill:#FF3008;}
</style>
  <path
     d="m 106.21847,36.090621 v 11.123738 h 2.57987 c 1.31626,0 2.63253,-0.617985 3.52757,-1.685415 0.94772,-1.067429 1.42157,-2.471942 1.42157,-3.932634 0.0527,-1.460693 -0.47385,-2.865206 -1.42157,-3.932635 -0.9477,-1.06743 -2.21131,-1.629234 -3.58022,-1.629234 z m 2.57987,-3.483191 c 4.84384,0 8.52937,3.988815 8.52937,9.04506 0,5.056245 -3.68553,9.04506 -8.52937,9.04506 h -5.73889 c -0.2106,0 -0.42121,-0.224723 -0.42121,-0.449445 0,0 0,0 0,0 v -17.19123 c 0,-0.224722 0.21061,-0.449445 0.42121,-0.449445 0,0 5.73889,0 5.73889,0 z m 21.00752,15.000192 c 2.21131,0 4.21203,-1.460692 5.05444,-3.651732 0.8424,-2.247219 0.36855,-4.775342 -1.15831,-6.516937 -1.52687,-1.685415 -3.89613,-2.24722 -5.9495,-1.292151 -2.05337,0.898887 -3.36962,3.089927 -3.36962,5.505688 0,3.314649 2.42192,5.955132 5.42299,5.955132 m 0,-15.393455 c 5.10708,0 9.00321,4.269717 9.00321,9.438323 0,5.168605 -3.89613,9.438323 -9.00321,9.438323 -5.1071,0 -8.95057,-4.269718 -8.95057,-9.438323 0,-5.168606 3.89613,-9.438323 8.95057,-9.438323 m 21.42872,15.393455 c 3.00107,0 5.42299,-2.696663 5.42299,-5.955132 0,-3.314649 -2.42192,-5.955132 -5.42299,-5.955132 -3.00109,0 -5.423,2.640483 -5.423,5.955132 0,1.573054 0.57915,3.089927 1.57951,4.213537 1.00036,1.12361 2.36927,1.741595 3.84349,1.741595 m 0,-15.393455 c 5.10708,0 9.00321,4.269717 9.00321,9.438323 0,5.168605 -3.89613,9.438323 -9.00321,9.438323 -5.05444,0 -9.00323,-4.269718 -9.00323,-9.438323 0,-5.168606 3.89613,-9.438323 9.00323,-9.438323 m 20.84955,3.876454 h -3.68552 v 4.775342 h 3.68552 c 0.57916,0 1.15832,-0.224722 1.57952,-0.617985 0.4212,-0.449444 0.68445,-1.06743 0.68445,-1.685415 0,-0.674166 -0.2106,-1.292151 -0.6318,-1.741596 -0.4212,-0.505624 -1.00036,-0.730346 -1.63217,-0.730346 z m -7.21309,-3.033746 c 0,-0.224722 0.21059,-0.449445 0.42119,-0.449445 h 6.8972 c 3.31698,0 5.68625,2.640483 5.68625,5.955133 0,2.247219 -1.10566,4.325898 -2.94842,5.280966 l 3.15903,6.179854 c 0.1053,0.168542 0.1053,0.337083 0,0.505625 -0.0527,0.168542 -0.21061,0.224722 -0.36855,0.224722 h -2.79048 c -0.15795,0 -0.31591,-0.112361 -0.36855,-0.224722 l -3.05373,-6.123674 h -3.05372 v 5.842771 c 0,0.224722 -0.15796,0.449445 -0.42121,0.449445 0,0 0,0 0,0 h -2.68516 c -0.21061,0 -0.42121,-0.224723 -0.42121,-0.449445 0,0 0,0 0,0 z m 22.27112,3.146107 V 47.32672 h 2.57986 c 1.31627,0 2.63252,-0.617985 3.52758,-1.629235 0.94771,-1.067429 1.47422,-2.471941 1.42156,-3.932634 0.0527,-1.460693 -0.47385,-2.865205 -1.42156,-3.932635 -0.9477,-1.067429 -2.21131,-1.629234 -3.58022,-1.629234 0.0527,0 -2.52722,0 -2.52722,0 z m 2.57986,-3.48319 c 4.84384,0 8.52938,3.988814 8.52938,9.045059 0,5.056244 -3.68554,9.04506 -8.52938,9.04506 h -5.73889 c -0.2106,0 -0.42121,-0.224722 -0.42121,-0.449445 0,0 0,0 0,0 V 33.169235 c 0,-0.224721 0.21061,-0.449443 0.42121,-0.449443 z m 19.32271,4.382078 -2.00072,5.955132 h 4.00143 z m -3.15903,9.325962 -1.31625,3.988815 c -0.0527,0.168542 -0.21061,0.337083 -0.42121,0.337083 h -2.84313 c -0.15794,0 -0.3159,-0.05618 -0.36855,-0.168541 -0.1053,-0.112362 -0.1053,-0.280903 -0.0527,-0.449445 l 6.1601,-17.19123 c 0.0527,-0.168542 0.2106,-0.280903 0.4212,-0.280903 h 3.21168 c 0.2106,0 0.36855,0.112361 0.42121,0.280903 l 6.16009,17.19123 c 0.0527,0.168542 0.0527,0.337083 -0.0527,0.449445 -0.1053,0.112361 -0.21061,0.224722 -0.36855,0.168541 h -2.84313 c -0.2106,0 -0.36855,-0.112361 -0.4212,-0.337083 l -1.31626,-3.988815 z m 14.63682,-8.932698 c 0,-2.865206 2.26396,-5.280967 5.79154,-5.280967 1.89542,-0.05618 3.73818,0.730347 5.15974,2.134859 0.15796,0.168542 0.15796,0.449443 0,0.617985 0,0 0,0 0,0 l -1.57951,1.741595 c -0.15795,0.168542 -0.4212,0.168542 -0.57916,0 0,0 0,0 0,0 -0.7371,-0.730346 -1.73746,-1.17979 -2.73782,-1.17979 -1.42156,0 -2.47456,0.898888 -2.47456,1.966318 0,3.370829 8.37141,1.404512 8.37141,7.921449 0,3.258468 -2.26397,5.786591 -6.2654,5.786591 -2.26396,0 -4.42263,-0.898888 -6.00215,-2.640484 -0.15794,-0.168541 -0.15794,-0.449443 0,-0.617984 0,0 0,0 0,0 l 1.52686,-1.685415 c 0.15796,-0.168542 0.42121,-0.168542 0.57916,0 0,0 0,0 0,0 0.94771,1.011248 2.26397,1.573054 3.63288,1.629234 1.79012,0 2.94843,-1.011249 2.94843,-2.359581 0.0527,-3.48319 -8.37142,-1.516874 -8.37142,-8.03381 m 27.16761,-4.438259 v 6.797839 h -7.1078 v -6.797839 c 0,-0.224722 -0.15796,-0.449445 -0.42121,-0.449445 0,0 0,0 0,0 h -2.63252 c -0.2106,0 -0.42121,0.224723 -0.42121,0.449445 0,0 0,0 0,0 v 17.19123 c 0,0.224722 0.21061,0.449445 0.42121,0.449445 h 2.68517 c 0.2106,0 0.4212,-0.224723 0.4212,-0.449445 v -6.9102 h 7.10781 v 6.9102 c 0,0.224722 0.2106,0.449445 0.42121,0.449445 h 2.68516 c 0.21061,0 0.42121,-0.224723 0.42121,-0.449445 v -17.19123 c 0,-0.224722 -0.15796,-0.449445 -0.42121,-0.449445 0,0 0,0 0,0 h -2.68516 c -0.26326,0 -0.47386,0.224723 -0.47386,0.449445 z M 87.527575,34.91083 C 85.68481,31.202918 81.999281,28.899517 78.050502,28.955698 H 47.987117 c -0.421203,0 -0.789756,0.280903 -0.947708,0.674166 -0.157951,0.393264 -0.05266,0.898888 0.210602,1.17979 l 6.528651,6.910201 c 0.579155,0.617986 1.368911,0.955069 2.211317,0.955069 h 21.218117 c 1.526859,0 2.737819,1.235971 2.737819,2.865205 0,1.573054 -1.21096,2.865205 -2.685169,2.921386 H 62.623932 c -0.421204,0 -0.789757,0.280902 -0.947708,0.674166 -0.157952,0.393263 -0.05265,0.898888 0.210601,1.17979 l 6.528651,6.966381 c 0.579155,0.617986 1.368912,0.955069 2.211318,0.955069 h 6.633952 c 8.582015,-0.05618 15.058016,-9.719226 10.266829,-19.326091"
     class="st0"
     id="logosvg.com_1_"
     inkscape:connector-curvature="0"
     style="fill:#ff3008;stroke-width:0.54386818" />
</svg>
