<svg id="Layer_1" data-name="Layer 1" xmlns="http://www.w3.org/2000/svg" viewBox="0 0 255.12 85.04"><defs><style>.cls-1{fill:#034ea1;}</style></defs><title>Artboard 3 copy 25</title><path class="cls-1" d="M188.52,58.78c-6.93,0-9.61-6.38-9.61-12.87S181.59,33,188.52,33s9.61,6.38,9.61,12.87-2.68,12.87-9.61,12.87Zm0-32.26c-10.91,0-17.22,8.18-17.22,19.39s6.31,19.39,17.22,19.39,17.22-8.18,17.22-19.39-6.31-19.39-17.22-19.39Z"/><polygon class="cls-1" points="77.03 27.61 104.38 27.61 104.38 34.13 84.64 34.13 84.64 42.25 103.05 42.25 103.05 48.61 84.64 48.61 84.64 57.69 104.38 57.69 104.38 64.21 77.03 64.21 77.03 27.61 77.03 27.61"/><path class="cls-1" d="M122.15,46.71h-6.9V34.13h6.9c4.78,0,8,2.08,8,6.29s-3.18,6.29-8,6.29Zm-14.51,17.5h7.61v-11h6.9c9.31,0,15.57-4.58,15.57-12.81s-6.26-12.81-15.57-12.81H107.64v36.6Z"/><path class="cls-1" d="M216.43,27.61h-7.82v36.6h7.46V49.38c0-4.05-.15-7.65-.28-10.83.88,1.83,3.55,7.33,4.79,9.4l9.7,16.26h7.81V27.61h-7.45V42.07c0,4,.14,8,.28,11.21-.88-1.84-3.55-7.34-4.79-9.41l-9.7-16.26Z"/><path class="cls-1" d="M146.36,52.1c0,4.92,4.1,6.84,8.45,6.84,2.85,0,7.46-.83,7.46-4.61,0-4-5.64-4.74-11.08-6.19C145.48,46.63,140,44.49,140,37.7c0-7.55,7.14-11.18,13.82-11.18,7.72,0,14.81,3.37,14.81,11.91H161c-.26-4.45-3.67-5.59-7.56-5.59-2.59,0-5.85,1.09-5.85,4.19,0,2.85,1.86,3.29,11.13,5.67,2.69.68,11.14,2.31,11.14,10.7,0,6.78-5.33,11.85-15.38,11.85-8.19,0-15.85-4-15.75-13.15Z"/></svg>