<svg id="Layer_1" data-name="Layer 1" xmlns="http://www.w3.org/2000/svg" viewBox="0 0 255.12 85.04"><defs><style>.cls-1{fill:#080808;}.cls-2{fill:#f5f5f5;}.cls-3{fill:#e00109;}</style></defs><title>Artboard 3 copy 46</title><path class="cls-1" d="M155.36,57.53c-4.83,6-14.46,5.5-18.23-.83-2.18,4-5.75,4.94-9.89,4.65-1.08-.07-2.17,0-3.25,0a6.91,6.91,0,0,1-6.33-9.86C121,43.41,124.81,35.55,128,27.4c.45-1.18.85-2.39,1.3-3.58a8.22,8.22,0,0,1,8-5.69c4.65-.13,9.32,0,14-.4,6.63-.55,10.41,3.89,8.5,10.3,1.41-.07,2.77-.15,4.13-.19,1.06,0,.7-.94.82-1.44a10.52,10.52,0,0,1,13.48-7.61,8.5,8.5,0,0,1,6.15,7.7c.07,1.18.43,1.3,1.45,1.19a15.48,15.48,0,0,1,8.6,1.19c.83.41,1.11.1,1.35-.6s.47-1.18.71-1.77a12.05,12.05,0,0,1,14.34-7.06,6.64,6.64,0,0,1,4.91,7.76c-.12.64-1,1.62.25,1.91s1.86,2,3.68.91c4-2.34,8.28-3.34,12.71-1.08.74.38,1.22,0,1.79-.16a14.64,14.64,0,0,1,7.89-.69c3.42.8,6,3.77,5.52,7.23-1.87,14.47-7.5,26.82-21,34-10.19,5.41-21,6.82-32.18,3.21a20.38,20.38,0,0,1-7-3.81A8.39,8.39,0,0,1,184,62.89c-.07-.89-.38-1-1.19-.9-4,.42-7.91.5-11.51-1.67-.56-.34-.93.07-1.38.26-3.51,1.47-7.12,1.17-10.69.38C157.5,60.57,156.31,59.25,155.36,57.53Zm.73-27.34a17.67,17.67,0,0,0,1.53-3.9c.76-3.87-1.16-6.22-5.12-6.14-5,.09-9.95.24-14.92.36A6.13,6.13,0,0,0,131.39,25q-1.62,4.59-3.54,9.08c-2.57,6-5.27,12-7.86,18.05-1.58,3.68.44,6.7,4.45,6.78,1.66,0,3.31,0,5,0a5.85,5.85,0,0,0,5.86-4.07c.9-2.32,1.82-4.63,2.73-6.94,1.22-3.08,1.22-3.07,4.81-2.81-1,2.57-2.11,5.08-3,7.66-1.16,3.44.62,6,4.23,6.23,1.27.09,2.55.06,3.83.05,3.15,0,4.81-1.24,5.88-4.19s2.24-6.1,3.35-9.15a3.89,3.89,0,0,1,1.69-2.24,1.92,1.92,0,0,1,2.17.1c.52.42-.1,1-.29,1.52-1,2.67-2.22,5.29-3.14,8s.22,5.28,2.84,5.69c3.59.55,7.41,1.35,10.4-1.89,2.19,2.26,5,2.84,7.89,2.94a27.14,27.14,0,0,0,8.66-1.33c-1.77,3.61-1,6.38,1.78,8.62a16.69,16.69,0,0,0,5,2.77c12.81,4.38,24.74,2.21,35.58-5.47,10-7.06,13.85-17.63,15.42-29.24a4.46,4.46,0,0,0-4-4.78,11.21,11.21,0,0,0-6.2.71c-1.52.67-2.8,1.38-4.21-.28-.59-.7-1.78-.66-2.74-.62-3.63.17-7.17.61-9.28,4.32a8.46,8.46,0,0,0-6.8-3.88,9.36,9.36,0,0,1,1.06-2.74c1.28-3.33-.48-6.08-4.06-6.29a17,17,0,0,0-5.1.67A6.36,6.36,0,0,0,199,26.52c-.81,2.2-1.81,4.33-2.77,6.59-4.59-4.39-9.93-3.17-15.29-2.24,1.55-3.53,1.17-6.34-1-8.35a7.77,7.77,0,0,0-8.77-.9c-4.14,2.29-5.16,5.81-3.3,10.64-2-1.59-3.87-2.4-5.87-1.91A14.33,14.33,0,0,1,156.09,30.19Z"/><path class="cls-2" d="M156.09,30.19a14.33,14.33,0,0,0,5.93.16c2-.49,3.85.32,5.87,1.91-1.86-4.83-.84-8.35,3.3-10.64a7.77,7.77,0,0,1,8.77.9c2.16,2,2.54,4.82,1,8.35,5.36-.93,10.7-2.15,15.29,2.24,1-2.26,2-4.39,2.77-6.59a6.36,6.36,0,0,1,4.75-4.25,17,17,0,0,1,5.1-.67c3.58.21,5.34,3,4.06,6.29a9.36,9.36,0,0,0-1.06,2.74,8.46,8.46,0,0,1,6.8,3.88c2.11-3.71,5.65-4.15,9.28-4.32,1,0,2.15-.08,2.74.62,1.41,1.66,2.69,1,4.21.28a11.21,11.21,0,0,1,6.2-.71,4.46,4.46,0,0,1,4,4.78c-1.57,11.61-5.47,22.18-15.42,29.24-10.84,7.68-22.77,9.85-35.58,5.47a16.69,16.69,0,0,1-5-2.77c-2.81-2.24-3.55-5-1.78-8.62a27.14,27.14,0,0,1-8.66,1.33c-2.94-.1-5.7-.68-7.89-2.94-3,3.24-6.81,2.44-10.4,1.89-2.62-.41-3.77-2.94-2.84-5.69s2.1-5.33,3.14-8c.19-.49.81-1.1.29-1.52a1.92,1.92,0,0,0-2.17-.1,3.89,3.89,0,0,0-1.69,2.24c-1.11,3.05-2.25,6.09-3.35,9.15S151,59,147.89,59c-1.28,0-2.56,0-3.83-.05-3.61-.23-5.39-2.79-4.23-6.23.87-2.58,2-5.09,3-7.66-3.59-.26-3.59-.27-4.81,2.81-.91,2.31-1.83,4.62-2.73,6.94a5.85,5.85,0,0,1-5.86,4.07c-1.66,0-3.31,0-5,0-4-.08-6-3.1-4.45-6.78,2.59-6,5.29-12,7.86-18.05q1.92-4.48,3.54-9.08a6.13,6.13,0,0,1,6.19-4.46c5-.12,9.95-.27,14.92-.36,4-.08,5.88,2.27,5.12,6.14A17.67,17.67,0,0,1,156.09,30.19ZM226.67,55.4c-.64.47-1.26,1-1.92,1.42a29.8,29.8,0,0,1-11.31,4.43c-6.74,1.24-13.35.94-19.53-2.4-2.25-1.21-3-1-4,1.31-.89,2-.66,3.13,1.05,4.54a14,14,0,0,0,4.33,2.4c10.74,3.76,20.9,2,30.44-3.66,9.71-5.79,14-15.18,16-25.8.81-4.17-.16-5-4.39-4.15-.32.06-.62.16-.93.22a2.76,2.76,0,0,0-2.4,2.72c-.48,3.69-1.39,7.27-3.76,10.29a8.8,8.8,0,0,1-3.12,2.76c-1.56.73-2.19.36-2.11-1.32a22.91,22.91,0,0,1,.53-3.58,32.64,32.64,0,0,1,3.9-8.89c.51-.91.83-1.8-.44-2.37-1.81-.81-6.42.56-7.41,2.32a32,32,0,0,0-4,10.87C216.55,53.49,219.58,56.42,226.67,55.4ZM206.3,35c.44-1,.68-1.6.94-2.16L210,27c.36-.78.63-1.59-.36-2.16-1.85-1.07-6.81.59-7.68,2.57q-3,6.81-6,13.63a35.82,35.82,0,0,0-2.2,6.1c-1.52,6.23,1.58,10,8,9.78a10.6,10.6,0,0,0,3.73-.79A18.23,18.23,0,0,0,216.19,44a11.65,11.65,0,0,0,.37-6.41,4.75,4.75,0,0,0-4.24-3.82C210.35,33.45,208.55,34,206.3,35Zm-66.48.64c1.29-5.43,3.81-7.1,9.09-6.06,3.51.68,4.8-.15,5.69-3.71.51-2.06,0-2.76-2.08-2.72-5,.09-9.94.25-14.91.34a3.23,3.23,0,0,0-3.32,2.32c-.82,2.28-1.62,4.56-2.57,6.78-2.9,6.79-5.88,13.55-8.82,20.32-.91,2.09-.34,3,2,3,1.34,0,2.68,0,4,0a3.33,3.33,0,0,0,3.65-2.41c1-2.81,2.37-5.51,3.22-8.37.72-2.37,1.89-3.49,4.42-3.13a12.24,12.24,0,0,0,2.47-.18A4.49,4.49,0,0,0,147,38.24c.58-2,.23-2.58-1.84-2.58Zm39.61,21.16c3.63-.1,7.13-.69,9.93-3.27,3.49-3.23,2.91-7.51-1.28-9.74-1.07-.57-2.19-1-3.27-1.58-.74-.39-1.52-.85-1.32-1.87s1.15-1.31,2.06-1.37a7,7,0,0,1,4.52,1.25,2.31,2.31,0,0,0,3.12-.29c2.32-1.94,1.63-5.22-1.47-6.32a13.4,13.4,0,0,0-10.24.67,8.94,8.94,0,0,0-4.86,4.64c-1.32,3.12-.44,5.65,2.54,7.21,1.07.56,2.21,1,3.28,1.55.71.37,1.66.72,1.39,1.78s-1.19,1.25-2.12,1.3a7.91,7.91,0,0,1-4.93-1.23,2.46,2.46,0,0,0-3.42.46c-1.81,1.78-1.51,4.25.72,5.66A9.45,9.45,0,0,0,179.43,56.82ZM146.36,56c3.79,0,3.77,0,5-3.54q1.41-4,2.91-7.88c1.37-3.57,3.49-4.76,7.31-4.12a2.52,2.52,0,0,0,2.46-.61c1.52-1.55,2.13-4.3,1.19-5.61s-2.85-1.38-5.12-.36c-.28.14-.56.3-.85.44a.74.74,0,0,1-1-.12c-2.3-1.9-7.22-.72-8.38,2q-3.3,7.74-6.5,15.5C141.79,55.72,142,56,146.36,56Zm17.87.07c1.53-.07,3.44.49,4.29-1.68,2.47-6.34,4.66-12.78,7.47-19a1.25,1.25,0,0,0-.67-1.88c-2.22-1-6.75.74-7.69,3q-3.24,7.64-6.42,15.3C159.57,55.76,159.77,56,164.23,56.09ZM174,31.65a4.84,4.84,0,0,0,5-4.51c0-2.06-1.63-3.43-4-3.43-2.69,0-5,2.1-5,4.51C169.93,30.25,171.57,31.64,174,31.65Zm40.93,21.16a25.53,25.53,0,0,1-7.49,6,31.24,31.24,0,0,0,10.48-1.93A9.63,9.63,0,0,1,214.88,52.81Z"/><path class="cls-3" d="M226.67,55.4c-7.09,1-10.12-1.91-9.07-8.89a32,32,0,0,1,4-10.87c1-1.76,5.6-3.13,7.41-2.32,1.27.57.95,1.46.44,2.37a32.64,32.64,0,0,0-3.9,8.89,22.91,22.91,0,0,0-.53,3.58c-.08,1.68.55,2.05,2.11,1.32a8.8,8.8,0,0,0,3.12-2.76c2.37-3,3.28-6.6,3.76-10.29a2.76,2.76,0,0,1,2.4-2.72c.31-.06.61-.16.93-.22,4.23-.85,5.2,0,4.39,4.15-2.06,10.62-6.32,20-16,25.8-9.54,5.68-19.7,7.42-30.44,3.66a14,14,0,0,1-4.33-2.4c-1.71-1.41-1.94-2.51-1.05-4.54,1-2.35,1.77-2.52,4-1.31,6.18,3.34,12.79,3.64,19.53,2.4a29.8,29.8,0,0,0,11.31-4.43C225.41,56.38,226,55.87,226.67,55.4Z"/><path class="cls-3" d="M206.3,35c2.25-1,4-1.57,6-1.28a4.75,4.75,0,0,1,4.24,3.82,11.65,11.65,0,0,1-.37,6.41,18.23,18.23,0,0,1-10.78,12.14,10.6,10.6,0,0,1-3.73.79c-6.37.26-9.47-3.55-8-9.78a35.82,35.82,0,0,1,2.2-6.1q3-6.83,6-13.63c.87-2,5.83-3.64,7.68-2.57,1,.57.72,1.38.36,2.16l-2.77,5.88C207,33.42,206.74,34,206.3,35Zm2.91,7.39c0-2.55-1.33-3.4-3.28-2.29-3,1.73-4.49,4.59-5,7.94a2.14,2.14,0,0,0,3.45,2.38C207.6,48.61,208.83,45.56,209.21,42.41Z"/><path class="cls-3" d="M139.82,35.66h5.31c2.07,0,2.42.56,1.84,2.58a4.49,4.49,0,0,1-4.34,3.63,12.24,12.24,0,0,1-2.47.18c-2.53-.36-3.7.76-4.42,3.13-.85,2.86-2.2,5.56-3.22,8.37A3.33,3.33,0,0,1,128.87,56c-1.33-.06-2.67,0-4,0-2.3,0-2.87-.9-2-3,2.94-6.77,5.92-13.53,8.82-20.32.95-2.22,1.75-4.5,2.57-6.78a3.23,3.23,0,0,1,3.32-2.32c5-.09,9.94-.25,14.91-.34,2.09,0,2.59.66,2.08,2.72-.89,3.56-2.18,4.39-5.69,3.71C143.63,28.56,141.11,30.23,139.82,35.66Z"/><path class="cls-3" d="M179.43,56.82a9.45,9.45,0,0,1-5.35-1.15c-2.23-1.41-2.53-3.88-.72-5.66a2.46,2.46,0,0,1,3.42-.46,7.91,7.91,0,0,0,4.93,1.23c.93-.05,1.85-.27,2.12-1.3s-.68-1.41-1.39-1.78c-1.07-.56-2.21-1-3.28-1.55-3-1.56-3.86-4.09-2.54-7.21a8.94,8.94,0,0,1,4.86-4.64,13.4,13.4,0,0,1,10.24-.67c3.1,1.1,3.79,4.38,1.47,6.32a2.31,2.31,0,0,1-3.12.29A7,7,0,0,0,185.55,39c-.91.06-1.85.29-2.06,1.37s.58,1.48,1.32,1.87c1.08.55,2.2,1,3.27,1.58,4.19,2.23,4.77,6.51,1.28,9.74C186.56,56.13,183.06,56.72,179.43,56.82Z"/><path class="cls-3" d="M146.36,56c-4.34,0-4.57-.3-2.93-4.28q3.19-7.77,6.5-15.5c1.16-2.74,6.08-3.92,8.38-2a.74.74,0,0,0,1,.12c.29-.14.57-.3.85-.44,2.27-1,4.24-.88,5.12.36s.33,4.06-1.19,5.61a2.52,2.52,0,0,1-2.46.61c-3.82-.64-5.94.55-7.31,4.12q-1.5,3.91-2.91,7.88C150.13,56,150.15,56,146.36,56Z"/><path class="cls-3" d="M164.23,56.09c-4.46-.05-4.66-.33-3-4.29q3.18-7.66,6.42-15.3c.94-2.22,5.47-3.94,7.69-3a1.25,1.25,0,0,1,.67,1.88c-2.81,6.21-5,12.65-7.47,19C167.67,56.58,165.76,56,164.23,56.09Z"/><path class="cls-3" d="M174,31.65c-2.38,0-4-1.4-4-3.43,0-2.41,2.31-4.51,5-4.51,2.39,0,4,1.37,4,3.43A4.84,4.84,0,0,1,174,31.65Z"/><path class="cls-1" d="M214.88,52.81a9.63,9.63,0,0,0,3,4.09,31.24,31.24,0,0,1-10.48,1.93A25.53,25.53,0,0,0,214.88,52.81Z"/><path class="cls-2" d="M209.21,42.41c-.38,3.15-1.61,6.2-4.85,8a2.14,2.14,0,0,1-3.45-2.38c.53-3.35,2-6.21,5-7.94C207.88,39,209.2,39.86,209.21,42.41Z"/></svg>