<svg id="Layer_1" data-name="Layer 1" xmlns="http://www.w3.org/2000/svg" viewBox="0 0 255.12 85.04"><defs><style>.cls-1{fill:#1e3f95;}.cls-2{fill:#fdfefe;}.cls-3{fill:#0e4491;}.cls-4{fill:#104491;}.cls-5{fill:#134692;}.cls-6{fill:#144993;}.cls-7{fill:#184792;}.cls-8{fill:#0d3f8d;}.cls-9{fill:#1b4b96;}.cls-10{fill:#0d4593;}.cls-11{fill:#194a94;}.cls-12{fill:#dde8f2;}.cls-13{fill:#ebf3f6;}.cls-14{fill:#eff4f8;}.cls-15{fill:#063a8e;}</style></defs><title>Artboard 3 copy 45</title><path class="cls-1" d="M112.12,26.2c.18-.05.28-.21.4-.34,1.38-1.37,2.75-2.73,4.11-4.12.24-.24.36-.2.57,0q2.22,2.25,4.48,4.46c.21.21.1.29,0,.42-1.45,1.45-2.9,2.89-4.34,4.34l-.24.25,1.91-.12,5.19-.37a.39.39,0,0,1,.47.31c.47,1.14.94,2.28,1.44,3.41a.44.44,0,0,1-.14.61l-5.06,4.4-.27.23c.09.13.22.07.32.07h6c.35,0,.42.1.42.43q0,3.07,0,6.17c0,.32-.09.41-.41.41-1.94,0-3.89,0-5.83,0a.88.88,0,0,0-.49.06L122,48c1.33,1.16,2.66,2.32,4,3.46a.44.44,0,0,1,.14.62c-.48,1.13-1,2.27-1.4,3.42a.42.42,0,0,1-.51.32l-6.34-.46c-.24,0-.48,0-.77,0l.33.35c1.41,1.41,2.81,2.82,4.23,4.22.18.18.22.28,0,.48q-2.23,2.2-4.44,4.44c-.24.24-.36.2-.57,0-1.39-1.41-2.8-2.81-4.2-4.2-.08-.08-.13-.2-.32-.19.07.87.13,1.73.19,2.59.1,1.48.19,3,.31,4.42a.36.36,0,0,1-.27.43q-1.77.72-3.51,1.47a.4.4,0,0,1-.55-.14L103.79,64l-.16-.17c-.12.14-.07.29-.07.42,0,2,0,4,0,6,0,.28-.06.38-.36.38-2.11,0-4.22,0-6.32,0-.28,0-.34-.1-.34-.36,0-2,0-3.9,0-5.86a.87.87,0,0,0,0-.47,1.22,1.22,0,0,0-.38.37L91.9,69.15a.43.43,0,0,1-.58.15c-1.14-.48-2.28-1-3.42-1.4a.47.47,0,0,1-.36-.56c.19-2.29.34-4.58.5-6.87a.35.35,0,0,0,0-.14c-.2,0-.29.21-.41.32q-2.1,2.07-4.18,4.16c-.21.22-.33.22-.55,0-1.47-1.49-3-3-4.44-4.45-.21-.21-.15-.3,0-.47l4.21-4.2c.1-.11.24-.19.29-.39l-1.92.13-5.15.37c-.24,0-.33-.07-.42-.27q-.72-1.76-1.47-3.48a.44.44,0,0,1,.14-.59c1.67-1.43,3.33-2.88,5-4.32l.4-.36-.48,0c-2,0-4,0-6,0-.28,0-.4-.05-.39-.37,0-2.1,0-4.19,0-6.29,0-.27.07-.34.34-.34h6c.13,0,.26,0,.41-.06l-2.18-1.9c-1.05-.91-2.09-1.82-3.15-2.72a.38.38,0,0,1-.12-.5c.49-1.15,1-2.32,1.43-3.49a.45.45,0,0,1,.54-.33c2.21.17,4.43.31,6.65.47a.67.67,0,0,0,.34,0c0-.17-.14-.23-.23-.32-1.4-1.4-2.8-2.81-4.21-4.2-.22-.22-.22-.34,0-.56q2.2-2.19,4.38-4.4c.21-.21.32-.23.54,0,1.38,1.4,2.78,2.78,4.17,4.17l.39.36c0-.8-.09-1.51-.14-2.21l-.36-4.92a.34.34,0,0,1,.25-.4c1.19-.49,2.37-1,3.55-1.49a.38.38,0,0,1,.52.13l4.32,5a1.24,1.24,0,0,0,.39.36c0-.15,0-.29,0-.42,0-2,0-4,0-6,0-.32,0-.44.41-.44q3.09,0,6.17,0c.33,0,.44.08.44.43,0,1.95,0,3.91,0,5.86v.58l.52-.58q2.08-2.4,4.16-4.81a.37.37,0,0,1,.49-.12c1.18.49,2.35,1,3.53,1.45a.39.39,0,0,1,.3.48c-.17,2.27-.32,4.54-.48,6.8,0,.09,0,.19,0,.26h-.05v0ZM89.72,56.69l.76.73a.47.47,0,0,1,.16.41c-.13,1.65-.24,3.3-.36,5-.08,1.14-.15,2.28-.24,3.42a.48.48,0,0,0,.27.54.51.51,0,0,0,.63-.16,1.22,1.22,0,0,1,.15-.17c1.75-2,3.49-4,5.23-6a.78.78,0,0,1,.66-.3c.28,0,.55,0,.83,0l0-.1a3.59,3.59,0,0,1-1.23-2.6,3.35,3.35,0,0,1,1.17-2.67,3.47,3.47,0,0,1,4.52,0,3.33,3.33,0,0,1,1.17,2,3.56,3.56,0,0,1-1.24,3.39,6.52,6.52,0,0,0,.79,0,.89.89,0,0,1,.83.35c1.75,2,3.51,4.06,5.28,6.09.17.2.36.4.65.26a.61.61,0,0,0,.31-.68c-.21-2.71-.39-5.43-.59-8.14a.57.57,0,0,1,.18-.49c.22-.23.43-.48.67-.75a3.56,3.56,0,0,1-3.82-3.57,3.48,3.48,0,0,1,3.16-3.37,3.42,3.42,0,0,1,2.77,1,3.68,3.68,0,0,1,1,2.86l.74-.78a.4.4,0,0,1,.37-.15l1.23.08,7.15.51a.51.51,0,0,0,.59-.31.53.53,0,0,0-.22-.61c-1.82-1.58-3.62-3.2-5.48-4.74a2.14,2.14,0,0,1-1-2s0,0-.07-.08a3.52,3.52,0,0,1-2.56,1.22,3.39,3.39,0,0,1-2.62-1.09,3.46,3.46,0,0,1-.22-4.49,3.33,3.33,0,0,1,2-1.25,3.52,3.52,0,0,1,3.48,1.2c0-.34,0-.59,0-.83a.8.8,0,0,1,.33-.75c1.11-.94,2.2-1.9,3.29-2.85l2.86-2.48c.37-.33.37-.65,0-.87a.83.83,0,0,0-.49-.06c-2.5.18-5,.34-7.49.55a1.6,1.6,0,0,1-1.57-.55.37.37,0,0,0-.33-.21,3.46,3.46,0,0,1-.94,2.67,3.32,3.32,0,0,1-2.63,1.08,3.46,3.46,0,0,1-2.63-5.56,3.72,3.72,0,0,1,3.06-1.41,1.11,1.11,0,0,0-.3-.31,1.27,1.27,0,0,1-.49-1.34c.2-2.56.37-5.12.56-7.68,0-.27,0-.56-.29-.68s-.5.05-.69.27c-1.76,2-3.53,4.05-5.28,6.09a.81.81,0,0,1-.66.3c-.28,0-.57,0-1,.05A3.55,3.55,0,0,1,103.48,29a3.34,3.34,0,0,1-1,2.59,3.45,3.45,0,0,1-4.47.42,3.34,3.34,0,0,1-1.45-2.68,3.52,3.52,0,0,1,1.26-2.86c-.4,0-.7,0-1,0a.51.51,0,0,1-.46-.21L93.1,22.51,90.9,20a.48.48,0,0,0-.57-.2.52.52,0,0,0-.32.56c0,.07,0,.13,0,.19.19,2.69.37,5.38.57,8.07a.62.62,0,0,1-.18.52c-.23.23-.44.48-.72.79a3.57,3.57,0,0,1,2.73.88,3.34,3.34,0,0,1,1.13,2.53,3.42,3.42,0,0,1-3.11,3.47,3.16,3.16,0,0,1-2.23-.54A3.49,3.49,0,0,1,86.63,33a4.67,4.67,0,0,0-.54.49,1,1,0,0,1-1,.34c-2.66-.2-5.33-.37-8-.57-.26,0-.48,0-.58.27a.55.55,0,0,0,.21.67C78.85,36,80.9,37.78,83,39.57a.59.59,0,0,1,.25.48c0,.34.05.67.08,1a3.52,3.52,0,0,1,4.94-.43,3.45,3.45,0,0,1,.71,4.46,3.3,3.3,0,0,1-2,1.5,3.52,3.52,0,0,1-3.68-1.15,7.55,7.55,0,0,0,0,.85A.78.78,0,0,1,83,47c-2,1.76-4.1,3.55-6.15,5.32-.2.18-.35.37-.23.63a.55.55,0,0,0,.63.32L85,52.74a1.13,1.13,0,0,1,1.07.35,1.62,1.62,0,0,0,.56.47,3.48,3.48,0,1,1,3.06,3.13Z"/><path class="cls-2" d="M112.12,26.2l0,0v0h.05Z"/><path class="cls-3" d="M210.45,50.79c2.43,1.38,3,3.22,1.59,5a2.56,2.56,0,0,1-2,1.06h-5.36A1.9,1.9,0,0,0,206,54.54c-.18-2.62.35-5.26-.28-7.87-.07-.29.09-.43.39-.47a9.18,9.18,0,0,1,5,.48C212.64,47.35,212.55,50.05,210.45,50.79Zm-2.72,2.74v1c0,.73-.07,1.54,1,1.69a1.7,1.7,0,0,0,2-1.15,3.28,3.28,0,0,0,0-2.57,2,2,0,0,0-2.38-1.27c-1,.19-.45,1.1-.59,1.69A2.9,2.9,0,0,0,207.73,53.53Zm2.7-4.76c0-1.35-.67-2.19-1.79-2.16s-.83,1-.9,1.74a9,9,0,0,0,0,1.16c0,1.1.58,1.45,1.57,1A2,2,0,0,0,210.43,48.77Z"/><path class="cls-4" d="M193.72,45c0,3.33,0,6.54,0,9.75,0,.26-.55,1.34.64.75.26-.13.29.23.26.39-.14.72-.87.7-1.34,1s-.67.44-.89-.19-.61-.14-.9,0a2.2,2.2,0,0,1-3.11-.93,5.68,5.68,0,0,1,.43-5.71,2.34,2.34,0,0,1,2.42-1c1,.28,1.12-.17,1-.92s.38-1.47-.53-2c-.32-.17,0-.41.19-.49C192.46,45.45,193,45.27,193.72,45Zm-1.46,7.91h0c0-.73,0-1.47,0-2.2a1.23,1.23,0,0,0-1-1.26,1.18,1.18,0,0,0-1.27.82,6.4,6.4,0,0,0-.08,5,1.19,1.19,0,0,0,1.39.84,1.26,1.26,0,0,0,1-1.28C192.28,54.2,192.26,53.56,192.26,52.92Z"/><path class="cls-5" d="M176.91,49.05c-.29-.57-.49-1-.75-1.46a1.65,1.65,0,0,0-1.79-.74c-.86.12-.58.88-.62,1.42a7.28,7.28,0,0,0,0,1.32c.05.48-.3,1.17.48,1.34a1.21,1.21,0,0,0,1.4-.81c.09-.21.09-.49.53-.51V53c-.19,0-.34,0-.36-.07-.33-.71-.64-1.62-1.63-1.3s-.39,1.2-.4,1.8c0,1.23-.56,2.75,1.35,3.3h-4c1.18-.34,1-1.28,1-2.15,0-2.06,0-4.11,0-6.17,0-.83,0-1.61-1.23-1.69.65-.74,1.31-.32,1.89-.36.78,0,1.56,0,2.35,0C177.42,46.27,177.59,46.51,176.91,49.05Z"/><path class="cls-5" d="M143.21,35.32c-.69,0-.74-.62-.93-1.09a1.7,1.7,0,0,0-2-1.08c-1,.17-.46,1-.56,1.57a3,3,0,0,0,0,1c.09.52-.37,1.3.46,1.48s1.18-.31,1.44-1c.06-.15.06-.4.45-.39v3.43c-.54-.17-.53-.62-.72-.92A1.12,1.12,0,0,0,140,37.9c-.54.14-.33.64-.34,1,0,.64,0,1.28,0,1.91,0,1.44,0,1.44,1.7,2.16h-4.88C137.88,42.58,138,41.9,138,41c-.06-2.2-.05-4.41,0-6.61a1.77,1.77,0,0,0-1-1.82h5.57c.52,0,.46.37.48.72a5.91,5.91,0,0,0,.15,2Z"/><path class="cls-4" d="M241.92,55.93c-.36-.09-.52.19-.73.38-1.44,1.22-2.36,1-3-.78-.33,0-.32.31-.44.5-.38.6-.84,1.16-1.63,1s-1-1-1-1.73c0-1.42.38-3-.1-4.22-.68-1.74.43-2.57,1.09-3.7,0,0,.08,0,.16-.07.66.5-.49,2.09,1.58,1.94-1.7.7-1.37,1.88-1.36,2.93s0,2.25.14,3.37c0,.44,1.43.15,1.79-.46a13.82,13.82,0,0,1,3.26-3.26l.21,1c-1.05-.1-1.27.83-1.73,1.44a1.06,1.06,0,0,0,0,1.45c.43.46.87.17,1.29-.06A.47.47,0,0,1,241.92,55.93Z"/><path class="cls-5" d="M163.86,52.69a2.54,2.54,0,0,0,.78-2.23c-.06-.38,0-.85-.46-1a1,1,0,0,0-1.19.66c-.2.38-.24.84-.43,1.23s-.62.83-1.16.51-.3-.78-.06-1.15a3.65,3.65,0,0,1,2.31-1.67c1.85-.44,2.42,0,2.42,1.87,0,1.27,0,2.54,0,3.81,0,1,.32,1.36,1.31.69-.54,1.67-1.34,2-2.42.84-.46-.48-.57-.2-.88,0-1.55,1.19-2.23,1-3.09-.78l-.53.67-.34-.33c1.08-.51,1.58-1.61,2.4-2.39l.27-.23.31-.08c.71.57-.19.89-.23,1.35-.06.66-.2,1.4.79,1.32.79-.07,1-.79.93-1.43S165.32,52.73,163.86,52.69Z"/><path class="cls-5" d="M233.7,52.58c0,2.63-1.48,4.54-3.27,4.49s-3.43-2.35-3.11-4.58a6.2,6.2,0,0,1,.39-1.4A2.94,2.94,0,0,1,230.58,49a3,3,0,0,1,2.79,2.23A8.76,8.76,0,0,1,233.7,52.58Zm-4.78.4a5.47,5.47,0,0,0,.62,2.84c.57.94,1.42,1,1.92,0a6,6,0,0,0,0-5.65c-.53-1-1.42-1-2,.11A5.56,5.56,0,0,0,228.92,53Z"/><path class="cls-4" d="M219.91,53.14c0,.13,0,.38,0,.62-.22,1.82-1.67,3.32-3.16,3.31a3.54,3.54,0,0,1-3.07-3.23,5.87,5.87,0,0,1-.08-.72c-.06-2.3,1.41-4.21,3.21-4.17S219.92,50.76,219.91,53.14ZM215.14,53a5.13,5.13,0,0,0,.68,2.95c.56.85,1.27.84,1.85,0a6.58,6.58,0,0,0,0-5.76c-.6-.93-1.32-.94-1.91,0A5.15,5.15,0,0,0,215.14,53Z"/><path class="cls-4" d="M188.58,39.28a4.41,4.41,0,0,1-.55,2.25,2.89,2.89,0,0,1-5.37-.14,4.79,4.79,0,0,1-.21-3.71,3.07,3.07,0,0,1,2.8-2.41c1.54-.07,2.39.87,3,2.16A4.41,4.41,0,0,1,188.58,39.28ZM187,39.2a5.28,5.28,0,0,0-.63-2.68c-.56-1.08-1.42-1.13-2-.07a6,6,0,0,0,0,5.64c.54,1.06,1.41,1,2-.06A5.52,5.52,0,0,0,187,39.2Z"/><path class="cls-6" d="M183.48,54.75a2.76,2.76,0,0,1-5,1.07,5.3,5.3,0,0,1,.36-5.9,2.56,2.56,0,0,1,4.21.32c.92,1.72.53,2.38-1.39,2.41a.93.93,0,0,0-.29,0c-.65.26-1.75-.58-2,.55a2.41,2.41,0,0,0,1.12,2.67,1.63,1.63,0,0,0,2.38-.69C183,55.08,183.1,55,183.48,54.75Zm-3.1-2.61c.81,0,1.66,0,1.59-1.2,0-.7-.15-1.5-1.05-1.46-1.19,0-1.36,1.1-1.51,2S179.94,52.1,180.38,52.14Z"/><path class="cls-7" d="M177.71,41.16c-.51,1.91-2,2.63-3.66,1.88s-2.46-3.34-1.73-5.41a3.5,3.5,0,0,1,4.22-2.31c.69.14,1.05.48,1,1.19,0,.41.17,1-.39,1.13s-.58-.41-.8-.73-.39-1.26-1.14-1.14-1.07.82-1.29,1.48a4.92,4.92,0,0,0-.17,2.32,3.12,3.12,0,0,0,1.52,2.69C176.39,42.8,177,41.84,177.71,41.16Z"/><path class="cls-5" d="M196.92,52.66c-.42,2.6.55,3.61,3.15,3.29-.93,1.54-3,1.47-4.16-.13a5.2,5.2,0,0,1,.25-5.79,2.58,2.58,0,0,1,4.53,2.33c-.77-.07-1.57.23-2.3-.2a1.14,1.14,0,0,0,1-1.57c-.14-.57-.33-1.17-1.08-1.14s-1.13.69-1.32,1.35a6.71,6.71,0,0,0-.09,1.28Z"/><path class="cls-8" d="M139.24,46.74c-.85,1.53-.75,2.07.55,3.11.73.57,1.51,1.08,2.18,1.72,1.72,1.66,1.46,3.65-.61,4.94l-.31-.25c1.07-1.43,1-2.56-.4-3.61-.69-.54-1.49-.94-2.15-1.5-1.64-1.39-1.5-3.33.27-4.63Z"/><path class="cls-8" d="M162.3,32.57c-.22-1.24.95-.83,1.45-1.07s.43.44.43.75c0,2.93,0,5.86,0,8.79,0,.3-.48,1.17.66.85.44-.13.28.52.05.67a9.08,9.08,0,0,1-1.44.69c-.33-.46-.56-1-1.3-.94l.69-1.18a.42.42,0,0,0,.12.08l.12,0c0-1.37.43-2.77-.24-4.09l-.56-1.15,0-.38A2.22,2.22,0,0,0,162.3,32.57Z"/><path class="cls-8" d="M160.11,55.88l.34.33a1.23,1.23,0,0,1-1.54.76,1.41,1.41,0,0,1-.9-1.52c0-1.42,0-2.83,0-4.25,0-.48.27-1.1-.46-1.38-.35-.14-.21-.38,0-.54a8.33,8.33,0,0,0,1.65-2.16c.41.92-.34,2.39,1.59,2.32-1.76.26-1.37,1.43-1.39,2.4s0,1.95,0,2.93C159.36,55.27,159.26,55.92,160.11,55.88Z"/><path class="cls-5" d="M147.14,51.93c0-.44.06-.88.06-1.32s.12-1.07-.59-1.13a1.13,1.13,0,0,0-1.17.9A5.4,5.4,0,0,1,145,51.6a.71.71,0,0,1-1,.32c-.44-.25-.35-.62-.18-1a3.8,3.8,0,0,1,4-1.88c.75.17.88.66.88,1.29,0,1.41,0,2.83,0,4.24,0,.57-.25,1.35.9,1.23.51-.06-.2.6.21.78l0,0c-.79.05-1.73,1.11-2.31-.34l-.23-.29-.06,0c0-.24,0-.48-.07-.72,0-.06,0-.11.05-.14A3.31,3.31,0,0,0,147.14,51.93Z"/><path class="cls-7" d="M192.07,36a1.71,1.71,0,0,1,2.21-.6c.86.31,1.05,1.08,1.05,1.92,0,1.27,0,2.54,0,3.82,0,.69-.25,1.51.76,1.88h-2.83c.81-.48.63-1.24.64-1.93V37.57c0-1-.45-1.56-1.54-1.36Z"/><path class="cls-7" d="M153.81,36.2c-1.51,1.4-.61,3.22-.82,4.85-.09.7-.15,1.48.75,1.94h-2.93c1-1.09,1.05-5.51,0-6.65.85-.56,1.62-1.39,2.67-.34Z"/><path class="cls-9" d="M143.19,35.34c2.44.11,2.44.11,2.44,2.67,0,.88,0,1.76,0,2.64,0,1.12.4,1.79,1.68,1.7a1.29,1.29,0,0,1-1.63.86,1.48,1.48,0,0,1-1.33-1.36c-.1-1.12-.11-2.24-.14-3.36s.27-2.41-1-3.17Z"/><path class="cls-5" d="M192.07,36l.29.21-.5.35-.19-.14.14.19c-.36,2.13-.71,4.27.29,6.39h-2.82c1.23-.89.84-2.12.79-3.23s.55-2.43-.68-3.45C190.27,35.8,191,35,192.07,36Z"/><path class="cls-4" d="M223.39,54.31l-.87.16c0-.25,0-.49-.3-.62a2.76,2.76,0,0,1-.85-3.69,2.49,2.49,0,0,1,3.32-.88,13.55,13.55,0,0,0,2.39.35,1.42,1.42,0,0,0-1,1.79,2.18,2.18,0,0,1-1.2,2.42.6.6,0,0,1-.58-.3,5.08,5.08,0,0,0,.11-3.31c-.13-.38-.35-.73-.8-.76s-.66.33-.83.7a3.56,3.56,0,0,0,.64,3.76Z"/><path class="cls-5" d="M162.19,42.31c.74-.11,1,.48,1.3.94a2.31,2.31,0,0,0-2.29,0c-1.09.37-2.26-.56-2.65-2A5.41,5.41,0,0,1,160,35.61l.59-.29a.36.36,0,0,0,.28-.06c.5.09,1.06-.11,1.49.3l0,.38c-1.06-.53-1.67,0-2,.93a6.84,6.84,0,0,0-.15,4.15A1.52,1.52,0,0,0,162.19,42.31Z"/><path class="cls-8" d="M241.92,55.93a.47.47,0,0,0-.49-.32,6.84,6.84,0,0,0,.44-2.83l-.21-1c0-.9.84-2.14-.91-2.37l-.28-.24c2.32-.56,2.71-.26,2.71,2,0,1.12,0,2.24,0,3.36,0,.9.08,1.71,1.38.9a1.56,1.56,0,0,1-1.4,1.45C242.5,57,242.09,56.56,241.92,55.93Z"/><path class="cls-10" d="M152.48,50a1.86,1.86,0,0,1,2.38-.89c1,.34,1.15,1.24,1.15,2.16,0,1.22,0,2.44,0,3.67,0,.7,0,1.37.75,1.79h-3.07c.94-.54.9-1.29.88-2,0-1.13,0-2.26,0-3.38,0-1.4-.46-1.64-1.86-1.11A1.29,1.29,0,0,0,152.48,50Z"/><path class="cls-5" d="M178.45,36.17l2-.87c.66,2.56-.65,5.28.82,7.71h-3.08C179.41,41.93,179.56,37.52,178.45,36.17Z"/><path class="cls-5" d="M153.81,36.2l-.29-.2a.12.12,0,0,1,.14-.14,3.68,3.68,0,0,1,2.69.07c.08,0,.11.06.09.14l0,0c.63,1.66.2,3.38.3,5.07.05.71-.09,1.46.75,1.91h-3.29a1.59,1.59,0,0,0,1.14-1.78c0-1.17,0-2.34,0-3.52S155,36,153.81,36.2Z"/><path class="cls-10" d="M152.69,50.19c-.8,1.53-.67,5.48.28,6.62-1.09-.19-2.16.31-3.17-.28l0,0a1.33,1.33,0,0,0,1-1.53c-.09-1.27.36-2.72-.11-3.78-.76-1.69.43-1.78,1.29-2.3.51.17,0,.89.52,1A1.29,1.29,0,0,1,152.69,50.19Z"/><path class="cls-5" d="M147,35.62c2.43-.37,2.43-.37,2.43,1.77,0,1.23,0,2.45,0,3.67,0,.64,0,1.22,1,1.31a3.84,3.84,0,0,1-.56.35c-1.68.69-2,.33-1.88-1.58.12-1.46,0-2.94.05-4.4C148,36.09,147.53,36,147,35.62Z"/><path class="cls-10" d="M168.48,38.85c.82-.74.59-1.74.65-2.66l.1-.11-.19-.14h0l0-.63c1.1-.16,1.5.36,1.47,1.41,0,1.4,0,2.81,0,4.22,0,.83.06,1.58,1.33.76-.24,1.06-.71,1.53-1.63,1.46l-.34-.16,0,0a5.3,5.3,0,0,0-.93-1.57C168.83,40.59,169.79,39.49,168.48,38.85Z"/><path class="cls-11" d="M147.14,51.93a3.31,3.31,0,0,1,0,3.09v-2.4a3.34,3.34,0,0,0-1.54,1.53c-.29.54-.51,1.17.07,1.59s1-.15,1.42-.58c0,.24.05.48.07.72-.18.15-.37.29-.54.45-.79.69-1.69,1.19-2.54.25s-.31-1.84.44-2.54S146.28,52.63,147.14,51.93Z"/><path class="cls-11" d="M224.5,55.53c1.21,0,2.07.43,2.26,1.72s-.4,2.23-1.88,2.82v-.33c1.42-1.66,1-2.62-1.18-3.1a4.92,4.92,0,0,0-.55-.14c-.35-.06-.89.09-.84-.48s.57-.38.92-.41Z"/><path class="cls-6" d="M169,41.46a5.3,5.3,0,0,1,.93,1.57c-.55-.41-1-1.07-1.77-.15a1.42,1.42,0,0,1-2.12,0,1.48,1.48,0,0,1,0-2.12c.3-.39.65-.72,1-1.08l.33-.28v-.09h0l.42,0c.26.45-.15.7-.3,1-.26.54-.53,1.16,0,1.59S168.62,41.92,169,41.46Z"/><path class="cls-9" d="M224.5,55.53l-1.28.08c-.35,0-.88-.12-.92.41s.49.42.84.48a4.92,4.92,0,0,1,.55.14c-1.1.08-2,.44-1.79,1.76a1.68,1.68,0,0,0,2,1.53,7.17,7.17,0,0,0,1-.19v.33a3.39,3.39,0,0,1-2.4.24,1.85,1.85,0,0,1-1.67-1.24,1.56,1.56,0,0,1,.64-1.92c.52-.36.56-.69.08-1.14-.24-.23-.71-.47-.35-1,.36.31.72.74,1,0C222.88,55.63,223.78,55.16,224.5,55.53Z"/><path class="cls-11" d="M141.05,56.26l.31.25a3,3,0,0,1-2.47.49,2.13,2.13,0,0,1-1.6-3.14c.06-.12.16-.29.27-.31s.35.1.42.3a10.72,10.72,0,0,0,.51,1.51A1.78,1.78,0,0,0,141.05,56.26Z"/><path class="cls-9" d="M169.09,35.32l0,.63c-1-.46-1.46,0-1.75.86a4.9,4.9,0,0,1-.41,1.09.74.74,0,0,1-1,.28c-.45-.25-.37-.67-.15-1C166.51,36,167.51,35.09,169.09,35.32Z"/><path class="cls-11" d="M240,48c.71-.79,1.4-1.59,2.13-2.35.32-.33.76-.54,1.14-.09s.05.83-.34,1.08C242.06,47.15,241.33,48,240,48Z"/><path class="cls-9" d="M138.24,46.74l-.47-.22a3.18,3.18,0,0,1,3.09-.23c1.33.55.48,1.77.6,3C140.27,48.25,140.61,45.69,138.24,46.74Z"/><path class="cls-11" d="M184.1,34.51c1-1.07,1.62-1.85,2.31-2.6.32-.33.76-.58,1.15-.14s.15.86-.28,1.11C186.38,33.39,185.68,34.3,184.1,34.51Z"/><path class="cls-9" d="M240.47,49.19l.28.24a2.32,2.32,0,0,0-.91,1.59,1.05,1.05,0,0,1-.92,1,.53.53,0,0,1-.6-.31c-.23-.53.09-.93.38-1.31A3.07,3.07,0,0,1,240.47,49.19Z"/><path class="cls-11" d="M179.93,34.35a.8.8,0,0,1-.8-.81c0-.54.17-1,.78-1s.75.37.77.87A.83.83,0,0,1,179.93,34.35Z"/><path class="cls-9" d="M196.92,52.66v-.58l1.47.08c.73.43,1.53.13,2.3.2C199.48,53,198.17,52.52,196.92,52.66Z"/><path class="cls-7" d="M156.35,35.93a3.68,3.68,0,0,0-2.69-.07A1.66,1.66,0,0,1,156.35,35.93Z"/><path class="cls-11" d="M222.22,55c-.32.77-.68.34-1,0,.2-.53,1.12-.44,1-1.2.26.13.29.37.3.62Z"/><path class="cls-11" d="M224.27,53.54a.6.6,0,0,0,.58.3,1.87,1.87,0,0,1-1.46.47v-.38Z"/><path class="cls-12" d="M160.57,35.32l-.59.29A.51.51,0,0,1,160.57,35.32Z"/><path class="cls-13" d="M167.41,39.33h0c0-.08.07-.16.11-.25Z"/><path class="cls-14" d="M162.78,53.26l-.27.23Z"/><polygon class="cls-7" points="156.46 36.03 156.44 36.07 156.46 36.07 156.46 36.03"/><path class="cls-9" d="M169,35.94l.19.14-.1.11A.38.38,0,0,1,169,35.94Z"/><path class="cls-11" d="M147.26,55.91l.23.29Z"/><path class="cls-6" d="M169.91,43l.34.16Z"/><path class="cls-13" d="M167.37,39.43l-.33.28Z"/><path class="cls-15" d="M162.88,41.13v-4c.67,1.32.26,2.72.24,4.09l-.12,0A.42.42,0,0,1,162.88,41.13Z"/><path class="cls-7" d="M191.81,36.61l-.14-.19.19.14Z"/></svg>