<svg id="Layer_1" data-name="Layer 1" xmlns="http://www.w3.org/2000/svg" viewBox="0 0 255.12 85.04"><defs><style>.cls-1{fill:#0060a8;}.cls-1,.cls-2{fill-rule:evenodd;}.cls-2{fill:#fff;}</style></defs><title>Artboard 3 copy 37</title><polygon class="cls-1" points="65.05 58.01 65.05 30.52 37.56 30.52 37.56 58.01 65.05 58.01 65.05 58.01"/><path class="cls-2" d="M47.18,48.58V47.47c-.25.91-1.23,1.29-2.37,1.29-.68,0-2.46-.46-2.46-3.56V38.37A3.11,3.11,0,0,1,45.69,35c2.07,0,3.52.9,3.52,3.39v1.12H47.08l0-1.44A1.33,1.33,0,0,0,45.69,37a1.22,1.22,0,0,0-1.23,1.13l0,7.41a1.11,1.11,0,0,0,1.05,1.23c1.07,0,1.62-.46,1.62-1.29L47.05,43H46V41.33h3.26l0,7.27Z"/><polygon class="cls-2" points="60.44 53.48 60.44 50.48 42.16 50.48 42.16 53.48 60.44 53.48 60.44 53.48"/><path class="cls-2" d="M58.42,48.37V39L56.66,48.4H55.14l-1.77-9.56c0,.71.11,9.53.11,9.53h-2V35.29h2.93s1.46,8.45,1.58,9.43l1.46-9.48,3,0,0,13.08Z"/><path class="cls-1" d="M247.91,46.29c-1.19-2-7-2.18-7.82-3.42s-.47-3.51,2.46-3.28,1.66,3.88,1.66,3.88h4.06s.8-5.69-6.25-5.67-6.67,5.65-4.68,7.44,6.41,1.47,7.35,3.14-1,3.75-3.42,3-1.34-3.8-1.34-3.8h-4.35s-.48,6.09,6.67,5.79,6.84-5,5.66-7Z"/><path class="cls-1" d="M210.17,51a1,1,0,0,1-.82-1.08V40.14h3V38.08h-3.05V35h-3.46V38l-2.35,0v2.11h2.24s0,9.12,0,9.7a4.12,4.12,0,0,0,.62,2.39,2.92,2.92,0,0,0,1.77.87h4.44V51a6,6,0,0,1-2.38,0Z"/><path class="cls-1" d="M196.85,37.78c-6.39,0-7,4.32-7.09,7.28s.12,8.81,7.14,8.53,6.32-7.69,6.32-8.11,0-7.72-6.37-7.7Zm-.48,13.74c-2.31.14-2.87-2-2.87-6s.84-6,3-5.95,2.88.93,2.88,6.06-.72,5.73-3,5.87Z"/><path class="cls-1" d="M219.8,37.62c-6.4,0-7,4.33-7.1,7.28s.12,8.82,7.15,8.54,6.32-7.7,6.32-8.12,0-7.72-6.37-7.7Zm-.49,13.74c-2.3.14-2.86-2-2.86-6s.84-6,3-6,2.89.93,2.89,6.06-.73,5.72-3,5.86Z"/><path class="cls-1" d="M188,36.27a2.28,2.28,0,0,1,.79-.52s-.82-.83-.82-.81-5,.16-5,.16l-4.45,13-4.6-12.94L168.55,35a3.46,3.46,0,0,1,.67.87,2.72,2.72,0,0,1,.37,1.18c0,.28-.16,12.25-.16,12.25a9,9,0,0,1-.33,2.33,4.75,4.75,0,0,1-.95,1.65h5a7.44,7.44,0,0,1-.93-1.87,8.16,8.16,0,0,1-.28-2.25v-10l4.49,13.85h2.93l4.54-13.46v10.7a6.35,6.35,0,0,1-.24,1.58,5,5,0,0,1-.67,1.28h5.77a3.49,3.49,0,0,1-.82-1.13,7.58,7.58,0,0,1-.46-1.73V37.1c0-.25.25-.52.56-.83Z"/><path class="cls-1" d="M160.2,50.37l0-15.23h-4.42a6.23,6.23,0,0,1,.67,1,2.66,2.66,0,0,1,.28,1c0,.23,0,13.09,0,13.09a8.89,8.89,0,0,1-.28,1.84,3.58,3.58,0,0,1-.65,1.16l5.51,0a3.6,3.6,0,0,1-.76-1.16,7.2,7.2,0,0,1-.36-1.74Z"/><path class="cls-1" d="M153.74,50.52s0-6.8,0-7.54.37-5.41-6.32-5.2-5.59,5.88-5.59,5.88h3.93s-1.14-3.86,2.07-3.94A2.23,2.23,0,0,1,150.06,43a11,11,0,0,1-2,.64,17.72,17.72,0,0,0-4.61,1.44c-2,1.12-2.45,3.06-1.43,5.71s4.83,3,7.06,2.14a2.8,2.8,0,0,0,1.73-1.56l0,1.93h3.63a4.46,4.46,0,0,1-.39-1c-.19-.76-.33-1.76-.33-1.76ZM150,49.61c-.28,1-2.13,2.4-3.67,1.49s-1.27-2.53-.93-3.6c.76-2.39,4.86-2.21,4.86-2.21a14.11,14.11,0,0,1-.26,4.32Z"/><path class="cls-1" d="M139.38,38c-.84.28-1.62,1.51-1.88,1.58s-.16-1.38-.16-1.38H133a11.53,11.53,0,0,1,.79,1.32,5.74,5.74,0,0,1,.26,1.73v9.6a5.09,5.09,0,0,1-.27,1.54,2.43,2.43,0,0,1-.7,1l5.74,0a3.54,3.54,0,0,1-.78-1.1,14,14,0,0,1-.61-2.11s0-6.7.12-7.38a2.55,2.55,0,0,1,1.6-2c1-.28,2.25.74,2.25.74V38.27a2.63,2.63,0,0,0-2.05-.23Z"/><path class="cls-1" d="M233,37.94c-.83.28-1.61,1.51-1.87,1.57s-.16-1.37-.16-1.37h-4.31a12,12,0,0,1,.79,1.31,5.79,5.79,0,0,1,.26,1.74v9.6a5.46,5.46,0,0,1-.27,1.54,2.4,2.4,0,0,1-.71,1l5.75,0a12.55,12.55,0,0,1-.78-1.09,6.07,6.07,0,0,1-.56-1.7s-.05-7.11.06-7.79a2.61,2.61,0,0,1,1.61-2c1-.27,2.25.75,2.25.75V38.16a2.62,2.62,0,0,0-2.06-.22Z"/><path class="cls-1" d="M116.61,51V42.26A4.56,4.56,0,0,0,112,37.75c-3.59,0-3.59,1.33-3.91,1.38s-.35-1.12-.35-1.12h-4.26a6.87,6.87,0,0,1,.73,1.26,2.89,2.89,0,0,1,.3,1.62s0,9.82,0,10.14a5.73,5.73,0,0,1-.33,1.28,3.26,3.26,0,0,1-.73,1l5.71,0a2.5,2.5,0,0,1-.66-.93,5.64,5.64,0,0,1-.32-1.51V41.8A2.53,2.53,0,0,1,110.75,40a2.14,2.14,0,0,1,2.31,2.31c0,.92,0,8.67,0,8.67a4,4,0,0,1-.24,1.36,2.1,2.1,0,0,1-.69.82h5.35a3.39,3.39,0,0,1-.56-.91,6.56,6.56,0,0,1-.31-1.27Z"/><path class="cls-1" d="M96.51,37.78c-6.82,0-6.73,5.62-6.73,8.83s.86,6.86,7.09,6.86,5.75-5.67,5.75-5.67h-4v2.58c0,.35-.4,1.21-2.44,1.21s-2.41-1.19-2.41-1.44,0-4,0-4h9s.52-8.37-6.29-8.37Zm2.38,6.16-5.28,0s-.51-4.21,2.66-4.19,2.62,4.24,2.62,4.24Z"/><path class="cls-1" d="M125.53,37.79c-6.81,0-6.73,5.63-6.73,8.84s.86,6.86,7.09,6.86,5.75-5.67,5.75-5.67h-4V50.4c0,.35-.39,1.21-2.44,1.21s-2.4-1.19-2.4-1.45,0-4,0-4h9s.53-8.38-6.29-8.38ZM127.92,44l-5.28,0s-.51-4.21,2.65-4.19S127.92,44,127.92,44Z"/><path class="cls-1" d="M79.77,45.24h4.17s0,3,0,3.39A3.66,3.66,0,0,1,80,51.41c-3.14-.06-4-2.19-3.92-6.73S76,37,80.1,36.77,83.57,41,83.57,41h4.09s.21-6.37-7.81-5.95-7.47,5.15-7.47,11,3.52,7.33,7.31,7.42a6.35,6.35,0,0,0,5.37-2.2v2.06l2.78,0V43H79.77v2.28Z"/></svg>