<svg id="Layer_1" data-name="Layer 1" xmlns="http://www.w3.org/2000/svg" viewBox="0 0 255.12 85.04"><defs><style>.cls-1{fill:#0030a6;}.cls-2{fill:#00abc3;fill-rule:evenodd;}</style></defs><title>Artboard 3 copy 27</title><path class="cls-1" d="M175.32,26.79H173.8c-8,0-15.59,5.92-15.92,17.45-.3,10.5,5.17,17.84,14.4,17.84,7.6,0,10.26-5.29,10.26-5.29.45,3.53,2.35,4.62,6.18,4.62V26.79Zm6.88,20.4c0,4.8-2.76,9.35-8.72,9.35-5.34,0-9.18-3.58-8.92-12.22.23-8.28,4.21-11.92,9.5-11.92.41,0,.79,0,1.16,0h7Z"/><path class="cls-1" d="M121.51,26.53l0,24c0,3.49-2.89,5.27-6.72,5.27-4,0-6.69-1.78-6.69-5.27l0-18c0-5.12-3.23-6-6-6V52.05c0,6.43,5.8,9.6,12.57,9.6,6.55,0,13-3.17,13-9.6l0-18.7c0-5-1.88-6.82-6.08-6.82Z"/><path class="cls-1" d="M136.32,39.78V61.19h6.05V39.58c0-4.6,2.46-7.36,7.14-7.36h1.79c5.3,0,6.15-2.74,6.15-5.69H149c-7.51,0-12.67,4.34-12.67,13.25Z"/><path class="cls-1" d="M86.43,42.05,79,40c-2-.55-3.89-1.44-3.89-3.93s1.56-3.86,4.85-3.86h6.59c2.91,0,6.38-.94,6.38-5.69H80.55c-7.63,0-12,3.86-12,9.37,0,5.14,3.25,8.05,9.07,9.59l6.45,1.7c2.67.72,3.62,2.38,3.62,4.11,0,2.59-1.63,4.15-5.64,4.2l-12.36.08v5.6H82.27c7.63,0,12-4.09,12-9.49s-2.14-8.09-7.84-9.65Z"/><path class="cls-2" d="M222.55,69c.07,0,.12.06.1.18-.87,2.07-1.85,3.62-3.77,4.59-3.37,1.68-5.14.73-5.37.61a.2.2,0,0,1-.11-.19.18.18,0,0,1,.15-.15,24.26,24.26,0,0,0,8.89-5,.2.2,0,0,1,.11,0Zm.4-6.11a54.86,54.86,0,0,1-11.24,4.58c-5,1.41-8.92,2.09-11.59,1.7a6.29,6.29,0,0,1-3.85-1.83c-.05-.06-.11-.11-.09-.18a.21.21,0,0,1,.19-.17l.9-.06c2-.14,5.52-.23,9.65-.82,4.78-.7,12.45-2.06,16-3.44.08,0,.13.08.06.22ZM223.3,65c.07,0,.12.07.1.19a14.78,14.78,0,0,1-3.24,2.93,33.25,33.25,0,0,1-4.85,2.84A30.28,30.28,0,0,1,210.12,73a13.76,13.76,0,0,1-5,.51,5.18,5.18,0,0,1-2.73-1,.16.16,0,0,1-.05-.14.2.2,0,0,1,.17-.17,70.39,70.39,0,0,0,11.9-3A37.56,37.56,0,0,0,223.3,65Zm18.89-17.23c.08,0,.12.07.08.21-1.71,1.44-9.53,7.95-13.75,11.4l-.14.13c-1.23.92-2,1.14-2.18-.88,0-.49-.1-.89-.1-.89-.08-.43.05-.42.21-.52,1.37-.84,4-2.31,6.1-3.56,3.73-2.23,8.1-4.87,9.78-5.89Zm-5.76,8.69c.08,0,.13.07.09.2-1.69,1.95-7.93,8.81-10.75,11.82-.3.31-.45.17-.34-.14a18.74,18.74,0,0,0,.77-2.37,2.54,2.54,0,0,1,.63-1.43c3.67-3.08,7.18-6.14,9.5-8.05l.1,0Zm7.72-12.08s.15,0,.16,0,.09.1,0,.18c-.79.51-18.28,7.73-18.45,7.79-1,.33-2,.5-2.8-.83-.33-.55-.62-1-.74-1.2s-.25-.29.27-.42c0,0,4.93-1.32,9.3-2.43,5.07-1.27,10.79-2.72,12.3-3.13Zm1.84-2.5a.12.12,0,0,1,.11.14.11.11,0,0,1-.1.1c-1.33.21-25.64,3.52-25.82,3.55l-.43,0a2.68,2.68,0,0,1-.4,0,5.31,5.31,0,0,1-3.29-1.76A6.42,6.42,0,0,1,215,42.13a.14.14,0,0,1,0-.16.26.26,0,0,1,.16-.1h24.55c2.89,0,5.19,0,6.32,0Zm1.57-2.15a.12.12,0,0,1,.11.13c0,.06-.06.1-.14.1L212,37.43a3.29,3.29,0,0,1-.82-.15,7,7,0,0,1-4.6-4.72.24.24,0,0,1,0-.22.19.19,0,0,1,.19-.08s37.7,6.86,40.8,7.44Zm-6.62-6.21c0,.16,0,.2-.16.18-1.37-.7-4.47-2.18-7.58-3.73-2.64-1.32-20.66-9.81-21.88-10.44l-2.15-1.1c-.32-.16-.61-.34-.9-.52a5.62,5.62,0,0,1-1.75-1.48,6.9,6.9,0,0,1-.92-1.66,9.12,9.12,0,0,1-.46-3.31.15.15,0,0,1,.1-.13s.1,0,.22,0l2.25,1.37,1.2.74,6.6,4c9.2,5.74,22.08,13.93,25.43,16Zm3.91,3.71a.13.13,0,0,1,.09.12.13.13,0,0,1-.17.1c-1-.29-3.15-.89-5.85-1.63-6.18-1.69-29.53-7.95-29.92-8.06l-.1,0a7.72,7.72,0,0,1-3.44-2.09,6.5,6.5,0,0,1-.71-.91,8.39,8.39,0,0,1-1-3.26.26.26,0,0,1,.06-.15.28.28,0,0,1,.24,0l3.81,1.5c9.06,3.51,33.11,12.86,37,14.45Z"/></svg>