<svg id="Layer_1" data-name="Layer 1" xmlns="http://www.w3.org/2000/svg" viewBox="0 0 255.12 85.04"><defs><style>.cls-1{fill:#323b72;}.cls-2{fill:#373f75;}.cls-3{fill:#fefefe;}</style></defs><title>Artboard 3 copy 47</title><path class="cls-1" d="M123.83,47.63c1-2.08,2-3.94,2.91-5.83.38-.81,1-.55,1.62-.56,1.8,0,1.8,0,1.8-1.88s0-4,0-6c.05-3.34,1.45-4.73,4.79-4.74q12.64,0,25.28,0a4.69,4.69,0,0,1,5,4.82c0,8.65,0,17.3,0,26,0,.77-.24,1-1,1-1.43,0-2.87-.06-4.3,0-.86,0-1.14-.2-1.13-1.11.06-3.49,0-7,0-10.48,0-.88-.22-1.14-1.12-1.13q-10,0-20,0c-.92,0-1.21.21-1.2,1.17.06,3.45,0,6.91.05,10.36,0,.93-.22,1.25-1.18,1.19a36.26,36.26,0,0,0-4.17,0c-.93.05-1.1-.31-1.09-1.15,0-3.36,0-6.73,0-10.09,0-1.11-.17-1.6-1.43-1.49C127.2,47.73,125.62,47.63,123.83,47.63Zm23.91-6.4c3.36,0,6.73,0,10.09,0,.8,0,1.11-.18,1-1-.07-1.16,0-2.33,0-3.5A1.55,1.55,0,0,0,157.14,35h-19c-1.13,0-1.62.59-1.62,1.68s.06,2.34,0,3.5c-.05.87.22,1.14,1.11,1.12C141,41.2,144.38,41.23,147.74,41.23Z"/><path class="cls-1" d="M195.66,47.63c1-2.08,2-3.94,2.9-5.83.32-.66.83-.56,1.36-.57,2.07,0,2.07,0,2.07-2.14,0-1.93,0-3.85,0-5.78.07-3.37,1.43-4.73,4.79-4.74q12.63,0,25.27,0a4.68,4.68,0,0,1,5,4.82c.05,8.65,0,17.3,0,26,0,.78-.24,1-1,1-1.47-.06-3-.08-4.43,0-.9.05-1-.32-1-1.09,0-3.45,0-6.9,0-10.35,0-1-.16-1.3-1.22-1.29q-9.94.09-19.9,0c-1.06,0-1.24.33-1.23,1.29.06,3.41,0,6.81,0,10.22,0,.89-.14,1.29-1.14,1.22a34.13,34.13,0,0,0-4.17,0c-.94.06-1.11-.32-1.1-1.16,0-3.45,0-6.9,0-10.35,0-.91-.19-1.26-1.16-1.22C199.19,47.69,197.53,47.63,195.66,47.63Zm23.73-6.4c2.32,0,4.65,0,7,0,1.4,0,3.38.64,4.07-.28s.22-2.82.23-4.29A1.49,1.49,0,0,0,229,35H210c-1.13,0-1.61.6-1.6,1.68s.05,2.32,0,3.48c-.05.87.21,1.14,1.1,1.13C212.77,41.2,216.08,41.23,219.39,41.23Z"/><path class="cls-1" d="M165.79,35c1.05-2.1,2-4,3-6,.24-.49.65-.39,1-.39q15.06,0,30.1,0c.68,0,1,.17.92.9-.05,1.52-.06,3,0,4.56,0,.82-.3,1-1,1-3.4,0-6.81,0-10.21,0-1.18,0-1.57.23-1.56,1.51.06,7.47,0,15,.06,22.43,0,1.2-.29,1.57-1.48,1.47a24.84,24.84,0,0,0-3.76,0c-.94.06-1.2-.23-1.19-1.18,0-5.37,0-10.75,0-16.12,0-2.33-.05-4.66,0-7,0-.9-.27-1.11-1.13-1.11-4.61,0-9.22,0-13.84,0Z"/><path class="cls-1" d="M115.34,44.28c0-4.84,0-9.68,0-14.51,0-.91.18-1.29,1.17-1.23a30.11,30.11,0,0,0,4,0c1-.07,1.25.29,1.24,1.28,0,8.82,0,17.65,0,26.47,0,1,0,2,0,3,0,.8-.17,1.12-1,1.08a41.12,41.12,0,0,0-4.3,0c-.9.05-1.11-.27-1.11-1.13C115.36,54.22,115.34,49.25,115.34,44.28Z"/><path class="cls-1" d="M240.16,44.43c0-4.84,0-9.67,0-14.51,0-1.14.33-1.46,1.42-1.38a23.6,23.6,0,0,0,3.76,0c1-.08,1.25.27,1.25,1.27,0,8.86,0,17.73,0,26.59,0,1,0,2.06,0,3.09,0,.66-.23.84-.85.83-1.48,0-3-.07-4.43,0-.9,0-1.14-.24-1.13-1.13C240.18,54.28,240.16,49.35,240.16,44.43Z"/><path class="cls-2" d="M86.3,22.42a.44.44,0,0,0,.13.56c4.1,3.88,4.63,8.68,3.5,13.87a26.1,26.1,0,0,1-2,5.67c-.31.67-.63.78-1.15.26l-.11-.08c-1.81-1.29-1.79-1.28-.91-3.27a17.61,17.61,0,0,0,1.69-10.56,12.33,12.33,0,0,0-5.87-8.3c-.35-.22-.81-.29-1-.73a9.57,9.57,0,0,1,4.2,1.81c.18.12.38.32.57.09s-.13-.37-.23-.57c3.49,1,7.6,5.71,8.71,9.88s.43,7.91-.92,11.73a43.16,43.16,0,0,1-6.37,11.45c-.55.75-.85.63-1.53.1-1.15-.89-1.17-1.53-.28-2.74,3.49-4.72,6.23-9.83,7.08-15.75.71-4.91-.48-9.24-4.23-12.68C87.21,22.84,86.92,22.38,86.3,22.42Z"/><path class="cls-2" d="M91.4,24.94A16.74,16.74,0,0,1,97.78,37.2C98.14,43,96.24,48.1,93.35,53c-.36.6-.66.61-1.1.14a3.81,3.81,0,0,0-.61-.52c-.78-.48-.9-.91-.34-1.79a29.12,29.12,0,0,0,4.14-10.1C96.63,34.79,95.5,29.5,91.4,24.94Z"/><path class="cls-2" d="M102.2,49.3a23,23,0,0,1-2.63,6.78A2.25,2.25,0,0,1,99,53.14a23.19,23.19,0,0,0,2-14.75c-.07-.33-.23-.62.13-.86.13.32.29.64.39,1a22.13,22.13,0,0,1,1,7.67c0,.29-.17.61.21,1,.39-.79.07-1.58.36-2.3a13.24,13.24,0,0,1,.25,5c0,.22-.17.45-.14.64.48,2.46-1.21,4.34-1.66,6.56a3.14,3.14,0,0,1-.19-3.21,12.84,12.84,0,0,0,1.2-4.23,2.54,2.54,0,0,0-.11-2.08Z"/><path class="cls-2" d="M96.34,30c4.57,2.78,5.52,15,1.92,21.43-1-1-1.53-1.78-.88-3.39,2.18-5.42,2.46-10.94,0-16.39-.13-.29-.26-.57-.41-.84S96.67,30.46,96.34,30Z"/><path class="cls-2" d="M96.59,67.75a1.77,1.77,0,0,1,.57-2,27.73,27.73,0,0,0,3.69-5.89c.17-.31.6-.75.13-1s-.5.36-.72.61a4.8,4.8,0,0,0-.32.43c-.92-1.33-.91-1.38.48-3.1.14.34.27.64.38.94s.18.58.34,1.09c1.12-1.35,1.26-2.94,2-4.23A32.07,32.07,0,0,1,96.59,67.75Z"/><path class="cls-2" d="M82.87,49.49a9.43,9.43,0,0,1-2.12-2.11,7.71,7.71,0,0,1,1.79-2.06,11.46,11.46,0,0,1,2.24,2A9.28,9.28,0,0,1,82.87,49.49Z"/><path class="cls-2" d="M84.34,42.32a9.07,9.07,0,0,1,2.53,1.88,7.66,7.66,0,0,1-1.44,2.21c-.19.21-.4-.08-.55-.2-.47-.34-.93-.7-1.37-1.09-.27-.23-.8-.38-.44-.92S84,42.89,84.34,42.32Z"/><path class="cls-2" d="M92,54.87c-.5.54-1,1.19-1.65,1.76-.14.14-1.87-1.68-1.75-1.87A4.58,4.58,0,0,1,90.15,53,5.55,5.55,0,0,1,92,54.87Z"/><path class="cls-2" d="M83,54c.72.71,1.37,1.3,2,2,.12.14-1.43,1.81-1.66,1.8a7.7,7.7,0,0,1-1.83-1.87C81.93,55.25,82.45,54.66,83,54Z"/><path class="cls-2" d="M96.35,50.82c1.64,1.84,1.64,1.87.17,3.86C94.89,52.93,94.88,52.79,96.35,50.82Z"/><path class="cls-2" d="M87.82,55.84c.21,0,1.76,1.65,1.66,1.82a4.17,4.17,0,0,1-1.35,1.42c-.16.11-1.6-1.53-1.6-1.81A4.34,4.34,0,0,1,87.82,55.84Z"/><path class="cls-2" d="M80.49,56.82a5.45,5.45,0,0,1,1.89,1.83c-.28.62-.92,1.31-1.37,1.27-.85-.05-1.39-1-1.64-1.71S80.13,57.27,80.49,56.82Z"/><path class="cls-2" d="M94.72,53.94c1.57,2.16,1.51,1.38,0,3.64C93.15,56.09,93.15,55.81,94.72,53.94Z"/><path class="cls-2" d="M97.89,55.51c1.17,1.93,1.17,1.93-.4,3.6C96.34,57.45,96.34,57.45,97.89,55.51Z"/><path class="cls-2" d="M95.61,61.51c-1.14-1.57-1.14-1.57.46-3.38C97.38,59.73,97.37,59.85,95.61,61.51Z"/><path class="cls-2" d="M98.74,59.46c1,1.39,0,2.24-.65,3.25C97.34,61.13,97.34,61.13,98.74,59.46Z"/><path class="cls-2" d="M95.72,67.46c.39,1.52-.69,2-1.21,3C94.05,69,95.11,68.49,95.72,67.46Z"/><path class="cls-3" d="M102.2,49.3l.27-1.72a2.54,2.54,0,0,1,.11,2.08Z"/></svg>