<?xml version="1.0" encoding="UTF-8" standalone="no"?>
<svg
   xmlns:dc="http://purl.org/dc/elements/1.1/"
   xmlns:cc="http://creativecommons.org/ns#"
   xmlns:rdf="http://www.w3.org/1999/02/22-rdf-syntax-ns#"
   xmlns:svg="http://www.w3.org/2000/svg"
   xmlns="http://www.w3.org/2000/svg"
   xmlns:sodipodi="http://sodipodi.sourceforge.net/DTD/sodipodi-0.dtd"
   xmlns:inkscape="http://www.inkscape.org/namespaces/inkscape"
   id="Layer_1"
   data-name="Layer 1"
   viewBox="0 0 255.12 85.04"
   version="1.1"
   sodipodi:docname="Infinite.svg"
   inkscape:version="0.92.4 (5da689c313, 2019-01-14)">
  <metadata
     id="metadata27">
    <rdf:RDF>
      <cc:Work
         rdf:about="">
        <dc:format>image/svg+xml</dc:format>
        <dc:type
           rdf:resource="http://purl.org/dc/dcmitype/StillImage" />
        <dc:title>Artboard 3 copy 40</dc:title>
      </cc:Work>
    </rdf:RDF>
  </metadata>
  <sodipodi:namedview
     pagecolor="#ffffff"
     bordercolor="#666666"
     borderopacity="1"
     objecttolerance="10"
     gridtolerance="10"
     guidetolerance="10"
     inkscape:pageopacity="0"
     inkscape:pageshadow="2"
     inkscape:window-width="1920"
     inkscape:window-height="1027"
     id="namedview25"
     showgrid="false"
     inkscape:zoom="2.56"
     inkscape:cx="252.17818"
     inkscape:cy="2.5298601"
     inkscape:window-x="-8"
     inkscape:window-y="-8"
     inkscape:window-maximized="1"
     inkscape:current-layer="g69" />
  <defs
     id="defs4">
    <style
       id="style2">.cls-1{fill:#2b5097;fill-rule:evenodd;}</style>
  </defs>
  <title
     id="title6">Artboard 3 copy 40</title>
  <g
     id="g69"
     transform="translate(79.126041,49.949133)">
    <path
       style="fill:#a8cef6;stroke-width:0.11538949"
       d="M 26.84777,22.295024 C 23.457654,21.891938 21.063448,21.289103 18.282899,20.138483 14.491527,18.569574 11.209911,16.374097 8.2607007,13.433406 3.7317357,8.9175258 0.94997772,3.5444278 -0.0458393,-2.6110642 c -0.290216,-1.793929 -0.355616,-6.5232148 -0.117204,-8.4753158 0.59598802,-4.879893 2.112861,-9.108675 4.659928,-12.991073 1.282948,-1.95555 2.148175,-3.010811 3.877173,-4.728738 4.5080573,-4.479191 10.2520863,-7.334945 16.9736443,-8.438771 1.747278,-0.286941 5.993978,-0.286034 7.953518,0.0017 5.48713,0.805715 9.05358,2.243791 13.8929,5.601946 1.33309,0.925074 1.2267,0.948589 5.6609,-1.251222 7.65009,-3.795222 11.18767,-4.746951 17.06548,-4.591193 4.50916,0.11949 8.25104,1.056719 12.25652,3.069899 8.80949,4.427698 14.87032,12.633429 16.46997,22.298624 0.27826,1.681311 0.2778,6.7983598 -8.1e-4,8.4986998 -1.12128,6.844023 -3.7664,12.333511 -8.13937,16.8918352 -6.02289,6.278168 -14.65977,9.574458 -23.54193,8.984843 -5.6366,-0.374169 -10.32913,-2.042908 -15.00463,-5.335891 -1.39557,-0.98291 -1.83152,-1.177652 -2.37413,-1.060531 -0.18672,0.04031 -1.87429,0.835703 -3.75016,1.767552 -3.91626,1.945433 -5.39532,2.587509 -7.73776,3.35905 -3.08001,1.014476 -5.5149,1.390621 -8.82385,1.363123 -1.14421,-0.0095 -2.23619,-0.03581 -2.42658,-0.05845 z M 72.71509,15.458585 C 75.33232,15.00818 78.01213,14.01804 80.54561,12.565358 88.92701,7.7595148 93.01994,-0.11733419 92.09352,-9.658629 90.9102,-21.845841 81.27079,-30.739632 69.2534,-30.732034 c -3.39007,0.0021 -6.77047,0.716978 -9.92349,2.098464 -0.47599,0.20855 -8.03111,3.961906 -16.78917,8.340789 l -15.92375,7.961609 -0.874965,0.879117 c -1.83869,1.84742 -2.208008,3.919304 -1.113137,6.2447278 0.442419,0.939665 1.514022,2.036997 2.391962,2.44939 1.33078,0.625104 2.91026,0.698734 4.39196,0.204739 0.40858,-0.13622 7.62297,-3.677198 16.03198,-7.8688418 8.40901,-4.191644 15.84723,-7.874725 16.52937,-8.184624 0.68215,-0.3099 1.74662,-0.7009 2.36549,-0.868891 0.98011,-0.26605 1.34842,-0.305698 2.85606,-0.307444 1.90292,-0.0022 2.70403,0.152044 4.35131,0.837811 2.19655,0.914425 4.95315,3.28862 6.13525,5.28414 1.36282,2.300612 1.82716,4.914709 1.39271,7.8406018 -0.5393,3.631948 -2.28559,6.39872201 -5.30207,8.400424 -0.50772,0.336913 -4.9388,2.619287 -9.84685,5.071942 -7.80848,3.9020552 -8.90524,4.4816582 -8.77574,4.6377052 0.21229,0.255789 2.12445,1.192509 3.72123,1.822932 1.60123,0.632183 3.96848,1.258758 5.43942,1.439734 0.57118,0.07027 1.19428,0.149306 1.38467,0.175625 0.77004,0.106451 3.77176,-0.05461 5.01945,-0.269331 z M 33.51381,15.231131 c 1.70974,-0.354052 3.23789,-0.793186 4.58205,-1.316714 1.65191,-0.643392 33.49844,-16.5608602 34.18949,-17.0885252 0.71273,-0.544216 1.15631,-1.040164 1.51664,-1.695689 1.17669,-2.14065 0.67304,-5.1204268 -1.1446,-6.7719528 -1.49872,-1.361754 -3.40754,-1.611021 -5.91389,-0.772278 -0.49175,0.164563 -8.01162,3.843475 -16.71083,8.1753608 -10.56062,5.2588 -16.13989,7.97645 -16.78917,8.177963 -1.64507,0.510575 -2.26622,0.601038 -4.03025,0.586954 -1.40467,-0.01121 -1.8583,-0.06178 -2.82704,-0.315137 -3.534744,-0.924445 -6.39208,-3.29116099 -7.958426,-6.591922 -2.164313,-4.560852 -1.313262,-9.8449388 2.180808,-13.5404218 1.567875,-1.658256 1.955215,-1.881812 11.752378,-6.78299 5.55502,-2.778978 9.08291,-4.606486 9.0568,-4.691581 -0.0592,-0.193019 -2.18454,-1.251834 -3.65679,-1.821776 -1.56123,-0.604387 -3.67526,-1.184783 -5.27325,-1.447733 -1.52689,-0.251252 -4.95343,-0.283623 -6.3323,-0.05982 -4.082895,0.662679 -7.88662,2.417395 -11.455241,5.284476 -3.997759,3.211854 -6.6697263,7.239343 -7.8296423,11.801713 -0.901563,3.546179 -0.80244,8.2041128 0.258008,12.1240818 2.282488,8.437267 8.7070273,14.6813602 17.0251493,16.5469622 2.053266,0.46051 2.735996,0.518521 5.578796,0.474024 2.0927,-0.03275 2.89237,-0.09091 3.78131,-0.274991 z"
       id="path83"
       inkscape:connector-curvature="0"
       sodipodi:nodetypes="cssssssssssssccsssccsccccssccsccsscscccccccsccccccsccssscccssscsscssssccc" />
    <path
       style="fill:#5ea2eb;stroke-width:0.11538949"
       d="M 26.17451,22.079124 C 22.640242,21.651636 19.465013,20.679082 16.174238,19.0161 10.292655,16.043861 5.5521297,11.306635 2.7303697,5.5815898 1.3427087,2.7661758 0.54478372,0.26544781 0.0610537,-2.7841482 c -0.304112,-1.917225 -0.3026,-7.2018998 0.0026,-9.1734648 1.99496,-12.886033 11.1407103,-22.359912 24.0692683,-24.932787 4.731518,-0.941606 10.624428,-0.448798 15.465388,1.29333 1.78528,0.642474 4.59173,2.077849 6.20794,3.175091 2.88118,1.956036 2.55491,1.943078 5.90415,0.234494 6.09145,-3.107492 9.41355,-4.345481 13.2159,-4.924935 1.73151,-0.263872 5.0943,-0.353701 6.81228,-0.181976 7.10869,0.710565 13.54444,3.84711 18.63328,9.081165 6.75037,6.943008 9.62753,16.214978 7.94455,25.6021668 -1.69863,9.47448 -7.27856,17.2089232 -15.48361,21.4621172 -6.21275,3.220456 -13.8329,4.169151 -20.73355,2.581293 -2.96803,-0.682954 -6.60764,-2.279566 -9.21242,-4.041284 -2.50414,-1.69365 -2.43412,-1.655197 -3.01413,-1.655197 -0.45624,0 -1.05331,0.259489 -4.16307,1.809277 -6.01038,2.995342 -9.11724,4.069925 -13.12127,4.538301 -1.76102,0.205997 -4.69137,0.204025 -6.41385,-0.0043 z M 71.4215,15.785845 c 4.06002,-0.446058 8.36396,-2.233194 12.10265,-5.025423 1.09923,-0.8209542 3.17306,-2.8111902 4.07377,-3.9095482 2.14851,-2.619995 3.75435,-6.09898999 4.3941,-9.519633 0.31841,-1.7025 0.43239,-5.3124338 0.22658,-7.1761888 -1.16533,-10.552777 -8.47725,-18.68881 -18.5412,-20.630953 -4.41705,-0.852403 -9.20119,-0.35736 -13.64258,1.411678 -1.39176,0.554345 -32.18679,15.884822 -33.16305,16.509331 -1.429807,0.914634 -2.321716,2.035444 -2.755051,3.462105 -0.789733,2.6000238 0.73407,5.6432448 3.339751,6.6698968 0.97716,0.385004 2.8795,0.383132 4.00688,-0.0039 0.44424,-0.15253 6.96087,-3.351372 14.48138,-7.1085378 20.08287,-10.033186 19.55421,-9.791711 22.11669,-10.102278 5.18385,-0.628273 10.91419,3.19916 12.53492,8.372372 1.11794,3.568352 0.32667,8.0756808 -1.93329,11.01266481 -0.68388,0.888759 -1.93202,2.04336799 -2.91609,2.69757699 -0.45372,0.301635 -4.88212,2.5721 -9.84088,5.045477 -7.13792,3.5603172 -9.00805,4.5379802 -8.97809,4.6935442 0.0726,0.376991 2.63971,1.637838 4.96836,2.440237 3.18693,1.09814 6.46464,1.497867 9.52515,1.16162 z M 30.94409,15.674556 c 2.0026,-0.152267 4.04197,-0.565939 6.00026,-1.217106 1.84985,-0.615114 4.67849,-1.985779 22.6554,-10.9780852 l 12.55882,-6.2821 0.77847,-0.769586 c 1.14094,-1.127908 1.61564,-2.25521 1.62146,-3.8505748 0.006,-1.595852 -0.52904,-3.001253 -1.54294,-4.054258 -1.35214,-1.404291 -2.95327,-1.841085 -5.11329,-1.394921 -0.48392,0.09996 -1.09185,0.261258 -1.35097,0.35845 -0.25911,0.09719 -7.66276,3.749684 -16.45255,8.1166518 -10.09255,5.01420001 -16.32348,8.046336 -16.90966,8.228683 -1.47508,0.45886 -2.31409,0.581548 -3.91815,0.572945 -2.73245,-0.01465 -4.925073,-0.739512 -7.100897,-2.347486 -3.239017,-2.39369499 -5.166545,-6.765327 -4.74477,-10.7611338 0.384821,-3.645708 2.357986,-6.923285 5.39305,-8.95827 0.50266,-0.337028 4.917377,-2.597828 9.810487,-5.023999 4.89311,-2.426172 8.9287,-4.463221 8.96797,-4.526775 0.13032,-0.210855 -0.42953,-0.593562 -1.88549,-1.288904 -5.44415,-2.600035 -11.00632,-3.213652 -16.152125,-1.7819 -5.393916,1.500786 -10.881443,5.519472 -13.9949523,10.248936 -1.635271,2.484 -2.652455,5.093046 -3.216546,8.250349 -0.234906,1.314795 -0.199314,6.0758058 0.0565,7.5580108 0.908981,5.266711 2.976049,9.482274 6.3577233,12.965881 1.401067,1.4433002 2.393253,2.2696692 3.948398,3.2885362 3.061054,2.005473 6.929697,3.336995 10.563422,3.63575 1.71737,0.141197 1.9478,0.141883 3.67038,0.0109 z"
       id="path81"
       inkscape:connector-curvature="0"
       sodipodi:nodetypes="cssscsscssssssssssscccccccsccsccsssccscsccccscccsccsccsscscssscsssscc" />
    <path
       style="fill:#0785fb;stroke-width:0.11538949"
       d="M 26.73238,22.017692 C 13.524512,20.647674 2.5153717,10.594997 0.31845972,-2.1014102 -0.3459073,-5.9409222 -0.1772013,-10.871167 0.75246172,-14.784655 1.6982107,-18.765857 3.5662547,-22.64955 6.1208737,-25.945671 11.895525,-33.396468 21.642178,-37.78202 31.05948,-37.166912 c 5.51433,0.360178 10.34574,1.94065 14.52088,4.750139 2.53357,1.704863 2.40904,1.63736 3.02057,1.63736 0.49192,0 1.04232,-0.236102 4.46231,-1.914171 4.15201,-2.037245 5.01104,-2.416123 7.0167,-3.094747 5.94774,-2.012451 12.28145,-1.987221 18.30971,0.07294 4.42982,1.513892 8.20357,3.877905 11.57946,7.253792 1.62382,1.623823 2.61245,2.829082 3.87008,4.718095 2.3286,3.49767 3.94051,7.698051 4.56776,11.902895 0.312,2.091498 0.28373,6.1404968 -0.0583,8.3474618 -1.15526,7.454952 -4.60459,13.8251602 -10.00394,18.4752202 -4.26931,3.676835 -9.32771,5.928639 -15.34118,6.829288 -1.62711,0.243696 -6.91538,0.207935 -8.59652,-0.05813 -4.81021,-0.761297 -8.69436,-2.433425 -13.28997,-5.721328 -0.37954,-0.271537 -0.70448,-0.401094 -1.0962,-0.43707 -0.52881,-0.04856 -0.74452,0.04193 -4.29658,1.802591 -5.7507,2.850473 -8.56912,3.871205 -12.29932,4.454397 -1.39753,0.218493 -5.26196,0.314275 -6.69259,0.165878 z m 45.92501,-6.261177 c 5.06258,-0.951173 9.78981,-3.452447 13.44399,-7.1134922 2.11406,-2.118032 3.59973,-4.282317 4.6523,-6.777373 1.13048,-2.67974399 1.58647,-4.94108 1.6634,-8.249024 0.0612,-2.6313988 -0.0487,-3.9612678 -0.50817,-6.1511858 -1.85264,-8.829426 -8.44857,-15.706776 -17.08658,-17.81558 -2.01309,-0.491458 -3.31741,-0.638668 -5.62662,-0.635041 -3.11129,0.0049 -5.94005,0.537271 -8.89542,1.67416 -0.69237,0.266347 -8.56536,4.13608 -17.49553,8.599409 -16.06122,8.027448 -16.24537,8.123344 -17.041045,8.873945 -0.942454,0.889064 -1.403149,1.568999 -1.734014,2.55922 -0.995131,2.9782368 1.057248,6.5352018 4.154039,7.1993448 0.85606,0.183591 2.44123,0.07295 3.32263,-0.231918 0.40445,-0.139894 5.18157,-2.46708 10.61583,-5.1715248 24.35973,-12.123001 23.09692,-11.523193 25.11189,-11.927625 0.98443,-0.19759 3.17623,-0.166747 4.2075,0.05921 2.08528,0.456895 4.10275,1.578241 5.90331,3.281159 3.2992,3.120283 4.352,7.036255 3.15758,11.7448168 -0.70065,2.76205 -2.45568,5.13935801 -5.01805,6.797282 -0.41251,0.266911 -4.81318,2.516684 -9.77926,4.999497 -4.96607,2.482812 -9.02922,4.5640402 -9.02922,4.6249522 0,0.24791 0.59601,0.641237 2.01931,1.332608 2.60578,1.26576 4.72605,1.94587 7.38493,2.36883 1.65882,0.263876 5.06583,0.242291 6.5772,-0.04167 z m -41.36713,0.03048 c 2.67369,-0.24413 5.2825,-0.919306 7.82396,-2.024891 2.34279,-1.019158 32.73066,-16.2844312 33.37009,-16.7633802 1.36447,-1.022032 2.07671,-2.376318 2.16497,-4.116616 0.0893,-1.7611548 -0.36131,-3.1241998 -1.42344,-4.3055528 -1.56683,-1.742685 -3.7404,-2.179553 -6.40527,-1.2874 -0.69951,0.234186 -6.71861,3.168582 -16.89784,8.2379388 -8.69621,4.33079901 -16.17345,7.989427 -16.61608,8.130283 -2.73939,0.87173 -5.86668,0.810876 -8.326476,-0.162025 -5.551001,-2.195535 -8.596228,-8.302674 -7.072464,-14.1836828 0.302381,-1.167046 1.199733,-3.005334 1.947312,-3.989204 0.72326,-0.951865 2.068307,-2.235752 3.017656,-2.880443 0.400123,-0.271719 4.820362,-2.535572 9.822762,-5.030785 5.88591,-2.935912 9.09526,-4.596781 9.09526,-4.706873 0,-0.534864 -3.55696,-2.194613 -6.42057,-2.995962 -2.41812,-0.676687 -3.49437,-0.818422 -6.21457,-0.818422 -2.19031,0 -2.71903,0.03639 -3.854008,0.265296 -4.575386,0.922761 -9.186019,3.460645 -12.782947,7.036266 -5.3851493,5.35325 -7.4923523,12.198129 -6.1526513,19.9858018 0.556441,3.23459301 1.669369,6.192105 3.349515,8.901058 C 14.237444,12.369329 22.702817,16.571095 31.29026,15.786995 Z"
       id="path79"
       inkscape:connector-curvature="0"
       sodipodi:nodetypes="csssssssssccccsscccscccsssccsccsscccscssscsssssssccccscsssssscscssss" />
    <path
       style="fill:#0074eb;stroke-width:0.11538949"
       d="M 26.73238,22.017692 C 14.336535,20.731902 3.7407537,11.740985 0.76711972,-0.01480019 -0.5927183,-5.3906992 -0.3251503,-11.961101 1.4696017,-17.264984 c 3.42391,-10.118401 11.6177463,-17.212405 22.4619973,-19.446995 4.675331,-0.963409 10.461831,-0.545965 15.175571,1.094783 2.61114,0.908876 4.41151,1.823774 6.89525,3.503968 1.90122,1.286135 2.2511,1.452609 2.8512,1.35665 0.24201,-0.0387 2.06209,-0.868974 4.04463,-1.845053 6.06192,-2.984522 8.68619,-3.888768 12.77611,-4.402274 2.1325,-0.267744 5.90583,-0.183696 7.94903,0.177057 2.83896,0.501255 5.98552,1.542226 8.14977,2.696176 l 0.92312,0.492192 0.0306,3.305174 0.0306,3.305174 -0.78064,-0.476387 c -6.31693,-3.854916 -13.84212,-4.634256 -20.85841,-2.160184 -1.67615,0.591042 -3.02345,1.242128 -14.1929,6.858751 -5.83871,2.936027 -12.81055,6.43695 -15.49297,7.779826 -4.5717,2.288687 -4.92712,2.488742 -5.675182,3.194428 -0.93631,0.883268 -1.397349,1.564611 -1.727687,2.553251 -0.995131,2.9782368 1.057248,6.5352018 4.154039,7.1993448 0.86051,0.184546 2.44109,0.07298 3.33245,-0.235226 0.40985,-0.141713 7.62746,-3.673856 16.03914,-7.8492058 18.24693,-9.05733 17.27248,-8.594867 18.98642,-9.010769 3.27473,-0.79464 6.50657,-0.09074 9.37481,2.041846 2.27366,1.690505 3.83834,3.872194 4.55835,6.355881 0.22985,0.792861 0.25867,1.141645 0.25038,3.03068 -0.008,1.7828468 -0.0488,2.2779358 -0.24844,3.0036808 -0.87571,3.183076 -2.4056,5.35217001 -4.95064,7.01906 -0.69115,0.452673 -4.7873,2.583952 -10.01066,5.208672 -7.5455,3.7915882 -8.83653,4.4761502 -8.81138,4.6721862 0.0405,0.315567 0.90598,0.856486 2.56942,1.605851 5.98297,2.695279 11.29663,3.055565 17.01857,1.153918 1.63801,-0.544381 3.90968,-1.602981 5.50985,-2.567599 l 0.95196,-0.573866 v 3.393037 3.393038 l -1.29813,0.623759 c -2.74461,1.318803 -5.46765,2.106337 -8.85614,2.561301 -1.94282,0.260855 -5.80194,0.265908 -7.6467,0.01002 -4.45053,-0.617358 -8.53504,-2.165886 -12.12095,-4.595324 -0.8766,-0.593888 -1.78529,-1.195774 -2.01932,-1.337524 -0.81806,-0.495489 -1.04361,-0.427888 -4.82566,1.446305 -6.01894,2.98268 -8.82849,4.007824 -12.5621,4.583643 -1.40434,0.216585 -5.27009,0.310987 -6.69259,0.163434 z m 6.00025,-6.395768 c 1.57229,-0.237828 3.32683,-0.684779 4.84636,-1.23456 1.22987,-0.444979 6.33747,-2.937308 25.56646,-12.4755152 9.05374,-4.490953 9.19146,-4.564358 9.9235,-5.289491 1.20422,-1.192862 1.72315,-2.438867 1.72315,-4.1374748 0,-1.707195 -0.59013,-3.10994 -1.79512,-4.267031 -1.5329,-1.471966 -3.2409,-1.811448 -5.74154,-1.141185 -0.73593,0.197258 -4.49861,2.027934 -17.0413,8.2912148 -8.85326,4.42093401 -16.46031,8.152257 -16.90456,8.291831 -2.76618,0.869071 -5.87149,0.807796 -8.329406,-0.164358 -5.551001,-2.195535 -8.596228,-8.302674 -7.072464,-14.1836828 0.302381,-1.167046 1.199733,-3.005334 1.947312,-3.989204 0.72326,-0.951865 2.068307,-2.235752 3.017656,-2.880443 0.400123,-0.271719 4.820362,-2.535572 9.822762,-5.030785 5.88591,-2.935912 9.09526,-4.596781 9.09526,-4.706873 0,-0.534864 -3.55696,-2.194613 -6.42057,-2.995962 -2.41812,-0.676687 -3.49437,-0.818422 -6.21457,-0.818422 -2.19031,0 -2.71903,0.03639 -3.854008,0.265296 -4.575386,0.922761 -9.186019,3.460645 -12.782947,7.036266 -5.3851493,5.35325 -7.4923523,12.198129 -6.1526513,19.9858018 1.843367,10.715484 9.9849283,18.4454882 20.6548963,19.6107912 1.2847,0.140305 4.25723,0.05381 5.71178,-0.166214 z"
       id="path77"
       inkscape:connector-curvature="0" />
    <path
       style="fill:#0064d8;stroke-width:0.11538949"
       d="M 26.73238,22.009382 C 14.472068,20.835763 3.7382707,11.73117 0.76711972,-0.01480019 -0.5927183,-5.3906992 -0.3251503,-11.961101 1.4696017,-17.264984 c 3.083144,-9.111364 10.1094823,-15.855588 19.4933003,-18.710629 3.314918,-1.008568 6.697258,-1.409736 10.028628,-1.189462 5.57466,0.368604 10.28463,1.916042 14.49559,4.762449 2.62139,1.771937 2.51189,1.715714 3.24614,1.666776 0.5627,-0.0375 1.11759,-0.270609 3.98094,-1.672382 3.08632,-1.510922 5.1868,-2.454194 5.46502,-2.454194 0.0755,0 0.10519,1.088076 0.0852,3.121708 l -0.0307,3.121708 -2.13471,1.099612 c -1.17409,0.604787 -8.20996,4.165957 -15.63528,7.913712 -7.42531,3.747755 -13.70827,6.956822 -13.96212,7.131261 -0.56332,0.387086 -1.652198,1.52477 -1.985576,2.074571 -0.440694,0.726781 -0.726172,1.782161 -0.72471,2.679165 0.0041,2.5421938 1.552663,4.7204848 3.921876,5.5168718 0.64309,0.216167 0.92278,0.243926 1.96162,0.194679 0.70112,-0.03324 1.45467,-0.141463 1.78854,-0.256874 0.31732,-0.109692 4.67904,-2.225538 9.69271,-4.701882 10.47925,-5.1758898 16.85846,-8.2783188 17.02186,-8.2783188 0.18118,0 0.15114,6.287127 -0.0308,6.437026 -0.56051,0.461904 -23.67994,12.0628378 -24.75042,12.4193428 -2.74393,0.913812 -5.92563,0.870414 -8.416566,-0.114801 -5.551001,-2.195535 -8.596228,-8.302674 -7.072464,-14.1836828 0.302381,-1.167046 1.199733,-3.005334 1.947312,-3.989204 0.725415,-0.954699 2.068959,-2.23617 3.025997,-2.886191 0.404713,-0.274881 3.851361,-2.045977 7.659211,-3.935771 11.1382,-5.52776 11.18904,-5.553943 11.23177,-5.784787 0.051,-0.275778 -0.15735,-0.42947 -1.53905,-1.135121 -2.67209,-1.36466 -5.7758,-2.306372 -8.70909,-2.64247 -1.69821,-0.194581 -4.6812,-0.08289 -6.285232,0.235325 -4.483377,0.889444 -9.138628,3.457912 -12.720023,7.018092 -5.3851493,5.35325 -7.4923523,12.198129 -6.1526513,19.9858018 1.869311,10.866295 10.1425223,18.5975462 21.0010663,19.6253322 3.61532,0.342199 7.88224,-0.364466 11.53895,-1.911019 0.41251,-0.174469 4.72231,-2.265118 9.57732,-4.6458882 4.85502,-2.38077 9.04798,-4.423962 9.3177,-4.540427 l 0.49041,-0.211754 v 3.221171 3.2211722 l -0.83657,0.438343 c -0.75416,0.395161 -0.83658,0.472325 -0.83658,0.783257 0,0.305207 0.0963,0.402539 0.83658,0.845516 l 0.83657,0.500604 v 3.176778 3.176779 l -0.30147,-0.07566 c -1.04675,-0.262719 -4.38913,-2.094689 -6.21804,-3.408136 -1.04491,-0.750414 -1.6187,-0.979949 -2.16395,-0.865651 -0.20604,0.04319 -1.75063,0.768615 -3.43244,1.612052 -4.72607,2.370166 -6.90138,3.289183 -9.51963,4.021826 -3.08912,0.864403 -6.67904,1.178318 -9.92349,0.867744 z"
       id="path75"
       inkscape:connector-curvature="0" />
    <path
       style="fill:#0057c9;stroke-width:0.11538949"
       d="M 27.02085,21.954636 C 24.219327,21.621674 22.955173,21.37674 21.020597,20.79207 11.873027,18.027475 4.3149627,10.806929 1.3548347,2.0045158 c -1.971122,-5.861445 -1.927206,-13.2350278 0.114767,-19.2694998 2.261502,-6.683231 6.601522,-12.052135 12.6511623,-15.650363 4.118625,-2.44969 8.997018,-3.949089 13.650116,-4.195436 2.33754,-0.123755 5.73324,0.193201 8.16381,0.762015 l 1.00966,0.236284 v 3.060554 c 0,2.868305 -0.0127,3.055537 -0.20194,2.980704 -0.11106,-0.04392 -0.89009,-0.254153 -1.73116,-0.46719 -3.82449,-0.968706 -7.45619,-0.986809 -11.105916,-0.05536 -4.562568,1.164411 -9.593927,4.427124 -12.901801,8.366501 -3.6746183,4.376136 -5.4301253,9.87916 -4.9843153,15.6244308 0.51666,6.65830401 2.890376,11.883728 7.3478313,16.175282 4.304571,4.1443602 9.960809,6.3884552 16.076981,6.3784902 2.23747,-0.0036 3.75697,-0.191156 6.01267,-0.741978 0.76243,-0.186177 1.40991,-0.338504 1.43885,-0.338504 0.0289,0 0.0388,1.363038 0.0219,3.028974 l -0.0308,3.028974 -1.21159,0.314084 c -1.95275,0.506216 -3.43422,0.686981 -5.94256,0.725094 -1.26928,0.01929 -2.48953,0.01347 -2.71165,-0.01293 z M 27.94397,4.1348528 c -1.37097,-0.15874 -2.62021,-0.52925 -3.865552,-1.146479 -3.271219,-1.621314 -5.525141,-4.602125 -6.295356,-8.325607 -0.309344,-1.495481 -0.263927,-3.6793208 0.105708,-5.0828638 0.711287,-2.700833 2.290526,-5.027961 4.604193,-6.784629 0.778291,-0.590922 3.595807,-2.02992 10.874307,-5.553866 l 3.51938,-1.703935 0.0307,3.187003 c 0.0169,1.752853 -0.009,3.225646 -0.0577,3.272876 -0.0486,0.04723 -2.29523,1.214905 -4.99246,2.594834 -2.69723,1.379929 -5.08579,2.629527 -5.30792,2.776886 -0.22212,0.147359 -0.7315,0.592801 -1.131951,0.989873 -2.266309,2.247192 -2.296229,5.6349938 -0.07099,8.0385118 0.694751,0.750413 1.804121,1.394117 2.803981,1.626994 0.82738,0.192705 2.53928,0.08758 3.36741,-0.206785 0.35273,-0.125381 1.69471,-0.727485 2.98219,-1.338006 1.28747,-0.610522 2.36191,-1.11004 2.38764,-1.11004 0.0257,0 0.0468,1.441454 0.0468,3.203231 v 3.203232 l -1.35583,0.70857 c -0.74571,0.389713 -1.7193,0.837592 -2.16355,0.995288 -1.65105,0.586074 -3.82849,0.846251 -5.481,0.654912 z"
       id="path73"
       inkscape:connector-curvature="0" />
    <path
       style="fill:#0949b8;stroke-width:0.11538949"
       d="M 13.459714,17.164811 C 12.829506,16.776643 11.793462,16.063665 11.157392,15.580415 9.6268587,14.417603 6.6230287,11.409077 5.5521297,9.9663908 2.5974857,5.9859738 0.80673172,1.5944638 0.1174927,-3.3610952 c -0.234444,-1.685625 -0.201172,-6.6324958 0.05627,-8.3657388 0.829959,-5.587828 2.874116,-10.392768 6.136244,-14.423686 1.406927,-1.7385 3.7226383,-3.913101 5.5354233,-5.198116 0.863927,-0.612407 2.598898,-1.667559 2.741942,-1.667559 0.04774,0 0.08681,1.563104 0.08681,3.473564 v 3.473566 l -1.340488,1.286251 c -4.6230623,4.436016 -6.8433103,8.95903 -7.3184023,14.908795 -0.360612,4.5160908 0.870166,10.12499281 3.085557,14.0614998 1.1948793,2.12317 2.3309283,3.600116 4.2884613,5.575314 l 1.284872,1.2964692 v 3.405653 c 0,1.873109 -0.01544,3.405654 -0.03432,3.405654 -0.01887,0 -0.54994,-0.317592 -1.180146,-0.70576 z"
       id="path71"
       inkscape:connector-curvature="0" />
  </g>
</svg>
