<?xml version="1.0" encoding="UTF-8" standalone="no"?>
<svg
   xmlns:dc="http://purl.org/dc/elements/1.1/"
   xmlns:cc="http://creativecommons.org/ns#"
   xmlns:rdf="http://www.w3.org/1999/02/22-rdf-syntax-ns#"
   xmlns:svg="http://www.w3.org/2000/svg"
   xmlns="http://www.w3.org/2000/svg"
   xmlns:xlink="http://www.w3.org/1999/xlink"
   xmlns:sodipodi="http://sodipodi.sourceforge.net/DTD/sodipodi-0.dtd"
   xmlns:inkscape="http://www.inkscape.org/namespaces/inkscape"
   id="Layer_1"
   data-name="Layer 1"
   viewBox="0 0 255.12 85.04"
   version="1.1"
   sodipodi:docname="Instacart.svg"
   inkscape:version="0.92.4 (5da689c313, 2019-01-14)">
  <metadata
     id="metadata35">
    <rdf:RDF>
      <cc:Work
         rdf:about="">
        <dc:format>image/svg+xml</dc:format>
        <dc:type
           rdf:resource="http://purl.org/dc/dcmitype/StillImage" />
        <dc:title>Artboard 3 copy 40</dc:title>
      </cc:Work>
    </rdf:RDF>
  </metadata>
  <sodipodi:namedview
     pagecolor="#ffffff"
     bordercolor="#666666"
     borderopacity="1"
     objecttolerance="10"
     gridtolerance="10"
     guidetolerance="10"
     inkscape:pageopacity="0"
     inkscape:pageshadow="2"
     inkscape:window-width="1366"
     inkscape:window-height="705"
     id="namedview33"
     showgrid="false"
     inkscape:zoom="1.28"
     inkscape:cx="60.674694"
     inkscape:cy="77.905991"
     inkscape:window-x="-8"
     inkscape:window-y="-8"
     inkscape:window-maximized="1"
     inkscape:current-layer="Layer_1-7" />
  <defs
     id="defs12">
    <style
       id="style10">.cls-1{fill:#2b5097;fill-rule:evenodd;}</style>
    <clipPath
       clip-path="url(#SVGID_23_)"
       id="SVGID_24_-2">
      <use
         height="100%"
         width="100%"
         y="0"
         x="0"
         style="overflow:visible"
         id="use91-7"
         overflow="visible"
         xlink:href="#SVGID_15_" />
    </clipPath>
    <clipPath
       clip-path="url(#SVGID_23_)"
       id="clipPath3453">
      <use
         height="100%"
         width="100%"
         y="0"
         x="0"
         style="overflow:visible"
         id="use3455"
         overflow="visible"
         xlink:href="#SVGID_15_" />
    </clipPath>
    <clipPath
       clip-path="url(#SVGID_23_)"
       id="clipPath3457">
      <use
         height="100%"
         width="100%"
         y="0"
         x="0"
         style="overflow:visible"
         id="use3459"
         overflow="visible"
         xlink:href="#SVGID_15_" />
    </clipPath>
    <clipPath
       clip-path="url(#SVGID_23_)"
       id="clipPath3461">
      <use
         height="100%"
         width="100%"
         y="0"
         x="0"
         style="overflow:visible"
         id="use3463"
         overflow="visible"
         xlink:href="#SVGID_15_" />
    </clipPath>
    <clipPath
       clip-path="url(#SVGID_23_)"
       id="clipPath3465">
      <use
         height="100%"
         width="100%"
         y="0"
         x="0"
         style="overflow:visible"
         id="use3467"
         overflow="visible"
         xlink:href="#SVGID_15_" />
    </clipPath>
    <clipPath
       clip-path="url(#SVGID_23_)"
       id="clipPath3469">
      <use
         height="100%"
         width="100%"
         y="0"
         x="0"
         style="overflow:visible"
         id="use3471"
         overflow="visible"
         xlink:href="#SVGID_15_" />
    </clipPath>
    <clipPath
       clip-path="url(#SVGID_23_)"
       id="clipPath3473">
      <use
         height="100%"
         width="100%"
         y="0"
         x="0"
         style="overflow:visible"
         id="use3475"
         overflow="visible"
         xlink:href="#SVGID_15_" />
    </clipPath>
    <clipPath
       clip-path="url(#SVGID_23_)"
       id="clipPath3477">
      <use
         height="100%"
         width="100%"
         y="0"
         x="0"
         style="overflow:visible"
         id="use3479"
         overflow="visible"
         xlink:href="#SVGID_15_" />
    </clipPath>
    <clipPath
       id="SVGID_6_-3">
      <use
         height="100%"
         width="100%"
         y="0"
         x="0"
         style="overflow:visible"
         id="use33-6"
         overflow="visible"
         xlink:href="#SVGID_5_" />
    </clipPath>
    <clipPath
       clip-path="url(#SVGID_23_)"
       id="clipPath3483">
      <use
         height="100%"
         width="100%"
         y="0"
         x="0"
         style="overflow:visible"
         id="use3485"
         overflow="visible"
         xlink:href="#SVGID_15_" />
    </clipPath>
    <clipPath
       clip-path="url(#SVGID_23_)"
       id="SVGID_24_-2-4">
      <use
         height="100%"
         width="100%"
         y="0"
         x="0"
         style="overflow:visible"
         id="use91-7-4"
         overflow="visible"
         xlink:href="#SVGID_15_" />
    </clipPath>
    <clipPath
       clip-path="url(#SVGID_23_)"
       id="clipPath3626">
      <use
         height="100%"
         width="100%"
         y="0"
         x="0"
         style="overflow:visible"
         id="use3628"
         overflow="visible"
         xlink:href="#SVGID_15_" />
    </clipPath>
    <clipPath
       clip-path="url(#SVGID_23_)"
       id="clipPath3630">
      <use
         height="100%"
         width="100%"
         y="0"
         x="0"
         style="overflow:visible"
         id="use3632"
         overflow="visible"
         xlink:href="#SVGID_15_" />
    </clipPath>
    <clipPath
       clip-path="url(#SVGID_23_)"
       id="clipPath3634">
      <use
         height="100%"
         width="100%"
         y="0"
         x="0"
         style="overflow:visible"
         id="use3636"
         overflow="visible"
         xlink:href="#SVGID_15_" />
    </clipPath>
    <clipPath
       clip-path="url(#SVGID_23_)"
       id="clipPath3638">
      <use
         height="100%"
         width="100%"
         y="0"
         x="0"
         style="overflow:visible"
         id="use3640"
         overflow="visible"
         xlink:href="#SVGID_15_" />
    </clipPath>
    <clipPath
       clip-path="url(#SVGID_23_)"
       id="clipPath3642">
      <use
         height="100%"
         width="100%"
         y="0"
         x="0"
         style="overflow:visible"
         id="use3644"
         overflow="visible"
         xlink:href="#SVGID_15_" />
    </clipPath>
    <clipPath
       clip-path="url(#SVGID_23_)"
       id="clipPath3646">
      <use
         height="100%"
         width="100%"
         y="0"
         x="0"
         style="overflow:visible"
         id="use3648"
         overflow="visible"
         xlink:href="#SVGID_15_" />
    </clipPath>
    <clipPath
       clip-path="url(#SVGID_23_)"
       id="clipPath3650">
      <use
         height="100%"
         width="100%"
         y="0"
         x="0"
         style="overflow:visible"
         id="use3652"
         overflow="visible"
         xlink:href="#SVGID_15_" />
    </clipPath>
    <clipPath
       clip-path="url(#SVGID_23_)"
       id="SVGID_24_-2-8">
      <use
         height="100%"
         width="100%"
         y="0"
         x="0"
         style="overflow:visible"
         id="use91-7-7"
         overflow="visible"
         xlink:href="#SVGID_15_" />
    </clipPath>
    <clipPath
       clip-path="url(#SVGID_23_)"
       id="clipPath3790">
      <use
         height="100%"
         width="100%"
         y="0"
         x="0"
         style="overflow:visible"
         id="use3792"
         overflow="visible"
         xlink:href="#SVGID_15_" />
    </clipPath>
    <clipPath
       clip-path="url(#SVGID_23_)"
       id="clipPath3794">
      <use
         height="100%"
         width="100%"
         y="0"
         x="0"
         style="overflow:visible"
         id="use3796"
         overflow="visible"
         xlink:href="#SVGID_15_" />
    </clipPath>
    <clipPath
       clip-path="url(#SVGID_23_)"
       id="clipPath3798">
      <use
         height="100%"
         width="100%"
         y="0"
         x="0"
         style="overflow:visible"
         id="use3800"
         overflow="visible"
         xlink:href="#SVGID_15_" />
    </clipPath>
    <clipPath
       clip-path="url(#SVGID_23_)"
       id="clipPath3802">
      <use
         height="100%"
         width="100%"
         y="0"
         x="0"
         style="overflow:visible"
         id="use3804"
         overflow="visible"
         xlink:href="#SVGID_15_" />
    </clipPath>
    <clipPath
       clip-path="url(#SVGID_23_)"
       id="clipPath3806">
      <use
         height="100%"
         width="100%"
         y="0"
         x="0"
         style="overflow:visible"
         id="use3808"
         overflow="visible"
         xlink:href="#SVGID_15_" />
    </clipPath>
    <clipPath
       clip-path="url(#SVGID_23_)"
       id="clipPath3810">
      <use
         height="100%"
         width="100%"
         y="0"
         x="0"
         style="overflow:visible"
         id="use3812"
         overflow="visible"
         xlink:href="#SVGID_15_" />
    </clipPath>
    <clipPath
       clip-path="url(#SVGID_23_)"
       id="clipPath3814">
      <use
         height="100%"
         width="100%"
         y="0"
         x="0"
         style="overflow:visible"
         id="use3816"
         overflow="visible"
         xlink:href="#SVGID_15_" />
    </clipPath>
    <clipPath
       clip-path="url(#SVGID_23_)"
       id="clipPath3818">
      <use
         height="100%"
         width="100%"
         y="0"
         x="0"
         style="overflow:visible"
         id="use3820"
         overflow="visible"
         xlink:href="#SVGID_15_" />
    </clipPath>
    <clipPath
       id="SVGID_6_-3-4">
      <use
         height="100%"
         width="100%"
         y="0"
         x="0"
         style="overflow:visible"
         id="use33-6-5"
         overflow="visible"
         xlink:href="#SVGID_5_" />
    </clipPath>
    <clipPath
       clip-path="url(#SVGID_23_)"
       id="SVGID_24_-2-8-1">
      <use
         height="100%"
         width="100%"
         y="0"
         x="0"
         style="overflow:visible"
         id="use91-7-7-4"
         overflow="visible"
         xlink:href="#SVGID_15_" />
    </clipPath>
    <clipPath
       id="SVGID_6_-3-4-6">
      <use
         height="100%"
         width="100%"
         y="0"
         x="0"
         style="overflow:visible"
         id="use33-6-5-6"
         overflow="visible"
         xlink:href="#SVGID_5_" />
    </clipPath>
    <clipPath
       clip-path="url(#SVGID_23_)"
       id="SVGID_24_-2-8-3">
      <use
         height="100%"
         width="100%"
         y="0"
         x="0"
         style="overflow:visible"
         id="use91-7-7-0"
         overflow="visible"
         xlink:href="#SVGID_15_" />
    </clipPath>
    <clipPath
       clip-path="url(#SVGID_23_)"
       id="clipPath3951">
      <use
         height="100%"
         width="100%"
         y="0"
         x="0"
         style="overflow:visible"
         id="use3953"
         overflow="visible"
         xlink:href="#SVGID_15_" />
    </clipPath>
    <clipPath
       clip-path="url(#SVGID_23_)"
       id="clipPath3955">
      <use
         height="100%"
         width="100%"
         y="0"
         x="0"
         style="overflow:visible"
         id="use3957"
         overflow="visible"
         xlink:href="#SVGID_15_" />
    </clipPath>
    <clipPath
       clip-path="url(#SVGID_23_)"
       id="clipPath3959">
      <use
         height="100%"
         width="100%"
         y="0"
         x="0"
         style="overflow:visible"
         id="use3961"
         overflow="visible"
         xlink:href="#SVGID_15_" />
    </clipPath>
    <clipPath
       clip-path="url(#SVGID_23_)"
       id="clipPath3963">
      <use
         height="100%"
         width="100%"
         y="0"
         x="0"
         style="overflow:visible"
         id="use3965"
         overflow="visible"
         xlink:href="#SVGID_15_" />
    </clipPath>
    <clipPath
       clip-path="url(#SVGID_23_)"
       id="clipPath3967">
      <use
         height="100%"
         width="100%"
         y="0"
         x="0"
         style="overflow:visible"
         id="use3969"
         overflow="visible"
         xlink:href="#SVGID_15_" />
    </clipPath>
    <clipPath
       clip-path="url(#SVGID_23_)"
       id="clipPath3971">
      <use
         height="100%"
         width="100%"
         y="0"
         x="0"
         style="overflow:visible"
         id="use3973"
         overflow="visible"
         xlink:href="#SVGID_15_" />
    </clipPath>
    <clipPath
       clip-path="url(#SVGID_23_)"
       id="clipPath3975">
      <use
         height="100%"
         width="100%"
         y="0"
         x="0"
         style="overflow:visible"
         id="use3977"
         overflow="visible"
         xlink:href="#SVGID_15_" />
    </clipPath>
    <rect
       height="500"
       width="800"
       y="-176"
       x="-130.438"
       id="SVGID_1_" />
    <rect
       height="500"
       width="800"
       y="-176"
       x="-130.438"
       id="SVGID_3_" />
    <rect
       height="146.554"
       width="144.311"
       y="0.72299999"
       x="0.47600001"
       id="SVGID_5_" />
    <rect
       height="500"
       width="800"
       y="-176"
       x="-130.438"
       id="SVGID_7_" />
    <rect
       height="500"
       width="800"
       y="-176"
       x="-130.438"
       id="SVGID_8_" />
    <rect
       height="500"
       width="800"
       y="-176"
       x="-130.438"
       id="SVGID_9_" />
    <rect
       height="500"
       width="800"
       y="-176"
       x="-130.438"
       id="SVGID_10_" />
    <rect
       height="500"
       width="800"
       y="-176"
       x="-130.438"
       id="SVGID_11_" />
    <rect
       height="500"
       width="800"
       y="-176"
       x="-130.438"
       id="SVGID_12_" />
    <rect
       height="500"
       width="800"
       y="-176"
       x="-130.438"
       id="SVGID_13_" />
    <rect
       height="500"
       width="800"
       y="-176"
       x="-130.438"
       id="SVGID_14_" />
    <rect
       height="500"
       width="800"
       y="-176"
       x="-130.438"
       id="SVGID_15_" />
    <clipPath
       id="_clipPath_f0UbNDBXQ8aHAFPmOgnXs5adxYD8xIe2">
      <rect
         id="rect252"
         height="30"
         width="121" />
    </clipPath>
  </defs>
  <title
     id="title14">Artboard 3 copy 40</title>
  <style
     id="style401"
     type="text/css">
	.st0{stroke:#000000;stroke-width:0.7024;stroke-miterlimit:10;}
	.st1{fill-rule:evenodd;clip-rule:evenodd;fill:url(#SVGID_1_);}
	.st2{fill-rule:evenodd;clip-rule:evenodd;fill:url(#SVGID_2_);}
	.st3{fill-rule:evenodd;clip-rule:evenodd;fill:url(#SVGID_3_);}
</style>
  <g
     id="g524"
     transform="matrix(0.32763442,0,0,0.33108194,-3.3589898,-13.966892)">
    <g
       id="Layer_1-7">
      <g
         id="g431" />
      <g
         id="logos"
         transform="matrix(1.1368047,0,0,1.2134552,77.04485,-213.19052)">
	<g
   id="Logo">
		<path
   d="m 94,309 c 7.2,7.2 12.9,18.9 9.6,25.8 -8.9,18.6 -75.3,51.2 -80.9,45.6 -5.7,-5.6 27,-72.1 45.6,-81 6.9,-3.3 18.6,2.4 25.7,9.6 z"
   class="st0"
   id="Carrot"
   inkscape:connector-curvature="0"
   style="fill:#ff8200" />

		<path
   d="m 129.2,301.1 v 0 c -1.2,-4.3 -4.1,-8.6 -8.5,-9.1 -8.1,-0.9 -20.8,13.3 -19.9,16.8 0.9,3.5 18.9,9.4 25.6,4.5 3.5,-2.4 3.9,-7.8 2.8,-12.2 z m -25,-39.5 c 6,1.6 12,5.8 12.8,12 1.3,11.3 -18.7,29.2 -23.4,27.9 -4.7,-1.3 -13.1,-26.4 -6.4,-35.9 3.5,-4.8 11,-5.5 17,-4 z"
   class="st1"
   id="Leaves"
   inkscape:connector-curvature="0"
   style="fill:#43b02a" />

	</g>

	<g
   id="Logotype">
		<path
   id="path225"
   d="m 282.9,328.6 -5.9,-0.9 c -5.7,-0.8 -8.9,-2.7 -8.9,-6 0,-3.8 4.3,-6.2 10.6,-6.2 4.1,0.2 8.1,1.4 11.6,3.4 l 0.7,0.4 c 2.7,1.3 6.1,0.3 7.5,-2.4 L 299,316 c 1.6,-2.8 0.6,-6.3 -2.2,-7.9 -0.1,0 -0.1,-0.1 -0.2,-0.1 -5.5,-3 -11.6,-4.7 -17.8,-4.8 -15.1,0 -24.8,7.2 -24.8,19 0,9.6 6.9,15.7 20,17.5 l 6,0.8 c 6.3,0.9 9.4,2.8 9.4,5.7 0,2.9 -1.5,6.4 -11.3,6.4 -5.4,0.1 -10.7,-1.4 -15.3,-4.2 -0.9,-0.5 -1.9,-0.8 -2.9,-0.8 -2,0 -3.8,1.1 -4.8,2.7 l -0.3,0.5 c -0.8,1.3 -1.1,3 -0.7,4.5 0.4,1.5 1.4,2.8 2.7,3.5 6.6,3.6 13.9,5.7 21.5,5.9 15.8,0 25.5,-6.9 25.5,-19 -0.4,-9.6 -7.3,-15.1 -20.9,-17.1 z"
   class="st1"
   inkscape:connector-curvature="0"
   style="fill:#43b02a" />

		<path
   id="path227"
   d="m 466.1,349.8 c -1.1,-1.3 -2.8,-2 -4.5,-2 -1.2,0 -2.3,0.3 -3.3,1 -3,2 -6.6,3 -10.2,3.1 -9.6,0 -16.3,-7.5 -16.3,-17.8 0,-10.3 6.9,-17.9 16.3,-17.9 3.5,0 7,1 10,3 2.5,1.5 5.7,1.2 7.7,-0.9 l 0.5,-0.6 c 2.5,-2.6 2.4,-6.7 -0.2,-9.2 -0.3,-0.3 -0.6,-0.5 -0.9,-0.7 -5,-3.2 -10.8,-4.9 -16.8,-4.8 -18.2,0 -30.9,12.7 -30.9,30.9 0,18.2 12.7,30.9 30.9,30.9 5.9,0.1 11.8,-1.6 16.8,-4.8 3,-2 3.8,-6.1 1.8,-9.1 -0.2,-0.2 -0.4,-0.5 -0.6,-0.7 z"
   class="st1"
   inkscape:connector-curvature="0"
   style="fill:#43b02a" />

		<path
   id="path229"
   d="m 172,282.4 c -4.6,0 -8.4,3.8 -8.3,8.5 0,0 0,0 0,0.1 -0.2,4.6 3.4,8.4 8,8.5 0.1,0 0.2,0 0.4,0 4.7,0.2 8.7,-3.3 8.9,-8 0.2,-4.7 -3.3,-8.7 -8,-8.9 -0.3,0 -0.6,0 -0.9,0 v -0.2 z"
   class="st1"
   inkscape:connector-curvature="0"
   style="fill:#43b02a" />

		<path
   id="path231"
   d="m 174.6,303.7 h -5 c -2.4,0 -4.4,2 -4.4,4.4 V 359 c 0,2.4 2,4.4 4.4,4.4 h 5 c 2.4,0 4.4,-2 4.4,-4.4 v -50.9 c 0,-2.4 -2,-4.4 -4.4,-4.4 z"
   class="st1"
   inkscape:connector-curvature="0"
   style="fill:#43b02a" />

		<path
   id="path233"
   d="m 337.9,351.6 c -6.6,0 -12,-5.4 -12,-12 v -23 H 338 c 2.4,0 4.4,-2 4.4,-4.4 0,0 0,0 0,0 v -4 c 0,-2.4 -2,-4.4 -4.4,-4.4 0,0 0,0 0,0 h -12.2 v -13.2 c 0,-2.4 -2,-4.4 -4.4,-4.4 h -5.3 c -2.4,0 -4.4,2 -4.4,4.4 v 48.2 c -0.3,14.1 10.8,25.8 25,26.2 0.1,0 0.1,0 0.2,0 v 0 c 3,0 5.5,-2.5 5.5,-5.5 V 356 c 0,-2.4 -2,-4.4 -4.5,-4.4 z"
   class="st1"
   inkscape:connector-curvature="0"
   style="fill:#43b02a" />

		<path
   id="path235"
   d="m 217.4,303.2 c -14.8,-0.4 -27.1,11.3 -27.5,26.1 0,0.1 0,0.1 0,0.2 V 359 c 0,2.4 2,4.4 4.4,4.4 h 5 c 2.4,0 4.4,-2 4.4,-4.4 0,0 0,0 0,0 v -27.4 c 0,-9.2 5.5,-15.2 13.6,-15.2 8.1,0 13.6,6.1 13.6,15.2 V 359 c 0,2.4 2,4.4 4.4,4.4 h 5 c 2.4,0 4.4,-2 4.4,-4.4 v -29.6 c -0.3,-14.8 -12.6,-26.5 -27.3,-26.2 0.1,0 0,0 0,0 z"
   class="st1"
   inkscape:connector-curvature="0"
   style="fill:#43b02a" />

		<path
   id="path237"
   d="m 580.7,303.9 c -3,-0.4 -6.1,-0.7 -9.2,-0.6 h -0.7 c -14.6,0 -26.4,11.8 -26.4,26.4 V 359 c 0,2.4 2,4.4 4.4,4.4 0,0 0,0 0,0 h 5 c 2.4,0 4.4,-2 4.4,-4.4 v -28.8 c -0.4,-7.2 5.2,-13.4 12.4,-13.8 0.3,0 0.6,0 0.9,0 1.4,0 2.8,0.2 4.2,0.5 0.4,0 0.8,0 1.2,0 2.8,0 5.2,-1.9 5.9,-4.7 0.4,-1.5 0.6,-2.6 0.9,-3.6 0.2,-1.1 0.1,-2.2 -0.5,-3.1 -0.6,-0.8 -1.5,-1.4 -2.5,-1.6 z"
   class="st1"
   inkscape:connector-curvature="0"
   style="fill:#43b02a" />

		<path
   id="path239"
   d="m 617.6,316.6 c 2.4,0 4.4,-2 4.4,-4.4 0,0 0,0 0,0 v -4 c 0,-2.4 -2,-4.4 -4.4,-4.4 0,0 0,0 0,0 h -12.1 v -13.2 c 0,-2.4 -2,-4.4 -4.4,-4.4 h -5.3 c -2.4,0 -4.4,2 -4.4,4.4 v 48.2 c -0.3,14.1 10.8,25.8 25,26.2 0.1,0 0.1,0 0.2,0 v 0 c 3,0 5.5,-2.5 5.5,-5.5 v 0 -3.5 c 0,-2.4 -2,-4.4 -4.5,-4.4 -6.6,0 -12,-5.4 -12,-12 v -23 z"
   class="st1"
   inkscape:connector-curvature="0"
   style="fill:#43b02a" />

		<path
   id="path241"
   d="m 521.5,308 v 0 c -5,-3.2 -10.8,-4.9 -16.8,-4.8 h -0.5 c -5.9,-0.1 -11.8,1.6 -16.8,4.8 v 0 c -8.8,5.7 -13.9,15.6 -13.5,26.1 0,12 5.6,21.7 14.7,26.9 4.5,2.6 9.5,4 14.7,4 6.8,0.2 13.3,-2.7 17.8,-7.9 v 2.1 c 0,2.4 2,4.4 4.4,4.4 h 5.1 c 2.4,0 4.4,-2 4.4,-4.4 v -25 c 0.5,-10.6 -4.7,-20.5 -13.5,-26.2 z M 510,351 c -1.6,0.5 -3.2,0.8 -4.8,0.9 h -1.3 c -1.6,-0.1 -3.2,-0.4 -4.8,-0.9 -6.8,-2.7 -11.2,-9.4 -10.8,-16.8 0,-9.6 6,-16.8 14.6,-17.7 v 0 h 0.6 2.2 0.6 v 0 c 8.5,0.9 14.6,8.1 14.6,17.7 0.3,7.3 -4,14.1 -10.9,16.8 z"
   class="st1"
   inkscape:connector-curvature="0"
   style="fill:#43b02a" />

		<path
   id="path243"
   d="m 395.9,308 v 0 c -5,-3.2 -10.8,-4.9 -16.8,-4.8 h -0.6 c -5.9,-0.1 -11.8,1.6 -16.8,4.8 v 0 c -8.7,5.8 -13.8,15.7 -13.3,26.1 0,12 5.6,21.7 14.7,26.9 4.5,2.6 9.5,4 14.7,4 6.8,0.2 13.3,-2.7 17.7,-7.9 v 2.1 c 0,2.4 2,4.4 4.4,4.4 h 5 c 2.4,0 4.4,-2 4.4,-4.4 v -25 c 0.5,-10.6 -4.6,-20.5 -13.4,-26.2 z m -11.5,43 c -1.6,0.5 -3.2,0.8 -4.8,0.9 h -1.3 c -1.6,-0.1 -3.2,-0.4 -4.8,-0.9 -6.9,-2.7 -11.2,-9.4 -10.8,-16.8 0,-9.6 6,-16.8 14.6,-17.7 v 0 h 0.6 2.2 0.6 0.1 c 8.5,0.9 14.6,8.1 14.6,17.7 0.2,7.3 -4.2,14.1 -11,16.8 z"
   class="st1"
   inkscape:connector-curvature="0"
   style="fill:#43b02a" />

	</g>

</g>
    </g>
    <g
       id="Layer_2" />
  </g>
  <style
     id="style220"
     type="text/css">
	.st0{fill:#FF8200;}
	.st1{fill:#43B02A;}
</style>
</svg>
