<?xml version="1.0" encoding="UTF-8" standalone="no"?>
<svg
   xmlns:dc="http://purl.org/dc/elements/1.1/"
   xmlns:cc="http://creativecommons.org/ns#"
   xmlns:rdf="http://www.w3.org/1999/02/22-rdf-syntax-ns#"
   xmlns:svg="http://www.w3.org/2000/svg"
   xmlns="http://www.w3.org/2000/svg"
   xmlns:sodipodi="http://sodipodi.sourceforge.net/DTD/sodipodi-0.dtd"
   xmlns:inkscape="http://www.inkscape.org/namespaces/inkscape"
   id="Layer_1"
   data-name="Layer 1"
   viewBox="0 0 255.12 85.04"
   version="1.1"
   sodipodi:docname="Microsoft.svg"
   inkscape:version="0.92.4 (5da689c313, 2019-01-14)">
  <metadata
     id="metadata34">
    <rdf:RDF>
      <cc:Work
         rdf:about="">
        <dc:format>image/svg+xml</dc:format>
        <dc:type
           rdf:resource="http://purl.org/dc/dcmitype/StillImage" />
        <dc:title>Artboard 3 copy 98</dc:title>
      </cc:Work>
    </rdf:RDF>
  </metadata>
  <sodipodi:namedview
     pagecolor="#ffffff"
     bordercolor="#666666"
     borderopacity="1"
     objecttolerance="10"
     gridtolerance="10"
     guidetolerance="10"
     inkscape:pageopacity="0"
     inkscape:pageshadow="2"
     inkscape:window-width="1366"
     inkscape:window-height="705"
     id="namedview32"
     showgrid="false"
     inkscape:zoom="1.28"
     inkscape:cx="89.698806"
     inkscape:cy="25.445634"
     inkscape:window-x="-8"
     inkscape:window-y="-8"
     inkscape:window-maximized="1"
     inkscape:current-layer="Layer_1" />
  <defs
     id="defs25">
    <style
       id="style23">.cls-1{font-size:49px;fill:#0060a9;font-family:BebasNeue-Regular, Bebas Neue;}</style>
  </defs>
  <title
     id="title27">Artboard 3 copy 98</title>
  <g
     id="g3724"
     transform="matrix(0.17084526,0,0,0.1304943,36.021451,23.40985)">
    <path
       style="fill:#fefefe"
       d="M 0,136.5 V 0 h 640 640 V 136.5 273 H 640 0 Z"
       id="path3740"
       inkscape:connector-curvature="0" />
    <path
       style="fill:#d0d0d0"
       d="m 0,208.10699 c 0,-58.25145 0.16189018,-64.95514 1.5817875,-65.5 C 2.4517706,142.27314 31.386771,142 65.881787,142 c 47.447503,0 63.010393,0.29218 63.918213,1.2 0.90782,0.90782 1.2,16.47071 1.2,63.91821 0,34.49502 -0.27314,63.43002 -0.60699,64.3 C 129.84815,272.83811 123.14446,273 64.893011,273 H 0 Z m 142.60699,63.31122 c -1.10178,-2.87118 -0.69025,-125.39413 0.42819,-127.48395 C 144.04192,142.05315 145.81191,142 207.4534,142 c 34.86066,0 64.09483,0.27314 64.96481,0.60699 1.4199,0.54486 1.58179,7.24855 1.58179,65.5 V 273 h -65.39301 c -58.70738,0 -65.45507,-0.16172 -66,-1.58179 z m 511.92379,-49.47817 c -24.4566,-3.78116 -41.99966,-19.44842 -48.16207,-43.01228 -2.38296,-9.112 -2.13467,-26.05849 0.5308,-36.22824 5.46499,-20.85095 20.35103,-36.61464 40.60049,-42.994185 9.43326,-2.971929 31.79456,-3.176358 41,-0.374827 10.80417,3.288082 10.5,2.777262 10.5,17.633532 0,7.97502 -0.40333,13.1672 -1.05407,13.56938 -0.57974,0.3583 -4.51097,-1.05664 -8.73606,-3.1443 -6.68669,-3.30395 -8.79782,-3.84909 -16.29421,-4.2075 -11.93775,-0.57075 -18.1451,1.34749 -25.18712,7.78351 -3.66759,3.35196 -6.34764,6.98466 -8.29492,11.24339 -2.64048,5.77479 -2.87588,7.23592 -2.86625,17.79148 0.009,9.59744 0.38638,12.44648 2.28255,17.22098 2.74152,6.90305 9.47639,14.15113 15.71227,16.90955 10.16181,4.49506 24.91342,3.17816 36.28425,-3.23914 2.94867,-1.66412 5.98949,-2.78459 6.75739,-2.48992 2.09666,0.80456 2.00508,23.84677 -0.10316,25.955 -1.72838,1.72839 -10.70263,5.24122 -16.81598,6.58237 -6.81954,1.49607 -19.75119,1.99111 -26.15391,1.0012 z M 832.5,220.97799 c -21.41725,-4.29887 -37.32734,-19.45675 -43.22836,-41.18459 -2.33999,-8.61597 -2.31069,-29.79689 0.0537,-38.7934 4.36295,-16.60126 14.90682,-30.04503 29.06741,-37.06188 17.97995,-8.909416 43.62082,-9.202768 61.60728,-0.70484 8.51161,4.02142 18.33468,13.89202 22.7214,22.83133 4.84299,9.86913 6.61288,18.55022 6.61288,32.43539 0,21.30748 -4.70524,33.96426 -17.29422,46.52036 -8.69127,8.66857 -14.76389,12.22356 -25.6255,15.00149 -8.15507,2.08572 -25.80752,2.58338 -33.91456,0.95614 z m 31.2455,-27.5543 c 10.26561,-5.02249 14.77474,-15.74991 14.67974,-34.92369 -0.0684,-13.81194 -1.94006,-20.23663 -7.93591,-27.24144 -5.315,-6.20937 -11.32177,-8.70597 -20.98933,-8.72382 -4.4,-0.008 -9.77494,0.60699 -11.94431,1.36693 -5.42604,1.90074 -12.91891,9.1906 -15.41827,15.00052 -4.70102,10.92782 -5.10133,27.77375 -0.92523,38.9354 2.19082,5.8555 8.38443,13.38533 12.95344,15.74806 8.07579,4.17615 20.85611,4.10618 29.57987,-0.16196 z M 940,220.46281 c -8.76497,-1.81942 -12.7896,-3.09493 -15.62269,-4.95125 -2.3,-1.50701 -2.37731,-1.97774 -2.37731,-14.4756 0,-7.63602 0.41382,-13.17368 1.01208,-13.54342 0.55664,-0.34403 3.36914,0.71691 6.25,2.35763 8.4202,4.79552 16.73078,7.14983 25.23849,7.14983 11.90105,0 16.67228,-2.81484 16.85927,-9.9463 0.15277,-5.82621 -2.79607,-8.28722 -19.85984,-16.57441 -17.78554,-8.63772 -22.24638,-12.18712 -26.708,-21.25099 -2.96648,-6.02647 -3.28762,-7.53713 -3.24766,-15.27754 0.0376,-7.28658 0.46154,-9.44249 2.79424,-14.21035 5.18024,-10.58805 17.20638,-19.18808 30.46594,-21.78657 11.2266,-2.200088 34.09011,0.30705 38.94548,4.27064 0.88352,0.72124 1.25,4.83013 1.25,14.0146 0,14.79898 1.04486,13.84286 -10,9.15064 -5.14738,-2.18677 -8.47691,-2.84572 -16,-3.16656 -8.69864,-0.37097 -9.79252,-0.20614 -12.96777,1.95396 -4.71672,3.20876 -5.86996,7.44131 -3.40352,12.49139 1.97233,4.03838 3.97541,5.25965 23.37129,14.24947 12.62127,5.84984 20.31157,11.98019 23.70991,18.90042 2.39069,4.86819 2.79009,6.90152 2.79009,14.20263 0,7.61215 -0.3506,9.23314 -3.28675,15.19736 -8.93942,18.15855 -32.81418,26.72429 -59.21325,21.24442 z m 116.5,0.51518 c -21.4173,-4.29887 -37.3273,-19.45675 -43.2284,-41.18459 -2.3644,-8.70608 -2.2924,-29.82929 0.1323,-38.7934 4.6043,-17.0222 14.7665,-30.01445 28.9888,-37.06188 17.98,-8.909416 43.6208,-9.202768 61.6073,-0.70484 8.5116,4.02142 18.3347,13.89202 22.7214,22.83133 4.843,9.86913 6.6129,18.55022 6.6129,32.43539 0,21.30748 -4.7053,33.96426 -17.2942,46.52036 -8.6913,8.66857 -14.7639,12.22356 -25.6255,15.00149 -8.1551,2.08572 -25.8076,2.58338 -33.9146,0.95614 z m 29.116,-26.4574 c 2.1362,-0.89003 5.5437,-3.23544 7.5722,-5.21202 12.2088,-11.89619 12.9453,-44.30052 1.321,-58.11525 -8.7027,-10.34256 -28.2152,-11.98412 -40.1015,-3.3737 -10.1414,7.34641 -14.999,27.56044 -10.8516,45.1572 3.8029,16.1353 15.1874,24.64433 31.5599,23.58862 3.6388,-0.23463 8.3638,-1.15481 10.5,-2.04485 z m 159.6983,25.69048 c -11.7216,-4.20474 -18.0297,-11.26785 -20.7516,-23.23528 C 1223.3185,191.50545 1223,183.47081 1223,157.55259 V 125 h -19.4901 -19.4901 l -0.2599,46.75 -0.2599,46.75 h -14.5 -14.5 l -0.5,-47 -0.5,-47 -8.967,-0.2921 c -5.6243,-0.18321 -9.2532,-0.74238 -9.7347,-1.5 -1.1006,-1.73176 -0.9499,-19.91946 0.1799,-21.7079 0.6967,-1.102764 3.3109,-1.591438 9.8717,-1.845279 l 8.924,-0.345278 0.3874,-13.255789 c 0.3782,-12.943826 0.4752,-13.433635 4.1222,-20.812769 6.629,-13.412931 16.8378,-20.523579 32.9665,-22.962 7.4234,-1.12231 19.7475,0.144196 22.34,2.295821 1.1718,0.972526 1.4139,3.579821 1.1905,12.823016 L 1214.5,68.5 l -3,-0.276389 c -15.1624,-1.396905 -16.9877,-1.335454 -20.2015,0.680089 -5.2057,3.264908 -6.6537,7.203182 -7.1131,19.3463 L 1183.7788,99 H 1203.3894 1223 V 86.535184 c 0,-10.863501 0.2248,-12.57984 1.75,-13.360169 3.5741,-1.82863 26.3736,-8.216678 27.2945,-7.647499 0.5446,0.336591 0.9555,7.660266 0.9555,17.031501 V 99 h 11.9182 c 6.555,0 12.63,0.273145 13.5,0.606989 C 1279.7368,100.11297 1280,102.17518 1280,112 c 0,9.82482 -0.2632,11.88703 -1.5818,12.39301 -0.87,0.33385 -6.945,0.60699 -13.5,0.60699 H 1253 l 0.056,30.25 c 0.039,20.6969 0.4334,31.34438 1.25,33.71537 2.2994,6.676 10.0838,9.58151 18.7002,6.9798 7.6585,-2.31248 7.0873,-3.14349 6.7747,9.85622 L 1279.5,217.5 l -3.838,1.87441 c -5.8164,2.84058 -23.4093,3.32561 -30.3477,0.83666 z m -890.19777,-1.57065 c -0.82211,-0.99059 -1.05889,-23.44966 -0.87244,-82.75 L 354.5,54.5 h 20.9574 20.9574 l 23.27151,58.5 c 12.79933,32.175 23.281,59.0625 23.2926,59.75 0.0568,3.36717 1.95784,0.43479 4.53804,-7 5.77639,-16.6446 44.57154,-110.288681 46.19254,-111.5 1.19121,-0.890147 6.77907,-1.25 19.41021,-1.25 14.79161,0 17.99843,0.260982 19.30887,1.571429 1.40248,1.40248 1.57143,10.205318 1.57143,81.877551 0,67.26517 -0.22529,80.49311 -1.38735,81.45753 -0.93768,0.77821 -5.88048,1.06098 -15.25,0.87244 L 503.5,218.5 503,158.67947 502.5,98.858932 481.56586,150.67947 C 470.05208,179.18076 459.09457,206.2125 457.21584,210.75 l -3.41587,8.25 h -9.77754 c -6.60371,0 -10.1133,-0.40576 -10.8119,-1.25 -0.56889,-0.6875 -11.68957,-27.12496 -24.71261,-58.74991 -13.02304,-31.62496 -24.074,-58.17496 -24.55768,-59 -0.51308,-0.875195 -0.89209,23.30679 -0.90983,58.04991 -0.023,44.94885 -0.32464,59.84423 -1.23041,60.75 -1.79175,1.79175 -25.18009,1.65187 -26.68347,-0.15958 z m 203.55014,-0.30709 C 558.3,217.96667 558,191.4325 558,159.36852 c 0,-56.61422 0.0559,-58.32805 1.93426,-59.33334 2.5146,-1.345768 23.61688,-1.345768 26.13148,0 1.87785,1.005 1.93426,2.70875 1.93426,58.41822 0,31.56066 -0.27314,58.09483 -0.60699,58.96481 -0.5127,1.33608 -2.73919,1.58179 -14.33333,1.58179 -7.54949,0 -14.02635,-0.3 -14.39301,-0.66667 z m 159.02628,0.0263 C 717.31183,217.97849 717,191.4325 717,159.36852 c 0,-56.61422 0.0559,-58.32805 1.93426,-59.33334 2.5146,-1.345768 23.61688,-1.345768 26.13148,0 1.61678,0.86527 1.93426,2.13452 1.93426,7.73283 v 6.69764 l 4.58346,-5.23958 c 6.95044,-7.94541 12.04953,-10.516928 21.82443,-11.006298 4.45066,-0.222818 9.32961,0.07544 10.84211,0.662802 l 2.75,1.067924 v 13.858082 c 0,7.62195 -0.28216,14.14024 -0.62702,14.4851 -0.34485,0.34486 -2.20823,-0.0337 -4.14083,-0.84115 -10.47043,-4.37482 -20.39669,-2.48068 -27.13869,5.17864 -7.24926,8.23559 -7.43694,9.39838 -8.049,49.86883 l -0.54446,36 -14.05705,0.27628 c -7.73138,0.15195 -14.36888,-0.0356 -14.75,-0.41667 z M 1.25,130.34154 C 0.26805605,129.94232 0,115.91229 0,64.916667 V 0 H 64.980948 129.9619 l 0.5451,2.25 c 0.29981,1.2375 0.42088,30.6 0.26905,65.25 l -0.27605,63 -64,0.17487 c -35.2,0.0962 -64.5625,-0.0538 -65.25,-0.33333 z M 143.2,129.8 C 142.29218,128.89218 142,113.32929 142,65.881787 142,31.386771 142.27314,2.4517706 142.60699,1.5817875 143.15191,0.16175481 149.89018,0 208.5,0 267.10982,0 273.84809,0.16175481 274.39301,1.5817875 274.72686,2.4517706 275,31.386771 275,65.881787 c 0,47.447503 -0.29218,63.010393 -1.2,63.918213 -1.73445,1.73445 -128.86555,1.73445 -130.6,0 z M 565.48141,82.606432 c -8.00949,-3.489957 -12.25407,-13.428106 -9.03037,-21.143493 2.15977,-5.169056 4.24342,-7.375495 9.04896,-9.582208 5.16046,-2.369693 10.63065,-2.365093 15.28984,0.01286 16.72257,8.534855 10.8032,32.239214 -8.00772,32.067268 -2.35517,-0.02153 -5.64049,-0.63102 -7.30071,-1.354427 z"
       id="path3738"
       inkscape:connector-curvature="0" />
    <path
       style="fill:#9b9b9b"
       d="M -2.1423725e-4,208.25 -4.284745e-4,143.5 63.749786,143.75659 c 35.062618,0.14113 64.312714,0.46451 65.000214,0.71862 0.98218,0.36303 1.25,14.18138 1.25,64.49341 V 273 H 65 0 Z M 144,208.60699 c 0,-57.79551 0.16206,-64.4552 1.58179,-65 2.06662,-0.79304 123.7698,-0.79304 125.83642,0 1.41973,0.5448 1.58179,7.20449 1.58179,65 L 273,273 H 208.5 144 Z m 508,11.70216 c -21.58354,-3.613 -39.29924,-20.50715 -44.45908,-42.39735 -1.91739,-8.13434 -1.9369,-23.35326 -0.0416,-32.4118 6.78266,-32.41692 37.3533,-52.006783 72.50065,-46.458888 9.11772,1.439198 15.84647,3.803498 17.00952,5.976678 1.2945,2.4188 1.29254,22.67749 -0.002,23.47773 -0.54601,0.33746 -3.80851,-0.717 -7.25,-2.34325 -12.7335,-6.0171 -24.55261,-6.41049 -35.44616,-1.1798 -7.28704,3.49899 -12.42751,8.82157 -15.93268,16.49718 -3.94271,8.63371 -4.56273,23.27254 -1.42345,33.60795 1.92186,6.3273 3.00913,8.06537 8.37678,13.39084 4.65604,4.61945 7.48353,6.53801 11.5331,7.82568 10.34273,3.28872 23.67268,1.73367 34.29921,-4.0013 2.56522,-1.38441 5.15272,-2.21508 5.75,-1.84595 1.22739,0.75857 1.51103,20.36436 0.32065,22.1636 -1.27578,1.92831 -7.0892,4.43414 -14.95293,6.44535 -7.17139,1.83413 -22.91861,2.48589 -30.28176,1.25333 z M 832.07201,219.447 c -21.31525,-4.62252 -36.58727,-19.65567 -41.66324,-41.01161 -2.36361,-9.94435 -2.12729,-27.66672 0.50338,-37.74934 4.11563,-15.77412 13.46752,-27.95943 26.85868,-34.99629 9.73324,-5.11467 18.41745,-7.010353 32.22917,-7.03534 19.23535,-0.0348 31.03769,4.24788 42.08867,15.27258 12.10704,12.07824 16.39919,25.25252 15.66209,48.073 -0.36354,11.25521 -0.86882,14.72729 -3.0387,20.88084 -6.88917,19.53696 -22.18774,32.86447 -42.05003,36.63231 -9.59835,1.82079 -22.01279,1.79394 -30.59002,-0.0661 z m 27.99649,-23.05792 c 7.2093,-2.1382 13.78348,-8.67867 16.97616,-16.88908 2.03236,-5.2265 2.34102,-7.80484 2.39424,-20 0.0547,-12.5288 -0.1904,-14.6243 -2.33217,-19.94089 C 872.27064,127.55433 862.34447,121 849,121 c -21.08699,0 -33.03934,15.82303 -31.72584,42 0.63888,12.73226 3.33128,19.73588 10.24485,26.64945 3.63825,3.63825 6.68601,5.66421 10.09621,6.71134 6.49988,1.99584 15.77994,2.00753 22.45328,0.0283 z m 82.2917,23.20239 c -8.55995,-1.63486 -14.06746,-3.31702 -17.1102,-5.22597 -2.11954,-1.32976 -2.25,-2.07364 -2.25,-12.82954 0,-6.27986 0.38341,-11.65488 0.85201,-11.9445 0.46861,-0.28961 4.01726,1.05237 7.8859,2.98219 17.15454,8.5573 36.82082,7.91222 40.36785,-1.32411 1.44855,-3.77198 0.43199,-9.04163 -2.31616,-12.00648 -1.25928,-1.35858 -9.51993,-5.97403 -18.35699,-10.25656 -13.66014,-6.61985 -16.75516,-8.55139 -20.65797,-12.89226 -5.74052,-6.38484 -7.78759,-12.21628 -7.73075,-22.02238 0.0711,-12.26834 3.51387,-19.19704 13.18929,-26.5441 8.9276,-6.7792 16.77683,-9.035801 31.26682,-8.989007 11.71533,0.03783 21.90224,1.925217 25.25,4.678217 1.59158,1.30881 1.79017,23.78303 0.21016,23.78303 -0.57191,0 -2.70941,-0.82926 -4.75,-1.84281 -9.74891,-4.8422 -25.65008,-6.27108 -31.94323,-2.87041 -5.71969,3.09078 -7.77843,9.88961 -4.76136,15.72399 1.79306,3.46741 6.40523,6.26406 20.49443,12.42709 12.9572,5.66786 23.08655,12.92486 26.21333,18.78011 1.96517,3.67998 2.28667,5.75833 2.28667,14.78203 0,11.77259 -1.31271,15.46628 -8.20967,23.1004 -9.86618,10.92069 -30.77056,16.15035 -49.93013,12.49107 z M 1056.072,219.447 c -24.507,-5.3147 -39.9763,-23.1932 -42.9861,-49.68069 -3.3384,-29.38084 8.2093,-53.92915 30.6552,-65.16694 8.2388,-4.12485 17.3842,-5.921659 30.2589,-5.94495 19.2354,-0.0348 31.0377,4.24788 42.0887,15.27258 12.107,12.07824 16.3992,25.25252 15.6621,48.073 -0.3636,11.25521 -0.8689,14.72729 -3.0387,20.88084 -6.8892,19.53696 -22.1878,32.86447 -42.0501,36.63231 -9.5983,1.82079 -22.0128,1.79394 -30.59,-0.0661 z m 27.3142,-22.8627 c 14.1858,-4.26932 21.5178,-18.84693 20.3484,-40.4574 -0.886,-16.37349 -5.7491,-26.10064 -15.7757,-31.55453 -4.2384,-2.3054 -7.0113,-3.02193 -13.0472,-3.37134 -9.8423,-0.56976 -16.6189,1.56614 -22.6724,7.14606 -8.4997,7.83471 -11.7903,18.20033 -11.0471,34.79835 0.5586,12.47382 3.5201,20.19291 10.3,26.84694 7.4043,7.26675 20.5938,9.99278 31.894,6.59192 z M 1251,220.37358 c -9.0298,-1.75196 -15.7072,-5.6063 -20.015,-11.55304 -5.8722,-8.10625 -6.2588,-10.89767 -6.9001,-49.82054 L 1223.5,123.5 h -20 -20 l -0.5248,47 c -0.2886,25.85 -0.6261,47.12556 -0.75,47.27903 -0.1238,0.15346 -6.1877,0.15346 -13.4752,0 L 1155.5,217.5 l -0.5,-47 -0.5,-47 -9,-0.5 -9,-0.5 -0.2834,-10.71203 -0.2835,-10.71203 9.2835,-0.28797 9.2834,-0.28797 0.6446,-13 c 0.3545,-7.15 1.0795,-14.354145 1.6111,-16.00921 3.6278,-11.294486 12.8601,-21.59175 22.9976,-25.650218 4.9196,-1.969523 7.5595,-2.303501 18.343,-2.320599 9.2306,-0.01464 13.0382,0.346741 14.25,1.352472 1.3309,1.104571 1.6507,3.251551 1.6384,11 -0.01,5.295155 -0.3493,10.152457 -0.7574,10.794003 -0.5586,0.878106 -2.0998,0.809549 -6.2347,-0.277335 -9.3503,-2.457803 -17.464,0.10619 -21.4926,6.791816 -1.7045,2.828672 -2,5.092095 -2,15.319071 v 12 h 20 20 l 0.5,-12.670962 c 0.275,-6.969029 0.7926,-12.961602 1.1502,-13.316829 0.8985,-0.892606 22.9478,-7.489035 25.0756,-7.501831 1.5553,-0.0094 1.7529,1.644497 2,16.739622 l 0.2742,16.75 13.75,0.27822 13.75,0.27822 V 112 122.94356 l -13.75,0.27822 -13.75,0.27822 -0.264,31.7485 c -0.2938,35.32571 -0.039,37.07246 5.9538,40.72587 4.0251,2.45404 12.2562,2.70178 17.4644,0.52563 1.9745,-0.825 3.7601,-1.5 3.9679,-1.5 0.2079,0 0.3779,4.93257 0.3779,10.96126 v 10.96126 l -5.25,1.58298 c -5.4096,1.63112 -19.3286,2.72593 -23.75,1.86808 z m -894.88354,-2.73325 c -0.82201,-0.99046 -1.05891,-23.18913 -0.87244,-81.75 L 355.5,55.5 h 19.95189 19.95189 l 22.28562,56 c 12.2571,30.8 23.00241,58.1375 23.87848,60.75 0.87607,2.6125 1.97316,4.75 2.43798,4.75 0.46481,0 2.11615,-3.65039 3.66963,-8.11197 1.55348,-4.46159 12.49951,-31.79909 24.32451,-60.75 L 493.5,55.5 512.75588,55.228387 532.01177,54.956773 531.75588,136.22839 531.5,217.5 H 518 504.5 v -63.15468 c 0,-34.73507 -0.3375,-62.946012 -0.75,-62.69098 C 503.3375,91.909372 503,92.580738 503,93.146266 503,94.01505 460.83907,199.02137 454.77733,213.25 l -2.02362,4.75 h -8.75441 c -5.78508,0 -9.10533,-0.42398 -9.78901,-1.25 -1.00666,-1.21625 -49.26934,-117.936099 -50.68388,-122.575361 -0.38996,-1.278948 -0.94997,-2.084416 -1.24445,-1.789928 -0.29449,0.294487 -0.4522,28.423539 -0.35046,62.509009 0.18197,60.96878 0.15266,61.99087 -1.80752,63.03993 -3.03916,1.62651 -22.61267,1.38736 -24.00752,-0.29332 z M 559.459,216.75 c -0.26303,-0.6875 -0.36141,-26.9 -0.21862,-58.25 l 0.25962,-57 12.92173,-0.28116 c 9.66601,-0.21032 13.12655,0.0416 13.73468,1 0.93119,1.46747 1.15976,111.79365 0.2366,114.19937 -0.51017,1.32948 -2.66852,1.58179 -13.53138,1.58179 -9.4178,0 -13.05415,-0.33915 -13.40263,-1.25 z m 159,0 c -0.26303,-0.6875 -0.36141,-26.9 -0.21862,-58.25 l 0.25962,-57 h 13.5 13.5 l 0.5,8.5 0.5,8.5 3.84499,-5.67982 c 4.2426,-6.26719 8.88754,-9.93965 15.53074,-12.27918 4.94788,-1.742497 13.72065,-2.025152 17.55917,-0.565751 L 786,100.9505 v 13.02475 c 0,7.16361 -0.3375,13.01797 -0.75,13.00969 -0.4125,-0.008 -2.55,-0.66353 -4.75,-1.4561 -5.60793,-2.02033 -14.17487,-1.8597 -19.05581,0.35729 -5.802,2.63535 -11.11734,9.31582 -13.46831,16.92738 -1.79772,5.82036 -1.97588,9.35575 -1.97588,39.21004 0,18.04708 -0.27314,33.52468 -0.60699,34.39466 -0.51017,1.32948 -2.66852,1.58179 -13.53138,1.58179 -9.4178,0 -13.05415,-0.33915 -13.40263,-1.25 z M 0,65 V 0 h 65 65 v 63.8 c 0,48.28889 -0.29175,64.09175 -1.2,65 -0.90825,0.90825 -16.71111,1.2 -65,1.2 H 0 Z m 144.20733,63.80733 C 143.28946,127.88946 143,112.30406 143,63.8 V 0 h 65.00729 65.0073 l -0.2573,64.75 -0.25729,64.75 -63.54267,0.25733 c -48.59146,0.19678 -63.82675,-0.0267 -64.75,-0.95 z M 566.48141,81.606432 c -1.66023,-0.723407 -4.47273,-2.971452 -6.25,-4.995655 C 557.4561,73.449882 557,72.179881 557,67.613087 557,60.779092 559.85524,56.31746 566.26323,53.138224 577.2651,47.67981 589,55.134692 589,67.582306 c 0,6.108742 -2.86817,10.69137 -8.35343,13.346742 -4.86888,2.356985 -9.77232,2.591469 -14.16516,0.677384 z"
       id="path3736"
       inkscape:connector-curvature="0" />
    <path
       style="fill:#f8b906"
       d="M -2.1423725e-4,208.25 -4.284745e-4,143.5 63.749786,143.75659 c 35.062618,0.14113 64.312714,0.46451 65.000214,0.71862 0.98218,0.36303 1.25,14.18138 1.25,64.49341 V 273 H 65 0 Z M 144,208.60699 c 0,-57.79551 0.16206,-64.4552 1.58179,-65 2.06662,-0.79304 123.7698,-0.79304 125.83642,0 1.41973,0.5448 1.58179,7.20449 1.58179,65 L 273,273 H 208.5 144 Z m 506,9.89833 C 622.29847,212.25556 605.71601,188.93403 607.33402,158.5 c 0.2924,-5.5 1.2564,-12.68446 2.14222,-15.96548 5.51206,-20.41615 20.8764,-35.61823 41.52376,-41.08521 8.55378,-2.264862 25.20062,-2.313888 34.31856,-0.10107 C 696.51459,104.06538 696,103.33446 696,116.51999 v 11.44961 l -5.81743,-2.9562 c -15.49376,-7.87336 -33.33363,-6.09924 -45.0429,4.47938 -11.59523,10.47559 -15.17161,33.747 -7.70363,50.12723 8.73649,19.16255 31.19545,25.31806 52.63136,14.42511 l 5.99813,-3.04802 -0.28277,11.25145 L 695.5,213.5 687,216.37197 c -10.51311,3.55217 -26.59998,4.4797 -37,2.13335 z m 185.9506,0.50185 c -22.69085,-3.61918 -39.1706,-18.86904 -44.40968,-41.09537 -1.92641,-8.17263 -1.94461,-25.32361 -0.0365,-34.4118 4.46897,-21.28562 19.69176,-37.03488 40.54849,-41.95084 8.5251,-2.009383 27.66606,-2.024236 35.48701,-0.0275 14.91833,3.80866 27.64175,13.98602 33.42192,26.73391 5.80838,12.8101 7.55199,30.58843 4.55133,46.4065 -3.98095,20.98569 -18.96942,37.41616 -39.01315,42.76649 -7.35168,1.9624 -23.05557,2.77391 -30.5494,1.57865 z m 25.58608,-21.67437 c 6.65737,-2.26839 13.55753,-9.29593 16.28492,-16.58553 3.01148,-8.04891 4.42739,-20.95185 3.22381,-29.378 -2.13183,-14.92469 -7.20709,-23.29514 -17.13151,-28.25443 -5.52582,-2.76128 -7.2084,-3.11475 -14.82362,-3.11405 -7.4012,6.8e-4 -9.42081,0.39856 -14.59028,2.8744 -12.81147,6.13587 -18.5,17.58353 -18.5,37.22957 0,19.79824 7.24105,32.29433 21.70268,37.45292 5.36253,1.91286 17.90746,1.7945 23.834,-0.22488 z m 82.92977,21.24648 c -9.08332,-1.44134 -18.60347,-4.32947 -19.70114,-5.97674 C 923.60134,210.85578 923.84327,191 925.02852,191 c 0.56568,0 3.71567,1.35647 6.99998,3.01439 8.15999,4.11914 17.97466,6.28576 25.97947,5.73503 11.62099,-0.79952 16.72368,-5.56591 15.69823,-14.66363 -0.69112,-6.13164 -4.63448,-9.46341 -18.49358,-15.62532 -13.46208,-5.98539 -19.81115,-10.00524 -24.55383,-15.546 -7.57027,-8.84415 -8.89339,-24.5038 -2.96207,-35.05731 7.8832,-14.02647 26.36788,-21.456067 47.10814,-18.934295 4.85527,0.590345 10.93542,1.791505 13.51145,2.669245 L 993,104.188 v 10.52263 c 0,11.91307 0.98752,11.16575 -9.5,7.18926 -8.64522,-3.27795 -23.44293,-3.36828 -28.57829,-0.17445 C 950.83135,124.26934 949,127.6015 949,132.5 c 0,7.38844 3.78704,10.92533 18.35156,17.13939 16.72685,7.13663 26.27494,13.76134 29.83029,20.69703 2.92375,5.70355 3.57335,16.55392 1.4321,23.91961 -3.09053,10.63102 -15.16279,20.74453 -28.11395,23.55238 -8.45305,1.83264 -17.62978,2.10437 -26.03355,0.77087 z m 115.48415,0.42789 c -22.6908,-3.61918 -39.1706,-18.86904 -44.4097,-41.09537 -1.9264,-8.17263 -1.9446,-25.32361 -0.036,-34.4118 4.4541,-21.21503 19.7609,-37.05118 40.5485,-41.95084 8.5251,-2.009383 27.6661,-2.024236 35.487,-0.0275 14.9183,3.80866 27.6418,13.98602 33.4219,26.73391 5.8084,12.8101 7.552,30.58843 4.5514,46.4065 -3.981,20.98569 -18.9695,37.41616 -39.0132,42.76649 -7.3517,1.9624 -23.0556,2.77391 -30.5494,1.57865 z m 28.6317,-23.09392 c 5.6076,-2.8844 11.5395,-10.03956 14.0216,-16.91325 2.2063,-6.10961 3.0386,-25.53849 1.4084,-32.87705 -2.3661,-10.65143 -8.3348,-19.10509 -16.5123,-23.3868 -5.5624,-2.91244 -19.3642,-3.60628 -26.2489,-1.31956 -15.4893,5.14472 -23.8038,23.20148 -21.1992,46.03856 1.164,10.20547 5.2805,18.90698 11.5591,24.43362 6.5338,5.75127 11.0324,7.11448 22.4713,6.80949 7.9718,-0.21254 10.4088,-0.68061 14.5,-2.78501 z m 162.6487,23.0012 c -10.9092,-1.87058 -18.3184,-7.22928 -22.3615,-16.17281 -2.3191,-5.13009 -2.3801,-6.01844 -2.8695,-41.74164 -0.275,-20.075 -0.8641,-37.0625 -1.309,-37.75 -0.6037,-0.93273 -5.9883,-1.25 -21.2148,-1.25 -19.1512,0 -20.4695,0.11893 -21.441,1.93426 -0.6702,1.25221 -1.0352,18.01229 -1.0352,47.53078 v 45.59652 l -12.25,-0.28078 -12.25,-0.28078 -0.5,-47 -0.5,-47 -9,-0.5 -9,-0.5 -0.2858,-9.712 -0.2857,-9.712 9.2857,-0.288 9.2858,-0.288 0.6349,-13 c 0.909,-18.613788 4.9943,-28.689218 14.6093,-36.030869 7.7793,-5.939901 14.2302,-7.847602 26.7558,-7.912307 6.05,-0.03125 11.7875,0.266553 12.75,0.661791 1.5044,0.617747 1.75,2.141888 1.75,10.858408 v 10.139793 l -2.6167,-0.656741 c -10.0327,-2.518044 -15.9624,-1.746555 -21.0745,2.741903 -4.9176,4.317795 -6.3006,8.189564 -6.9947,19.583245 C 1180.4001,102.8871 1179.0058,102 1203.5,102 c 19.1747,0 20.4932,-0.11881 21.4648,-1.93426 C 1225.5342,99.001899 1226,92.954131 1226,86.626256 V 75.121029 l 8.75,-2.610143 c 4.8125,-1.435578 10.0716,-3.043716 11.6869,-3.57364 1.6153,-0.529923 3.2908,-0.609535 3.7234,-0.176915 0.4327,0.432621 0.9111,7.976027 1.0632,16.763126 L 1251.5,101.5 h 13.7509 13.751 l 8e-4,10.5 8e-4,10.5 -13.081,-0.30667 c -9.3312,-0.21876 -13.5092,0.0487 -14.5748,0.93309 -1.2803,1.06249 -1.4476,5.75329 -1.1708,32.80667 0.2928,28.60978 0.501,31.92522 2.2226,35.3918 2.2752,4.5814 5.237,6.68807 10.8913,7.74652 5.0943,0.95364 12.7383,-0.52752 14.4592,-2.80174 1.0236,-1.35272 1.25,0.40527 1.25,9.70587 0,6.24678 -0.2488,11.109 -0.5529,10.80491 -0.3041,-0.30409 -2.4416,0.0108 -4.75,0.69978 -6.0879,1.817 -16.3959,2.47505 -22.4661,1.43422 z M 357,136.47793 V 55.955869 l 18.72554,0.272066 18.72555,0.272065 20.31471,51 c 11.17309,28.05 22.01109,55.5 24.08443,61 2.35673,6.25175 4.30609,10 5.20072,10 0.87872,0 2.55815,-3.08754 4.35149,-8 3.05159,-8.35915 40.15579,-100.120672 44.17575,-109.25 L 494.88994,56 h 18.06098 18.06098 L 530.75595,136.25 530.5,216.5 H 518 505.5 l -0.25804,-46 c -0.14193,-25.3 0.11896,-54.325 0.57976,-64.5 0.46079,-10.175 0.63397,-19.081519 0.38483,-19.792264 -0.97628,-2.785212 -2.77526,-0.219531 -4.81787,6.871187 C 500.2129,97.160516 488.6575,126.6 475.71001,158.5 l -23.5409,58 -8.44553,0.28691 -8.44554,0.2869 -2.03961,-4.7869 C 421.74007,185.30062 386.19315,97.911144 384.51338,92.5 c -1.19515,-3.85 -2.58708,-6.887572 -3.09319,-6.750161 -0.545,0.147972 -1.02505,26.956121 -1.17738,65.750001 L 379.98562,217 H 368.49281 357 Z M 560.45892,215.75 c -0.26307,-0.6875 -0.36145,-26.45 -0.21862,-57.25 l 0.2597,-56 12.25,-0.28078 12.25,-0.28078 V 159.46922 217 h -12.03138 c -8.70335,0 -12.1637,-0.34577 -12.5097,-1.25 z M 720,159.5 V 102 h 12 12 l 0.0153,8.25 c 0.008,4.5375 0.47377,8.925 1.0341,9.75 1.15943,1.70708 1.57003,1.28149 7.2298,-7.49367 5.78215,-8.96492 18.37107,-14.203961 28.42684,-11.8302 l 3.79395,0.8956 0.28248,11.80073 0.28249,11.80072 -3.28249,-0.83659 C 779.97712,123.87647 774.86581,123.5 770.42402,123.5 c -7.17146,0 -8.54947,0.31356 -12.30346,2.79956 -2.32511,1.53977 -5.56917,4.91477 -7.20903,7.5 -5.90882,9.31528 -6.20781,11.51001 -6.66868,48.95044 L 743.82125,217 H 731.91063 720 Z M -2.1134746e-4,64.75 0,0 64.75,-2.1134746e-4 129.5,-4.2269491e-4 129.22825,64.188209 c -0.14947,35.303748 -0.40218,64.319051 -0.56158,64.478461 -0.15941,0.1594 -29.174713,0.41211 -64.478461,0.56158 L -4.2269491e-4,129.5 Z M 144.67401,128.34067 C 144.3033,127.96997 144,98.941667 144,63.833333 V 0 h 64.50735 64.50735 l -0.25735,64.25 -0.25735,64.25 -63.57599,0.25734 c -34.9668,0.14154 -63.8793,-0.046 -64.25,-0.41667 z M 569.27505,81.038835 c -7.88024,-1.896149 -11.79045,-7.323141 -11.02396,-15.300178 0.38366,-3.992822 1.15906,-5.615476 4.0785,-8.534914 3.25345,-3.253446 4.23362,-3.644819 10.05693,-4.01562 6.3554,-0.404681 6.51567,-0.351602 10.6872,3.539561 3.79394,3.538947 4.27684,4.513982 4.63633,9.361359 0.31031,4.184183 -0.0548,6.136791 -1.61016,8.612408 -3.25608,5.182437 -10.41622,7.879432 -16.82484,6.337384 z"
       id="path3734"
       inkscape:connector-curvature="0" />
    <path
       style="fill:#02a3ee"
       d="M -2.1423725e-4,208.25 -4.284745e-4,143.5 63.749786,143.75659 c 35.062618,0.14113 64.312714,0.46451 65.000214,0.71862 0.98218,0.36303 1.25,14.18138 1.25,64.49341 V 273 H 65 0 Z M 650,218.50532 C 622.29847,212.25556 605.71601,188.93403 607.33402,158.5 c 0.2924,-5.5 1.2564,-12.68446 2.14222,-15.96548 5.51206,-20.41615 20.8764,-35.61823 41.52376,-41.08521 8.55378,-2.264862 25.20062,-2.313888 34.31856,-0.10107 C 696.51459,104.06538 696,103.33446 696,116.51999 v 11.44961 l -5.81743,-2.9562 c -15.49376,-7.87336 -33.33363,-6.09924 -45.0429,4.47938 -11.59523,10.47559 -15.17161,33.747 -7.70363,50.12723 8.73649,19.16255 31.19545,25.31806 52.63136,14.42511 l 5.99813,-3.04802 -0.28277,11.25145 L 695.5,213.5 687,216.37197 c -10.51311,3.55217 -26.59998,4.4797 -37,2.13335 z m 185.9506,0.50185 c -22.69085,-3.61918 -39.1706,-18.86904 -44.40968,-41.09537 -1.92641,-8.17263 -1.94461,-25.32361 -0.0365,-34.4118 4.46897,-21.28562 19.69176,-37.03488 40.54849,-41.95084 8.5251,-2.009383 27.66606,-2.024236 35.48701,-0.0275 14.91833,3.80866 27.64175,13.98602 33.42192,26.73391 5.80838,12.8101 7.55199,30.58843 4.55133,46.4065 -3.98095,20.98569 -18.96942,37.41616 -39.01315,42.76649 -7.35168,1.9624 -23.05557,2.77391 -30.5494,1.57865 z m 25.58608,-21.67437 c 6.65737,-2.26839 13.55753,-9.29593 16.28492,-16.58553 3.01148,-8.04891 4.42739,-20.95185 3.22381,-29.378 -2.13183,-14.92469 -7.20709,-23.29514 -17.13151,-28.25443 -5.52582,-2.76128 -7.2084,-3.11475 -14.82362,-3.11405 -7.4012,6.8e-4 -9.42081,0.39856 -14.59028,2.8744 -12.81147,6.13587 -18.5,17.58353 -18.5,37.22957 0,19.79824 7.24105,32.29433 21.70268,37.45292 5.36253,1.91286 17.90746,1.7945 23.834,-0.22488 z m 82.92977,21.24648 c -9.08332,-1.44134 -18.60347,-4.32947 -19.70114,-5.97674 C 923.60134,210.85578 923.84327,191 925.02852,191 c 0.56568,0 3.71567,1.35647 6.99998,3.01439 8.15999,4.11914 17.97466,6.28576 25.97947,5.73503 11.62099,-0.79952 16.72368,-5.56591 15.69823,-14.66363 -0.69112,-6.13164 -4.63448,-9.46341 -18.49358,-15.62532 -13.46208,-5.98539 -19.81115,-10.00524 -24.55383,-15.546 -7.57027,-8.84415 -8.89339,-24.5038 -2.96207,-35.05731 7.8832,-14.02647 26.36788,-21.456067 47.10814,-18.934295 4.85527,0.590345 10.93542,1.791505 13.51145,2.669245 L 993,104.188 v 10.52263 c 0,11.91307 0.98752,11.16575 -9.5,7.18926 -8.64522,-3.27795 -23.44293,-3.36828 -28.57829,-0.17445 C 950.83135,124.26934 949,127.6015 949,132.5 c 0,7.38844 3.78704,10.92533 18.35156,17.13939 16.72685,7.13663 26.27494,13.76134 29.83029,20.69703 2.92375,5.70355 3.57335,16.55392 1.4321,23.91961 -3.09053,10.63102 -15.16279,20.74453 -28.11395,23.55238 -8.45305,1.83264 -17.62978,2.10437 -26.03355,0.77087 z m 115.48415,0.42789 c -22.6908,-3.61918 -39.1706,-18.86904 -44.4097,-41.09537 -1.9264,-8.17263 -1.9446,-25.32361 -0.036,-34.4118 4.4541,-21.21503 19.7609,-37.05118 40.5485,-41.95084 8.5251,-2.009383 27.6661,-2.024236 35.487,-0.0275 14.9183,3.80866 27.6418,13.98602 33.4219,26.73391 5.8084,12.8101 7.552,30.58843 4.5514,46.4065 -3.981,20.98569 -18.9695,37.41616 -39.0132,42.76649 -7.3517,1.9624 -23.0556,2.77391 -30.5494,1.57865 z m 28.6317,-23.09392 c 5.6076,-2.8844 11.5395,-10.03956 14.0216,-16.91325 2.2063,-6.10961 3.0386,-25.53849 1.4084,-32.87705 -2.3661,-10.65143 -8.3348,-19.10509 -16.5123,-23.3868 -5.5624,-2.91244 -19.3642,-3.60628 -26.2489,-1.31956 -15.4893,5.14472 -23.8038,23.20148 -21.1992,46.03856 1.164,10.20547 5.2805,18.90698 11.5591,24.43362 6.5338,5.75127 11.0324,7.11448 22.4713,6.80949 7.9718,-0.21254 10.4088,-0.68061 14.5,-2.78501 z m 162.6487,23.0012 c -10.9092,-1.87058 -18.3184,-7.22928 -22.3615,-16.17281 -2.3191,-5.13009 -2.3801,-6.01844 -2.8695,-41.74164 -0.275,-20.075 -0.8641,-37.0625 -1.309,-37.75 -0.6037,-0.93273 -5.9883,-1.25 -21.2148,-1.25 -19.1512,0 -20.4695,0.11893 -21.441,1.93426 -0.6702,1.25221 -1.0352,18.01229 -1.0352,47.53078 v 45.59652 l -12.25,-0.28078 -12.25,-0.28078 -0.5,-47 -0.5,-47 -9,-0.5 -9,-0.5 -0.2858,-9.712 -0.2857,-9.712 9.2857,-0.288 9.2858,-0.288 0.6349,-13 c 0.909,-18.613788 4.9943,-28.689218 14.6093,-36.030869 7.7793,-5.939901 14.2302,-7.847602 26.7558,-7.912307 6.05,-0.03125 11.7875,0.266553 12.75,0.661791 1.5044,0.617747 1.75,2.141888 1.75,10.858408 v 10.139793 l -2.6167,-0.656741 c -10.0327,-2.518044 -15.9624,-1.746555 -21.0745,2.741903 -4.9176,4.317795 -6.3006,8.189564 -6.9947,19.583245 C 1180.4001,102.8871 1179.0058,102 1203.5,102 c 19.1747,0 20.4932,-0.11881 21.4648,-1.93426 C 1225.5342,99.001899 1226,92.954131 1226,86.626256 V 75.121029 l 8.75,-2.610143 c 4.8125,-1.435578 10.0716,-3.043716 11.6869,-3.57364 1.6153,-0.529923 3.2908,-0.609535 3.7234,-0.176915 0.4327,0.432621 0.9111,7.976027 1.0632,16.763126 L 1251.5,101.5 h 13.7509 13.751 l 8e-4,10.5 8e-4,10.5 -13.081,-0.30667 c -9.3312,-0.21876 -13.5092,0.0487 -14.5748,0.93309 -1.2803,1.06249 -1.4476,5.75329 -1.1708,32.80667 0.2928,28.60978 0.501,31.92522 2.2226,35.3918 2.2752,4.5814 5.237,6.68807 10.8913,7.74652 5.0943,0.95364 12.7383,-0.52752 14.4592,-2.80174 1.0236,-1.35272 1.25,0.40527 1.25,9.70587 0,6.24678 -0.2488,11.109 -0.5529,10.80491 -0.3041,-0.30409 -2.4416,0.0108 -4.75,0.69978 -6.0879,1.817 -16.3959,2.47505 -22.4661,1.43422 z M 357,136.47793 V 55.955869 l 18.72554,0.272066 18.72555,0.272065 20.31471,51 c 11.17309,28.05 22.01109,55.5 24.08443,61 2.35673,6.25175 4.30609,10 5.20072,10 0.87872,0 2.55815,-3.08754 4.35149,-8 3.05159,-8.35915 40.15579,-100.120672 44.17575,-109.25 L 494.88994,56 h 18.06098 18.06098 L 530.75595,136.25 530.5,216.5 H 518 505.5 l -0.25804,-46 c -0.14193,-25.3 0.11896,-54.325 0.57976,-64.5 0.46079,-10.175 0.63397,-19.081519 0.38483,-19.792264 -0.97628,-2.785212 -2.77526,-0.219531 -4.81787,6.871187 C 500.2129,97.160516 488.6575,126.6 475.71001,158.5 l -23.5409,58 -8.44553,0.28691 -8.44554,0.2869 -2.03961,-4.7869 C 421.74007,185.30062 386.19315,97.911144 384.51338,92.5 c -1.19515,-3.85 -2.58708,-6.887572 -3.09319,-6.750161 -0.545,0.147972 -1.02505,26.956121 -1.17738,65.750001 L 379.98562,217 H 368.49281 357 Z M 560.45892,215.75 c -0.26307,-0.6875 -0.36145,-26.45 -0.21862,-57.25 l 0.2597,-56 12.25,-0.28078 12.25,-0.28078 V 159.46922 217 h -12.03138 c -8.70335,0 -12.1637,-0.34577 -12.5097,-1.25 z M 720,159.5 V 102 h 12 12 l 0.0153,8.25 c 0.008,4.5375 0.47377,8.925 1.0341,9.75 1.15943,1.70708 1.57003,1.28149 7.2298,-7.49367 5.78215,-8.96492 18.37107,-14.203961 28.42684,-11.8302 l 3.79395,0.8956 0.28248,11.80073 0.28249,11.80072 -3.28249,-0.83659 C 779.97712,123.87647 774.86581,123.5 770.42402,123.5 c -7.17146,0 -8.54947,0.31356 -12.30346,2.79956 -2.32511,1.53977 -5.56917,4.91477 -7.20903,7.5 -5.90882,9.31528 -6.20781,11.51001 -6.66868,48.95044 L 743.82125,217 H 731.91063 720 Z M -2.1134746e-4,64.75 0,0 64.75,-2.1134746e-4 129.5,-4.2269491e-4 129.22825,64.188209 c -0.14947,35.303748 -0.40218,64.319051 -0.56158,64.478461 -0.15941,0.1594 -29.174713,0.41211 -64.478461,0.56158 L -4.2269491e-4,129.5 Z M 144.67401,128.34067 C 144.3033,127.96997 144,98.941667 144,63.833333 V 0 h 64.50735 64.50735 l -0.25735,64.25 -0.25735,64.25 -63.57599,0.25734 c -34.9668,0.14154 -63.8793,-0.046 -64.25,-0.41667 z M 569.27505,81.038835 c -7.88024,-1.896149 -11.79045,-7.323141 -11.02396,-15.300178 0.38366,-3.992822 1.15906,-5.615476 4.0785,-8.534914 3.25345,-3.253446 4.23362,-3.644819 10.05693,-4.01562 6.3554,-0.404681 6.51567,-0.351602 10.6872,3.539561 3.79394,3.538947 4.27684,4.513982 4.63633,9.361359 0.31031,4.184183 -0.0548,6.136791 -1.61016,8.612408 -3.25608,5.182437 -10.41622,7.879432 -16.82484,6.337384 z"
       id="path3732"
       inkscape:connector-curvature="0" />
    <path
       style="fill:#f14f21"
       d="M 650,218.50532 C 622.29847,212.25556 605.71601,188.93403 607.33402,158.5 c 0.2924,-5.5 1.2564,-12.68446 2.14222,-15.96548 5.51206,-20.41615 20.8764,-35.61823 41.52376,-41.08521 8.55378,-2.264862 25.20062,-2.313888 34.31856,-0.10107 C 696.51459,104.06538 696,103.33446 696,116.51999 v 11.44961 l -5.81743,-2.9562 c -15.49376,-7.87336 -33.33363,-6.09924 -45.0429,4.47938 -11.59523,10.47559 -15.17161,33.747 -7.70363,50.12723 8.73649,19.16255 31.19545,25.31806 52.63136,14.42511 l 5.99813,-3.04802 -0.28277,11.25145 L 695.5,213.5 687,216.37197 c -10.51311,3.55217 -26.59998,4.4797 -37,2.13335 z m 185.9506,0.50185 c -22.69085,-3.61918 -39.1706,-18.86904 -44.40968,-41.09537 -1.92641,-8.17263 -1.94461,-25.32361 -0.0365,-34.4118 4.46897,-21.28562 19.69176,-37.03488 40.54849,-41.95084 8.5251,-2.009383 27.66606,-2.024236 35.48701,-0.0275 14.91833,3.80866 27.64175,13.98602 33.42192,26.73391 5.80838,12.8101 7.55199,30.58843 4.55133,46.4065 -3.98095,20.98569 -18.96942,37.41616 -39.01315,42.76649 -7.35168,1.9624 -23.05557,2.77391 -30.5494,1.57865 z m 25.58608,-21.67437 c 6.65737,-2.26839 13.55753,-9.29593 16.28492,-16.58553 3.01148,-8.04891 4.42739,-20.95185 3.22381,-29.378 -2.13183,-14.92469 -7.20709,-23.29514 -17.13151,-28.25443 -5.52582,-2.76128 -7.2084,-3.11475 -14.82362,-3.11405 -7.4012,6.8e-4 -9.42081,0.39856 -14.59028,2.8744 -12.81147,6.13587 -18.5,17.58353 -18.5,37.22957 0,19.79824 7.24105,32.29433 21.70268,37.45292 5.36253,1.91286 17.90746,1.7945 23.834,-0.22488 z m 82.92977,21.24648 c -9.08332,-1.44134 -18.60347,-4.32947 -19.70114,-5.97674 C 923.60134,210.85578 923.84327,191 925.02852,191 c 0.56568,0 3.71567,1.35647 6.99998,3.01439 8.15999,4.11914 17.97466,6.28576 25.97947,5.73503 11.62099,-0.79952 16.72368,-5.56591 15.69823,-14.66363 -0.69112,-6.13164 -4.63448,-9.46341 -18.49358,-15.62532 -13.46208,-5.98539 -19.81115,-10.00524 -24.55383,-15.546 -7.57027,-8.84415 -8.89339,-24.5038 -2.96207,-35.05731 7.8832,-14.02647 26.36788,-21.456067 47.10814,-18.934295 4.85527,0.590345 10.93542,1.791505 13.51145,2.669245 L 993,104.188 v 10.52263 c 0,11.91307 0.98752,11.16575 -9.5,7.18926 -8.64522,-3.27795 -23.44293,-3.36828 -28.57829,-0.17445 C 950.83135,124.26934 949,127.6015 949,132.5 c 0,7.38844 3.78704,10.92533 18.35156,17.13939 16.72685,7.13663 26.27494,13.76134 29.83029,20.69703 2.92375,5.70355 3.57335,16.55392 1.4321,23.91961 -3.09053,10.63102 -15.16279,20.74453 -28.11395,23.55238 -8.45305,1.83264 -17.62978,2.10437 -26.03355,0.77087 z m 115.48415,0.42789 c -22.6908,-3.61918 -39.1706,-18.86904 -44.4097,-41.09537 -1.9264,-8.17263 -1.9446,-25.32361 -0.036,-34.4118 4.4541,-21.21503 19.7609,-37.05118 40.5485,-41.95084 8.5251,-2.009383 27.6661,-2.024236 35.487,-0.0275 14.9183,3.80866 27.6418,13.98602 33.4219,26.73391 5.8084,12.8101 7.552,30.58843 4.5514,46.4065 -3.981,20.98569 -18.9695,37.41616 -39.0132,42.76649 -7.3517,1.9624 -23.0556,2.77391 -30.5494,1.57865 z m 28.6317,-23.09392 c 5.6076,-2.8844 11.5395,-10.03956 14.0216,-16.91325 2.2063,-6.10961 3.0386,-25.53849 1.4084,-32.87705 -2.3661,-10.65143 -8.3348,-19.10509 -16.5123,-23.3868 -5.5624,-2.91244 -19.3642,-3.60628 -26.2489,-1.31956 -15.4893,5.14472 -23.8038,23.20148 -21.1992,46.03856 1.164,10.20547 5.2805,18.90698 11.5591,24.43362 6.5338,5.75127 11.0324,7.11448 22.4713,6.80949 7.9718,-0.21254 10.4088,-0.68061 14.5,-2.78501 z m 162.6487,23.0012 c -10.9092,-1.87058 -18.3184,-7.22928 -22.3615,-16.17281 -2.3191,-5.13009 -2.3801,-6.01844 -2.8695,-41.74164 -0.275,-20.075 -0.8641,-37.0625 -1.309,-37.75 -0.6037,-0.93273 -5.9883,-1.25 -21.2148,-1.25 -19.1512,0 -20.4695,0.11893 -21.441,1.93426 -0.6702,1.25221 -1.0352,18.01229 -1.0352,47.53078 v 45.59652 l -12.25,-0.28078 -12.25,-0.28078 -0.5,-47 -0.5,-47 -9,-0.5 -9,-0.5 -0.2858,-9.712 -0.2857,-9.712 9.2857,-0.288 9.2858,-0.288 0.6349,-13 c 0.909,-18.613788 4.9943,-28.689218 14.6093,-36.030869 7.7793,-5.939901 14.2302,-7.847602 26.7558,-7.912307 6.05,-0.03125 11.7875,0.266553 12.75,0.661791 1.5044,0.617747 1.75,2.141888 1.75,10.858408 v 10.139793 l -2.6167,-0.656741 c -10.0327,-2.518044 -15.9624,-1.746555 -21.0745,2.741903 -4.9176,4.317795 -6.3006,8.189564 -6.9947,19.583245 C 1180.4001,102.8871 1179.0058,102 1203.5,102 c 19.1747,0 20.4932,-0.11881 21.4648,-1.93426 C 1225.5342,99.001899 1226,92.954131 1226,86.626256 V 75.121029 l 8.75,-2.610143 c 4.8125,-1.435578 10.0716,-3.043716 11.6869,-3.57364 1.6153,-0.529923 3.2908,-0.609535 3.7234,-0.176915 0.4327,0.432621 0.9111,7.976027 1.0632,16.763126 L 1251.5,101.5 h 13.7509 13.751 l 8e-4,10.5 8e-4,10.5 -13.081,-0.30667 c -9.3312,-0.21876 -13.5092,0.0487 -14.5748,0.93309 -1.2803,1.06249 -1.4476,5.75329 -1.1708,32.80667 0.2928,28.60978 0.501,31.92522 2.2226,35.3918 2.2752,4.5814 5.237,6.68807 10.8913,7.74652 5.0943,0.95364 12.7383,-0.52752 14.4592,-2.80174 1.0236,-1.35272 1.25,0.40527 1.25,9.70587 0,6.24678 -0.2488,11.109 -0.5529,10.80491 -0.3041,-0.30409 -2.4416,0.0108 -4.75,0.69978 -6.0879,1.817 -16.3959,2.47505 -22.4661,1.43422 z M 357,136.47793 V 55.955869 l 18.72554,0.272066 18.72555,0.272065 20.31471,51 c 11.17309,28.05 22.01109,55.5 24.08443,61 2.35673,6.25175 4.30609,10 5.20072,10 0.87872,0 2.55815,-3.08754 4.35149,-8 3.05159,-8.35915 40.15579,-100.120672 44.17575,-109.25 L 494.88994,56 h 18.06098 18.06098 L 530.75595,136.25 530.5,216.5 H 518 505.5 l -0.25804,-46 c -0.14193,-25.3 0.11896,-54.325 0.57976,-64.5 0.46079,-10.175 0.63397,-19.081519 0.38483,-19.792264 -0.97628,-2.785212 -2.77526,-0.219531 -4.81787,6.871187 C 500.2129,97.160516 488.6575,126.6 475.71001,158.5 l -23.5409,58 -8.44553,0.28691 -8.44554,0.2869 -2.03961,-4.7869 C 421.74007,185.30062 386.19315,97.911144 384.51338,92.5 c -1.19515,-3.85 -2.58708,-6.887572 -3.09319,-6.750161 -0.545,0.147972 -1.02505,26.956121 -1.17738,65.750001 L 379.98562,217 H 368.49281 357 Z M 560.45892,215.75 c -0.26307,-0.6875 -0.36145,-26.45 -0.21862,-57.25 l 0.2597,-56 12.25,-0.28078 12.25,-0.28078 V 159.46922 217 h -12.03138 c -8.70335,0 -12.1637,-0.34577 -12.5097,-1.25 z M 720,159.5 V 102 h 12 12 l 0.0153,8.25 c 0.008,4.5375 0.47377,8.925 1.0341,9.75 1.15943,1.70708 1.57003,1.28149 7.2298,-7.49367 5.78215,-8.96492 18.37107,-14.203961 28.42684,-11.8302 l 3.79395,0.8956 0.28248,11.80073 0.28249,11.80072 -3.28249,-0.83659 C 779.97712,123.87647 774.86581,123.5 770.42402,123.5 c -7.17146,0 -8.54947,0.31356 -12.30346,2.79956 -2.32511,1.53977 -5.56917,4.91477 -7.20903,7.5 -5.90882,9.31528 -6.20781,11.51001 -6.66868,48.95044 L 743.82125,217 H 731.91063 720 Z M -2.1134746e-4,64.75 0,0 64.75,-2.1134746e-4 129.5,-4.2269491e-4 129.22825,64.188209 c -0.14947,35.303748 -0.40218,64.319051 -0.56158,64.478461 -0.15941,0.1594 -29.174713,0.41211 -64.478461,0.56158 L -4.2269491e-4,129.5 Z M 144.67401,128.34067 C 144.3033,127.96997 144,98.941667 144,63.833333 V 0 h 64.50735 64.50735 l -0.25735,64.25 -0.25735,64.25 -63.57599,0.25734 c -34.9668,0.14154 -63.8793,-0.046 -64.25,-0.41667 z M 569.27505,81.038835 c -7.88024,-1.896149 -11.79045,-7.323141 -11.02396,-15.300178 0.38366,-3.992822 1.15906,-5.615476 4.0785,-8.534914 3.25345,-3.253446 4.23362,-3.644819 10.05693,-4.01562 6.3554,-0.404681 6.51567,-0.351602 10.6872,3.539561 3.79394,3.538947 4.27684,4.513982 4.63633,9.361359 0.31031,4.184183 -0.0548,6.136791 -1.61016,8.612408 -3.25608,5.182437 -10.41622,7.879432 -16.82484,6.337384 z"
       id="path3730"
       inkscape:connector-curvature="0" />
    <path
       style="fill:#727272"
       d="M 650,218.50532 C 622.29847,212.25556 605.71601,188.93403 607.33402,158.5 c 0.2924,-5.5 1.2564,-12.68446 2.14222,-15.96548 5.51206,-20.41615 20.8764,-35.61823 41.52376,-41.08521 8.55378,-2.264862 25.20062,-2.313888 34.31856,-0.10107 C 696.51459,104.06538 696,103.33446 696,116.51999 v 11.44961 l -5.81743,-2.9562 c -15.49376,-7.87336 -33.33363,-6.09924 -45.0429,4.47938 -11.59523,10.47559 -15.17161,33.747 -7.70363,50.12723 8.73649,19.16255 31.19545,25.31806 52.63136,14.42511 l 5.99813,-3.04802 -0.28277,11.25145 L 695.5,213.5 687,216.37197 c -10.51311,3.55217 -26.59998,4.4797 -37,2.13335 z m 185.9506,0.50185 c -22.69085,-3.61918 -39.1706,-18.86904 -44.40968,-41.09537 -1.92641,-8.17263 -1.94461,-25.32361 -0.0365,-34.4118 4.46897,-21.28562 19.69176,-37.03488 40.54849,-41.95084 8.5251,-2.009383 27.66606,-2.024236 35.48701,-0.0275 14.91833,3.80866 27.64175,13.98602 33.42192,26.73391 5.80838,12.8101 7.55199,30.58843 4.55133,46.4065 -3.98095,20.98569 -18.96942,37.41616 -39.01315,42.76649 -7.35168,1.9624 -23.05557,2.77391 -30.5494,1.57865 z m 25.58608,-21.67437 c 6.65737,-2.26839 13.55753,-9.29593 16.28492,-16.58553 3.01148,-8.04891 4.42739,-20.95185 3.22381,-29.378 -2.13183,-14.92469 -7.20709,-23.29514 -17.13151,-28.25443 -5.52582,-2.76128 -7.2084,-3.11475 -14.82362,-3.11405 -7.4012,6.8e-4 -9.42081,0.39856 -14.59028,2.8744 -12.81147,6.13587 -18.5,17.58353 -18.5,37.22957 0,19.79824 7.24105,32.29433 21.70268,37.45292 5.36253,1.91286 17.90746,1.7945 23.834,-0.22488 z m 82.92977,21.24648 c -9.08332,-1.44134 -18.60347,-4.32947 -19.70114,-5.97674 C 923.60134,210.85578 923.84327,191 925.02852,191 c 0.56568,0 3.71567,1.35647 6.99998,3.01439 8.15999,4.11914 17.97466,6.28576 25.97947,5.73503 11.62099,-0.79952 16.72368,-5.56591 15.69823,-14.66363 -0.69112,-6.13164 -4.63448,-9.46341 -18.49358,-15.62532 -13.46208,-5.98539 -19.81115,-10.00524 -24.55383,-15.546 -7.57027,-8.84415 -8.89339,-24.5038 -2.96207,-35.05731 7.8832,-14.02647 26.36788,-21.456067 47.10814,-18.934295 4.85527,0.590345 10.93542,1.791505 13.51145,2.669245 L 993,104.188 v 10.52263 c 0,11.91307 0.98752,11.16575 -9.5,7.18926 -8.64522,-3.27795 -23.44293,-3.36828 -28.57829,-0.17445 C 950.83135,124.26934 949,127.6015 949,132.5 c 0,7.38844 3.78704,10.92533 18.35156,17.13939 16.72685,7.13663 26.27494,13.76134 29.83029,20.69703 2.92375,5.70355 3.57335,16.55392 1.4321,23.91961 -3.09053,10.63102 -15.16279,20.74453 -28.11395,23.55238 -8.45305,1.83264 -17.62978,2.10437 -26.03355,0.77087 z m 115.48415,0.42789 c -22.6908,-3.61918 -39.1706,-18.86904 -44.4097,-41.09537 -1.9264,-8.17263 -1.9446,-25.32361 -0.036,-34.4118 4.4541,-21.21503 19.7609,-37.05118 40.5485,-41.95084 8.5251,-2.009383 27.6661,-2.024236 35.487,-0.0275 14.9183,3.80866 27.6418,13.98602 33.4219,26.73391 5.8084,12.8101 7.552,30.58843 4.5514,46.4065 -3.981,20.98569 -18.9695,37.41616 -39.0132,42.76649 -7.3517,1.9624 -23.0556,2.77391 -30.5494,1.57865 z m 28.6317,-23.09392 c 5.6076,-2.8844 11.5395,-10.03956 14.0216,-16.91325 2.2063,-6.10961 3.0386,-25.53849 1.4084,-32.87705 -2.3661,-10.65143 -8.3348,-19.10509 -16.5123,-23.3868 -5.5624,-2.91244 -19.3642,-3.60628 -26.2489,-1.31956 -15.4893,5.14472 -23.8038,23.20148 -21.1992,46.03856 1.164,10.20547 5.2805,18.90698 11.5591,24.43362 6.5338,5.75127 11.0324,7.11448 22.4713,6.80949 7.9718,-0.21254 10.4088,-0.68061 14.5,-2.78501 z m 162.6487,23.0012 c -10.9092,-1.87058 -18.3184,-7.22928 -22.3615,-16.17281 -2.3191,-5.13009 -2.3801,-6.01844 -2.8695,-41.74164 -0.275,-20.075 -0.8641,-37.0625 -1.309,-37.75 -0.6037,-0.93273 -5.9883,-1.25 -21.2148,-1.25 -19.1512,0 -20.4695,0.11893 -21.441,1.93426 -0.6702,1.25221 -1.0352,18.01229 -1.0352,47.53078 v 45.59652 l -12.25,-0.28078 -12.25,-0.28078 -0.5,-47 -0.5,-47 -9,-0.5 -9,-0.5 -0.2858,-9.712 -0.2857,-9.712 9.2857,-0.288 9.2858,-0.288 0.6349,-13 c 0.909,-18.613788 4.9943,-28.689218 14.6093,-36.030869 7.7793,-5.939901 14.2302,-7.847602 26.7558,-7.912307 6.05,-0.03125 11.7875,0.266553 12.75,0.661791 1.5044,0.617747 1.75,2.141888 1.75,10.858408 v 10.139793 l -2.6167,-0.656741 c -10.0327,-2.518044 -15.9624,-1.746555 -21.0745,2.741903 -4.9176,4.317795 -6.3006,8.189564 -6.9947,19.583245 C 1180.4001,102.8871 1179.0058,102 1203.5,102 c 19.1747,0 20.4932,-0.11881 21.4648,-1.93426 C 1225.5342,99.001899 1226,92.954131 1226,86.626256 V 75.121029 l 8.75,-2.610143 c 4.8125,-1.435578 10.0716,-3.043716 11.6869,-3.57364 1.6153,-0.529923 3.2908,-0.609535 3.7234,-0.176915 0.4327,0.432621 0.9111,7.976027 1.0632,16.763126 L 1251.5,101.5 h 13.7509 13.751 l 8e-4,10.5 8e-4,10.5 -13.081,-0.30667 c -9.3312,-0.21876 -13.5092,0.0487 -14.5748,0.93309 -1.2803,1.06249 -1.4476,5.75329 -1.1708,32.80667 0.2928,28.60978 0.501,31.92522 2.2226,35.3918 2.2752,4.5814 5.237,6.68807 10.8913,7.74652 5.0943,0.95364 12.7383,-0.52752 14.4592,-2.80174 1.0236,-1.35272 1.25,0.40527 1.25,9.70587 0,6.24678 -0.2488,11.109 -0.5529,10.80491 -0.3041,-0.30409 -2.4416,0.0108 -4.75,0.69978 -6.0879,1.817 -16.3959,2.47505 -22.4661,1.43422 z M 357,136.47793 V 55.955869 l 18.72554,0.272066 18.72555,0.272065 20.31471,51 c 11.17309,28.05 22.01109,55.5 24.08443,61 2.35673,6.25175 4.30609,10 5.20072,10 0.87872,0 2.55815,-3.08754 4.35149,-8 3.05159,-8.35915 40.15579,-100.120672 44.17575,-109.25 L 494.88994,56 h 18.06098 18.06098 L 530.75595,136.25 530.5,216.5 H 518 505.5 l -0.25804,-46 c -0.14193,-25.3 0.11896,-54.325 0.57976,-64.5 0.46079,-10.175 0.63397,-19.081519 0.38483,-19.792264 -0.97628,-2.785212 -2.77526,-0.219531 -4.81787,6.871187 C 500.2129,97.160516 488.6575,126.6 475.71001,158.5 l -23.5409,58 -8.44553,0.28691 -8.44554,0.2869 -2.03961,-4.7869 C 421.74007,185.30062 386.19315,97.911144 384.51338,92.5 c -1.19515,-3.85 -2.58708,-6.887572 -3.09319,-6.750161 -0.545,0.147972 -1.02505,26.956121 -1.17738,65.750001 L 379.98562,217 H 368.49281 357 Z M 560.45892,215.75 c -0.26307,-0.6875 -0.36145,-26.45 -0.21862,-57.25 l 0.2597,-56 12.25,-0.28078 12.25,-0.28078 V 159.46922 217 h -12.03138 c -8.70335,0 -12.1637,-0.34577 -12.5097,-1.25 z M 720,159.5 V 102 h 12 12 l 0.0153,8.25 c 0.008,4.5375 0.47377,8.925 1.0341,9.75 1.15943,1.70708 1.57003,1.28149 7.2298,-7.49367 5.78215,-8.96492 18.37107,-14.203961 28.42684,-11.8302 l 3.79395,0.8956 0.28248,11.80073 0.28249,11.80072 -3.28249,-0.83659 C 779.97712,123.87647 774.86581,123.5 770.42402,123.5 c -7.17146,0 -8.54947,0.31356 -12.30346,2.79956 -2.32511,1.53977 -5.56917,4.91477 -7.20903,7.5 -5.90882,9.31528 -6.20781,11.51001 -6.66868,48.95044 L 743.82125,217 H 731.91063 720 Z M 144.67401,128.34067 C 144.3033,127.96997 144,98.941667 144,63.833333 V 0 h 64.50735 64.50735 l -0.25735,64.25 -0.25735,64.25 -63.57599,0.25734 c -34.9668,0.14154 -63.8793,-0.046 -64.25,-0.41667 z M 569.27505,81.038835 c -7.88024,-1.896149 -11.79045,-7.323141 -11.02396,-15.300178 0.38366,-3.992822 1.15906,-5.615476 4.0785,-8.534914 3.25345,-3.253446 4.23362,-3.644819 10.05693,-4.01562 6.3554,-0.404681 6.51567,-0.351602 10.6872,3.539561 3.79394,3.538947 4.27684,4.513982 4.63633,9.361359 0.31031,4.184183 -0.0548,6.136791 -1.61016,8.612408 -3.25608,5.182437 -10.41622,7.879432 -16.82484,6.337384 z"
       id="path3728"
       inkscape:connector-curvature="0" />
    <path
       style="fill:#7eb900"
       d="M 144.67401,128.34067 C 144.3033,127.96997 144,98.941667 144,63.833333 V 0 h 64.50735 64.50735 l -0.25735,64.25 -0.25735,64.25 -63.57599,0.25734 c -34.9668,0.14154 -63.8793,-0.046 -64.25,-0.41667 z"
       id="path3726"
       inkscape:connector-curvature="0" />
  </g>
</svg>
