<?xml version="1.0" encoding="UTF-8" standalone="no"?>
<svg
   xmlns:dc="http://purl.org/dc/elements/1.1/"
   xmlns:cc="http://creativecommons.org/ns#"
   xmlns:rdf="http://www.w3.org/1999/02/22-rdf-syntax-ns#"
   xmlns:svg="http://www.w3.org/2000/svg"
   xmlns="http://www.w3.org/2000/svg"
   xmlns:sodipodi="http://sodipodi.sourceforge.net/DTD/sodipodi-0.dtd"
   xmlns:inkscape="http://www.inkscape.org/namespaces/inkscape"
   id="Layer_1"
   data-name="Layer 1"
   viewBox="0 0 260 86"
   version="1.1"
   sodipodi:docname="Navex.svg"
   inkscape:version="0.92.4 (5da689c313, 2019-01-14)">
  <metadata
     id="metadata27">
    <rdf:RDF>
      <cc:Work
         rdf:about="">
        <dc:format>image/svg+xml</dc:format>
        <dc:type
           rdf:resource="http://purl.org/dc/dcmitype/StillImage" />
        <dc:title>Artboard 21 copy 2</dc:title>
      </cc:Work>
    </rdf:RDF>
  </metadata>
  <sodipodi:namedview
     pagecolor="#ffffff"
     bordercolor="#666666"
     borderopacity="1"
     objecttolerance="10"
     gridtolerance="10"
     guidetolerance="10"
     inkscape:pageopacity="0"
     inkscape:pageshadow="2"
     inkscape:window-width="640"
     inkscape:window-height="480"
     id="namedview25"
     showgrid="false"
     inkscape:zoom="1.8983097"
     inkscape:cx="51.000928"
     inkscape:cy="21.553162"
     inkscape:window-x="0"
     inkscape:window-y="0"
     inkscape:window-maximized="0"
     inkscape:current-layer="Layer_1" />
  <defs
     id="defs4">
    <style
       id="style2">.cls-1{fill:#df468d;}</style>
  </defs>
  <title
     id="title6">Artboard 21 copy 2</title>
  <style
     id="style29"
     type="text/css">
	.st0{fill:#56565A;}
	.st1{fill:#F57E20;}
</style>
  <g
     id="g84"
     transform="matrix(0.30815646,0,0,0.31085852,68.114694,-54.85246)">
    <path
       id="path31"
       d="m 619.6,323.1 c -0.3,-0.7 -0.7,-1.3 -1.3,-1.9 -0.5,-0.5 -1.2,-1 -1.9,-1.3 -1.4,-0.6 -3.2,-0.6 -4.6,0 -0.7,0.3 -1.3,0.7 -1.9,1.3 -0.5,0.5 -1,1.2 -1.3,1.9 -0.3,0.7 -0.5,1.5 -0.5,2.3 0,0.8 0.2,1.6 0.5,2.3 0.3,0.7 0.7,1.3 1.3,1.9 0.5,0.5 1.2,1 1.9,1.3 0.7,0.3 1.5,0.5 2.3,0.5 0.8,0 1.6,-0.2 2.3,-0.5 0.7,-0.3 1.3,-0.7 1.9,-1.3 0.5,-0.5 1,-1.2 1.3,-1.9 0.3,-0.7 0.5,-1.5 0.5,-2.3 -0.1,-0.8 -0.2,-1.6 -0.5,-2.3 z m -5,1.6 c -0.2,0 -0.4,0 -0.6,0 h -0.8 v -1.6 h 1.2 c 0.1,0 0.3,0 0.5,0 0.1,0 0.3,0.1 0.4,0.1 0.1,0.1 0.2,0.1 0.2,0.2 0.1,0.1 0.1,0.2 0.1,0.4 0,0.2 0,0.4 -0.1,0.5 -0.1,0.1 -0.2,0.2 -0.3,0.2 -0.3,0.2 -0.4,0.2 -0.6,0.2 z m 1.1,1.1 c 0.2,-0.1 0.4,-0.2 0.6,-0.4 0.2,-0.2 0.3,-0.4 0.4,-0.6 0.1,-0.2 0.2,-0.5 0.2,-0.9 0,-0.7 -0.2,-1.2 -0.6,-1.5 -0.4,-0.4 -1,-0.5 -1.8,-0.5 h -2.8 v 7 h 1.4 v -2.8 h 0.7 l 1.8,2.7 0.1,0.1 h 1.1 c -0.3,0.3 -0.7,0.5 -1.1,0.7 -1.1,0.5 -2.4,0.5 -3.5,0 -0.6,-0.2 -1,-0.6 -1.4,-1 -0.4,-0.4 -0.7,-0.9 -1,-1.4 -0.2,-0.5 -0.4,-1.1 -0.4,-1.8 0,-0.6 0.1,-1.2 0.4,-1.8 0.2,-0.5 0.6,-1 1,-1.4 0.4,-0.4 0.9,-0.7 1.4,-1 0.5,-0.2 1.1,-0.4 1.8,-0.4 0.6,0 1.2,0.1 1.8,0.4 0.5,0.2 1,0.6 1.4,1 0.4,0.4 0.7,0.9 1,1.4 0.2,0.5 0.4,1.1 0.4,1.8 0,0.6 -0.1,1.2 -0.4,1.8 -0.2,0.6 -0.6,1 -1,1.4 v 0 l -1.8,-2.7 c 0.1,0 0.2,0 0.3,-0.1 z"
       class="st0"
       inkscape:connector-curvature="0"
       style="fill:#56565a" />
    <g
       id="g45">
	<path
   id="path33"
   d="m 132.5,320.5 c -3.4,0 -6.1,2.8 -6.1,6.1 0,3.4 2.8,6.1 6.1,6.1 3.4,0 6.1,-2.8 6.1,-6.1 0,-3.3 -2.8,-6.1 -6.1,-6.1 z"
   class="st1"
   inkscape:connector-curvature="0"
   style="fill:#f57e20" />

	<path
   id="path35"
   d="m 135.9,276.9 h -6.6 l -36.4,89.2 h 8.1 l 0.3,-0.7 c 0.1,-0.2 1.9,-4.6 4.5,-11.3 7.6,-19.2 22.7,-57 26.8,-67.2 l 33.1,79.1 v 0.1 h 8.5 z"
   class="st1"
   inkscape:connector-curvature="0"
   style="fill:#f57e20" />

	<polygon
   id="polygon37"
   points="84.7,276.9 77.4,276.9 77.4,354.5 28.5,276.9 20.1,276.9 20.1,366.1 27.2,366.1 27.2,288.7 76.2,366.1 76.3,366.1 84.7,366.1 "
   class="st1"
   style="fill:#f57e20" />

	<polygon
   id="polygon39"
   points="195.4,356.4 164.7,277 164.7,276.9 156.9,276.9 191.7,366 191.8,366.1 199.3,366.1 233.4,277 233.5,276.9 225.6,276.9 "
   class="st1"
   style="fill:#f57e20" />

	<polygon
   id="polygon41"
   points="295.8,359.5 249.1,359.5 249.1,322.9 292.3,322.9 292.3,316.2 249.1,316.2 249.1,283.5 293.9,283.5 293.9,276.9 241.7,276.9 241.7,366.1 295.8,366.1 "
   class="st1"
   style="fill:#f57e20" />

	<polygon
   id="polygon43"
   points="337.1,326.1 365.5,366.1 365.6,366.1 374.6,366.1 341.7,320 372,276.9 363.4,276.9 337.3,314.2 310.7,276.9 301.5,276.9 332.9,319.8 300.7,366.1 309.5,366.1 "
   class="st1"
   style="fill:#f57e20" />

</g>
    <g
       id="g59">
	<path
   id="path47"
   d="m 402.6,347.4 h 11.5 v 12.7 c -3,0.9 -6.1,1.4 -9.4,1.4 -4.8,0 -8.7,-1.9 -11.3,-5.5 -2.4,-3.4 -3.6,-7.8 -3.6,-13.1 0,-5 1.1,-9.3 3.4,-12.7 2.5,-3.7 6,-5.5 10.5,-5.5 2.8,0 4.9,0.7 6.6,2 1.6,1.3 2.7,3.2 3,5.5 l 0.2,1.4 h 5.8 l -0.2,-1.8 c -0.5,-4.1 -2.2,-7.2 -5.1,-9.4 -2.8,-2 -6.2,-3 -10.3,-3 -6.4,0 -11.6,2.5 -15.1,7.4 -3.2,4.3 -4.7,9.8 -4.7,16.2 0,6.8 1.7,12.4 5,16.6 3.7,4.7 9,7.1 15.8,7.1 4.1,0 8.8,-0.8 13.9,-2.4 l 1.1,-0.4 v -22 h -17.1 z"
   class="st0"
   inkscape:connector-curvature="0"
   style="fill:#56565a" />

	<polygon
   id="polygon49"
   points="455.6,361.2 433.4,361.2 433.4,320.1 427.8,320.1 427.8,366.5 455.6,366.5 "
   class="st0"
   style="fill:#56565a" />

	<path
   id="path51"
   d="m 475.2,319.4 c -6.6,0 -11.9,2.5 -15.5,7.3 -3.2,4.3 -4.8,9.8 -4.8,16.4 0,6.7 1.6,12.3 4.7,16.6 3.7,4.9 8.9,7.4 15.5,7.4 6.6,0 11.9,-2.6 15.4,-7.5 3.1,-4.4 4.6,-9.9 4.6,-16.6 0,-6.9 -1.5,-12.5 -4.5,-16.5 -3.4,-4.7 -8.6,-7.1 -15.4,-7.1 z m 0,42.4 c -4.7,0 -8.4,-1.9 -11,-5.7 -2.3,-3.4 -3.5,-7.7 -3.5,-13 0,-5.3 1.1,-9.7 3.4,-12.9 2.5,-3.7 6.1,-5.4 11,-5.4 4.9,0 8.5,1.8 11,5.3 2.1,3.1 3.2,7.5 3.2,13 0,5.2 -1.1,9.6 -3.4,13 -2.4,3.8 -6,5.7 -10.7,5.7 z"
   class="st0"
   inkscape:connector-curvature="0"
   style="fill:#56565a" />

	<path
   id="path53"
   d="m 526.4,341.9 c 0.9,-0.6 1.6,-1.3 2.3,-2.1 1.7,-2 2.6,-4.6 2.6,-7.5 0,-2.8 -0.8,-5.1 -2.4,-7.2 -1.6,-2.1 -3.7,-3.5 -6.2,-4.3 -1.7,-0.5 -4.4,-0.8 -7.9,-0.8 H 502 v 46.5 h 13.1 c 14.8,0 18,-7.4 18,-13.7 0,-5.2 -2.4,-8.9 -6.7,-10.9 z m -3.6,-3.9 c -1.6,1.2 -3.8,1.7 -6.6,1.7 h -8.4 v -14.1 h 9.2 c 2.6,0 4.7,0.6 6.2,1.9 1.4,1.1 2.2,2.9 2.2,5 0,2.6 -0.8,4.4 -2.6,5.5 z m -15,7.1 h 9.2 c 9.2,0 10.3,4.5 10.3,7.8 0,3.5 -1.1,5.6 -3.6,6.8 -1.8,0.9 -4.7,1.3 -8.9,1.3 h -7 z"
   class="st0"
   inkscape:connector-curvature="0"
   style="fill:#56565a" />

	<path
   id="path55"
   d="m 557.2,320.1 h -4.6 l -18.9,46.3 -0.1,0.2 h 6.2 l 5,-12.9 h 20.4 l 5.3,12.8 v 0.1 h 6.4 z m 5.7,28.2 H 547 l 7.8,-19.6 z"
   class="st0"
   inkscape:connector-curvature="0"
   style="fill:#56565a" />

	<polygon
   id="polygon57"
   points="608.4,366.5 608.4,361.2 586.2,361.2 586.2,320.1 580.6,320.1 580.6,366.5 "
   class="st0"
   style="fill:#56565a" />

</g>
  </g>
</svg>
