<?xml version="1.0" encoding="UTF-8" standalone="no"?>
<svg
   xmlns:dc="http://purl.org/dc/elements/1.1/"
   xmlns:cc="http://creativecommons.org/ns#"
   xmlns:rdf="http://www.w3.org/1999/02/22-rdf-syntax-ns#"
   xmlns:svg="http://www.w3.org/2000/svg"
   xmlns="http://www.w3.org/2000/svg"
   xmlns:xlink="http://www.w3.org/1999/xlink"
   xmlns:sodipodi="http://sodipodi.sourceforge.net/DTD/sodipodi-0.dtd"
   xmlns:inkscape="http://www.inkscape.org/namespaces/inkscape"
   id="Layer_1"
   data-name="Layer 1"
   viewBox="0 0 255.12 85.04"
   version="1.1"
   sodipodi:docname="Nordstrom.svg"
   inkscape:version="0.92.4 (5da689c313, 2019-01-14)">
  <metadata
     id="metadata35">
    <rdf:RDF>
      <cc:Work
         rdf:about="">
        <dc:format>image/svg+xml</dc:format>
        <dc:type
           rdf:resource="http://purl.org/dc/dcmitype/StillImage" />
        <dc:title>Artboard 3 copy 40</dc:title>
      </cc:Work>
    </rdf:RDF>
  </metadata>
  <sodipodi:namedview
     pagecolor="#ffffff"
     bordercolor="#666666"
     borderopacity="1"
     objecttolerance="10"
     gridtolerance="10"
     guidetolerance="10"
     inkscape:pageopacity="0"
     inkscape:pageshadow="2"
     inkscape:window-width="1366"
     inkscape:window-height="705"
     id="namedview33"
     showgrid="false"
     inkscape:zoom="1.28"
     inkscape:cx="60.674694"
     inkscape:cy="77.905991"
     inkscape:window-x="-8"
     inkscape:window-y="-8"
     inkscape:window-maximized="1"
     inkscape:current-layer="Layer_1-7" />
  <defs
     id="defs12">
    <style
       id="style10">.cls-1{fill:#2b5097;fill-rule:evenodd;}</style>
    <clipPath
       clip-path="url(#SVGID_23_)"
       id="SVGID_24_-2">
      <use
         height="100%"
         width="100%"
         y="0"
         x="0"
         style="overflow:visible"
         id="use91-7"
         overflow="visible"
         xlink:href="#SVGID_15_" />
    </clipPath>
    <clipPath
       clip-path="url(#SVGID_23_)"
       id="clipPath3453">
      <use
         height="100%"
         width="100%"
         y="0"
         x="0"
         style="overflow:visible"
         id="use3455"
         overflow="visible"
         xlink:href="#SVGID_15_" />
    </clipPath>
    <clipPath
       clip-path="url(#SVGID_23_)"
       id="clipPath3457">
      <use
         height="100%"
         width="100%"
         y="0"
         x="0"
         style="overflow:visible"
         id="use3459"
         overflow="visible"
         xlink:href="#SVGID_15_" />
    </clipPath>
    <clipPath
       clip-path="url(#SVGID_23_)"
       id="clipPath3461">
      <use
         height="100%"
         width="100%"
         y="0"
         x="0"
         style="overflow:visible"
         id="use3463"
         overflow="visible"
         xlink:href="#SVGID_15_" />
    </clipPath>
    <clipPath
       clip-path="url(#SVGID_23_)"
       id="clipPath3465">
      <use
         height="100%"
         width="100%"
         y="0"
         x="0"
         style="overflow:visible"
         id="use3467"
         overflow="visible"
         xlink:href="#SVGID_15_" />
    </clipPath>
    <clipPath
       clip-path="url(#SVGID_23_)"
       id="clipPath3469">
      <use
         height="100%"
         width="100%"
         y="0"
         x="0"
         style="overflow:visible"
         id="use3471"
         overflow="visible"
         xlink:href="#SVGID_15_" />
    </clipPath>
    <clipPath
       clip-path="url(#SVGID_23_)"
       id="clipPath3473">
      <use
         height="100%"
         width="100%"
         y="0"
         x="0"
         style="overflow:visible"
         id="use3475"
         overflow="visible"
         xlink:href="#SVGID_15_" />
    </clipPath>
    <clipPath
       clip-path="url(#SVGID_23_)"
       id="clipPath3477">
      <use
         height="100%"
         width="100%"
         y="0"
         x="0"
         style="overflow:visible"
         id="use3479"
         overflow="visible"
         xlink:href="#SVGID_15_" />
    </clipPath>
    <clipPath
       id="SVGID_6_-3">
      <use
         height="100%"
         width="100%"
         y="0"
         x="0"
         style="overflow:visible"
         id="use33-6"
         overflow="visible"
         xlink:href="#SVGID_5_" />
    </clipPath>
    <clipPath
       clip-path="url(#SVGID_23_)"
       id="clipPath3483">
      <use
         height="100%"
         width="100%"
         y="0"
         x="0"
         style="overflow:visible"
         id="use3485"
         overflow="visible"
         xlink:href="#SVGID_15_" />
    </clipPath>
    <clipPath
       clip-path="url(#SVGID_23_)"
       id="SVGID_24_-2-4">
      <use
         height="100%"
         width="100%"
         y="0"
         x="0"
         style="overflow:visible"
         id="use91-7-4"
         overflow="visible"
         xlink:href="#SVGID_15_" />
    </clipPath>
    <clipPath
       clip-path="url(#SVGID_23_)"
       id="clipPath3626">
      <use
         height="100%"
         width="100%"
         y="0"
         x="0"
         style="overflow:visible"
         id="use3628"
         overflow="visible"
         xlink:href="#SVGID_15_" />
    </clipPath>
    <clipPath
       clip-path="url(#SVGID_23_)"
       id="clipPath3630">
      <use
         height="100%"
         width="100%"
         y="0"
         x="0"
         style="overflow:visible"
         id="use3632"
         overflow="visible"
         xlink:href="#SVGID_15_" />
    </clipPath>
    <clipPath
       clip-path="url(#SVGID_23_)"
       id="clipPath3634">
      <use
         height="100%"
         width="100%"
         y="0"
         x="0"
         style="overflow:visible"
         id="use3636"
         overflow="visible"
         xlink:href="#SVGID_15_" />
    </clipPath>
    <clipPath
       clip-path="url(#SVGID_23_)"
       id="clipPath3638">
      <use
         height="100%"
         width="100%"
         y="0"
         x="0"
         style="overflow:visible"
         id="use3640"
         overflow="visible"
         xlink:href="#SVGID_15_" />
    </clipPath>
    <clipPath
       clip-path="url(#SVGID_23_)"
       id="clipPath3642">
      <use
         height="100%"
         width="100%"
         y="0"
         x="0"
         style="overflow:visible"
         id="use3644"
         overflow="visible"
         xlink:href="#SVGID_15_" />
    </clipPath>
    <clipPath
       clip-path="url(#SVGID_23_)"
       id="clipPath3646">
      <use
         height="100%"
         width="100%"
         y="0"
         x="0"
         style="overflow:visible"
         id="use3648"
         overflow="visible"
         xlink:href="#SVGID_15_" />
    </clipPath>
    <clipPath
       clip-path="url(#SVGID_23_)"
       id="clipPath3650">
      <use
         height="100%"
         width="100%"
         y="0"
         x="0"
         style="overflow:visible"
         id="use3652"
         overflow="visible"
         xlink:href="#SVGID_15_" />
    </clipPath>
    <clipPath
       clip-path="url(#SVGID_23_)"
       id="SVGID_24_-2-8">
      <use
         height="100%"
         width="100%"
         y="0"
         x="0"
         style="overflow:visible"
         id="use91-7-7"
         overflow="visible"
         xlink:href="#SVGID_15_" />
    </clipPath>
    <clipPath
       clip-path="url(#SVGID_23_)"
       id="clipPath3790">
      <use
         height="100%"
         width="100%"
         y="0"
         x="0"
         style="overflow:visible"
         id="use3792"
         overflow="visible"
         xlink:href="#SVGID_15_" />
    </clipPath>
    <clipPath
       clip-path="url(#SVGID_23_)"
       id="clipPath3794">
      <use
         height="100%"
         width="100%"
         y="0"
         x="0"
         style="overflow:visible"
         id="use3796"
         overflow="visible"
         xlink:href="#SVGID_15_" />
    </clipPath>
    <clipPath
       clip-path="url(#SVGID_23_)"
       id="clipPath3798">
      <use
         height="100%"
         width="100%"
         y="0"
         x="0"
         style="overflow:visible"
         id="use3800"
         overflow="visible"
         xlink:href="#SVGID_15_" />
    </clipPath>
    <clipPath
       clip-path="url(#SVGID_23_)"
       id="clipPath3802">
      <use
         height="100%"
         width="100%"
         y="0"
         x="0"
         style="overflow:visible"
         id="use3804"
         overflow="visible"
         xlink:href="#SVGID_15_" />
    </clipPath>
    <clipPath
       clip-path="url(#SVGID_23_)"
       id="clipPath3806">
      <use
         height="100%"
         width="100%"
         y="0"
         x="0"
         style="overflow:visible"
         id="use3808"
         overflow="visible"
         xlink:href="#SVGID_15_" />
    </clipPath>
    <clipPath
       clip-path="url(#SVGID_23_)"
       id="clipPath3810">
      <use
         height="100%"
         width="100%"
         y="0"
         x="0"
         style="overflow:visible"
         id="use3812"
         overflow="visible"
         xlink:href="#SVGID_15_" />
    </clipPath>
    <clipPath
       clip-path="url(#SVGID_23_)"
       id="clipPath3814">
      <use
         height="100%"
         width="100%"
         y="0"
         x="0"
         style="overflow:visible"
         id="use3816"
         overflow="visible"
         xlink:href="#SVGID_15_" />
    </clipPath>
    <clipPath
       clip-path="url(#SVGID_23_)"
       id="clipPath3818">
      <use
         height="100%"
         width="100%"
         y="0"
         x="0"
         style="overflow:visible"
         id="use3820"
         overflow="visible"
         xlink:href="#SVGID_15_" />
    </clipPath>
    <clipPath
       id="SVGID_6_-3-4">
      <use
         height="100%"
         width="100%"
         y="0"
         x="0"
         style="overflow:visible"
         id="use33-6-5"
         overflow="visible"
         xlink:href="#SVGID_5_" />
    </clipPath>
    <clipPath
       clip-path="url(#SVGID_23_)"
       id="SVGID_24_-2-8-1">
      <use
         height="100%"
         width="100%"
         y="0"
         x="0"
         style="overflow:visible"
         id="use91-7-7-4"
         overflow="visible"
         xlink:href="#SVGID_15_" />
    </clipPath>
    <clipPath
       id="SVGID_6_-3-4-6">
      <use
         height="100%"
         width="100%"
         y="0"
         x="0"
         style="overflow:visible"
         id="use33-6-5-6"
         overflow="visible"
         xlink:href="#SVGID_5_" />
    </clipPath>
    <clipPath
       clip-path="url(#SVGID_23_)"
       id="SVGID_24_-2-8-3">
      <use
         height="100%"
         width="100%"
         y="0"
         x="0"
         style="overflow:visible"
         id="use91-7-7-0"
         overflow="visible"
         xlink:href="#SVGID_15_" />
    </clipPath>
    <clipPath
       clip-path="url(#SVGID_23_)"
       id="clipPath3951">
      <use
         height="100%"
         width="100%"
         y="0"
         x="0"
         style="overflow:visible"
         id="use3953"
         overflow="visible"
         xlink:href="#SVGID_15_" />
    </clipPath>
    <clipPath
       clip-path="url(#SVGID_23_)"
       id="clipPath3955">
      <use
         height="100%"
         width="100%"
         y="0"
         x="0"
         style="overflow:visible"
         id="use3957"
         overflow="visible"
         xlink:href="#SVGID_15_" />
    </clipPath>
    <clipPath
       clip-path="url(#SVGID_23_)"
       id="clipPath3959">
      <use
         height="100%"
         width="100%"
         y="0"
         x="0"
         style="overflow:visible"
         id="use3961"
         overflow="visible"
         xlink:href="#SVGID_15_" />
    </clipPath>
    <clipPath
       clip-path="url(#SVGID_23_)"
       id="clipPath3963">
      <use
         height="100%"
         width="100%"
         y="0"
         x="0"
         style="overflow:visible"
         id="use3965"
         overflow="visible"
         xlink:href="#SVGID_15_" />
    </clipPath>
    <clipPath
       clip-path="url(#SVGID_23_)"
       id="clipPath3967">
      <use
         height="100%"
         width="100%"
         y="0"
         x="0"
         style="overflow:visible"
         id="use3969"
         overflow="visible"
         xlink:href="#SVGID_15_" />
    </clipPath>
    <clipPath
       clip-path="url(#SVGID_23_)"
       id="clipPath3971">
      <use
         height="100%"
         width="100%"
         y="0"
         x="0"
         style="overflow:visible"
         id="use3973"
         overflow="visible"
         xlink:href="#SVGID_15_" />
    </clipPath>
    <clipPath
       clip-path="url(#SVGID_23_)"
       id="clipPath3975">
      <use
         height="100%"
         width="100%"
         y="0"
         x="0"
         style="overflow:visible"
         id="use3977"
         overflow="visible"
         xlink:href="#SVGID_15_" />
    </clipPath>
    <rect
       height="500"
       width="800"
       y="-176"
       x="-130.438"
       id="SVGID_1_" />
    <rect
       height="500"
       width="800"
       y="-176"
       x="-130.438"
       id="SVGID_3_" />
    <rect
       height="146.554"
       width="144.311"
       y="0.72299999"
       x="0.47600001"
       id="SVGID_5_" />
    <rect
       height="500"
       width="800"
       y="-176"
       x="-130.438"
       id="SVGID_7_" />
    <rect
       height="500"
       width="800"
       y="-176"
       x="-130.438"
       id="SVGID_8_" />
    <rect
       height="500"
       width="800"
       y="-176"
       x="-130.438"
       id="SVGID_9_" />
    <rect
       height="500"
       width="800"
       y="-176"
       x="-130.438"
       id="SVGID_10_" />
    <rect
       height="500"
       width="800"
       y="-176"
       x="-130.438"
       id="SVGID_11_" />
    <rect
       height="500"
       width="800"
       y="-176"
       x="-130.438"
       id="SVGID_12_" />
    <rect
       height="500"
       width="800"
       y="-176"
       x="-130.438"
       id="SVGID_13_" />
    <rect
       height="500"
       width="800"
       y="-176"
       x="-130.438"
       id="SVGID_14_" />
    <rect
       height="500"
       width="800"
       y="-176"
       x="-130.438"
       id="SVGID_15_" />
    <clipPath
       id="_clipPath_f0UbNDBXQ8aHAFPmOgnXs5adxYD8xIe2">
      <rect
         id="rect252"
         height="30"
         width="121" />
    </clipPath>
  </defs>
  <title
     id="title14">Artboard 3 copy 40</title>
  <style
     id="style401"
     type="text/css">
	.st0{stroke:#000000;stroke-width:0.7024;stroke-miterlimit:10;}
	.st1{fill-rule:evenodd;clip-rule:evenodd;fill:url(#SVGID_1_);}
	.st2{fill-rule:evenodd;clip-rule:evenodd;fill:url(#SVGID_2_);}
	.st3{fill-rule:evenodd;clip-rule:evenodd;fill:url(#SVGID_3_);}
</style>
  <g
     id="g524"
     transform="matrix(0.32763442,0,0,0.33108194,-3.3589898,-13.966892)">
    <g
       id="Layer_1-7">
      <g
         id="g431" />
      <g
         id="g571"
         transform="matrix(1.0616328,0,0,1.308243,171.08886,126.89492)">
        <rect
           id="rect534"
           height="63.396999"
           width="518.69897"
           y="6.0939999"
           x="5.8000002"
           style="fill:none" />
        <path
           id="path536"
           d="m 93.333,64.877 c 12.264,0 19.022,-9.718 19.022,-27.266 0,-17.332 -6.759,-27.266 -19.022,-27.266 -12.254,0 -19.022,9.934 -19.022,26.847 0,17.967 6.552,27.685 19.022,27.685 m 0,-58.548 c 17.122,0 28.318,12.686 28.318,31.282 0,18.604 -11.415,31.505 -28.318,31.505 -16.699,0 -28.324,-13.327 -28.324,-31.505 0,-18.176 11.625,-31.282 28.324,-31.282"
           inkscape:connector-curvature="0" />
        <path
           id="path538"
           d="m 231.417,36.772 c 0,-16.493 -7.608,-25.798 -22.401,-25.798 -6.463,0 -9.047,0.426 -9.047,0.426 0,0 0.565,1.475 0.54,3.839 -0.057,5.27 -0.162,14.93 -0.162,22.379 0,8.135 0.182,16.829 0.306,21.863 0.066,2.688 -0.554,4.341 -0.554,4.341 0,0 2.454,0.426 7.856,0.426 15.638,0 23.462,-9.73 23.462,-27.476 m 9.092,-0.215 c 0,19.441 -10.992,31.492 -29.809,31.492 h -19.017 c 0,0 0.423,-19.232 0.423,-30.431 0,-11.002 -0.423,-30.234 -0.423,-30.234 h 21.771 c 17.756,0 27.055,9.94 27.055,29.173"
           inkscape:connector-curvature="0" />
        <path
           id="path540"
           d="m 425.153,64.877 c 12.26,0 19.022,-9.718 19.022,-27.266 0,-17.332 -6.763,-27.266 -19.022,-27.266 -12.267,0 -19.028,9.934 -19.028,26.847 0,17.967 6.546,27.685 19.028,27.685 m 0,-58.548 c 17.109,0 28.314,12.686 28.314,31.282 0,18.604 -11.415,31.505 -28.314,31.505 -16.709,0 -28.334,-13.327 -28.334,-31.505 0,-18.176 11.625,-31.282 28.334,-31.282"
           inkscape:connector-curvature="0" />
        <path
           id="path542"
           d="m 11.507,46.7 c 0,14.599 0.633,21.355 0.633,21.355 H 5.8 c 0,0 0.842,-24.527 0.842,-47.985 0,-4.018 -0.216,-12.687 -0.216,-12.687 h 4.452 c 0,0 16.9,23.974 28.146,39.57 1.271,1.755 2.873,4.64 4.03,6.839 0,0 -0.474,-4.138 -0.474,-7.888 V 28.739 C 42.58,13.168 41.731,7.384 41.731,7.384 h 6.333 c 0,0 -0.839,22.194 -0.839,47.985 0,2.542 0.207,12.687 0.207,12.687 h -4.43 c 0,0 -16.585,-23.637 -27.952,-39.405 -1.745,-2.415 -2.781,-4.094 -3.944,-6.413 0,0 0.4,5.161 0.4,7.881 V 46.7 Z"
           inkscape:connector-curvature="0" />
        <path
           id="path544"
           d="m 268.829,64.877 c 6.858,-0.184 12.127,-6.107 11.11,-12.647 -0.802,-5.192 -4.735,-8.307 -11.313,-12.082 -8.425,-4.817 -13.427,-8.345 -14.281,-16.41 -1.067,-10.049 7.341,-17.198 17.446,-17.618 5.707,-0.241 10.83,1.366 12.896,2.009 v 6.438 c 0,0 -4.837,-4.64 -12.47,-4.64 -5.311,0 -11.109,3.375 -11.109,9.362 0,5.319 4.185,7.875 11.535,12.19 9.807,5.777 14.739,10.417 14.739,19.111 0,10.779 -8.828,18.521 -19.392,18.521 -5.711,0 -11.101,-1.221 -12.896,-2.021 v -7.073 c 0.001,-0.001 5.076,5.108 13.735,4.86"
           inkscape:connector-curvature="0" />
        <path
           id="path546"
           d="m 335.627,7.384 v 5.727 c 0,0 -4.442,-1.48 -11.618,-1.48 h -3.979 c 0,0 0.127,1.602 0.102,3.87 0,0 -0.146,10.843 -0.146,13.868 0,16.912 0.845,38.681 0.845,38.681 h -9.508 c 0,0 0.852,-21.769 0.852,-38.681 0,-3.025 -0.152,-13.868 -0.152,-13.868 -0.038,-2.281 0.102,-3.87 0.102,-3.87 h -3.966 c -7.194,0 -11.631,1.48 -11.631,1.48 V 7.384 Z"
           inkscape:connector-curvature="0" />
        <path
           id="path548"
           d="m 524.296,68.03 h -8.962 c 0,0 -0.502,-22.138 -1.36,-37.709 -0.089,-1.855 -0.082,-4.214 -0.082,-6.762 0,0 -0.94,3.229 -2.352,6.553 l -16.633,39.379 c 0,0 -9.299,-21.272 -16.646,-37.244 -1.106,-2.402 -2.549,-6.609 -3.534,-8.688 0.134,3.323 -0.083,6.87 -0.279,9.559 -1.119,15.635 -1.424,34.912 -1.424,34.912 h -5.835 l 3.75,-60.659 h 5.212 c 0,0 11.192,25.194 18.368,40.606 0.908,1.926 2.021,4.163 2.466,6.203 0.705,-2.307 1.437,-4.245 2.225,-6.133 C 505.839,32.438 515.963,7.37 515.963,7.37 h 5.212 z"
           inkscape:connector-curvature="0" />
        <path
           id="path550"
           d="m 384.49,21.544 c 0,8.034 -5.06,13.531 -13.957,15.857 5.72,10.57 17.338,30.647 17.338,30.647 h -9.508 c 0,0 -5.065,-10.354 -18.178,-33.393 h 1.055 c 9.725,0 14.797,-4.017 14.797,-12.051 0,-6.979 -4.233,-11.414 -12.261,-11.414 -2.319,0 -5.961,0.082 -5.961,0.082 0,0 0.502,1.379 0.502,5.263 v 31.219 c 0,13.531 0.636,20.294 0.636,20.294 h -9.089 c 0,0 0.642,-23.885 0.642,-36.348 0,-8.67 -0.642,-24.317 -0.642,-24.317 h 17.923 c 10.792,0.001 16.703,5.079 16.703,14.161"
           inkscape:connector-curvature="0" />
        <path
           id="path552"
           d="m 173.221,21.544 c 0,8.034 -5.075,13.531 -13.954,15.857 5.708,10.57 17.332,30.647 17.332,30.647 h -9.508 c 0,0 -5.075,-10.354 -18.177,-33.393 h 1.061 c 9.715,0 14.787,-4.017 14.787,-12.051 0,-6.979 -4.224,-11.414 -12.257,-11.414 -2.323,0 -5.962,0.082 -5.962,0.082 0,0 0.509,1.379 0.509,5.263 v 31.219 c 0,13.531 0.632,20.294 0.632,20.294 h -9.092 c 0,0 0.636,-23.885 0.636,-36.348 0,-8.67 -0.636,-24.317 -0.636,-24.317 h 17.93 c 10.785,0.001 16.699,5.079 16.699,14.161"
           inkscape:connector-curvature="0" />
      </g>
    </g>
    <g
       id="Layer_2" />
  </g>
  <style
     id="style222"
     type="text/css">
	.st0{fill-rule:evenodd;clip-rule:evenodd;fill:#418ECC;}
	.st1{fill:#FFFFFF;}
</style>
</svg>
