<svg id="Layer_1" data-name="Layer 1" xmlns="http://www.w3.org/2000/svg" viewBox="0 0 255.12 85.04"><defs><style>.cls-1{fill:#f27321;fill-rule:evenodd;}</style></defs><title>Artboard 3 copy 24</title><path class="cls-1" d="M63.47,45.28c0,4.4,1.48,9.23,6.73,9.23s6.68-4.87,6.68-9.23S75.42,36.1,70.2,36.1s-6.73,4.77-6.73,9.18Zm-7.75,0c0-9.11,4.91-15.87,14.48-15.87s14.48,6.78,14.48,15.87S79.78,61.17,70.2,61.17,55.72,54.4,55.72,45.28ZM89.88,60.17V30.47H97v5.08c1.79-3.63,5-6.62,9.35-5.86l0,8.06H103.8c-4.31,0-6.27,2.56-6.27,6.72v15.7Zm37-3.68a10.34,10.34,0,0,1-9.23,4.74c-5.49,0-9.08-4-9.08-9.45,0-6.09,4.75-8.61,10.1-9.46.79-.12,1.82-.27,3.11-.43,3.24-.43,4.86-1.41,4.86-2.92,0-2.93-2-3.33-4.67-3.36-2.53,0-4.06,1.36-5.4,3.77l-6-3.58c1.8-4.3,6.7-6,11.16-6.39C127.35,29,134.85,32,134.85,39V60.17h-7.93V56.49Zm-.13-10.94a19.53,19.53,0,0,1-4.3,1.45c-1.71.39-4.12.71-5.35,2.07a3.69,3.69,0,0,0,3,6.07c4.15,0,6.66-2.65,6.66-6.78V45.55Zm14,14.62V30.47h7.49V34a10.38,10.38,0,0,1,8.64-4.32c6.61,0,9.44,3.91,9.44,10.25V60.17H158.7v-18c0-3.2-.67-5.93-4.41-5.93s-5.86,2.62-5.86,6.26V60.17Zm38.39-15.33c0,4.09,1.3,8.66,6.22,8.66s6.21-4.64,6.21-8.77-1.44-8.52-6.3-8.52-6.13,4.66-6.13,8.63ZM172.26,63l8.36,0c.55,2.26,2.42,3,4.58,3,5.17,0,6.4-2.49,6.4-7.38V56c-1.74,3.1-4.53,4.21-8,4.21-8.53,0-12.22-7.48-12.22-15.05s3.3-15.71,12.09-15.71a8.73,8.73,0,0,1,8.25,4.64V30.47H199V58.2a23.19,23.19,0,0,1-.84,7.13c-1.91,5.65-8.07,7-13.35,7-6.11,0-12.13-2.35-12.56-9.26Zm52.09-12.58,6.24,3.68c-2.12,4.31-8.3,7-12.84,7a12.15,12.15,0,0,1-9.83-4.32,17.87,17.87,0,0,1-4.06-11.74c0-8.42,4.54-15.7,13.78-15.7,4.84,0,8.27,1.75,10.49,4.62,2.64,3.4,3.38,8.17,2.77,13.38H212.05c.18,3.81,1.78,7,6.07,7a7.2,7.2,0,0,0,6.23-4Zm-12.3-9h11.63c0-3.3-2-5.4-5.88-5.4s-5.78,2-5.75,5.4ZM229,29.83h2.23V21.09h3.19v-1.9h-8.63v1.9H229v8.74Zm6.7,0V19.19H239l2.15,8.1,2.12-8.1h3.31V29.83h-2.09V21.25l-2.2,8.58H240l-2.23-8.58v8.58Z"/></svg>