<?xml version="1.0" encoding="UTF-8" standalone="no"?>
<svg
   xmlns:dc="http://purl.org/dc/elements/1.1/"
   xmlns:cc="http://creativecommons.org/ns#"
   xmlns:rdf="http://www.w3.org/1999/02/22-rdf-syntax-ns#"
   xmlns:svg="http://www.w3.org/2000/svg"
   xmlns="http://www.w3.org/2000/svg"
   xmlns:sodipodi="http://sodipodi.sourceforge.net/DTD/sodipodi-0.dtd"
   xmlns:inkscape="http://www.inkscape.org/namespaces/inkscape"
   id="Layer_1"
   data-name="Layer 1"
   viewBox="0 0 255.12 85.04"
   version="1.1"
   sodipodi:docname="Redbubble.svg"
   inkscape:version="0.92.4 (5da689c313, 2019-01-14)">
  <metadata
     id="metadata27">
    <rdf:RDF>
      <cc:Work
         rdf:about="">
        <dc:format>image/svg+xml</dc:format>
        <dc:type
           rdf:resource="http://purl.org/dc/dcmitype/StillImage" />
        <dc:title>Artboard 3 copy 40</dc:title>
      </cc:Work>
    </rdf:RDF>
  </metadata>
  <sodipodi:namedview
     pagecolor="#ffffff"
     bordercolor="#666666"
     borderopacity="1"
     objecttolerance="10"
     gridtolerance="10"
     guidetolerance="10"
     inkscape:pageopacity="0"
     inkscape:pageshadow="2"
     inkscape:window-width="640"
     inkscape:window-height="480"
     id="namedview25"
     showgrid="false"
     inkscape:zoom="1.3679837"
     inkscape:cx="127.56"
     inkscape:cy="42.52"
     inkscape:window-x="0"
     inkscape:window-y="0"
     inkscape:window-maximized="0"
     inkscape:current-layer="Layer_1" />
  <defs
     id="defs4">
    <style
       id="style2">.cls-1{fill:#2b5097;fill-rule:evenodd;}</style>
  </defs>
  <title
     id="title6">Artboard 3 copy 40</title>
  <g
     id="g43"
     transform="translate(45.999401,23.279954)">
    <path
       id="path29"
       d="m 68.434,34.027 -0.11764,-3.2012 c -0.06274,-1.7555 -0.19868,-5.8429 -0.19868,-5.8429 -0.07843,-2.5215 -0.59605,-4.4024 -3.1044,-5.0821 v -0.12026 c 2.1097,-0.84049 3.5815,-3.2025 3.5815,-6.4023 0,-5.0442 -2.3881,-7.3644 -7.0062,-7.3644 h -7.0847 v 28.013 h 4.5371 v -11.525 h 2.1894 c 1.7908,0 2.4287,1.081 2.4679,2.9607 l 0.16078,5.7645 a 123.59,123.59 0 0 1 0.0366,2.7999 h 4.5384 z M 63.9375,15.619 c -0.03921,1.6405 -0.59605,3.3619 -2.7463,3.3619 h -2.1515 v -8.8846 h 2.1894 c 2.0313,0 2.7868,1.8012 2.7476,3.3214 l -0.03921,2.2012 z m 133.81,18.408 v -4.1619 h -7.2846 v -8.3238 h 5.9318 v -4.1619 h -5.9318 v -7.2036 h 7.286 V 6.0139 h -11.824 v 28.013 h 11.824 -0.001 z m -14.461,0 v -4.1619 h -7.286 V 6.0141 h -4.5384 v 28.013 h 11.824 z m -20.76,0 c 3.3057,0 6.171,-2.4012 6.171,-7.963 0,-3.2822 -1.6313,-5.5632 -3.8221,-6.3239 v -0.15816 c 2.2705,-0.96074 3.6639,-3.2809 3.6639,-6.3631 0,-5.2024 -2.5489,-7.2036 -6.4102,-7.2036 h -7.6833 v 28.013 h 8.0807 v -0.0013 z m 1.2745,-19.049 c -0.0392,1.9999 -1.3542,2.9214 -2.5489,2.9214 h -2.3084 v -7.8036 h 2.23 c 1.911,0 2.7058,0.92022 2.6666,3.1606 l -0.0392,1.7215 z m 0.2392,11.605 c 0,2.2417 -0.91499,3.4025 -2.9071,3.4025 h -2.1894 v -8.4049 h 2.0705 c 1.911,0 3.026,1.362 3.026,3.2025 z m -18.546,7.4441 c 3.3044,0 6.1697,-2.4012 6.1697,-7.963 0,-3.2822 -1.6313,-5.5632 -3.8207,-6.3239 v -0.15816 c 2.2692,-0.96074 3.6626,-3.2809 3.6626,-6.3631 0,-5.2024 -2.5489,-7.2036 -6.4102,-7.2036 h -7.6833 v 28.013 h 8.082 v -0.0013 z m 1.2745,-19.049 c -0.0405,1.9999 -1.3542,2.9214 -2.5489,2.9214 h -2.3084 v -7.8036 h 2.2287 c 1.911,0 2.7071,0.92022 2.6666,3.1606 l -0.0392,1.7215 h 10e-4 z m 0.2379,11.605 c 0,2.2417 -0.91499,3.4025 -2.9058,3.4025 h -2.1894 v -8.4049 h 2.0692 c 1.911,0 3.026,1.362 3.026,3.2025 z m -19.706,7.9657 c 4.8168,0 6.886,-3.162 6.886,-7.5239 V 6.0139 h -4.2992 v 20.889 c 0,1.762 -0.43789,3.5227 -2.4679,3.5227 -2.1502,0 -2.5489,-2.0417 -2.5489,-3.4417 v -20.97 h -4.5384 v 21.33 c 0,4.8429 2.5489,7.2023 6.967,7.2023 l 0.001,0.0026 z m -15.607,-0.52024 c 3.3044,0 6.171,-2.4012 6.171,-7.963 0,-3.2822 -1.6326,-5.5632 -3.8221,-6.3239 v -0.15947 c 2.2692,-0.96074 3.6626,-3.2809 3.6626,-6.3631 0,-5.2024 -2.5489,-7.2036 -6.4089,-7.2036 h -7.6846 v 28.013 h 8.082 z m 1.2745,-19.049 c -0.0392,1.9999 -1.3542,2.9214 -2.5489,2.9214 h -2.3084 v -7.8036 h 2.2287 c 1.911,0 2.7084,0.92022 2.6679,3.1606 l -0.0392,1.7215 z m 0.2379,11.605 c 0,2.2417 -0.91499,3.4025 -2.9058,3.4025 h -2.1894 v -8.4049 h 2.0705 c 1.911,0 3.0247,1.362 3.0247,3.2025 z m -19.348,7.4441 c 4.1397,0 6.4494,-2.1607 6.4494,-6.7226 v -14.73 c 0,-4.4429 -2.3489,-6.5631 -6.5696,-6.5631 h -7.4441 v 28.013 h 7.5644 v 0.0026 z m 1.8705,-6.9226 c 0,1.7607 -0.55684,2.7999 -2.7868,2.7999 H 90.832 v -19.77 h 2.1502 c 2.2287,0 2.7868,1.3202 2.7868,2.8012 l -0.03921,14.168 -0.0013,0.0013 z m -24.166,6.92 v -28.012 h 11.824 v 4.1619 h -7.286 v 7.2023 h 5.9318 v 4.1645 h -5.9318 v 8.3238 h 7.286 v 4.1619 h -11.824 v -0.0026 z"
       inkscape:connector-curvature="0"
       style="fill:#333333" />
    <path
       id="path31"
       d="m 27.621,27.225 h -5.3279 a 0.53462,0.53462 0 0 1 -0.53331,-0.53592 v -13.372 c 0,-0.29541 0.2392,-0.53462 0.53331,-0.53462 h 4.9397 c 3.707,0 4.4848,2.1829 4.4848,4.0129 0,1.0588 -0.28103,1.8993 -0.83918,2.5162 1.3594,0.56076 2.0914,1.8248 2.0914,3.6534 0,2.6679 -1.9999,4.2599 -5.3488,4.2599 m -7.7356,0 h -11.066 a 0.53331,0.53331 0 0 1 -0.532,-0.53592 v -13.372 c 0,-0.29541 0.2379,-0.53462 0.532,-0.53462 h 5.1697 c 3.2286,0 5.1553,1.7385 5.1553,4.6508 0,1.9372 -0.97381,3.4587 -2.5437,4.0769 l 3.6822,4.8246 a 0.53592,0.53592 0 0 1 -0.39868,0.88885 m 0.01961,-27.188 c -11.037,0 -19.986,8.9486 -19.986,19.986 0,11.04 8.9486,19.989 19.987,19.989 11.0384,0 19.986,-8.9486 19.986,-19.987 0,-11.0384 -8.946,-19.986 -19.985,-19.986"
       inkscape:connector-curvature="0"
       style="fill:#e41321" />
  </g>
</svg>
