<?xml version="1.0" encoding="UTF-8" standalone="no"?>
<svg
   xmlns:dc="http://purl.org/dc/elements/1.1/"
   xmlns:cc="http://creativecommons.org/ns#"
   xmlns:rdf="http://www.w3.org/1999/02/22-rdf-syntax-ns#"
   xmlns:svg="http://www.w3.org/2000/svg"
   xmlns="http://www.w3.org/2000/svg"
   xmlns:xlink="http://www.w3.org/1999/xlink"
   xmlns:sodipodi="http://sodipodi.sourceforge.net/DTD/sodipodi-0.dtd"
   xmlns:inkscape="http://www.inkscape.org/namespaces/inkscape"
   id="Layer_1"
   data-name="Layer 1"
   viewBox="0 0 255.12 85.04"
   version="1.1"
   sodipodi:docname="SBD.svg"
   inkscape:version="0.92.4 (5da689c313, 2019-01-14)">
  <metadata
     id="metadata35">
    <rdf:RDF>
      <cc:Work
         rdf:about="">
        <dc:format>image/svg+xml</dc:format>
        <dc:type
           rdf:resource="http://purl.org/dc/dcmitype/StillImage" />
        <dc:title>Artboard 3 copy 40</dc:title>
      </cc:Work>
    </rdf:RDF>
  </metadata>
  <sodipodi:namedview
     pagecolor="#ffffff"
     bordercolor="#666666"
     borderopacity="1"
     objecttolerance="10"
     gridtolerance="10"
     guidetolerance="10"
     inkscape:pageopacity="0"
     inkscape:pageshadow="2"
     inkscape:window-width="1366"
     inkscape:window-height="705"
     id="namedview33"
     showgrid="false"
     inkscape:zoom="1.28"
     inkscape:cx="60.674694"
     inkscape:cy="77.905991"
     inkscape:window-x="-8"
     inkscape:window-y="-8"
     inkscape:window-maximized="1"
     inkscape:current-layer="Layer_1-7" />
  <defs
     id="defs12">
    <style
       id="style10">.cls-1{fill:#2b5097;fill-rule:evenodd;}</style>
    <clipPath
       clip-path="url(#SVGID_23_)"
       id="SVGID_24_-2">
      <use
         height="100%"
         width="100%"
         y="0"
         x="0"
         style="overflow:visible"
         id="use91-7"
         overflow="visible"
         xlink:href="#SVGID_15_" />
    </clipPath>
    <clipPath
       clip-path="url(#SVGID_23_)"
       id="clipPath3453">
      <use
         height="100%"
         width="100%"
         y="0"
         x="0"
         style="overflow:visible"
         id="use3455"
         overflow="visible"
         xlink:href="#SVGID_15_" />
    </clipPath>
    <clipPath
       clip-path="url(#SVGID_23_)"
       id="clipPath3457">
      <use
         height="100%"
         width="100%"
         y="0"
         x="0"
         style="overflow:visible"
         id="use3459"
         overflow="visible"
         xlink:href="#SVGID_15_" />
    </clipPath>
    <clipPath
       clip-path="url(#SVGID_23_)"
       id="clipPath3461">
      <use
         height="100%"
         width="100%"
         y="0"
         x="0"
         style="overflow:visible"
         id="use3463"
         overflow="visible"
         xlink:href="#SVGID_15_" />
    </clipPath>
    <clipPath
       clip-path="url(#SVGID_23_)"
       id="clipPath3465">
      <use
         height="100%"
         width="100%"
         y="0"
         x="0"
         style="overflow:visible"
         id="use3467"
         overflow="visible"
         xlink:href="#SVGID_15_" />
    </clipPath>
    <clipPath
       clip-path="url(#SVGID_23_)"
       id="clipPath3469">
      <use
         height="100%"
         width="100%"
         y="0"
         x="0"
         style="overflow:visible"
         id="use3471"
         overflow="visible"
         xlink:href="#SVGID_15_" />
    </clipPath>
    <clipPath
       clip-path="url(#SVGID_23_)"
       id="clipPath3473">
      <use
         height="100%"
         width="100%"
         y="0"
         x="0"
         style="overflow:visible"
         id="use3475"
         overflow="visible"
         xlink:href="#SVGID_15_" />
    </clipPath>
    <clipPath
       clip-path="url(#SVGID_23_)"
       id="clipPath3477">
      <use
         height="100%"
         width="100%"
         y="0"
         x="0"
         style="overflow:visible"
         id="use3479"
         overflow="visible"
         xlink:href="#SVGID_15_" />
    </clipPath>
    <clipPath
       id="SVGID_6_-3">
      <use
         height="100%"
         width="100%"
         y="0"
         x="0"
         style="overflow:visible"
         id="use33-6"
         overflow="visible"
         xlink:href="#SVGID_5_" />
    </clipPath>
    <clipPath
       clip-path="url(#SVGID_23_)"
       id="clipPath3483">
      <use
         height="100%"
         width="100%"
         y="0"
         x="0"
         style="overflow:visible"
         id="use3485"
         overflow="visible"
         xlink:href="#SVGID_15_" />
    </clipPath>
    <clipPath
       clip-path="url(#SVGID_23_)"
       id="SVGID_24_-2-4">
      <use
         height="100%"
         width="100%"
         y="0"
         x="0"
         style="overflow:visible"
         id="use91-7-4"
         overflow="visible"
         xlink:href="#SVGID_15_" />
    </clipPath>
    <clipPath
       clip-path="url(#SVGID_23_)"
       id="clipPath3626">
      <use
         height="100%"
         width="100%"
         y="0"
         x="0"
         style="overflow:visible"
         id="use3628"
         overflow="visible"
         xlink:href="#SVGID_15_" />
    </clipPath>
    <clipPath
       clip-path="url(#SVGID_23_)"
       id="clipPath3630">
      <use
         height="100%"
         width="100%"
         y="0"
         x="0"
         style="overflow:visible"
         id="use3632"
         overflow="visible"
         xlink:href="#SVGID_15_" />
    </clipPath>
    <clipPath
       clip-path="url(#SVGID_23_)"
       id="clipPath3634">
      <use
         height="100%"
         width="100%"
         y="0"
         x="0"
         style="overflow:visible"
         id="use3636"
         overflow="visible"
         xlink:href="#SVGID_15_" />
    </clipPath>
    <clipPath
       clip-path="url(#SVGID_23_)"
       id="clipPath3638">
      <use
         height="100%"
         width="100%"
         y="0"
         x="0"
         style="overflow:visible"
         id="use3640"
         overflow="visible"
         xlink:href="#SVGID_15_" />
    </clipPath>
    <clipPath
       clip-path="url(#SVGID_23_)"
       id="clipPath3642">
      <use
         height="100%"
         width="100%"
         y="0"
         x="0"
         style="overflow:visible"
         id="use3644"
         overflow="visible"
         xlink:href="#SVGID_15_" />
    </clipPath>
    <clipPath
       clip-path="url(#SVGID_23_)"
       id="clipPath3646">
      <use
         height="100%"
         width="100%"
         y="0"
         x="0"
         style="overflow:visible"
         id="use3648"
         overflow="visible"
         xlink:href="#SVGID_15_" />
    </clipPath>
    <clipPath
       clip-path="url(#SVGID_23_)"
       id="clipPath3650">
      <use
         height="100%"
         width="100%"
         y="0"
         x="0"
         style="overflow:visible"
         id="use3652"
         overflow="visible"
         xlink:href="#SVGID_15_" />
    </clipPath>
    <clipPath
       clip-path="url(#SVGID_23_)"
       id="SVGID_24_-2-8">
      <use
         height="100%"
         width="100%"
         y="0"
         x="0"
         style="overflow:visible"
         id="use91-7-7"
         overflow="visible"
         xlink:href="#SVGID_15_" />
    </clipPath>
    <clipPath
       clip-path="url(#SVGID_23_)"
       id="clipPath3790">
      <use
         height="100%"
         width="100%"
         y="0"
         x="0"
         style="overflow:visible"
         id="use3792"
         overflow="visible"
         xlink:href="#SVGID_15_" />
    </clipPath>
    <clipPath
       clip-path="url(#SVGID_23_)"
       id="clipPath3794">
      <use
         height="100%"
         width="100%"
         y="0"
         x="0"
         style="overflow:visible"
         id="use3796"
         overflow="visible"
         xlink:href="#SVGID_15_" />
    </clipPath>
    <clipPath
       clip-path="url(#SVGID_23_)"
       id="clipPath3798">
      <use
         height="100%"
         width="100%"
         y="0"
         x="0"
         style="overflow:visible"
         id="use3800"
         overflow="visible"
         xlink:href="#SVGID_15_" />
    </clipPath>
    <clipPath
       clip-path="url(#SVGID_23_)"
       id="clipPath3802">
      <use
         height="100%"
         width="100%"
         y="0"
         x="0"
         style="overflow:visible"
         id="use3804"
         overflow="visible"
         xlink:href="#SVGID_15_" />
    </clipPath>
    <clipPath
       clip-path="url(#SVGID_23_)"
       id="clipPath3806">
      <use
         height="100%"
         width="100%"
         y="0"
         x="0"
         style="overflow:visible"
         id="use3808"
         overflow="visible"
         xlink:href="#SVGID_15_" />
    </clipPath>
    <clipPath
       clip-path="url(#SVGID_23_)"
       id="clipPath3810">
      <use
         height="100%"
         width="100%"
         y="0"
         x="0"
         style="overflow:visible"
         id="use3812"
         overflow="visible"
         xlink:href="#SVGID_15_" />
    </clipPath>
    <clipPath
       clip-path="url(#SVGID_23_)"
       id="clipPath3814">
      <use
         height="100%"
         width="100%"
         y="0"
         x="0"
         style="overflow:visible"
         id="use3816"
         overflow="visible"
         xlink:href="#SVGID_15_" />
    </clipPath>
    <clipPath
       clip-path="url(#SVGID_23_)"
       id="clipPath3818">
      <use
         height="100%"
         width="100%"
         y="0"
         x="0"
         style="overflow:visible"
         id="use3820"
         overflow="visible"
         xlink:href="#SVGID_15_" />
    </clipPath>
    <clipPath
       id="SVGID_6_-3-4">
      <use
         height="100%"
         width="100%"
         y="0"
         x="0"
         style="overflow:visible"
         id="use33-6-5"
         overflow="visible"
         xlink:href="#SVGID_5_" />
    </clipPath>
    <clipPath
       clip-path="url(#SVGID_23_)"
       id="SVGID_24_-2-8-1">
      <use
         height="100%"
         width="100%"
         y="0"
         x="0"
         style="overflow:visible"
         id="use91-7-7-4"
         overflow="visible"
         xlink:href="#SVGID_15_" />
    </clipPath>
    <clipPath
       id="SVGID_6_-3-4-6">
      <use
         height="100%"
         width="100%"
         y="0"
         x="0"
         style="overflow:visible"
         id="use33-6-5-6"
         overflow="visible"
         xlink:href="#SVGID_5_" />
    </clipPath>
    <clipPath
       clip-path="url(#SVGID_23_)"
       id="SVGID_24_-2-8-3">
      <use
         height="100%"
         width="100%"
         y="0"
         x="0"
         style="overflow:visible"
         id="use91-7-7-0"
         overflow="visible"
         xlink:href="#SVGID_15_" />
    </clipPath>
    <clipPath
       clip-path="url(#SVGID_23_)"
       id="clipPath3951">
      <use
         height="100%"
         width="100%"
         y="0"
         x="0"
         style="overflow:visible"
         id="use3953"
         overflow="visible"
         xlink:href="#SVGID_15_" />
    </clipPath>
    <clipPath
       clip-path="url(#SVGID_23_)"
       id="clipPath3955">
      <use
         height="100%"
         width="100%"
         y="0"
         x="0"
         style="overflow:visible"
         id="use3957"
         overflow="visible"
         xlink:href="#SVGID_15_" />
    </clipPath>
    <clipPath
       clip-path="url(#SVGID_23_)"
       id="clipPath3959">
      <use
         height="100%"
         width="100%"
         y="0"
         x="0"
         style="overflow:visible"
         id="use3961"
         overflow="visible"
         xlink:href="#SVGID_15_" />
    </clipPath>
    <clipPath
       clip-path="url(#SVGID_23_)"
       id="clipPath3963">
      <use
         height="100%"
         width="100%"
         y="0"
         x="0"
         style="overflow:visible"
         id="use3965"
         overflow="visible"
         xlink:href="#SVGID_15_" />
    </clipPath>
    <clipPath
       clip-path="url(#SVGID_23_)"
       id="clipPath3967">
      <use
         height="100%"
         width="100%"
         y="0"
         x="0"
         style="overflow:visible"
         id="use3969"
         overflow="visible"
         xlink:href="#SVGID_15_" />
    </clipPath>
    <clipPath
       clip-path="url(#SVGID_23_)"
       id="clipPath3971">
      <use
         height="100%"
         width="100%"
         y="0"
         x="0"
         style="overflow:visible"
         id="use3973"
         overflow="visible"
         xlink:href="#SVGID_15_" />
    </clipPath>
    <clipPath
       clip-path="url(#SVGID_23_)"
       id="clipPath3975">
      <use
         height="100%"
         width="100%"
         y="0"
         x="0"
         style="overflow:visible"
         id="use3977"
         overflow="visible"
         xlink:href="#SVGID_15_" />
    </clipPath>
    <rect
       height="500"
       width="800"
       y="-176"
       x="-130.438"
       id="SVGID_1_" />
    <rect
       height="500"
       width="800"
       y="-176"
       x="-130.438"
       id="SVGID_3_" />
    <rect
       height="146.554"
       width="144.311"
       y="0.72299999"
       x="0.47600001"
       id="SVGID_5_" />
    <rect
       height="500"
       width="800"
       y="-176"
       x="-130.438"
       id="SVGID_7_" />
    <rect
       height="500"
       width="800"
       y="-176"
       x="-130.438"
       id="SVGID_8_" />
    <rect
       height="500"
       width="800"
       y="-176"
       x="-130.438"
       id="SVGID_9_" />
    <rect
       height="500"
       width="800"
       y="-176"
       x="-130.438"
       id="SVGID_10_" />
    <rect
       height="500"
       width="800"
       y="-176"
       x="-130.438"
       id="SVGID_11_" />
    <rect
       height="500"
       width="800"
       y="-176"
       x="-130.438"
       id="SVGID_12_" />
    <rect
       height="500"
       width="800"
       y="-176"
       x="-130.438"
       id="SVGID_13_" />
    <rect
       height="500"
       width="800"
       y="-176"
       x="-130.438"
       id="SVGID_14_" />
    <rect
       height="500"
       width="800"
       y="-176"
       x="-130.438"
       id="SVGID_15_" />
    <clipPath
       id="_clipPath_f0UbNDBXQ8aHAFPmOgnXs5adxYD8xIe2">
      <rect
         id="rect252"
         height="30"
         width="121" />
    </clipPath>
    <clipPath
       id="clipPath4651">
      <path
         id="path4653"
         d="m 0,731.321 206.17,0 0,31.214 -206.17,0 0,-31.214 z" />
    </clipPath>
  </defs>
  <title
     id="title14">Artboard 3 copy 40</title>
  <style
     id="style401"
     type="text/css">
	.st0{stroke:#000000;stroke-width:0.7024;stroke-miterlimit:10;}
	.st1{fill-rule:evenodd;clip-rule:evenodd;fill:url(#SVGID_1_);}
	.st2{fill-rule:evenodd;clip-rule:evenodd;fill:url(#SVGID_2_);}
	.st3{fill-rule:evenodd;clip-rule:evenodd;fill:url(#SVGID_3_);}
</style>
  <g
     id="g524"
     transform="matrix(0.32763442,0,0,0.33108194,-3.3589898,-13.966892)">
    <g
       id="Layer_1-7">
      <g
         id="g431" />
      <g
         id="layer1"
         transform="matrix(1.0030076,0,0,1.5857882,22.944527,-674.69031)">
        <g
           id="g7762"
           transform="matrix(2.8713996,0,0,2.8713996,-385.1603,-1146.2176)">
          <g
             id="g4643"
             transform="matrix(1.25,0,0,-1.25,142.20255,603.28829)">
            <path
               style="fill:#ffd20a;fill-opacity:1;fill-rule:nonzero;stroke:none"
               id="path4645"
               d="M 0,0 H 179.454 L 197.44,31.162 H 0 Z"
               inkscape:connector-curvature="0" />
          </g>
          <g
             id="g4647"
             transform="matrix(1.25,0,0,-1.25,141.72867,1518.019)">
            <g
               id="g4649"
               clip-path="url(#clipPath4651)">
              <g
                 id="g4655"
                 transform="translate(34.548904,751.66051)">
                <path
                   style="fill:#000000;fill-opacity:1;fill-rule:nonzero;stroke:none"
                   id="path4657"
                   d="m 0,0 c -0.741,0.562 -1.552,0.808 -2.541,0.808 -1.04,0 -1.915,-0.659 -1.915,-1.451 0,-0.462 0.28,-0.841 1.058,-1.106 l 1.32,-0.447 c 1.484,-0.493 2.258,-1.286 2.258,-2.588 0,-2.495 -2.128,-4.54 -5.561,-4.54 -1.617,0 -2.821,0.428 -3.776,1.04 l 1.219,1.766 c 0.959,-0.563 1.815,-0.891 2.969,-0.891 1.456,0 2.395,0.759 2.395,1.898 0,0.579 -0.397,0.959 -1.221,1.237 L -5,-3.861 c -1.302,0.444 -2.095,1.073 -2.095,2.41 0,2.311 2.177,4.191 4.899,4.191 1.404,0 2.743,-0.428 3.584,-1.154 z"
                   inkscape:connector-curvature="0" />
              </g>
              <g
                 id="g4659"
                 transform="translate(40.7229,749.51601)">
                <path
                   style="fill:#000000;fill-opacity:1;fill-rule:nonzero;stroke:none"
                   id="path4661"
                   d="M 0,0 H -1.469 L -2.36,-4.241 c -0.066,-0.279 -0.084,-0.547 -0.084,-0.744 0,-0.461 0.248,-0.611 0.745,-0.611 0.196,0 0.577,0.068 0.823,0.166 v -1.338 c -0.642,-0.245 -1.304,-0.363 -1.879,-0.363 -1.271,0 -1.998,0.627 -1.998,1.453 0,0.297 0.033,0.693 0.117,1.09 L -3.664,0 h -0.841 l 0.328,1.519 h 0.844 c 0.165,0.826 0.28,1.369 0.511,1.997 l 2.327,0.561 C -0.744,3.301 -0.989,2.376 -1.173,1.519 h 1.966 z"
                   inkscape:connector-curvature="0" />
              </g>
              <g
                 id="g4663"
                 transform="translate(46.086899,749.4826)">
                <path
                   style="fill:#000000;fill-opacity:1;fill-rule:nonzero;stroke:none"
                   id="path4665"
                   d="m 0,0 c -0.547,0 -0.957,-0.033 -1.551,-0.727 -0.693,-0.824 -1.041,-2.491 -1.041,-3.613 0,-0.761 0.199,-1.089 0.678,-1.089 0.693,0 1.402,0.709 1.635,1.318 l 0.874,3.98 C 0.496,-0.066 0.199,0 0,0 m 2.56,-0.942 -0.677,-3.2 C 1.733,-4.869 1.798,-5.361 2.194,-5.794 l -1.83,-1.368 c -0.397,0.264 -0.578,0.707 -0.643,1.04 -0.629,-0.662 -1.322,-1.007 -2.246,-1.007 -1.535,0 -2.326,0.941 -2.326,2.691 0,2.028 0.773,3.828 1.781,4.835 0.923,0.924 1.962,1.319 3.367,1.319 0.991,0 2.095,-0.163 2.807,-0.576 C 2.922,0.629 2.69,-0.299 2.56,-0.942"
                   inkscape:connector-curvature="0" />
              </g>
              <g
                 id="g4667"
                 transform="translate(53.004303,751.31531)">
                <path
                   style="fill:#000000;fill-opacity:1;fill-rule:nonzero;stroke:none"
                   id="path4669"
                   d="m 0,0 c 0.148,-0.28 0.248,-1.007 0.215,-1.37 0.707,0.758 1.615,1.269 2.852,1.269 1.074,0 1.701,-0.643 1.701,-1.666 0,-0.364 -0.052,-0.825 -0.131,-1.189 L 3.416,-8.731 H 1.237 l 1.174,5.496 c 0.063,0.33 0.112,0.577 0.112,0.758 0,0.414 -0.18,0.529 -0.578,0.529 -0.527,0 -1.153,-0.33 -1.846,-1.27 l -1.174,-5.513 h -2.178 l 1.205,5.693 c 0.198,0.924 0.181,1.651 0,2.229 z"
                   inkscape:connector-curvature="0" />
              </g>
              <g
                 id="g4671"
                 transform="translate(62.691406,752.2722)">
                <path
                   style="fill:#000000;fill-opacity:1;fill-rule:nonzero;stroke:none"
                   id="path4673"
                   d="m 0,0 -1.338,-6.254 c -0.214,-0.99 -0.279,-1.405 -0.279,-1.636 0,-0.312 0.132,-0.479 0.429,-0.479 0.083,0 0.166,0 0.246,0.034 l 0.101,-1.321 c -0.397,-0.148 -0.891,-0.231 -1.371,-0.231 -1.187,0 -1.749,0.643 -1.749,1.518 0,0.299 0.116,0.928 0.248,1.535 l 1.334,6.306 c 0.234,1.105 0.364,1.881 0.201,2.442 l 2.343,0.71 C 0.232,2.244 0.232,1.072 0,0"
                   inkscape:connector-curvature="0" />
              </g>
              <g
                 id="g4675"
                 transform="translate(66.553406,747.55321)">
                <path
                   style="fill:#000000;fill-opacity:1;fill-rule:nonzero;stroke:none"
                   id="path4677"
                   d="m 0,0 c 0.959,0 2.063,0.329 2.063,1.17 0,0.513 -0.23,0.874 -0.89,0.874 C 0.33,2.044 -0.299,1.55 -0.628,0.082 -0.628,0.082 -0.299,0 0,0 M 3.25,-4.046 C 2.112,-4.837 1.007,-5.2 -0.182,-5.2 c -2.013,0 -3.199,1.057 -3.199,3.101 0,1.751 0.774,3.55 1.898,4.641 0.837,0.807 1.779,1.119 2.905,1.119 1.664,0 2.868,-0.659 2.868,-2.31 0,-1.6 -1.469,-2.904 -4.272,-2.904 -0.578,0 -1.009,0.117 -1.009,0.117 0,0 -0.082,-0.546 -0.082,-0.76 0,-0.958 0.496,-1.352 1.421,-1.352 0.757,0 1.549,0.329 2.342,0.889 z"
                   inkscape:connector-curvature="0" />
              </g>
              <g
                 id="g4679"
                 transform="translate(74.212097,751.16611)">
                <path
                   style="fill:#000000;fill-opacity:1;fill-rule:nonzero;stroke:none"
                   id="path4681"
                   d="m 0,0 0.414,-4.936 c 0.031,-0.508 0.065,-1.748 0.065,-1.748 0,0 0.578,1.469 1.138,2.525 l 2.129,4.028 H 6.121 L 1.222,-8.715 c -0.924,-1.634 -1.503,-2.341 -2.214,-2.787 -0.644,-0.413 -1.416,-0.676 -2.211,-0.774 l -0.444,1.484 c 0.511,0.115 1.106,0.298 1.485,0.527 0.677,0.409 0.94,0.791 1.468,1.683 h -0.609 c -0.034,0.628 -0.115,1.651 -0.216,2.377 l -0.759,5.941 z"
                   inkscape:connector-curvature="0" />
              </g>
              <g
                 id="g4683"
                 transform="translate(83.660995,749.4646)">
                <path
                   style="fill:#000000;fill-opacity:1;fill-rule:nonzero;stroke:none"
                   id="path4685"
                   d="m 0,0 h 1.353 c 0.631,0 0.926,0.132 1.208,0.332 0.361,0.264 0.693,0.726 0.693,1.286 0,0.711 -0.316,1.008 -1.27,1.008 H 0.548 Z m -1.053,-5 h 1.501 c 0.479,0 0.889,0.132 1.187,0.333 0.513,0.345 0.874,1.056 0.874,1.7 0,0.807 -0.444,1.071 -1.467,1.071 h -1.437 z m 3.811,9.59 c 1.735,0 2.985,-0.826 2.985,-2.476 0,-1.123 -0.707,-2.409 -2.406,-2.906 1.054,-0.229 1.716,-1.154 1.716,-2.226 0,-0.725 -0.299,-1.85 -1.074,-2.643 C 3.136,-6.519 2.181,-6.88 0.398,-6.88 h -4.16 l 2.444,11.47 z"
                   inkscape:connector-curvature="0" />
              </g>
              <g
                 id="g4687"
                 transform="translate(93.9617,752.2722)">
                <path
                   style="fill:#000000;fill-opacity:1;fill-rule:nonzero;stroke:none"
                   id="path4689"
                   d="m 0,0 -1.337,-6.254 c -0.215,-0.99 -0.281,-1.405 -0.281,-1.636 0,-0.312 0.133,-0.479 0.43,-0.479 0.081,0 0.164,0 0.248,0.034 l 0.099,-1.321 c -0.397,-0.148 -0.892,-0.231 -1.373,-0.231 -1.186,0 -1.747,0.643 -1.747,1.518 0,0.299 0.115,0.928 0.246,1.535 l 1.339,6.306 c 0.231,1.105 0.366,1.881 0.197,2.442 l 2.343,0.71 C 0.23,2.244 0.23,1.072 0,0"
                   inkscape:connector-curvature="0" />
              </g>
              <g
                 id="g4691"
                 transform="translate(99.542099,749.4826)">
                <path
                   style="fill:#000000;fill-opacity:1;fill-rule:nonzero;stroke:none"
                   id="path4693"
                   d="m 0,0 c -0.546,0 -0.959,-0.033 -1.554,-0.727 -0.691,-0.824 -1.037,-2.491 -1.037,-3.613 0,-0.761 0.197,-1.089 0.676,-1.089 0.693,0 1.401,0.709 1.633,1.318 l 0.875,3.98 C 0.493,-0.066 0.197,0 0,0 m 2.558,-0.942 -0.68,-3.2 C 1.729,-4.869 1.797,-5.361 2.195,-5.794 L 0.361,-7.162 c -0.395,0.264 -0.576,0.707 -0.643,1.04 -0.627,-0.662 -1.319,-1.007 -2.243,-1.007 -1.535,0 -2.329,0.941 -2.329,2.691 0,2.028 0.778,3.828 1.786,4.835 0.921,0.924 1.96,1.319 3.364,1.319 0.991,0 2.095,-0.163 2.807,-0.576 C 2.919,0.629 2.689,-0.299 2.558,-0.942"
                   inkscape:connector-curvature="0" />
              </g>
              <g
                 id="g4695"
                 transform="translate(109.1628,748.88811)">
                <path
                   style="fill:#000000;fill-opacity:1;fill-rule:nonzero;stroke:none"
                   id="path4697"
                   d="m 0,0 c -0.363,0.413 -0.84,0.628 -1.253,0.628 -0.399,0 -0.743,-0.164 -1.041,-0.496 -0.61,-0.693 -1.171,-2.439 -1.171,-3.746 0,-0.875 0.412,-1.253 1.006,-1.253 0.61,0 1.222,0.345 1.848,0.842 l 0.742,-1.372 c -0.923,-0.71 -1.864,-1.121 -3.104,-1.121 -1.878,0 -2.9,1.089 -2.9,2.904 0,2.096 0.974,4.011 2.143,5.001 0.757,0.644 1.6,1.007 2.774,1.007 0.775,0 1.631,-0.315 2.242,-1.007 z"
                   inkscape:connector-curvature="0" />
              </g>
              <g
                 id="g4699"
                 transform="translate(119.2789,751.0351)">
                <path
                   style="fill:#000000;fill-opacity:1;fill-rule:nonzero;stroke:none"
                   id="path4701"
                   d="M 0,0 -3.448,-3.665 -1.17,-8.451 H -3.778 L -5.594,-3.665 -2.738,0 Z m -4.439,3.861 c 0.114,-0.412 0.098,-1.419 -0.28,-3.186 l -1.947,-9.126 h -2.211 l 1.983,9.276 c 0.244,1.172 0.279,1.847 0.164,2.326 z"
                   inkscape:connector-curvature="0" />
              </g>
              <g
                 id="g4703"
                 transform="translate(125.40269,751.2317)">
                <path
                   style="fill:#000000;fill-opacity:1;fill-rule:nonzero;stroke:none"
                   id="path4705"
                   d="m 0,0 c 0,0.479 -0.33,0.81 -0.824,0.81 -0.728,0 -1.336,-0.611 -1.336,-1.355 0,-0.345 0.147,-0.726 0.658,-1.319 C -0.561,-1.484 0,-0.742 0,0 m -3.924,-6.057 c 0,-0.758 0.56,-1.204 1.549,-1.204 0.79,0 1.435,0.215 1.878,0.592 l -2.145,2.577 c -0.82,-0.445 -1.282,-1.122 -1.282,-1.965 m 7.358,3.021 C 3.24,-4.159 2.774,-5.444 2.182,-6.271 L 4.078,-8.647 H 1.159 L 0.596,-7.92 c -0.808,-0.564 -1.783,-0.958 -3.385,-0.958 -2.291,0 -3.563,1.137 -3.563,2.642 0,1.383 0.957,2.607 2.776,3.364 -0.681,0.629 -0.862,1.174 -0.862,1.899 0,1.832 1.7,3.317 3.927,3.317 1.701,0 2.774,-0.841 2.774,-2.047 0,-1.27 -0.463,-2.228 -2.545,-3.186 L -0.497,-2.988 1.024,-4.82 c 0.298,0.465 0.528,1.47 0.562,1.784 z"
                   inkscape:connector-curvature="0" />
              </g>
              <g
                 id="g4707"
                 transform="translate(133.32719,744.4649)">
                <path
                   style="fill:#000000;fill-opacity:1;fill-rule:nonzero;stroke:none"
                   id="path4709"
                   d="m 0,0 h 1.138 c 0.989,0 1.734,0.545 2.146,1.191 1.023,1.599 1.239,3.91 1.239,4.52 0,1.056 -0.299,2.063 -1.831,2.063 H 1.648 Z M 2.329,9.59 C 4.241,9.59 5.416,9.376 6.138,8.467 6.667,7.789 7.012,7.033 7.012,5.678 7.012,3.796 6.334,1.339 4.92,-0.164 3.712,-1.437 2.559,-1.881 0.033,-1.881 H -2.759 L -0.317,9.59 Z"
                   inkscape:connector-curvature="0" />
              </g>
              <g
                 id="g4711"
                 transform="translate(144.3022,747.55321)">
                <path
                   style="fill:#000000;fill-opacity:1;fill-rule:nonzero;stroke:none"
                   id="path4713"
                   d="m 0,0 c 0.958,0 2.063,0.329 2.063,1.17 0,0.513 -0.23,0.874 -0.888,0.874 C 0.33,2.044 -0.294,1.55 -0.628,0.082 -0.628,0.082 -0.294,0 0,0 M 3.249,-4.046 C 2.113,-4.837 1.008,-5.2 -0.181,-5.2 c -2.012,0 -3.203,1.057 -3.203,3.101 0,1.751 0.778,3.55 1.901,4.641 0.839,0.807 1.782,1.119 2.903,1.119 1.665,0 2.87,-0.659 2.87,-2.31 0,-1.6 -1.466,-2.904 -4.274,-2.904 -0.577,0 -1.005,0.117 -1.005,0.117 0,0 -0.082,-0.546 -0.082,-0.76 0,-0.958 0.493,-1.352 1.419,-1.352 0.76,0 1.552,0.329 2.341,0.889 z"
                   inkscape:connector-curvature="0" />
              </g>
              <g
                 id="g4715"
                 transform="translate(155.2123,748.88811)">
                <path
                   style="fill:#000000;fill-opacity:1;fill-rule:nonzero;stroke:none"
                   id="path4717"
                   d="m 0,0 c -0.363,0.413 -0.842,0.628 -1.253,0.628 -0.396,0 -0.745,-0.164 -1.038,-0.496 -0.613,-0.693 -1.174,-2.439 -1.174,-3.746 0,-0.875 0.41,-1.253 1.005,-1.253 0.614,0 1.222,0.345 1.852,0.842 l 0.741,-1.372 c -0.925,-0.71 -1.862,-1.121 -3.102,-1.121 -1.885,0 -2.909,1.089 -2.909,2.904 0,2.096 0.977,4.011 2.149,5.001 0.76,0.644 1.599,1.007 2.772,1.007 0.775,0 1.631,-0.315 2.244,-1.007 z"
                   inkscape:connector-curvature="0" />
              </g>
              <g
                 id="g4719"
                 transform="translate(165.3273,751.0351)">
                <path
                   style="fill:#000000;fill-opacity:1;fill-rule:nonzero;stroke:none"
                   id="path4721"
                   d="m 0,0 -3.445,-3.665 2.278,-4.786 H -3.776 L -5.594,-3.665 -2.736,0 Z M -4.438,3.861 C -4.321,3.449 -4.339,2.442 -4.719,0.675 l -1.948,-9.126 h -2.21 l 1.98,9.276 c 0.248,1.172 0.282,1.847 0.166,2.326 z"
                   inkscape:connector-curvature="0" />
              </g>
              <g
                 id="g4723"
                 transform="translate(168.466,747.55321)">
                <path
                   style="fill:#000000;fill-opacity:1;fill-rule:nonzero;stroke:none"
                   id="path4725"
                   d="M 0,0 C 0.957,0 2.064,0.329 2.064,1.17 2.064,1.683 1.833,2.044 1.17,2.044 0.33,2.044 -0.296,1.55 -0.628,0.082 -0.628,0.082 -0.296,0 0,0 M 3.251,-4.046 C 2.113,-4.837 1.008,-5.2 -0.18,-5.2 c -2.016,0 -3.206,1.057 -3.206,3.101 0,1.751 0.778,3.55 1.9,4.641 0.844,0.807 1.784,1.119 2.908,1.119 1.666,0 2.866,-0.659 2.866,-2.31 0,-1.6 -1.467,-2.904 -4.273,-2.904 -0.578,0 -1.006,0.117 -1.006,0.117 0,0 -0.082,-0.546 -0.082,-0.76 0,-0.958 0.495,-1.352 1.419,-1.352 0.761,0 1.554,0.329 2.345,0.889 z"
                   inkscape:connector-curvature="0" />
              </g>
              <g
                 id="g4727"
                 transform="translate(176.5033,751.31531)">
                <path
                   style="fill:#000000;fill-opacity:1;fill-rule:nonzero;stroke:none"
                   id="path4729"
                   d="m 0,0 c 0.135,-0.28 0.266,-0.893 0.199,-1.37 0.743,0.758 1.534,1.286 2.361,1.286 0.313,0 0.462,-0.033 0.759,-0.181 L 2.363,-2.212 c -0.199,0.115 -0.398,0.165 -0.644,0.165 -0.428,0 -0.909,-0.248 -1.6,-1.155 l -1.173,-5.529 h -2.213 l 1.188,5.579 c 0.229,1.055 0.199,1.797 0.033,2.343 z"
                   inkscape:connector-curvature="0" />
              </g>
            </g>
          </g>
        </g>
      </g>
    </g>
    <g
       id="Layer_2" />
  </g>
</svg>
