<?xml version="1.0" encoding="UTF-8" standalone="no"?>
<svg
   xmlns:dc="http://purl.org/dc/elements/1.1/"
   xmlns:cc="http://creativecommons.org/ns#"
   xmlns:rdf="http://www.w3.org/1999/02/22-rdf-syntax-ns#"
   xmlns:svg="http://www.w3.org/2000/svg"
   xmlns="http://www.w3.org/2000/svg"
   xmlns:sodipodi="http://sodipodi.sourceforge.net/DTD/sodipodi-0.dtd"
   xmlns:inkscape="http://www.inkscape.org/namespaces/inkscape"
   id="Layer_1"
   data-name="Layer 1"
   viewBox="0 0 255.12 85.04"
   version="1.1"
   sodipodi:docname="Allianz.svg"
   inkscape:version="0.92.4 (5da689c313, 2019-01-14)">
  <metadata
     id="metadata62">
    <rdf:RDF>
      <cc:Work
         rdf:about="">
        <dc:format>image/svg+xml</dc:format>
        <dc:type
           rdf:resource="http://purl.org/dc/dcmitype/StillImage" />
        <dc:title>Artboard 3 copy 40</dc:title>
      </cc:Work>
    </rdf:RDF>
  </metadata>
  <sodipodi:namedview
     pagecolor="#ffffff"
     bordercolor="#666666"
     borderopacity="1"
     objecttolerance="10"
     gridtolerance="10"
     guidetolerance="10"
     inkscape:pageopacity="0"
     inkscape:pageshadow="2"
     inkscape:window-width="1920"
     inkscape:window-height="1017"
     id="namedview60"
     showgrid="false"
     inkscape:zoom="2.445993"
     inkscape:cx="78.317842"
     inkscape:cy="51.052637"
     inkscape:window-x="-8"
     inkscape:window-y="-8"
     inkscape:window-maximized="1"
     inkscape:current-layer="Layer_1" />
  <defs
     id="defs39">
    <style
       id="style37">.cls-1{fill:#2b5097;fill-rule:evenodd;}</style>
    <style
       id="style75">.cls-1{fill:#ba2f7d;}.cls-2{fill:#5c6670;}</style>
  </defs>
  <title
     id="title41">Artboard 3 copy 40</title>
  <g
     data-name="Capa 2"
     id="Capa_2"
     transform="translate(13.564387,15.178306)">
    <g
       data-name="Capa 1"
       id="Capa_1-2"
       transform="translate(30)">
      <path
         id="path81"
         d="M 32.58,52.41 H 8.83 a 2.94,2.94 0 0 1 0,-5.87 H 32.58 A 14.58,14.58 0 0 0 47.34,32.19 14.58,14.58 0 0 0 32.58,17.83 h -12 a 2.73,2.73 0 1 0 0,5.45 h 12.46 a 8.6,8.6 0 1 1 0,17.19 H 20.63 A 20.45,20.45 0 0 1 0,20.23 20.45,20.45 0 0 1 20.63,0 h 22.74 a 2.94,2.94 0 0 1 0,5.87 H 20.63 A 14.58,14.58 0 0 0 5.87,20.23 14.58,14.58 0 0 0 20.63,34.58 h 12.42 a 2.73,2.73 0 1 0 0,-5.45 H 20.59 a 8.6,8.6 0 1 1 0,-17.19 h 12 A 20.45,20.45 0 0 1 53.21,32.19 20.45,20.45 0 0 1 32.58,52.41 Z"
         class="cls-1"
         inkscape:connector-curvature="0"
         style="fill:#ba2f7d" />
      <path
         id="path83"
         d="m 90.56,13.39 a 2.58,2.58 0 0 1 -3.29,-0.31 c -1.9,-1.92 -4.24,-3.2 -8.35,-3.2 -4.76,0 -8,2.09 -8,6.27 0,4.75 3.69,6.38 9.7,7.42 7.91,1.34 12.73,4.12 12.73,11.55 0,5.22 -3.57,11.2 -13.8,11.2 -5.4,0 -9.63,-1.45 -12.68,-4.31 a 2.42,2.42 0 0 1 0.32,-3.79 l 0.14,-0.09 a 2.55,2.55 0 0 1 3.18,0.27 c 2.21,2.16 4.61,3.39 9,3.39 6.72,0 8.68,-3 8.68,-6.44 0,-3.77 -2,-6.32 -9.7,-7.48 -7.7,-1.16 -12.66,-4.76 -12.66,-11.72 0,-5.75 3.87,-10.79 13.27,-10.79 5.35,0 9.06,1.43 11.84,4.35 a 2.43,2.43 0 0 1 -0.38,3.68 z"
         class="cls-2"
         inkscape:connector-curvature="0"
         style="fill:#5c6670" />
      <path
         id="path85"
         d="M 116.83,5.82 C 126.41,5.82 131,9.36 131,16 a 9.13,9.13 0 0 1 -6.79,9 c 5.17,0.92 8.09,4.29 8.09,9.39 0,5.81 -3.63,11.49 -14.16,11.49 h -10.2 A 3.63,3.63 0 0 1 104.27,42.3 V 9.4 a 3.63,3.63 0 0 1 3.67,-3.58 z m -7.44,17 h 8.33 c 5.77,0 8.15,-2.84 8.15,-6.79 0,-3.54 -1.84,-5.74 -9,-5.74 h -7.44 z m 0,18.51 h 8.75 c 6.19,0 9,-2.61 9,-7 0,-4.81 -3.21,-7 -10,-7 h -7.79 z"
         class="cls-2"
         inkscape:connector-curvature="0"
         style="fill:#5c6670" />
      <path
         id="path87"
         d="m 166,13.39 a 2.59,2.59 0 0 1 -3.3,-0.31 c -1.89,-1.92 -4.24,-3.2 -8.34,-3.2 -4.76,0 -8,2.09 -8,6.27 0,4.75 3.69,6.38 9.7,7.42 7.92,1.34 12.74,4.12 12.74,11.55 0,5.22 -3.57,11.2 -13.81,11.2 -5.39,0 -9.62,-1.45 -12.68,-4.31 a 2.43,2.43 0 0 1 0.32,-3.79 l 0.14,-0.09 a 2.56,2.56 0 0 1 3.19,0.27 c 2.21,2.16 4.6,3.39 9,3.39 6.73,0 8.69,-3 8.69,-6.44 0,-3.77 -2,-6.32 -9.7,-7.48 -7.7,-1.16 -12.74,-4.76 -12.74,-11.72 0,-5.75 3.87,-10.79 13.28,-10.79 5.34,0 9.06,1.43 11.83,4.36 a 2.42,2.42 0 0 1 -0.37,3.67 z"
         class="cls-2"
         inkscape:connector-curvature="0"
         style="fill:#5c6670" />
    </g>
  </g>
</svg>
