<svg id="Layer_1" data-name="Layer 1" xmlns="http://www.w3.org/2000/svg" viewBox="0 0 255.12 85.04"><defs><style>.cls-1{fill:#de282a;}.cls-2{fill:#932c2d;}.cls-3{fill:#20a24a;}.cls-4{fill:#43aa4a;}.cls-5{fill:#333;}.cls-6{fill:#4d4d4d;}</style></defs><title>Artboard 3 copy 96</title><path class="cls-1" d="M96.16,25.52S89.48,30,92,35.91A189.31,189.31,0,0,1,103.3,53S99.86,34.1,96.16,25.52Z"/><path class="cls-2" d="M81,36.21s6.42-4.82,11.05-.3A160.39,160.39,0,0,1,103.3,53S87.68,42.73,81,36.21Z"/><path class="cls-3" d="M85.45,37.39s5.66-4,10.29.47a189.88,189.88,0,0,1,11.73,16.66S92.14,43.91,85.45,37.39Z"/><path class="cls-4" d="M98.8,27.5S93,31.4,95.66,37.31a205.64,205.64,0,0,0,11.81,17.21S102.59,36,98.8,27.5Z"/><path class="cls-5" d="M106.25,36.83l3.07-.3a3.77,3.77,0,0,0,1.13,2.28,3.42,3.42,0,0,0,2.29.72,3.6,3.6,0,0,0,2.3-.64,2,2,0,0,0,.77-1.51,1.43,1.43,0,0,0-.33-1,2.51,2.51,0,0,0-1.13-.67c-.37-.13-1.21-.36-2.53-.69a8.45,8.45,0,0,1-3.56-1.55,4,4,0,0,1-1.44-3.14,3.93,3.93,0,0,1,.68-2.23,4.18,4.18,0,0,1,2-1.59,7.84,7.84,0,0,1,3.07-.54A6.63,6.63,0,0,1,117,27.31a4.56,4.56,0,0,1,1.56,3.44l-3.16.14a2.63,2.63,0,0,0-.87-1.73,3.18,3.18,0,0,0-2-.53,3.57,3.57,0,0,0-2.15.57,1.12,1.12,0,0,0-.5,1,1.19,1.19,0,0,0,.47.95,8.25,8.25,0,0,0,2.9,1,14.92,14.92,0,0,1,3.4,1.13,4.23,4.23,0,0,1,1.73,1.59,4.88,4.88,0,0,1-.12,5,4.45,4.45,0,0,1-2.11,1.75,8.88,8.88,0,0,1-3.4.57,6.8,6.8,0,0,1-4.56-1.37A6,6,0,0,1,106.25,36.83Z"/><path class="cls-5" d="M120.91,36.1a6.11,6.11,0,0,1,.73-2.89,5.08,5.08,0,0,1,2.09-2.14,6.18,6.18,0,0,1,3-.73A5.62,5.62,0,0,1,131,32a5.74,5.74,0,0,1,1.64,4.21,5.87,5.87,0,0,1-1.65,4.27,5.65,5.65,0,0,1-4.18,1.69,6.56,6.56,0,0,1-3-.71,4.87,4.87,0,0,1-2.15-2.06A6.89,6.89,0,0,1,120.91,36.1Zm3.07.16a3.78,3.78,0,0,0,.8,2.58,2.63,2.63,0,0,0,3.94,0,3.81,3.81,0,0,0,.79-2.6,3.72,3.72,0,0,0-.79-2.56,2.61,2.61,0,0,0-3.94,0A3.74,3.74,0,0,0,124,36.26Z"/><path class="cls-5" d="M142.39,41.92v-1.7a4.23,4.23,0,0,1-1.62,1.43,4.54,4.54,0,0,1-2.13.53,4.13,4.13,0,0,1-2-.51,2.94,2.94,0,0,1-1.31-1.41,6.22,6.22,0,0,1-.41-2.5V30.59h3V35.8a14.16,14.16,0,0,0,.17,2.92,1.61,1.61,0,0,0,.6.86,1.84,1.84,0,0,0,1.11.31,2.39,2.39,0,0,0,1.38-.42,2.18,2.18,0,0,0,.83-1,12.25,12.25,0,0,0,.22-3.06V30.59h3V41.92Z"/><path class="cls-5" d="M153.48,30.59V33h-2v4.57a11,11,0,0,0,.06,1.61.71.71,0,0,0,.26.38.85.85,0,0,0,.51.15,3.87,3.87,0,0,0,1.2-.29l.26,2.33a6,6,0,0,1-2.36.45,3.64,3.64,0,0,1-1.47-.28,2.09,2.09,0,0,1-.95-.7,2.73,2.73,0,0,1-.42-1.17,13.49,13.49,0,0,1-.1-2.11V33h-1.37V30.59h1.37V28.34l3-1.74v4Z"/><path class="cls-5" d="M158.54,26.28V32A4.42,4.42,0,0,1,162,30.34a4.53,4.53,0,0,1,1.87.38,3.08,3.08,0,0,1,1.25,1A3.54,3.54,0,0,1,165.7,33a11.26,11.26,0,0,1,.16,2.25v6.65h-3v-6a9,9,0,0,0-.17-2.26,1.44,1.44,0,0,0-.6-.77,1.93,1.93,0,0,0-1.08-.28,2.51,2.51,0,0,0-1.34.36,2.18,2.18,0,0,0-.86,1.1,6.52,6.52,0,0,0-.27,2.16v5.67h-3V26.28Z"/><path class="cls-5" d="M175.45,38.31l3,.5a4.9,4.9,0,0,1-1.82,2.51,5.35,5.35,0,0,1-3.11.86,5.08,5.08,0,0,1-4.37-1.93A6.48,6.48,0,0,1,168,36.34a6.25,6.25,0,0,1,1.47-4.41,4.88,4.88,0,0,1,3.73-1.59,5,5,0,0,1,4,1.67c1,1.11,1.44,2.81,1.4,5.11h-7.51a3,3,0,0,0,.73,2.07,2.26,2.26,0,0,0,1.73.75,1.8,1.8,0,0,0,1.18-.39A2.32,2.32,0,0,0,175.45,38.31Zm.18-3a2.91,2.91,0,0,0-.68-2,2,2,0,0,0-1.55-.68,2.11,2.11,0,0,0-1.63.71,2.8,2.8,0,0,0-.62,1.95Z"/><path class="cls-5" d="M183.28,34.05l-2.72-.49a4.25,4.25,0,0,1,1.58-2.43,5.77,5.77,0,0,1,3.33-.79,7.32,7.32,0,0,1,3,.47A3,3,0,0,1,189.84,32a6.25,6.25,0,0,1,.4,2.68l0,3.5a11.85,11.85,0,0,0,.14,2.2,5.94,5.94,0,0,0,.54,1.52h-3c-.08-.2-.17-.49-.29-.89,0-.17-.08-.29-.1-.35a5.31,5.31,0,0,1-1.65,1.12,4.65,4.65,0,0,1-1.86.38,3.87,3.87,0,0,1-2.76-1,3.19,3.19,0,0,1-1-2.4,3.26,3.26,0,0,1,.46-1.71A3,3,0,0,1,182,36a10.32,10.32,0,0,1,2.38-.7,16,16,0,0,0,2.91-.73v-.3a1.55,1.55,0,0,0-.42-1.23,2.53,2.53,0,0,0-1.61-.37,2.22,2.22,0,0,0-1.25.31A2.27,2.27,0,0,0,183.28,34.05Zm4,2.43a18.41,18.41,0,0,1-1.82.46,5.54,5.54,0,0,0-1.63.52,1.26,1.26,0,0,0-.59,1.06,1.49,1.49,0,0,0,.47,1.09,1.65,1.65,0,0,0,1.2.45,2.54,2.54,0,0,0,1.54-.53,1.94,1.94,0,0,0,.72-1,6.5,6.5,0,0,0,.11-1.46Z"/><path class="cls-5" d="M192.14,38.69l3-.46a2.23,2.23,0,0,0,.78,1.33,2.64,2.64,0,0,0,1.64.45,2.91,2.91,0,0,0,1.75-.43.92.92,0,0,0,.4-.8.79.79,0,0,0-.21-.56,2.44,2.44,0,0,0-1-.4,16,16,0,0,1-4.59-1.46,2.91,2.91,0,0,1-1.35-2.55,3.13,3.13,0,0,1,1.17-2.47,5.39,5.39,0,0,1,3.6-1,6.37,6.37,0,0,1,3.46.75,3.89,3.89,0,0,1,1.55,2.25l-2.82.52a1.82,1.82,0,0,0-.69-1,2.57,2.57,0,0,0-1.45-.35,3.23,3.23,0,0,0-1.69.33.69.69,0,0,0-.05,1.16,12.25,12.25,0,0,0,2.8.84,8.3,8.3,0,0,1,3.35,1.33,2.79,2.79,0,0,1,.94,2.23,3.43,3.43,0,0,1-1.31,2.68,5.78,5.78,0,0,1-3.85,1.12,6.36,6.36,0,0,1-3.66-.94A4.31,4.31,0,0,1,192.14,38.69Z"/><path class="cls-5" d="M210.53,30.59V33h-2v4.57a11,11,0,0,0,.06,1.61.62.62,0,0,0,.26.38.85.85,0,0,0,.51.15,3.87,3.87,0,0,0,1.2-.29l.26,2.33a6,6,0,0,1-2.37.45A3.59,3.59,0,0,1,207,41.9a2.09,2.09,0,0,1-.95-.7,2.73,2.73,0,0,1-.43-1.17,15.46,15.46,0,0,1-.09-2.11V33H204.1V30.59h1.38V28.34l3-1.74v4Z"/><path class="cls-5" d="M219.17,38.31l3,.5a5,5,0,0,1-1.82,2.51,5.35,5.35,0,0,1-3.11.86,5.07,5.07,0,0,1-4.37-1.93,6.48,6.48,0,0,1-1.12-3.91,6.25,6.25,0,0,1,1.47-4.41,4.85,4.85,0,0,1,3.72-1.59,5,5,0,0,1,4,1.67c1,1.11,1.44,2.81,1.4,5.11h-7.51a3,3,0,0,0,.72,2.07,2.27,2.27,0,0,0,1.73.75,1.83,1.83,0,0,0,1.19-.39A2.32,2.32,0,0,0,219.17,38.31Zm.17-3a2.86,2.86,0,0,0-.67-2,2.07,2.07,0,0,0-1.56-.68,2.11,2.11,0,0,0-1.62.71,2.86,2.86,0,0,0-.63,1.95Z"/><path class="cls-5" d="M227.63,41.92h-3V30.59h2.79V32.2a4.73,4.73,0,0,1,1.28-1.5,2.37,2.37,0,0,1,1.3-.36,3.85,3.85,0,0,1,2,.56L231,33.52a2.6,2.6,0,0,0-1.41-.5,1.65,1.65,0,0,0-1.06.35,2.4,2.4,0,0,0-.69,1.25,17.67,17.67,0,0,0-.25,3.8Z"/><path class="cls-5" d="M243.56,41.92h-3V36.14a8.82,8.82,0,0,0-.19-2.37,1.72,1.72,0,0,0-.62-.84,1.79,1.79,0,0,0-1-.3,2.37,2.37,0,0,0-1.4.43,2.18,2.18,0,0,0-.85,1.13,9.9,9.9,0,0,0-.23,2.6v5.13h-3V30.59H236v1.67a4.64,4.64,0,0,1,5.55-1.56,3,3,0,0,1,1.24.91,3.48,3.48,0,0,1,.59,1.26,10.12,10.12,0,0,1,.16,2Z"/><path class="cls-6" d="M186.71,53V51.41h5.75v5A10.32,10.32,0,0,1,189.73,58a8.21,8.21,0,0,1-2.89.53,7.72,7.72,0,0,1-3.63-.86,5.59,5.59,0,0,1-2.46-2.47,7.76,7.76,0,0,1-.84-3.62,8.46,8.46,0,0,1,.83-3.7,5.57,5.57,0,0,1,2.38-2.55,7.55,7.55,0,0,1,3.59-.83,7,7,0,0,1,2.65.48,4.45,4.45,0,0,1,1.87,1.32,6,6,0,0,1,1,2.23l-1.62.44a5.27,5.27,0,0,0-.76-1.63,3.19,3.19,0,0,0-1.3-.95,4.69,4.69,0,0,0-1.87-.35,5.43,5.43,0,0,0-2.12.37,3.88,3.88,0,0,0-1.45,1,4.65,4.65,0,0,0-.86,1.34,7.21,7.21,0,0,0-.52,2.73,6.54,6.54,0,0,0,.63,3,4,4,0,0,0,1.82,1.82,5.66,5.66,0,0,0,2.53.59,6,6,0,0,0,2.28-.45,5.82,5.82,0,0,0,1.68-1V53Z"/><path class="cls-6" d="M194.87,58.33V48.5h1.5V50a4,4,0,0,1,1.06-1.38,1.88,1.88,0,0,1,1.07-.33,3.31,3.31,0,0,1,1.71.53l-.57,1.55a2.41,2.41,0,0,0-1.22-.36,1.57,1.57,0,0,0-1,.33,1.75,1.75,0,0,0-.62.91,6.32,6.32,0,0,0-.28,1.94v5.15Z"/><path class="cls-6" d="M200.58,53.41a5.07,5.07,0,0,1,1.52-4,4.58,4.58,0,0,1,3.09-1.09,4.38,4.38,0,0,1,3.31,1.33,5,5,0,0,1,1.29,3.66,6.52,6.52,0,0,1-.57,3A4,4,0,0,1,207.56,58a4.8,4.8,0,0,1-2.37.6,4.38,4.38,0,0,1-3.33-1.33A5.27,5.27,0,0,1,200.58,53.41Zm1.71,0a4.19,4.19,0,0,0,.83,2.83,2.74,2.74,0,0,0,4.13,0,4.29,4.29,0,0,0,.83-2.88,4,4,0,0,0-.83-2.76,2.62,2.62,0,0,0-2.06-.94,2.65,2.65,0,0,0-2.07.93A4.15,4.15,0,0,0,202.29,53.41Z"/><path class="cls-6" d="M218.15,54.73l1.64.21a4.28,4.28,0,0,1-1.37,2.65,4,4,0,0,1-2.72,1,4.22,4.22,0,0,1-3.24-1.32,5.34,5.34,0,0,1-1.23-3.78,6.91,6.91,0,0,1,.53-2.79,3.73,3.73,0,0,1,1.6-1.79,4.85,4.85,0,0,1,2.35-.59,4.08,4.08,0,0,1,2.62.81,3.68,3.68,0,0,1,1.3,2.3l-1.62.25a2.61,2.61,0,0,0-.82-1.49,2.06,2.06,0,0,0-1.41-.5,2.58,2.58,0,0,0-2.05.9,4.29,4.29,0,0,0-.79,2.85,4.47,4.47,0,0,0,.76,2.88,2.48,2.48,0,0,0,2,.9,2.34,2.34,0,0,0,1.64-.6A2.94,2.94,0,0,0,218.15,54.73Z"/><path class="cls-6" d="M227.94,55.16l1.72.21a4.19,4.19,0,0,1-1.51,2.35,4.55,4.55,0,0,1-2.81.83,4.47,4.47,0,0,1-3.42-1.33,5.19,5.19,0,0,1-1.26-3.72,5.38,5.38,0,0,1,1.28-3.85,4.29,4.29,0,0,1,3.31-1.37,4.22,4.22,0,0,1,3.22,1.34,5.34,5.34,0,0,1,1.25,3.78c0,.09,0,.24,0,.44h-7.33a3.78,3.78,0,0,0,.92,2.48,2.73,2.73,0,0,0,2,.86,2.59,2.59,0,0,0,1.57-.48A3.2,3.2,0,0,0,227.94,55.16Zm-5.47-2.69H228a3.25,3.25,0,0,0-.63-1.86,2.55,2.55,0,0,0-2.06-1,2.64,2.64,0,0,0-1.93.76A3.1,3.1,0,0,0,222.47,52.47Z"/><path class="cls-6" d="M231.74,58.33V48.5h1.5V50a3.92,3.92,0,0,1,1.06-1.38,1.85,1.85,0,0,1,1.06-.33,3.34,3.34,0,0,1,1.72.53l-.58,1.55a2.38,2.38,0,0,0-1.22-.36,1.59,1.59,0,0,0-1,.33,1.75,1.75,0,0,0-.62.91,6.64,6.64,0,0,0-.28,1.94v5.15Z"/><path class="cls-6" d="M237.4,55.39l1.65-.25a2.28,2.28,0,0,0,.77,1.51,2.69,2.69,0,0,0,1.77.53,2.59,2.59,0,0,0,1.7-.47,1.39,1.39,0,0,0,.56-1.09,1,1,0,0,0-.49-.89,7.25,7.25,0,0,0-1.7-.57,15.21,15.21,0,0,1-2.54-.8,2.42,2.42,0,0,1-1.08-.93,2.52,2.52,0,0,1-.36-1.32,2.56,2.56,0,0,1,.3-1.22,2.71,2.71,0,0,1,.82-.93,3.39,3.39,0,0,1,1.06-.48,4.71,4.71,0,0,1,1.43-.2,5.78,5.78,0,0,1,2,.33,2.77,2.77,0,0,1,1.29.9,3.71,3.71,0,0,1,.57,1.53l-1.63.22a1.8,1.8,0,0,0-.64-1.19,2.4,2.4,0,0,0-1.51-.42,2.64,2.64,0,0,0-1.63.38,1.09,1.09,0,0,0-.49.89.89.89,0,0,0,.2.58,1.51,1.51,0,0,0,.64.44c.17.06.65.21,1.47.43a20.12,20.12,0,0,1,2.47.77,2.49,2.49,0,0,1,1.09.87,2.43,2.43,0,0,1,.4,1.43,2.77,2.77,0,0,1-.49,1.57,3.13,3.13,0,0,1-1.4,1.14,5.23,5.23,0,0,1-2.07.4,4.62,4.62,0,0,1-2.92-.8A3.7,3.7,0,0,1,237.4,55.39Z"/></svg>