<?xml version="1.0" encoding="UTF-8" standalone="no"?>
<svg
   xmlns:dc="http://purl.org/dc/elements/1.1/"
   xmlns:cc="http://creativecommons.org/ns#"
   xmlns:rdf="http://www.w3.org/1999/02/22-rdf-syntax-ns#"
   xmlns:svg="http://www.w3.org/2000/svg"
   xmlns="http://www.w3.org/2000/svg"
   xmlns:sodipodi="http://sodipodi.sourceforge.net/DTD/sodipodi-0.dtd"
   xmlns:inkscape="http://www.inkscape.org/namespaces/inkscape"
   id="Layer_1"
   data-name="Layer 1"
   viewBox="0 0 255.12 85.04"
   version="1.1"
   sodipodi:docname="Semana.svg"
   inkscape:version="0.92.4 (5da689c313, 2019-01-14)">
  <metadata
     id="metadata35">
    <rdf:RDF>
      <cc:Work
         rdf:about="">
        <dc:format>image/svg+xml</dc:format>
        <dc:type
           rdf:resource="http://purl.org/dc/dcmitype/StillImage" />
        <dc:title>Artboard 3 copy 40</dc:title>
      </cc:Work>
    </rdf:RDF>
  </metadata>
  <sodipodi:namedview
     pagecolor="#ffffff"
     bordercolor="#666666"
     borderopacity="1"
     objecttolerance="10"
     gridtolerance="10"
     guidetolerance="10"
     inkscape:pageopacity="0"
     inkscape:pageshadow="2"
     inkscape:window-width="1366"
     inkscape:window-height="705"
     id="namedview33"
     showgrid="false"
     inkscape:zoom="1.2229965"
     inkscape:cx="8.7520193"
     inkscape:cy="144.47545"
     inkscape:window-x="-8"
     inkscape:window-y="-8"
     inkscape:window-maximized="1"
     inkscape:current-layer="g204" />
  <defs
     id="defs12">
    <style
       id="style10">.cls-1{fill:#2b5097;fill-rule:evenodd;}</style>
  </defs>
  <title
     id="title14">Artboard 3 copy 40</title>
  <g
     id="g204"
     transform="matrix(0.40557904,0,0,0.50158878,7.4575678,28.070971)">
    <g
       id="g118"
       transform="matrix(1.696768,0,0,1.3772243,116.93104,-9.7808864)">
	<g
   id="g90">
		<path
   id="path26"
   d="m 31.5,5.8 c 0,0 0,0 0,0 0,0 -0.1,-0.1 -0.1,-0.1 C 30.8,5.1 30.3,4.5 29.7,4 c 0,0 0.1,0.1 0.1,0.1 z"
   inkscape:connector-curvature="0" />

		<path
   id="path28"
   d="m 9.4,10.5 c 0,0.1 0,0.3 0,0.5 0,0 0,0 0,0 0,0 0,0 0,0 0,0.1 0,0.3 0,0.4 0,0 0,0.1 0,0.1 0,0.1 0,0.3 0.1,0.4 0,0 0,0 0,0.1 0,0.1 0.1,0.3 0.1,0.4 0,0 0,0 0,0.1 0,0.1 0.1,0.3 0.2,0.5 0,0 0,0 0,0 0,0 0,0 0,0.1 0,0.1 0.1,0.2 0.1,0.2 0,0 0,0.1 0.1,0.1 0,0.1 0.1,0.2 0.1,0.3 0,0 0,0.1 0.1,0.1 0.1,0.1 0.1,0.2 0.2,0.4 0,0 0,0 0,0 0.1,0.1 0.2,0.2 0.2,0.4 0,0 0,0 0,0 0,0 0,0 0.1,0.1 0.1,0.1 0.2,0.2 0.3,0.4 0,0 0.1,0.1 0.1,0.1 0.1,0.1 0.3,0.3 0.4,0.4 0.6,0.6 1.1,1.2 1.7,1.7 -0.1,-0.1 -0.3,-0.3 -0.4,-0.4 0,0 -0.1,-0.1 -0.1,-0.1 -0.1,-0.1 -0.2,-0.2 -0.3,-0.3 0,0 -0.1,-0.1 -0.1,-0.1 -0.1,-0.1 -0.2,-0.2 -0.2,-0.3 0,0 0,0 0,0 C 12,16 12,15.9 11.9,15.7 c 0,0 0,-0.1 -0.1,-0.1 0,-0.1 -0.1,-0.2 -0.1,-0.2 0,0 0,-0.1 -0.1,-0.1 0,-0.1 -0.1,-0.1 -0.1,-0.2 0,0 0,-0.1 0,-0.1 -0.1,-0.2 -0.1,-0.3 -0.2,-0.4 0,0 0,0 0,-0.1 0,-0.1 -0.1,-0.3 -0.1,-0.4 0,0 0,0 0,-0.1 0,-0.1 -0.1,-0.3 -0.1,-0.4 0,0 0,-0.1 0,-0.1 0,-0.1 0,-0.3 0,-0.4 0,0 0,0 0,0 0,-0.2 0,-0.3 0,-0.5 0,-0.2 0,-0.3 0,-0.5 0,0 0,0 0,-0.1 0,-0.1 0,-0.2 0,-0.3 0,0 0,0 0,0 0,-0.1 0,-0.2 0.1,-0.3 0,0 0,-0.1 0,-0.1 0,-0.1 0,-0.2 0.1,-0.3 0,0 0,0 0,-0.1 0,-0.1 0.1,-0.2 0.1,-0.3 0,0 0,-0.1 0,-0.1 0,-0.1 0.1,-0.2 0.1,-0.3 0,0 0,0 0,-0.1 0.1,-0.1 0.1,-0.2 0.2,-0.3 0,0 0,0 0,-0.1 0.3,-0.5 0.4,-0.6 0.4,-0.7 0,0 0,0 0,0 0.1,-0.1 0.2,-0.2 0.3,-0.4 0,0 0,-0.1 0.1,-0.1 0,0 0.1,-0.1 0.1,-0.1 0,0 0.1,-0.1 0.1,-0.1 0,0 0.1,-0.1 0.1,-0.1 0,0 0.1,-0.1 0.1,-0.1 0.1,-0.1 0.2,-0.2 0.2,-0.2 0,0 0.1,-0.1 0.1,-0.1 0.1,-0.1 0.1,-0.1 0.2,-0.2 0,0 0,0 0.1,0 0.1,-0.1 0.2,-0.1 0.3,-0.2 0,0 0.1,0 0.1,-0.1 0.1,0 0.1,-0.1 0.2,-0.1 0,0 0.1,-0.1 0.1,-0.1 C 14.3,7 14.4,7 14.4,7 c 0.1,0 0.1,-0.1 0.2,-0.1 0.1,0 0.1,-0.1 0.2,-0.1 0.1,0 0.1,0 0.2,-0.1 0.1,0 0.1,-0.1 0.2,-0.1 0.1,0 0.1,0 0.2,-0.1 0.1,0 0.2,-0.1 0.2,-0.1 0.1,0 0.1,0 0.2,-0.1 0.1,0 0.2,0 0.2,-0.1 0.1,0 0.1,0 0.2,-0.1 0.1,0 0.2,0 0.3,-0.1 0.1,0 0.1,0 0.2,0 0.1,0 0.2,0 0.3,0 0.1,0 0.1,0 0.2,0 0.1,0 0.2,0 0.3,0 0.1,0 0.1,0 0.2,0 0.1,0 0.2,0 0.4,0 0.1,0 0.1,0 0.2,0 0.2,0 0.4,0 0.6,0 4.9,0 8.7,2.6 11.3,5.2 C 29.6,10.6 29.1,10 28.5,9.5 27.9,8.9 27.1,8.2 26.4,7.6 c 0,0 0,0 0,0 0,0 -0.1,0 -0.1,-0.1 -2.4,-1.8 -5.4,-3.2 -9,-3.2 -0.2,0 -0.4,0 -0.6,0 -0.1,0 -0.1,0 -0.2,0 -0.1,0 -0.2,0 -0.4,0 -0.1,0 -0.1,0 -0.2,0 -0.1,0 -0.2,0 -0.3,0 -0.1,0 -0.1,0 -0.2,0 -0.1,0 -0.2,0 -0.3,0 -0.1,0 -0.1,0 -0.2,0 -0.1,0 -0.2,0 -0.3,0.1 -0.1,0 -0.1,0 -0.2,0.1 -0.1,0 -0.2,0 -0.2,0.1 -0.1,0 -0.1,0 -0.2,0.1 -0.1,0 -0.2,0.1 -0.2,0.1 -0.1,0 -0.1,0 -0.2,0.1 -0.1,0 -0.2,0.1 -0.2,0.1 -0.1,0 -0.1,0 -0.2,0.1 -0.1,0 -0.1,0.1 -0.2,0.1 0,0 -0.1,0 -0.1,0.1 -0.1,0 -0.1,0.1 -0.2,0.1 0,0 -0.1,0 -0.1,0.1 -0.1,0 -0.2,0.1 -0.2,0.2 0,0 -0.1,0 -0.1,0.1 C 12.2,5.9 12.1,5.9 12,6 v 0 c -0.1,0.1 -0.2,0.1 -0.3,0.2 0,0 0,0 -0.1,0.1 -0.1,0.1 -0.1,0.1 -0.2,0.2 0,0 -0.1,0.1 -0.1,0.1 C 11.1,6.4 11,6.5 11,6.5 c 0,0 -0.1,0.1 -0.1,0.1 0,0.1 -0.1,0.1 -0.1,0.2 0,0 0,0 0,0 0,0 0,0 0,0 -0.1,0.1 -0.2,0.2 -0.3,0.4 0,0 0,0 0,0 -0.1,0.1 -0.2,0.2 -0.2,0.4 0,0 0,0 0,0 0,0 0,0 0,0 C 10.1,7.8 10,7.9 10,8 c 0,0 0,0 0,0.1 0,0.1 -0.1,0.2 -0.1,0.3 0,0 0,0 0,0 0,0 0,0 0,0 0,0.1 -0.1,0.2 -0.1,0.3 0,0 0,0 0,0.1 0,0.1 -0.1,0.2 -0.1,0.3 0,0 0,0 0,0 0,0 0,0 0,0 0,0.1 0,0.2 -0.1,0.3 0,0 0,0 0,0 0,0.1 0,0.2 0,0.3 0,0 0,0 0,0 0,0 0,0 0,0 -0.2,0.4 -0.2,0.6 -0.2,0.8 z"
   inkscape:connector-curvature="0" />

		<polygon
   id="polygon30"
   points="37.7,16.6 37.8,2.4 36.1,0.6 36,14.9 32.5,14.9 34.2,16.6 " />

		<path
   id="path32"
   d="m 4.3,40.6 c 0,0.1 0,0.1 0.1,0.2 0,0 0,0 0,0 0,0.1 0.1,0.2 0.1,0.3 0,0 0,0.1 0,0.1 0.1,0.1 0.1,0.3 0.2,0.4 0,0 0,0.1 0.1,0.1 0.1,0.1 0.1,0.2 0.2,0.3 0,0.1 0,0.2 0,0.3 0.1,0.1 0.1,0.2 0.2,0.3 0,0.1 0.1,0.1 0.1,0.2 0.1,0.1 0.1,0.2 0.2,0.3 0,0.1 0.1,0.1 0.1,0.2 0.1,0.1 0.1,0.2 0.2,0.3 0,0.1 0.1,0.1 0.1,0.2 0.1,0 0.1,0.1 0.2,0.2 0,0.1 0.1,0.1 0.1,0.2 0.1,0.1 0.1,0.2 0.2,0.3 0,0 0.1,0.1 0.1,0.1 0,0 0,0 0,0.1 0.3,0.4 0.6,0.8 0.9,1.2 0.2,0 0.2,0.1 0.3,0.1 0.1,0.1 0.2,0.3 0.4,0.4 0.1,0.1 0.1,0.1 0.2,0.2 0.2,0.2 0.4,0.4 0.6,0.6 l 1.7,1.7 c 0,0 0,0 0,0 0,0 0,0 0,0 0,0 0,0 0,0 C 10.4,48.7 10.3,48.5 10.1,48.4 10,48.3 10,48.3 9.9,48.2 9.8,48.1 9.6,47.9 9.5,47.8 9.4,47.7 9.4,47.7 9.3,47.6 9,47.2 8.7,46.8 8.4,46.4 8.3,46.3 8.3,46.3 8.3,46.2 8.1,46.1 8,46 8,45.9 7.9,45.8 7.9,45.8 7.9,45.7 7.8,45.6 7.8,45.5 7.7,45.4 7.7,45.3 7.6,45.3 7.6,45.2 7.5,45.1 7.5,45 7.4,44.9 7.4,44.8 7.3,44.8 7.3,44.7 7.2,44.6 7.2,44.5 7.1,44.4 7.1,44.3 7,44.3 7,44.2 6.9,44.1 6.9,44 6.8,43.9 6.8,43.8 6.7,43.8 6.7,43.7 6.6,43.6 6.6,43.5 6.5,43.4 c 0,0 0,-0.1 -0.1,-0.1 C 6.3,43.2 6.3,43 6.2,42.9 c 0,0 0,-0.1 0,-0.1 C 6.2,42.7 6.1,42.6 6.1,42.5 6.1,42.4 6,42.4 6,42.3 6,42.3 6,42.2 6,42.2 6,42.1 5.9,42 5.9,41.9 L 4.2,40.2 c 0,0.1 0,0.2 0.1,0.4 0,0 0,0 0,0 z"
   inkscape:connector-curvature="0" />

		<path
   id="path34"
   d="m 6.5,29.4 c 3.1,3.2 7.6,5.4 12.9,7.1 5.8,1.8 9.1,3.7 10.8,5.5 C 29.6,41.4 29.1,40.8 28.5,40.3 26.7,38.5 23.4,36.6 17.7,34.8 17.4,34.7 17,34.6 16.7,34.5 12.8,33.2 9.4,31.6 6.7,29.4 6,28.9 5.4,28.3 4.8,27.7 c 0,0 0,0 0,0 0,0 0,0 0,0 z"
   inkscape:connector-curvature="0" />

		<path
   id="path36"
   d="m 42.1,41.9 c 0,-0.1 0,-0.2 0,-0.3 0,-0.2 0,-0.5 0,-0.7 0,-0.1 0,-0.1 0,-0.2 0,-0.1 0,-0.2 0,-0.3 0,-0.1 0,-0.2 0,-0.2 0,-0.2 -0.1,-0.5 -0.1,-0.7 0,0 0,-0.1 0,-0.1 0,-0.3 -0.1,-0.5 -0.1,-0.8 0,-0.1 0,-0.1 0,-0.2 0,-0.2 -0.1,-0.4 -0.1,-0.6 0,-0.1 0,-0.2 -0.1,-0.2 -0.1,-0.2 -0.1,-0.5 -0.2,-0.7 0,0 0,-0.1 0,-0.1 -0.1,-0.3 -0.2,-0.5 -0.3,-0.8 0,-0.1 -0.1,-0.1 -0.1,-0.2 0,-0.1 -0.1,-0.2 -0.1,-0.3 0,-0.1 -0.1,-0.2 -0.1,-0.3 0,0 0,-0.1 -0.1,-0.1 -0.1,-0.3 -0.2,-0.5 -0.3,-0.8 0,-0.1 -0.1,-0.1 -0.1,-0.2 -0.1,-0.3 -0.3,-0.5 -0.4,-0.8 0,0 0,0 0,0 -0.1,-0.2 -0.3,-0.5 -0.4,-0.7 0,-0.1 -0.1,-0.1 -0.1,-0.2 -0.2,-0.2 -0.3,-0.5 -0.5,-0.7 0,-0.1 -0.1,-0.1 -0.1,-0.2 -0.1,-0.1 -0.1,-0.2 -0.2,-0.3 -0.1,-0.1 -0.2,-0.2 -0.3,-0.4 0,0 -0.1,-0.1 -0.1,-0.1 -0.2,-0.2 -0.4,-0.5 -0.6,-0.7 0,-0.1 -0.1,-0.1 -0.2,-0.2 -0.2,-0.2 -0.4,-0.5 -0.7,-0.7 -0.6,-0.6 -1.2,-1.2 -1.7,-1.7 0,0 0,0 0,0 v 0 c 0,0 0,0 0,0 0.2,0.2 0.4,0.5 0.6,0.7 0,0.1 0.1,0.1 0.1,0.2 0.2,0.2 0.4,0.5 0.6,0.7 0,0 0,0.1 0.1,0.1 0.2,0.2 0.3,0.4 0.5,0.7 0,0 0.1,0.1 0.1,0.1 0.2,0.2 0.3,0.5 0.5,0.7 0,0 0.1,0.1 0.1,0.1 0.2,0.2 0.3,0.5 0.4,0.7 0,0 0,0 0,0 0.1,0.3 0.3,0.5 0.4,0.8 0,0.1 0.1,0.1 0.1,0.2 0.1,0.3 0.2,0.5 0.3,0.8 0,0 0,0.1 0.1,0.1 0.1,0.2 0.2,0.4 0.2,0.6 0,0.1 0.1,0.1 0.1,0.2 0.1,0.3 0.2,0.5 0.3,0.8 0,0 0,0.1 0,0.1 0.1,0.2 0.1,0.5 0.2,0.7 0,0.1 0,0.2 0.1,0.2 0,0.2 0.1,0.4 0.1,0.6 0,0.1 0,0.1 0,0.2 0.1,0.3 0.1,0.5 0.1,0.8 0,0 0,0.1 0,0.1 0,0.2 0.1,0.5 0.1,0.7 0,0.1 0,0.2 0,0.2 0,0.1 0,0.3 0,0.4 0,0.2 0,0.5 0,0.7 0,0.1 0,0.2 0,0.3 0,0.3 0,0.7 0,1 0,0.3 0,0.7 0,1 0,0.1 0,0.2 0,0.2 0,0.3 -0.1,0.7 -0.1,1 0,0 0,0.1 0,0.1 0,0.3 -0.1,0.6 -0.2,1 0,0.1 0,0.1 0,0.2 -0.1,0.3 -0.2,0.6 -0.3,1 0,0.1 0,0.1 -0.1,0.2 -0.1,0.3 -0.2,0.5 -0.3,0.8 0,0.1 -0.1,0.2 -0.1,0.2 -0.1,0.3 -0.3,0.6 -0.4,1 0,0.1 -0.1,0.1 -0.1,0.2 -0.1,0.3 -0.3,0.6 -0.4,0.8 0,0.1 -0.1,0.2 -0.1,0.2 0,0.1 -0.1,0.2 -0.2,0.3 -0.1,0.1 -0.2,0.3 -0.2,0.4 -0.1,0.1 -0.1,0.2 -0.2,0.2 -0.1,0.1 -0.2,0.3 -0.3,0.4 -0.1,0.1 -0.1,0.2 -0.2,0.2 -0.1,0.1 -0.2,0.3 -0.3,0.4 0,0.1 -0.1,0.1 -0.1,0.2 -0.1,0.1 -0.1,0.1 -0.2,0.2 -0.1,0.2 -0.3,0.3 -0.4,0.5 -0.1,0.1 -0.2,0.2 -0.2,0.2 -0.1,0.1 -0.3,0.3 -0.4,0.4 -0.1,0.1 -0.2,0.2 -0.3,0.2 -0.1,0.1 -0.3,0.2 -0.4,0.4 -0.1,0.1 -0.2,0.2 -0.3,0.2 -0.1,0.1 -0.3,0.2 -0.4,0.3 -0.1,0.1 -0.2,0.2 -0.3,0.2 -0.2,0.1 -0.3,0.2 -0.5,0.3 -0.1,0.1 -0.2,0.1 -0.3,0.2 -0.2,0.1 -0.3,0.2 -0.5,0.3 -0.1,0.1 -0.2,0.1 -0.3,0.2 -0.2,0.1 -0.4,0.2 -0.6,0.4 -0.1,0 -0.2,0.1 -0.2,0.1 -0.3,0.2 -0.6,0.3 -0.9,0.4 -0.1,0 -0.1,0.1 -0.2,0.1 -0.3,0.1 -0.5,0.2 -0.8,0.3 -0.1,0 -0.2,0.1 -0.4,0.1 -0.2,0.1 -0.4,0.2 -0.7,0.2 -0.1,0 -0.3,0.1 -0.4,0.1 -0.2,0.1 -0.4,0.1 -0.6,0.2 -0.2,0 -0.3,0.1 -0.5,0.1 -0.2,0.1 -0.4,0.1 -0.7,0.1 -0.2,0 -0.3,0.1 -0.5,0.1 -0.2,0 -0.5,0.1 -0.7,0.1 -0.2,0 -0.3,0.1 -0.5,0.1 -0.2,0 -0.5,0.1 -0.8,0.1 -0.2,0 -0.3,0 -0.5,0.1 -0.3,0 -0.6,0 -0.9,0.1 -0.1,0 -0.3,0 -0.4,0 -0.4,0 -0.9,0 -1.4,0 -9.5,0 -13.2,-4.4 -13.8,-4.6 -0.1,0.1 -0.1,0.1 -0.2,0.2 0,0 0,0 0,0 0,0 0,0 0,0 0,0.1 -0.1,0.1 -0.1,0.2 0,0 0,0 -0.1,0.1 -0.1,0.1 -0.1,0.2 -0.2,0.3 0,0 0,0 0,0 -0.1,0.1 -0.1,0.2 -0.2,0.3 0,0 -0.1,0.1 -0.1,0.1 -0.1,0.1 -0.1,0.2 -0.2,0.2 0,0 -0.1,0.1 -0.1,0.1 -0.1,0.1 -0.1,0.2 -0.2,0.3 0,0 0,0.1 -0.1,0.1 -0.1,0.1 -0.2,0.2 -0.2,0.4 0,0 0,0.1 -0.1,0.1 -0.1,0.1 -0.1,0.2 -0.2,0.3 0,0 0,0.1 -0.1,0.1 -0.1,0.1 -0.1,0.2 -0.2,0.3 0,0 0,0 0,0.1 0,0 0,0 0,0 -0.1,0.1 -0.2,0.3 -0.2,0.4 0,0 0,0 0,0.1 -0.1,0.1 -0.1,0.2 -0.2,0.3 0,0 0,0 0,0 0,0 0,0 0,0 0,0.1 -0.1,0.2 -0.1,0.3 H 0.3 L 2,59.3 H 5.9 C 5.9,59.2 6,59.1 6,59 c 0,0 0,-0.1 0,-0.1 0,-0.1 0.1,-0.2 0.1,-0.3 0,0 0,-0.1 0,-0.1 0.1,-0.1 0.1,-0.3 0.2,-0.4 0,0 0,-0.1 0,-0.1 0.1,-0.1 0.1,-0.2 0.2,-0.3 0,0 0,-0.1 0.1,-0.1 0.1,-0.1 0.1,-0.2 0.2,-0.3 0,0 0,-0.1 0.1,-0.1 0.1,-0.1 0.2,-0.2 0.3,-0.3 0,0 0,-0.1 0.1,-0.1 0.1,-0.1 0.1,-0.2 0.2,-0.3 0,0 0.1,-0.1 0.1,-0.1 0.1,-0.1 0.1,-0.2 0.2,-0.2 0,0 0.1,-0.1 0.1,-0.1 0,-0.1 0,-0.2 0.1,-0.3 0,0 0,0 0,0 0.1,-0.1 0.1,-0.2 0.2,-0.3 0,0 0,-0.1 0.1,-0.1 0,-0.1 0.1,-0.1 0.1,-0.2 0,0 0,-0.1 0.1,-0.1 0.1,0 0.1,-0.1 0.2,-0.1 0.6,0.2 4.3,4.6 13.8,4.6 0.5,0 0.9,0 1.3,0 0.1,0 0.3,0 0.4,0 0.3,0 0.6,0 0.9,-0.1 0.2,0 0.3,0 0.5,-0.1 0.3,0 0.5,-0.1 0.8,-0.1 0.2,0 0.3,0 0.5,-0.1 0.2,0 0.5,-0.1 0.7,-0.1 0.2,0 0.3,-0.1 0.5,-0.1 0.2,0 0.4,-0.1 0.7,-0.1 0.2,0 0.3,-0.1 0.5,-0.1 0.2,-0.1 0.4,-0.1 0.6,-0.2 0.1,0 0.3,-0.1 0.4,-0.1 0.2,-0.1 0.4,-0.1 0.6,-0.2 0.1,0 0.2,-0.1 0.4,-0.1 0.3,-0.1 0.5,-0.2 0.8,-0.3 0.1,0 0.1,-0.1 0.2,-0.1 0.3,-0.1 0.6,-0.3 0.9,-0.4 0.1,0 0.2,-0.1 0.3,-0.1 0.2,-0.1 0.4,-0.2 0.6,-0.3 0.1,-0.1 0.2,-0.1 0.3,-0.2 0.2,-0.1 0.3,-0.2 0.5,-0.3 0.1,-0.1 0.2,-0.1 0.3,-0.2 0.2,-0.1 0.3,-0.2 0.5,-0.3 0.1,-0.1 0.2,-0.2 0.3,-0.2 0.1,-0.1 0.3,-0.2 0.4,-0.3 0.1,-0.1 0.2,-0.2 0.3,-0.3 0.1,-0.1 0.3,-0.2 0.4,-0.4 0.1,-0.1 0.2,-0.2 0.3,-0.3 0.1,-0.1 0.3,-0.3 0.4,-0.4 0.1,-0.1 0.2,-0.2 0.2,-0.2 0.1,-0.2 0.3,-0.3 0.4,-0.5 0,-0.1 0.1,-0.1 0.1,-0.2 0,0 0,0 0,0 0,-0.1 0.1,-0.1 0.1,-0.2 0.1,-0.1 0.2,-0.3 0.3,-0.4 0.1,-0.1 0.1,-0.2 0.2,-0.2 0.1,-0.1 0.2,-0.3 0.3,-0.4 0.1,-0.1 0.1,-0.2 0.2,-0.3 0.1,-0.1 0.2,-0.3 0.2,-0.4 0,-0.1 0.1,-0.2 0.1,-0.2 0,0 0.1,-0.1 0.1,-0.1 0,0 0,-0.1 0.1,-0.1 0.1,-0.3 0.3,-0.5 0.4,-0.8 0,-0.1 0.1,-0.1 0.1,-0.2 0.1,-0.3 0.3,-0.6 0.4,-0.9 0,0 0,-0.1 0,-0.1 0,0 0,-0.1 0,-0.1 0.1,-0.3 0.2,-0.6 0.3,-0.8 0,-0.1 0,-0.1 0.1,-0.2 0.1,-0.3 0.2,-0.6 0.3,-1 0,0 0,-0.1 0,-0.1 0,0 0,-0.1 0,-0.1 0.1,-0.3 0.1,-0.6 0.2,-1 0,0 0,-0.1 0,-0.1 0.1,-0.3 0.1,-0.7 0.1,-1 0,0 0,-0.1 0,-0.1 0,0 0,-0.1 0,-0.1 0,-0.3 0,-0.7 0,-1 0.2,-0.8 0.2,-1.1 0.1,-1.4 z"
   inkscape:connector-curvature="0" />

		<path
   id="path38"
   d="m 54.2,30.5 c 0,0.3 0,0.7 0,1.1 0,0.1 0,0.1 0,0.2 0,0.4 0,0.7 0.1,1.1 0,0 0,0.1 0,0.1 0,0.1 0,0.1 0,0.2 0,0.2 0,0.4 0.1,0.5 0,0.1 0,0.2 0,0.3 0,0.2 0.1,0.4 0.1,0.5 0,0.1 0,0.2 0.1,0.3 0,0.2 0.1,0.4 0.1,0.6 0,0.1 0,0.2 0.1,0.3 0.1,0.3 0.1,0.6 0.2,0.9 l 1.7,1.7 c -0.1,-0.3 -0.2,-0.6 -0.2,-0.9 0,-0.1 0,-0.2 -0.1,-0.3 0,-0.2 -0.1,-0.4 -0.1,-0.6 0,-0.1 0,-0.2 -0.1,-0.4 0,-0.2 -0.1,-0.3 -0.1,-0.5 0,-0.1 0,-0.2 0,-0.4 0,-0.2 0,-0.3 -0.1,-0.5 0,-0.1 0,-0.2 0,-0.3 0,-0.4 -0.1,-0.7 -0.1,-1 0,-0.1 0,-0.1 0,-0.2 0,-0.3 0,-0.7 0,-1 0,-0.3 0,-0.6 0,-0.9 0,-0.1 0,-0.2 0,-0.2 0,-0.2 0,-0.4 0,-0.5 0,-0.2 0,-0.4 0.1,-0.5 0,-0.1 0,-0.3 0.1,-0.4 0,-0.2 0.1,-0.3 0.1,-0.5 0,-0.1 0.1,-0.3 0.1,-0.4 0,-0.1 0.1,-0.2 0.1,-0.3 0,-0.1 0.1,-0.3 0.1,-0.4 0,-0.1 0.1,-0.2 0.1,-0.3 0,-0.1 0.1,-0.3 0.2,-0.4 0,-0.1 0.1,-0.2 0.1,-0.2 0.1,-0.1 0.1,-0.3 0.2,-0.4 0,-0.1 0.1,-0.1 0.1,-0.2 0.1,-0.1 0.1,-0.2 0.2,-0.3 0.1,-0.1 0.1,-0.2 0.2,-0.3 0.1,-0.1 0.1,-0.2 0.2,-0.3 0,-0.1 0.1,-0.1 0.1,-0.2 0.1,-0.1 0.2,-0.3 0.3,-0.4 0,0 0.1,-0.1 0.1,-0.1 0.1,-0.1 0.2,-0.2 0.3,-0.2 0,0 0.1,-0.1 0.1,-0.1 0.1,-0.1 0.2,-0.1 0.2,-0.2 0,0 0.1,-0.1 0.2,-0.1 0.1,-0.1 0.2,-0.1 0.2,-0.1 0,0 0.1,-0.1 0.2,-0.1 0.1,0 0.2,-0.1 0.2,-0.1 0,0 0.1,0 0.1,-0.1 0.1,0 0.2,-0.1 0.3,-0.1 0,0 0.1,0 0.1,0 0.1,0 0.2,-0.1 0.4,-0.1 0.3,-0.1 0.7,-0.1 1,-0.1 1.5,0 3.1,0.6 4.3,1.9 C 65.3,25 64.7,24.4 64.2,23.9 63.3,23 62.1,22.4 61,22.1 60.6,22 60.2,22 59.9,22 c -0.4,0 -0.7,0 -1,0.1 -0.1,0 -0.2,0.1 -0.4,0.1 0,0 -0.1,0 -0.1,0 -0.1,0 -0.2,0.1 -0.2,0.1 0,0 -0.1,0 -0.2,0.1 -0.1,0 -0.2,0.1 -0.2,0.1 -0.1,0 -0.1,0.1 -0.2,0.1 -0.1,0 -0.2,0.1 -0.2,0.1 -0.1,0 -0.1,0.1 -0.2,0.1 -0.1,0.1 -0.2,0.1 -0.2,0.2 0,0 -0.1,0.1 -0.1,0.1 -0.1,0.1 -0.2,0.2 -0.3,0.2 0,0 -0.1,0.1 -0.1,0.1 -0.1,0.1 -0.2,0.2 -0.3,0.4 0,0 0,0 0,0 0,0.1 -0.1,0.1 -0.1,0.2 -0.1,0.1 -0.1,0.2 -0.2,0.3 0,0.1 -0.1,0.2 -0.1,0.2 -0.1,0.1 -0.1,0.2 -0.2,0.3 0,0 0,0 0,0 0,0.1 -0.1,0.1 -0.1,0.2 -0.1,0.1 -0.1,0.3 -0.2,0.4 0,0.1 -0.1,0.2 -0.1,0.2 0,0.1 -0.1,0.2 -0.1,0.3 0,0 0,0.1 0,0.1 0,0.1 -0.1,0.2 -0.1,0.3 0,0.1 -0.1,0.3 -0.1,0.4 0,0.1 -0.1,0.2 -0.1,0.3 0,0.1 0,0.1 -0.1,0.2 0,0.1 0,0.1 0,0.2 0,0.2 -0.1,0.3 -0.1,0.5 0,0.1 0,0.3 -0.1,0.4 0,0.2 0,0.4 -0.1,0.5 0,0.1 0,0.2 0,0.3 0,0.1 0,0.2 0,0.3 0,0.1 0,0.2 0,0.3 -0.2,0.2 -0.2,0.5 -0.2,0.8 z"
   inkscape:connector-curvature="0" />

		<path
   id="path40"
   d="m 72.7,23.6 c 0.2,0.3 0.5,0.6 0.7,0.9 0.2,0.2 0.3,0.4 0.5,0.7 0,0 0,0.1 0.1,0.1 0.1,0.2 0.3,0.4 0.4,0.6 0.1,0.1 0.1,0.2 0.1,0.2 0.1,0.2 0.2,0.3 0.3,0.5 0.1,0.1 0.1,0.2 0.2,0.3 0.1,0.1 0.2,0.3 0.2,0.4 0.1,0.1 0.1,0.2 0.2,0.3 0.1,0.1 0.1,0.3 0.2,0.4 0.1,0.1 0.1,0.2 0.2,0.3 0.1,0.1 0.1,0.3 0.2,0.4 0.1,0.1 0.1,0.2 0.2,0.4 0.1,0.1 0.1,0.3 0.2,0.4 0.1,0.1 0.1,0.2 0.1,0.4 0,0.1 0.1,0.2 0.1,0.4 0.1,0.3 0.2,0.6 0.3,0.9 0,0 0,0.1 0,0.1 0.1,0.3 0.2,0.7 0.3,1 0,0.1 0.1,0.2 0.1,0.3 0.1,0.3 0.2,0.5 0.2,0.8 0,0.1 0.1,0.2 0.1,0.3 0.1,0.3 0.2,0.7 0.3,1 L 56,40.9 c 0,0.2 0.1,0.4 0.1,0.6 0,0 0,0.1 0,0.1 0.1,0.2 0.1,0.4 0.2,0.6 0,0 0,0 0,0 0.1,0.2 0.1,0.4 0.2,0.7 0,0.1 0,0.1 0.1,0.2 0.1,0.2 0.1,0.4 0.2,0.6 0,0 0,0 0,0 0,0 0,0 0,0 0.1,0.3 0.2,0.6 0.4,0.9 0,0 0,0.1 0.1,0.1 0.1,0.3 0.3,0.6 0.4,0.9 0,0.1 0.1,0.1 0.1,0.1 0.2,0.3 0.3,0.6 0.5,0.9 0,0.1 0.1,0.1 0.1,0.1 0.2,0.3 0.4,0.6 0.6,0.8 0,0 0,0 0,0.1 0,0 0.1,0.1 0.1,0.1 0.1,0.2 0.2,0.3 0.4,0.5 0,0.1 0.1,0.1 0.1,0.2 0.2,0.2 0.3,0.4 0.5,0.6 0.6,0.6 1.1,1.2 1.7,1.7 -0.2,-0.2 -0.4,-0.4 -0.5,-0.6 0,-0.1 -0.1,-0.1 -0.1,-0.2 -0.1,-0.2 -0.3,-0.3 -0.4,-0.5 0,-0.1 -0.1,-0.1 -0.1,-0.1 -0.2,-0.3 -0.4,-0.6 -0.6,-0.8 0,-0.1 -0.1,-0.1 -0.1,-0.1 -0.2,-0.3 -0.3,-0.6 -0.5,-0.9 0,0 -0.1,-0.1 -0.1,-0.1 -0.2,-0.3 -0.3,-0.6 -0.4,-0.9 0,0 0,-0.1 -0.1,-0.1 -0.1,-0.3 -0.3,-0.6 -0.4,-0.9 0,0 0,-0.1 0,-0.1 -0.1,-0.2 -0.2,-0.4 -0.2,-0.6 0,-0.1 0,-0.1 -0.1,-0.2 -0.1,-0.2 -0.1,-0.4 -0.2,-0.6 0,0 0,0 0,0 -0.1,-0.2 -0.1,-0.4 -0.2,-0.6 0,-0.1 0,-0.1 0,-0.2 0,-0.2 -0.1,-0.4 -0.1,-0.6 l 21.9,-6.2 c -0.1,-0.3 -0.2,-0.7 -0.3,-1 0,-0.1 -0.1,-0.2 -0.1,-0.3 -0.1,-0.3 -0.1,-0.5 -0.2,-0.8 0,-0.1 -0.1,-0.2 -0.1,-0.3 -0.1,-0.3 -0.2,-0.7 -0.3,-1 0,0 0,-0.1 0,-0.1 -0.1,-0.3 -0.2,-0.6 -0.3,-0.9 0,0 0,-0.1 0,-0.1 0,-0.1 -0.1,-0.2 -0.1,-0.3 0,-0.1 -0.1,-0.2 -0.1,-0.4 C 78,31.1 78,30.9 77.9,30.8 77.9,30.7 77.8,30.6 77.8,30.5 77.7,30.4 77.7,30.2 77.6,30.1 77.6,30 77.5,29.9 77.5,29.8 77.4,29.6 77.4,29.5 77.3,29.3 77.2,29.2 77.2,29.1 77.1,29 77,28.8 76.9,28.7 76.9,28.5 76.8,28.4 76.8,28.3 76.8,28.2 76.7,28 76.6,27.9 76.5,27.7 c 0,-0.1 -0.1,-0.1 -0.1,-0.2 -0.1,-0.2 -0.3,-0.4 -0.4,-0.6 0,0 0,-0.1 -0.1,-0.1 -0.2,-0.2 -0.3,-0.4 -0.5,-0.7 0,0 0,0 0,0 C 75.2,25.8 74.9,25.5 74.7,25.2 74.6,25.1 74.6,25.1 74.5,25 74.3,24.7 74,24.4 73.7,24.2 73.3,23.8 73,23.4 72.6,23.1 72.4,22.9 72.2,22.7 72,22.5 c 0.3,0.3 0.5,0.5 0.8,0.8 -0.2,0.1 -0.2,0.2 -0.1,0.3 z"
   inkscape:connector-curvature="0" />

		<path
   id="path42"
   d="m 76.5,54.6 c 0.2,-0.2 0.4,-0.4 0.5,-0.6 0,0 0,0 0,0 0,0 0.1,-0.1 0.1,-0.1 0.1,-0.1 0.2,-0.3 0.3,-0.4 0,-0.1 0.1,-0.1 0.1,-0.2 0.1,-0.1 0.2,-0.3 0.3,-0.5 0,0 0.1,-0.1 0.1,-0.1 0.1,-0.2 0.3,-0.4 0.4,-0.6 0,0 0,-0.1 0.1,-0.1 0.1,-0.2 0.2,-0.3 0.3,-0.5 0,0 0,-0.1 0.1,-0.1 0,0 0,-0.1 0.1,-0.1 0.1,-0.2 0.2,-0.3 0.3,-0.5 0,-0.1 0.1,-0.1 0.1,-0.2 0.1,-0.2 0.2,-0.4 0.3,-0.7 l -1.7,-1.7 c -0.1,0.2 -0.2,0.5 -0.3,0.7 0,0.1 -0.1,0.1 -0.1,0.2 -0.1,0.2 -0.2,0.3 -0.2,0.5 0,0.1 -0.1,0.1 -0.1,0.2 -0.1,0.2 -0.2,0.3 -0.3,0.5 0,0 -0.1,0.1 -0.1,0.1 -0.1,0.2 -0.3,0.4 -0.4,0.6 0,0.1 -0.1,0.1 -0.1,0.2 -0.1,0.1 -0.2,0.3 -0.3,0.4 0,0.1 -0.1,0.1 -0.1,0.2 -0.1,0.1 -0.2,0.3 -0.3,0.4 0,0.1 -0.1,0.1 -0.1,0.2 -0.2,0.2 -0.3,0.4 -0.5,0.6 0,0 -0.1,0.1 -0.1,0.1 -0.2,0.2 -0.3,0.3 -0.5,0.5 0,0 -0.1,0.1 -0.1,0.1 -0.2,0.2 -0.4,0.4 -0.6,0.5 0,0 -0.1,0.1 -0.1,0.1 -0.2,0.1 -0.4,0.3 -0.5,0.4 0,0 -0.1,0.1 -0.1,0.1 -0.2,0.2 -0.4,0.3 -0.6,0.5 0,0 -0.1,0.1 -0.1,0.1 -0.2,0.1 -0.4,0.3 -0.6,0.4 0,0 -0.1,0 -0.1,0.1 -0.2,0.1 -0.5,0.3 -0.7,0.4 -0.1,0 -0.1,0.1 -0.2,0.1 -0.2,0.1 -0.4,0.2 -0.7,0.3 0,0 -0.1,0 -0.1,0.1 -0.2,0.1 -0.5,0.2 -0.8,0.3 -0.1,0 -0.1,0 -0.2,0.1 -0.2,0.1 -0.5,0.2 -0.7,0.3 0,0 -0.1,0 -0.1,0 -0.3,0.1 -0.5,0.2 -0.8,0.2 -0.1,0 -0.1,0 -0.2,0.1 -0.3,0.1 -0.5,0.1 -0.8,0.2 0,0 -0.1,0 -0.1,0 -0.3,0.1 -0.6,0.1 -0.9,0.2 -0.1,0 -0.1,0 -0.2,0 -0.3,0 -0.6,0.1 -0.9,0.1 0,0 0,0 0,0 -0.3,0 -0.6,0.1 -0.9,0.1 -0.1,0 -0.2,0 -0.2,0 -0.3,0 -0.6,0 -1,0 -4.7,0 -9.8,-2.4 -13.6,-6.2 0,0 0,0 0,0 0,0 0,0 0,0 l 1.7,1.7 c 3.8,3.8 8.9,6.2 13.6,6.2 0.3,0 0.6,0 1,0 0.1,0 0.2,0 0.2,0 0.3,0 0.6,0 0.9,-0.1 0,0 0,0 0,0 0.3,0 0.6,-0.1 0.9,-0.1 0.1,0 0.1,0 0.2,0 0.3,0 0.6,-0.1 0.9,-0.2 0,0 0.1,0 0.1,0 0.3,-0.1 0.5,-0.1 0.8,-0.2 0.1,0 0.1,0 0.2,-0.1 0.3,-0.1 0.5,-0.2 0.8,-0.2 0,0 0.1,0 0.1,0 0.2,-0.1 0.5,-0.2 0.7,-0.3 0.1,0 0.1,0 0.2,-0.1 0.3,-0.1 0.5,-0.2 0.8,-0.3 0,0 0.1,0 0.1,-0.1 0.2,-0.1 0.4,-0.2 0.6,-0.3 0.1,0 0.1,-0.1 0.2,-0.1 0.2,-0.1 0.5,-0.3 0.7,-0.4 0,0 0.1,0 0.1,-0.1 0.2,-0.1 0.4,-0.3 0.6,-0.4 0,0 0.1,-0.1 0.1,-0.1 0.2,-0.2 0.4,-0.3 0.6,-0.5 0,0 0.1,-0.1 0.1,-0.1 0.2,-0.1 0.4,-0.3 0.5,-0.4 0,0 0.1,-0.1 0.1,-0.1 0.2,-0.2 0.4,-0.4 0.6,-0.5 0,0 0.1,-0.1 0.1,-0.1 0.2,-0.2 0.3,-0.3 0.5,-0.5 -0.1,-0.1 0,-0.2 0,-0.2 z"
   inkscape:connector-curvature="0" />

		<path
   id="path44"
   d="m 81.5,30.1 c 0,0 0.1,0 0.2,0 0.5,0 1.4,0 2,0.7 -0.6,-0.6 -1.2,-1.2 -1.7,-1.7 -0.7,-0.7 -1.6,-0.7 -2,-0.7 -0.1,0 -0.1,0 -0.2,0 -0.7,0 -1.6,0 -1.7,0 l 1.7,1.7 c 0.1,0 1,0 1.7,0 z"
   inkscape:connector-curvature="0" />

		<polygon
   id="polygon46"
   points="94.2,25.4 95.9,27.1 95.9,21.4 94.2,19.6 " />

		<path
   id="path48"
   d="m 113.6,22.2 c 0.1,0.1 0.1,0.2 0.2,0.2 0,0 0.1,0.1 0.1,0.1 0.1,0.1 0.1,0.1 0.2,0.2 0,0 0.1,0.1 0.1,0.1 0.1,0.1 0.1,0.1 0.2,0.2 0,0 0.1,0.1 0.1,0.1 0.1,0.1 0.1,0.2 0.2,0.3 0,0 0.1,0.1 0.1,0.1 0.1,0.1 0.1,0.2 0.2,0.3 0,0 0,0.1 0.1,0.1 0.1,0.1 0.1,0.2 0.2,0.3 0,0 0,0 0,0.1 0.1,0.1 0.1,0.2 0.1,0.2 0,0 0,0.1 0.1,0.1 0,0.1 0.1,0.1 0.1,0.2 0,0 0,0.1 0,0.1 0,0.1 0.1,0.1 0.1,0.2 0,0 0,0 0,0.1 0,0.1 0.1,0.1 0.1,0.2 0,0 0,0 0,0 0,0 0,0.1 0.1,0.1 0,0 0,0 0,0 0,0 0,0 0,0 0,0 0,0 0,0.1 l 1.7,1.7 c 0,0 0,0 0,-0.1 0,0 0,0 0,0 0,0 0,0 0,0 0,0 0,0 0,0 0,0 0,-0.1 -0.1,-0.1 0,0 0,0 0,0 0,-0.1 -0.1,-0.1 -0.1,-0.2 0,0 0,0 0,-0.1 0,-0.1 -0.1,-0.1 -0.1,-0.2 0,0 0,-0.1 0,-0.1 0,-0.1 -0.1,-0.1 -0.1,-0.2 0,0 0,-0.1 -0.1,-0.1 0,-0.1 -0.1,-0.2 -0.1,-0.2 0,0 0,0 0,-0.1 -0.1,-0.1 -0.1,-0.2 -0.2,-0.3 0,0 0,-0.1 -0.1,-0.1 -0.1,-0.1 -0.1,-0.2 -0.2,-0.2 0,0 -0.1,-0.1 -0.1,-0.1 -0.1,-0.1 -0.1,-0.2 -0.2,-0.2 0,0 0,-0.1 -0.1,-0.1 0,0 0,0 0,0 0,-0.1 -0.1,-0.1 -0.1,-0.2 0,0 -0.1,-0.1 -0.1,-0.1 -0.1,-0.1 -0.1,-0.1 -0.2,-0.2 0,0 -0.1,-0.1 -0.1,-0.1 -0.1,-0.1 -0.1,-0.1 -0.2,-0.2 0,0 -0.1,-0.1 -0.1,-0.1 -0.1,-0.1 -0.2,-0.2 -0.3,-0.3 -0.6,-0.6 -1.2,-1.2 -1.7,-1.7 0.1,0.1 0.2,0.2 0.3,0.3 -0.1,-0.2 -0.1,-0.2 0,-0.1 z"
   inkscape:connector-curvature="0" />

		<path
   id="path50"
   d="m 94,49.2 c 0,0.2 0,0.4 0,0.5 0,0 0,0.1 0,0.1 0,0.1 0,0.2 0,0.4 0,0 0,0.1 0,0.1 0,0.2 0.1,0.4 0.1,0.5 0,0 0,0.1 0,0.1 0,0.1 0.1,0.3 0.1,0.4 0,0.1 0,0.1 0.1,0.1 0,0 0,0.1 0,0.1 0,0.1 0,0.1 0.1,0.1 0,0.1 0,0.1 0.1,0.2 0,0.1 0.1,0.2 0.1,0.3 0,0 0,0.1 0.1,0.1 0,0 0,0 0,0 0.1,0.1 0.2,0.2 0.2,0.3 0.6,0.6 1.2,1.2 1.7,1.7 -0.1,-0.1 -0.2,-0.2 -0.3,-0.3 0,0 -0.1,-0.1 -0.1,-0.1 -0.1,-0.1 -0.1,-0.2 -0.1,-0.2 0,-0.1 0,-0.1 -0.1,-0.2 0,-0.1 -0.1,-0.2 -0.1,-0.3 0,-0.1 0,-0.1 -0.1,-0.2 0,-0.1 -0.1,-0.2 -0.1,-0.4 0,0 0,-0.1 0,-0.1 0,-0.2 -0.1,-0.4 -0.1,-0.5 0,0 0,-0.1 0,-0.1 0,-0.1 0,-0.3 0,-0.4 0,-0.2 0,-0.3 0,-0.5 0,-0.1 0,-0.2 0,-0.3 0,-0.3 0,-0.6 0,-0.9 0,-1.4 0.1,-8.3 0.1,-11.9 0,-3.2 0,-4.1 0,-4.1 0,0 0,0 0,-0.1 0,0 0,-0.1 0,-0.1 0,0 0,0 0,0 0,0 0,-0.1 0.1,-0.1 0,0 0,0 0,0 0,0 0,-0.1 0.1,-0.1 0,0 0,0 0,-0.1 0,0 0,-0.1 0.1,-0.1 0,0 0,-0.1 0,-0.1 0,0 0,-0.1 0.1,-0.1 0,0 0,-0.1 0.1,-0.1 0,0 0,-0.1 0.1,-0.1 0,0 0,-0.1 0.1,-0.1 0,0 0,-0.1 0.1,-0.1 0,0 0,-0.1 0.1,-0.1 0.1,-0.1 0.1,-0.2 0.2,-0.3 0,0 0,0 0,-0.1 0.1,-0.1 0.2,-0.3 0.2,-0.4 0,0 0,0 0,0 0.1,-0.1 0.2,-0.3 0.3,-0.4 0,0 0,0 0,-0.1 0.1,-0.1 0.2,-0.3 0.3,-0.4 0,0 0.1,-0.1 0.1,-0.1 0,0 0.1,-0.1 0.1,-0.1 0,0 0.1,-0.1 0.1,-0.1 0,0 0.1,-0.1 0.1,-0.1 0,0 0.1,-0.1 0.1,-0.1 0,0 0.1,-0.1 0.1,-0.1 0,0 0.1,-0.1 0.1,-0.1 0,0 0.1,-0.1 0.1,-0.1 0,0 0.1,-0.1 0.1,-0.1 0,0 0.1,-0.1 0.1,-0.1 0,0 0.1,-0.1 0.1,-0.1 0,0 0.1,-0.1 0.1,-0.1 0.1,0 0.1,-0.1 0.2,-0.1 0.1,0 0.1,-0.1 0.2,-0.1 0.1,0 0.1,-0.1 0.2,-0.1 0.1,0 0.1,-0.1 0.2,-0.1 0.1,0 0.1,-0.1 0.2,-0.1 0.1,0 0.1,-0.1 0.2,-0.1 0.1,0 0.1,-0.1 0.2,-0.1 0.1,0 0.1,-0.1 0.2,-0.1 0.1,0 0.1,-0.1 0.2,-0.1 0.1,0 0.1,-0.1 0.2,-0.1 0.1,0 0.1,0 0.2,-0.1 0.1,0 0.1,0 0.2,-0.1 0.1,0 0.1,0 0.2,-0.1 0.1,0 0.1,0 0.2,-0.1 0.1,0 0.1,0 0.2,0 0.1,0 0.2,0 0.2,0 0.1,0 0.1,0 0.2,0 0.1,0 0.2,0 0.3,0 0.1,0 0.1,0 0.1,0 0.1,0 0.3,0 0.4,0 0.9,0 1.6,0.3 2.1,0.9 l -1.7,-1.7 c -0.5,-0.5 -1.2,-0.9 -2.1,-0.9 -0.1,0 -0.3,0 -0.4,0 -0.1,0 -0.1,0 -0.1,0 -0.1,0 -0.2,0 -0.3,0 -0.1,0 -0.1,0 -0.2,0 -0.1,0 -0.2,0 -0.2,0 -0.1,0 -0.1,0 -0.2,0 -0.1,0 -0.2,0 -0.2,0.1 -0.1,0 -0.1,0 -0.2,0.1 -0.1,0 -0.1,0 -0.2,0.1 -0.1,0 -0.1,0 -0.2,0.1 -0.1,0 -0.1,0.1 -0.2,0.1 -0.1,0 -0.1,0.1 -0.2,0.1 -0.1,0 -0.1,0.1 -0.2,0.1 -0.1,0 -0.1,0.1 -0.2,0.1 -0.1,0 -0.1,0.1 -0.2,0.1 -0.1,0 -0.1,0.1 -0.2,0.1 -0.1,0 -0.1,0.1 -0.2,0.1 -0.1,0 -0.1,0.1 -0.1,0.1 -0.1,0 -0.1,0.1 -0.2,0.1 0,0 -0.1,0.1 -0.1,0.1 -0.1,0 -0.1,0.1 -0.2,0.1 0,0 -0.1,0.1 -0.1,0.1 -0.1,0 -0.1,0.1 -0.1,0.1 0,0 -0.1,0.1 -0.1,0.1 0,0 -0.1,0.1 -0.1,0.1 0,0 -0.1,0.1 -0.1,0.1 0,0 -0.1,0.1 -0.1,0.1 0,0 -0.1,0.1 -0.1,0.1 0,0 -0.1,0.1 -0.1,0.1 0,0 -0.1,0.1 -0.1,0.1 0,0.1 -0.1,0.1 -0.1,0.2 0,0 0,0 0,0 0,0 0,0 0,0 -0.1,0.1 -0.2,0.3 -0.3,0.4 0,0 0,0 0,0 -0.1,0.1 -0.2,0.3 -0.3,0.4 0,0 0,0 0,0 -0.1,0.1 -0.2,0.3 -0.3,0.4 0,0 0,0 0,0.1 -0.1,0.1 -0.1,0.2 -0.2,0.4 0,0 0,0 0,0 0,0 0,0 0,0.1 0,0 0,0.1 -0.1,0.1 0,0 0,0.1 -0.1,0.1 0,0 0,0.1 0,0.1 0,0 0,0.1 -0.1,0.1 0,0 0,0 0,0.1 0,0 0,0.1 -0.1,0.1 0,0 0,0 0,0 0,0 0,0.1 -0.1,0.1 0,0 0,0 0,0 -0.1,0.2 -0.2,0.3 -0.2,0.4 0,0 0,0.9 0,4.1 0,3.7 -0.1,10.6 -0.1,11.9 0,0.3 0,0.6 0,0.9 C 94,49 94,49.1 94,49.2 Z"
   inkscape:connector-curvature="0" />

		<path
   id="path52"
   d="m 118,28.9 c 0,0 -0.1,0 0,0 -0.1,0.1 -0.2,0.2 -0.3,0.3 0,0 0,0 0,0 0,0 0,0 0,0 -0.1,0.2 -0.3,0.3 -0.4,0.5 0,0 0,0 0,0 -0.1,0.2 -0.2,0.3 -0.3,0.4 0,0 0,0 0,0 -0.1,0.1 -0.2,0.3 -0.2,0.4 0,0 0,0 0,0 -0.1,0.1 -0.1,0.2 -0.2,0.4 0,0 0,0 0,0 0,0 0,0 0,0 0,0 -0.1,0.1 -0.1,0.1 0,0 0,0 0,0 0,0 0,0.1 -0.1,0.1 0,0 0,0 0,0 0,0 0,0.1 -0.1,0.1 0,0 0,0 0,0 0,0 0,0.1 0,0.1 0,0.1 0,1 0,4.6 0,3 -0.1,9.2 -0.1,11.9 0,0.2 0,0.5 0,0.7 0,0.1 0,0.1 0,0.2 0,0.2 0,0.4 0,0.5 0,0.1 0,0.1 0,0.2 0,0 0,0.1 0,0.1 0,0.1 0,0.1 0,0.2 0,0.1 0,0.3 0.1,0.4 0,0 0,0.1 0,0.1 0,0.2 0.1,0.3 0.1,0.5 0,0 0,0.1 0,0.1 0,0.1 0.1,0.2 0.1,0.2 0,0 0,0.1 0.1,0.1 0,0.1 0,0.1 0.1,0.2 0,0.1 0.1,0.2 0.2,0.3 0,0 0.1,0.1 0.1,0.1 0,0 0,0 0,0.1 0.1,0.1 0.2,0.2 0.3,0.3 l 1.7,1.7 c -0.1,-0.1 -0.2,-0.2 -0.3,-0.4 0,0 -0.1,-0.1 -0.1,-0.1 -0.1,-0.1 -0.1,-0.2 -0.2,-0.3 0,-0.1 0,-0.1 -0.1,-0.2 -0.1,-0.1 -0.1,-0.2 -0.1,-0.4 0,0 0,-0.1 0,-0.1 0,-0.2 -0.1,-0.3 -0.1,-0.5 0,0 0,-0.1 0,-0.1 0,-0.1 0,-0.3 -0.1,-0.4 0,-0.1 0,-0.1 0,-0.2 0,-0.1 0,-0.2 0,-0.3 0,-0.2 0,-0.4 0,-0.6 0,-0.1 0,-0.1 0,-0.2 0,-0.2 0,-0.5 0,-0.7 0,-2.7 0.1,-8.9 0.1,-11.9 0,-3.6 0,-4.6 0,-4.6 0.1,-0.1 0.1,-0.3 0.2,-0.5 0,0 0,0 0,0 0,0 0,0 0,-0.1 0.1,-0.1 0.1,-0.2 0.2,-0.3 0,0 0,0 0,-0.1 0.1,-0.1 0.2,-0.2 0.2,-0.4 0,0 0,0 0,-0.1 0.1,-0.1 0.2,-0.3 0.3,-0.4 0,0 0,0 0,0 0.1,-0.2 0.2,-0.3 0.4,-0.5 0,0 0,0 0,0 0.1,-0.1 0.1,-0.2 0.2,-0.3 0,0 0,-0.1 0.1,-0.1 0.1,-0.1 0.1,-0.1 0.2,-0.2 0,0 0.1,-0.1 0.1,-0.1 0.1,-0.1 0.1,-0.1 0.2,-0.2 0,0 0.1,-0.1 0.1,-0.1 0.1,-0.1 0.1,-0.1 0.2,-0.2 0,0 0.1,-0.1 0.1,-0.1 0.1,-0.1 0.1,-0.1 0.2,-0.2 0,0 0.1,-0.1 0.1,-0.1 0.1,-0.1 0.2,-0.2 0.3,-0.2 0,0 0,0 0.1,-0.1 0.1,-0.1 0.2,-0.1 0.3,-0.2 0,0 0.1,-0.1 0.1,-0.1 0.1,0 0.2,-0.1 0.2,-0.1 0,0 0.1,-0.1 0.1,-0.1 0.1,0 0.2,-0.1 0.2,-0.1 0,0 0.1,0 0.1,-0.1 0.1,0 0.2,-0.1 0.3,-0.1 0,0 0.1,0 0.1,-0.1 0.1,-0.1 0.3,-0.1 0.4,-0.2 0,0 0,0 0.1,0 0.1,0 0.2,-0.1 0.4,-0.1 0,0 0.1,0 0.1,0 0.1,0 0.2,-0.1 0.3,-0.1 0.1,0 0.1,0 0.2,0 0.1,0 0.2,0 0.3,-0.1 0.1,0 0.1,0 0.2,0 0.1,0 0.2,0 0.3,0 0.1,0 0.1,0 0.2,0 0.2,0 0.3,0 0.5,0 1.2,0 2,0.4 2.6,1 l -1.7,-1.7 c -0.6,-0.6 -1.4,-1 -2.6,-1 -0.2,0 -0.3,0 -0.5,0 -0.1,0 -0.1,0 -0.2,0 -0.1,0 -0.2,0 -0.3,0 -0.1,0 -0.1,0 -0.2,0 -0.1,0 -0.2,0 -0.3,0.1 -0.1,0 -0.1,0 -0.2,0 -0.1,0 -0.2,0 -0.3,0.1 0,0 -0.1,0 -0.1,0 -0.1,0 -0.2,0.1 -0.4,0.1 0,0 0,0 -0.1,0 -0.1,0.1 -0.3,0.1 -0.4,0.2 0,0 -0.1,0 -0.1,0.1 -0.1,0 -0.2,0.1 -0.3,0.1 0,0 -0.1,0 -0.1,0.1 -0.1,0 -0.2,0.1 -0.2,0.1 0,0 -0.1,0.1 -0.1,0.1 -0.1,0 -0.2,0.1 -0.2,0.1 0,0 -0.1,0.1 -0.1,0.1 -0.1,0.1 -0.2,0.1 -0.3,0.2 0,0 0,0 -0.1,0 -0.1,0.1 -0.2,0.2 -0.3,0.2 0,0 -0.1,0 -0.1,0.1 -0.1,0.1 -0.2,0.1 -0.2,0.2 0,0 -0.1,0.1 -0.1,0.1 -0.1,0.1 -0.1,0.1 -0.2,0.2 0,0 -0.1,0.1 -0.1,0.1 -0.1,0.1 -0.1,0.1 -0.2,0.2 0,0 -0.1,0.1 -0.1,0.1 -0.1,0.7 -0.2,0.8 -0.2,0.9 z"
   inkscape:connector-curvature="0" />

		<polygon
   id="polygon54"
   points="97.6,57.5 78.1,57.5 79.8,59.2 99.3,59.2 99.3,55 97.6,53.3 " />

		<path
   id="path56"
   d="m 150.4,30.7 c 0.1,-0.1 0.2,-0.2 0.3,-0.3 0.1,-0.1 0.1,-0.1 0.2,-0.2 0.1,-0.1 0.1,-0.2 0.2,-0.2 0.1,-0.1 0.1,-0.1 0.2,-0.2 0.1,-0.1 0.1,-0.2 0.2,-0.2 0.1,-0.1 0.1,-0.1 0.2,-0.2 0.1,-0.1 0.1,-0.2 0.2,-0.2 0.1,-0.1 0.1,-0.1 0.2,-0.2 0.1,-0.1 0.2,-0.2 0.2,-0.2 0.1,-0.1 0.1,-0.1 0.2,-0.2 0.1,-0.1 0.2,-0.1 0.3,-0.2 0.1,-0.1 0.2,-0.1 0.2,-0.2 0.1,-0.1 0.2,-0.1 0.3,-0.2 0.1,-0.1 0.2,-0.1 0.2,-0.2 0.1,-0.1 0.2,-0.1 0.3,-0.2 0.1,-0.1 0.2,-0.1 0.3,-0.2 0.1,-0.1 0.2,-0.1 0.3,-0.2 0.1,-0.1 0.2,-0.1 0.3,-0.2 0.1,-0.1 0.2,-0.1 0.3,-0.2 0.1,0 0.2,-0.1 0.3,-0.1 0.1,-0.1 0.2,-0.1 0.4,-0.2 0.1,0 0.2,-0.1 0.3,-0.1 0.1,0 0.3,-0.1 0.4,-0.1 0.1,0 0.2,-0.1 0.3,-0.1 0.1,0 0.3,-0.1 0.4,-0.1 0.1,0 0.2,-0.1 0.3,-0.1 0.2,0 0.3,-0.1 0.5,-0.1 0.1,0 0.2,0 0.3,-0.1 0.2,0 0.4,0 0.6,-0.1 0.1,0 0.2,0 0.3,0 0.3,0 0.6,0 0.9,0 1.9,0 3.2,0.5 4,1.3 -0.3,-0.3 -0.6,-0.6 -0.9,-0.9 -0.3,-0.3 -0.6,-0.6 -0.9,-0.9 -0.6,-0.6 -1.5,-1.1 -2.7,-1.3 -0.4,-0.1 -0.8,-0.1 -1.3,-0.1 -0.3,0 -0.6,0 -0.9,0 -0.1,0 -0.2,0 -0.3,0 -0.2,0 -0.4,0 -0.6,0.1 -0.1,0 -0.2,0 -0.3,0.1 -0.2,0 -0.3,0.1 -0.5,0.1 -0.1,0 -0.2,0.1 -0.3,0.1 -0.1,0 -0.3,0.1 -0.4,0.1 -0.1,0 -0.2,0.1 -0.3,0.1 -0.1,0 -0.3,0.1 -0.4,0.1 -0.1,0 -0.2,0.1 -0.3,0.1 -0.1,0.1 -0.2,0.1 -0.4,0.2 -0.1,0 -0.2,0.1 -0.3,0.1 -0.1,0.1 -0.2,0.1 -0.3,0.2 -0.1,0.1 -0.2,0.1 -0.3,0.2 -0.1,0.1 -0.2,0.1 -0.3,0.2 -0.1,0.1 -0.2,0.1 -0.3,0.2 -0.1,0.1 -0.2,0.1 -0.3,0.2 -0.1,0.1 -0.2,0.1 -0.2,0.2 -0.1,0.1 -0.2,0.1 -0.3,0.2 -0.1,0.1 -0.2,0.1 -0.2,0.2 -0.1,0.1 -0.2,0.1 -0.3,0.2 -0.1,0.1 -0.1,0.1 -0.2,0.2 -0.1,0.1 -0.2,0.2 -0.2,0.2 -0.1,0.1 -0.1,0.1 -0.2,0.2 -0.1,0.1 -0.2,0.2 -0.2,0.2 -0.1,0.1 -0.1,0.1 -0.2,0.2 -0.1,0.1 -0.1,0.2 -0.2,0.2 -0.1,0.1 -0.1,0.1 -0.2,0.2 -0.1,0.1 -0.1,0.2 -0.2,0.2 -0.1,0.1 -0.1,0.1 -0.2,0.2 0,0 -0.1,0.1 -0.1,0.1 -0.1,0.1 -0.1,0.2 -0.2,0.2 l -3.3,-1.9 1.7,1.7 z"
   inkscape:connector-curvature="0" />

		<polygon
   id="polygon58"
   points="120.2,57.5 101.1,57.5 102.8,59.2 122,59.2 122,55 120.3,53.3 " />

		<path
   id="path60"
   d="m 137,22.5 c 0.2,0.2 0.3,0.4 0.4,0.6 0,0 0,0.1 0.1,0.1 0.1,0.1 0.2,0.3 0.3,0.5 0,0 0.1,0.1 0.1,0.1 0.2,0.4 0.4,0.7 0.6,1.1 0,0 0,0.1 0.1,0.1 0.1,0.2 0.1,0.3 0.2,0.5 0,0 0,0.1 0,0.1 0.1,0.2 0.1,0.4 0.2,0.5 0,0 0,0.1 0,0.1 0,0.1 0.1,0.3 0.1,0.4 0,0.1 0,0.1 0,0.2 0,0.2 0.1,0.3 0.1,0.5 0,0 0,0 0,0.1 0,0.2 0.1,0.4 0.1,0.5 0,0 0,0.1 0,0.1 0,0.2 0,0.4 0,0.7 0,1.8 0,4.6 -0.1,7.5 0,4.3 -0.1,11.2 -0.1,11.9 0,0.2 0,0.5 0,0.7 0,0.1 0,0.2 0,0.2 0,0.2 0,0.4 0,0.5 0,0.1 0,0.1 0,0.2 0,0 0,0.1 0,0.1 0,0.1 0,0.1 0,0.2 0,0.1 0,0.3 0.1,0.4 0,0 0,0.1 0,0.1 0,0.2 0.1,0.3 0.1,0.5 0,0 0,0.1 0,0.1 0,0.1 0.1,0.2 0.1,0.3 0,0 0,0.1 0,0.1 0,0.1 0.1,0.1 0.1,0.2 0,0.1 0.1,0.2 0.2,0.3 0,0 0.1,0.1 0.1,0.1 0,0 0,0 0,0.1 0.1,0.1 0.2,0.2 0.3,0.3 0.6,0.6 1.1,1.2 1.7,1.7 -0.1,-0.1 -0.2,-0.2 -0.3,-0.4 0,0 -0.1,-0.1 -0.1,-0.1 -0.1,-0.1 -0.1,-0.2 -0.2,-0.3 0,-0.1 -0.1,-0.1 -0.1,-0.2 C 141,53.1 141,53 141,52.8 c 0,0 0,-0.1 0,-0.1 -0.1,-0.2 -0.1,-0.3 -0.1,-0.5 0,0 0,-0.1 0,-0.1 0,-0.1 0,-0.3 -0.1,-0.4 0,-0.1 0,-0.1 0,-0.2 0,-0.1 0,-0.2 0,-0.3 0,-0.2 0,-0.4 0,-0.5 0,-0.1 0,-0.1 0,-0.2 0,-0.2 0,-0.5 0,-0.7 0,-0.7 0.1,-7.6 0.1,-11.9 0,-2.9 0,-5.7 0.1,-7.5 0,-0.2 0,-0.4 0,-0.7 0,0 0,0 0,-0.1 0,0 0,0 0,-0.1 0,-0.2 0,-0.4 -0.1,-0.5 0,0 0,0 0,-0.1 0,-0.2 -0.1,-0.3 -0.1,-0.5 0,-0.1 0,-0.1 0,-0.2 0,-0.1 -0.1,-0.3 -0.1,-0.4 0,0 0,-0.1 0,-0.1 -0.1,-0.2 -0.1,-0.4 -0.2,-0.5 0,0 0,0 0,0 0,0 0,-0.1 0,-0.1 -0.1,-0.2 -0.1,-0.3 -0.2,-0.5 0,-0.1 0,-0.1 -0.1,-0.2 -0.1,-0.2 -0.2,-0.4 -0.3,-0.5 0,0 0,0 0,0 -0.1,-0.2 -0.2,-0.4 -0.3,-0.5 0,-0.1 -0.1,-0.1 -0.1,-0.2 -0.1,-0.1 -0.2,-0.3 -0.3,-0.4 0,0 0,-0.1 -0.1,-0.1 0,0 0,0 0,0 -0.1,-0.2 -0.3,-0.4 -0.4,-0.6 0,0 -0.1,-0.1 -0.1,-0.1 -0.2,-0.2 -0.3,-0.4 -0.5,-0.5 -0.6,-0.6 -1.1,-1.2 -1.7,-1.7 0.2,0.2 0.3,0.4 0.5,0.5 0,0.1 0.1,0.1 0.1,0.2 z"
   inkscape:connector-curvature="0" />

		<polygon
   id="polygon62"
   points="143.3,57.5 123.8,57.5 125.5,59.2 145,59.2 145.1,55 143.3,53.3 " />

		<path
   id="path64"
   d="m 156.6,51.3 c 0,0 0,-0.1 -0.1,-0.1 -0.1,-0.2 -0.2,-0.4 -0.3,-0.5 0,-0.1 -0.1,-0.1 -0.1,-0.2 -0.1,-0.2 -0.2,-0.4 -0.3,-0.7 0,-0.1 0,-0.1 -0.1,-0.2 -0.1,-0.2 -0.1,-0.4 -0.2,-0.6 0,-0.1 0,-0.2 -0.1,-0.2 0,-0.2 -0.1,-0.4 -0.1,-0.5 0,-0.1 0,-0.1 0,-0.2 0,-0.2 -0.1,-0.5 -0.1,-0.8 0,-0.3 0,-0.6 0,-0.8 0,-0.3 0,-0.7 0,-1 0,-0.3 0,-0.5 0.1,-0.7 0,0 0,-0.1 0,-0.2 0,-0.3 0.1,-0.5 0.2,-0.8 v 0 c 0.1,-0.2 0.1,-0.5 0.2,-0.7 0,-0.1 0,-0.1 0.1,-0.2 0,-0.1 0.1,-0.3 0.1,-0.4 0,-0.1 0.1,-0.2 0.1,-0.2 0.1,-0.1 0.1,-0.2 0.2,-0.3 0,-0.1 0.1,-0.1 0.1,-0.2 0.1,-0.1 0.1,-0.2 0.2,-0.3 0.1,-0.1 0.1,-0.2 0.2,-0.3 0,-0.1 0.1,-0.1 0.1,-0.2 0.1,-0.1 0.1,-0.2 0.2,-0.3 0,-0.1 0.1,-0.1 0.1,-0.2 0,-0.1 0.1,-0.1 0.1,-0.2 0.1,-0.1 0.1,-0.1 0.2,-0.2 0,-0.1 0.1,-0.1 0.1,-0.1 0.1,-0.1 0.1,-0.1 0.2,-0.2 0,0 0.1,-0.1 0.1,-0.1 0.1,-0.1 0.1,-0.1 0.2,-0.1 0,0 0.1,-0.1 0.1,-0.1 0.1,0 0.1,-0.1 0.2,-0.1 0,0 0.1,-0.1 0.1,-0.1 0.1,0 0.1,-0.1 0.2,-0.1 0,0 0.1,-0.1 0.1,-0.1 0.1,0 0.1,-0.1 0.2,-0.1 0,0 0.1,0 0.1,-0.1 0.1,0 0.2,-0.1 0.2,-0.1 1.5,-0.8 2.9,-1.1 4.1,-1.1 0.7,0 1.4,0.1 1.9,0.3 l -1.7,-1.7 c -0.6,-0.2 -1.2,-0.3 -1.9,-0.3 -1.3,0 -2.7,0.3 -4.1,1.1 -0.1,0 -0.1,0.1 -0.2,0.1 0,0 0,0 -0.1,0 -0.1,0 -0.1,0.1 -0.2,0.1 0,0 -0.1,0 -0.1,0.1 -0.1,0 -0.1,0.1 -0.2,0.1 0,0 -0.1,0.1 -0.1,0.1 -0.1,0 -0.1,0.1 -0.2,0.1 0,0 -0.1,0.1 -0.1,0.1 -0.1,0 -0.1,0.1 -0.2,0.2 0,0 -0.1,0.1 -0.1,0.1 -0.1,0.1 -0.1,0.1 -0.2,0.2 0,0 -0.1,0.1 -0.1,0.1 -0.1,0.1 -0.1,0.1 -0.2,0.2 0,0.1 -0.1,0.1 -0.1,0.2 0,0 0,0 -0.1,0.1 0,0 -0.1,0.1 -0.1,0.1 -0.1,0.1 -0.1,0.2 -0.2,0.3 0,0.1 -0.1,0.1 -0.1,0.2 -0.1,0.1 -0.1,0.2 -0.2,0.3 0,0 0,0.1 -0.1,0.1 0,0.1 -0.1,0.1 -0.1,0.2 0,0.1 -0.1,0.1 -0.1,0.2 -0.1,0.1 -0.1,0.2 -0.1,0.3 0,0.1 -0.1,0.2 -0.1,0.2 0,0 0,0.1 0,0.1 0,0.1 -0.1,0.2 -0.1,0.3 0,0.1 -0.1,0.1 -0.1,0.2 -0.1,0.2 -0.1,0.4 -0.2,0.6 0,0 0,0 0,0.1 v 0 c -0.1,0.3 -0.1,0.5 -0.1,0.8 0,0.1 0,0.2 0,0.3 0,0.2 0,0.4 -0.1,0.6 0,0 0,0 0,0 0,0 0,0 0,0 0,0.3 0,0.6 0,0.9 0,0.3 0,0.5 0,0.8 0,0 0,0 0,0 0,0.2 0.1,0.5 0.1,0.7 0,0.1 0,0.1 0,0.2 0,0.2 0.1,0.4 0.1,0.5 0,0.1 0,0.2 0.1,0.2 0.1,0.2 0.1,0.4 0.2,0.6 0,0.1 0,0.1 0.1,0.2 0,0 0,0 0,0 0.1,0.2 0.2,0.4 0.3,0.6 0,0.1 0,0.1 0.1,0.1 0.1,0.2 0.2,0.4 0.3,0.5 0,0 0,0.1 0.1,0.1 0.1,0.2 0.2,0.3 0.3,0.5 0,0 0,0.1 0.1,0.1 0,0 0.1,0.1 0.1,0.1 0.1,0.2 0.3,0.4 0.5,0.5 l 1.7,1.7 c -0.2,-0.2 -0.3,-0.3 -0.5,-0.5 0,0 -0.1,-0.1 -0.1,-0.1 -0.2,0.2 -0.3,0 -0.5,-0.2 z"
   inkscape:connector-curvature="0" />

		<path
   id="path66"
   d="m 173.2,21.8 c 0.1,0.1 0.2,0.2 0.3,0.3 0.1,0.1 0.1,0.1 0.1,0.2 0.1,0.1 0.2,0.2 0.2,0.3 0,0 0.1,0.1 0.1,0.1 0.1,0.1 0.2,0.2 0.2,0.4 0,0.1 0.1,0.1 0.1,0.2 0.1,0.1 0.1,0.2 0.2,0.3 0,0.1 0.1,0.1 0.1,0.2 0.1,0.1 0.1,0.2 0.1,0.3 0,0.1 0.1,0.2 0.1,0.2 0,0.1 0.1,0.2 0.1,0.2 0.1,0.2 0.2,0.5 0.2,0.7 0,0 0,0 0,0.1 0.1,0.3 0.1,0.5 0.2,0.8 0,0.1 0,0.1 0,0.2 0,0.2 0.1,0.5 0.1,0.7 0,0 0,0.1 0,0.1 0,0.3 0.1,0.6 0.1,0.8 0,0.1 0,0.2 0,0.2 0,0.2 0,0.3 0,0.5 0,0.1 0,0.2 0,0.3 0,0.2 0,0.3 0,0.5 0,0.1 0,0.2 0,0.3 0,0.2 0,0.3 0,0.5 0,0.1 0,0.2 0,0.2 0,0.2 0,0.5 0,0.7 l -0.1,8.5 -0.1,8.6 c 0,0.1 0,0.2 0,0.3 0,0 0,0.1 0,0.1 0,0 0,0.1 0,0.1 0,0 0,0 0,0 0,0.1 0,0.2 0.1,0.4 0,0 0,0 0,0.1 0,0.1 0.1,0.2 0.1,0.3 0,0 0,0 0,0 0,0 0,0 0,0 0,0 0,0.1 0.1,0.1 0,0 0,0 0,0 0,0 0.1,0.1 0.1,0.1 0,0 0,0 0,0 v 0 c 0,0 0.1,0.1 0.1,0.1 l 1.7,1.7 c 0,0 -0.1,-0.1 -0.1,-0.1 0,0 0,0 0,-0.1 0,0 0,-0.1 -0.1,-0.1 0,0 0,0 0,-0.1 0,0 0,-0.1 0,-0.1 0,0 0,0 0,0 0,-0.1 -0.1,-0.2 -0.1,-0.3 0,0 0,0 0,-0.1 0,-0.1 0,-0.2 -0.1,-0.4 0,-0.1 0,-0.1 0,-0.2 0,0 0,-0.1 0,-0.1 0,-0.1 0,-0.2 0,-0.3 l 0.1,-8.6 0.1,-8.5 c 0,-0.2 0,-0.5 0,-0.7 0,-0.1 0,-0.2 0,-0.2 0,-0.2 0,-0.3 0,-0.5 0,-0.1 0,-0.2 0,-0.3 0,-0.2 0,-0.3 0,-0.5 0,-0.1 0,-0.2 0,-0.3 0,-0.1 0,-0.3 0,-0.4 0,-0.1 0,-0.1 0,-0.2 0,0 0,0 0,-0.1 0,-0.3 -0.1,-0.6 -0.1,-0.8 0,-0.1 0,-0.1 0,-0.1 0,-0.2 -0.1,-0.5 -0.1,-0.7 0,-0.1 0,-0.1 0,-0.2 -0.1,-0.3 -0.1,-0.5 -0.2,-0.8 0,0 0,0 0,-0.1 -0.1,-0.2 -0.1,-0.5 -0.2,-0.7 0,0 0,-0.1 0,-0.1 0,-0.1 0,-0.1 -0.1,-0.2 0,-0.1 -0.1,-0.1 -0.1,-0.2 0,-0.1 -0.1,-0.2 -0.1,-0.3 0,-0.1 -0.1,-0.1 -0.1,-0.2 -0.1,-0.1 -0.1,-0.2 -0.2,-0.3 0,-0.1 -0.1,-0.1 -0.1,-0.2 -0.1,-0.1 -0.2,-0.2 -0.2,-0.4 0,0 -0.1,-0.1 -0.1,-0.1 0,0 0,0 0,0 -0.1,-0.1 -0.2,-0.2 -0.2,-0.3 0,-0.1 -0.1,-0.1 -0.1,-0.2 -0.1,-0.2 -0.3,-0.3 -0.4,-0.5 -0.6,-0.6 -1.1,-1.2 -1.7,-1.7 0,0 0,0 0,0 v 0 c -0.1,0.5 0,0.6 0,0.6 z"
   inkscape:connector-curvature="0" />

		<path
   id="path68"
   d="m 181.1,56.4 c 0,0 0.1,-0.1 0.1,-0.1 0.1,-0.1 0.1,-0.1 0.2,-0.2 0,0 0,0 0.1,-0.1 0,0 0,0 0,0 0,0 0.1,-0.1 0.1,-0.1 0,-0.1 0.1,-0.1 0.1,-0.2 0,-0.1 0.1,-0.1 0.1,-0.2 0,0 0.1,-0.1 0.1,-0.1 0,0 0.1,-0.1 0.1,-0.1 0,0 0,-0.1 0.1,-0.1 0,0 0.1,-0.1 0.1,-0.1 0,0 0,-0.1 0.1,-0.1 0,0 0.1,-0.1 0.1,-0.1 0,0 0,-0.1 0.1,-0.1 0,0 0,-0.1 0.1,-0.1 0,0 0,-0.1 0,-0.1 0,0 0,-0.1 0.1,-0.1 0,-0.1 0.1,-0.1 0.1,-0.2 l -0.9,-3.7 -1.7,-1.7 0.9,3.7 c 0,0.1 -0.1,0.1 -0.1,0.2 0,0 0,0.1 -0.1,0.1 0,0 0,0 0,0.1 0,0 0,0.1 -0.1,0.1 0,0 0,0 -0.1,0.1 0,0 -0.1,0.1 -0.1,0.1 0,0 0,0.1 -0.1,0.1 0,0 -0.1,0.1 -0.1,0.1 0,0 0,0 -0.1,0.1 0,0.1 -0.1,0.1 -0.1,0.2 0,0 0,0 0,0.1 -0.1,0.2 -0.2,0.3 -0.4,0.5 0,0 0,0 0,0 -0.1,0.1 -0.1,0.2 -0.2,0.3 0,0 0,0 -0.1,0.1 -0.2,0.2 -0.4,0.4 -0.6,0.6 0,0 -0.1,0.1 -0.1,0.1 -0.1,0.1 -0.2,0.2 -0.3,0.3 0,0 0,0 -0.1,0.1 -0.1,0.1 -0.2,0.2 -0.3,0.3 0,0 -0.1,0 -0.1,0.1 -0.1,0.1 -0.2,0.2 -0.3,0.2 0,0 -0.1,0 -0.1,0.1 -0.1,0.1 -0.3,0.2 -0.4,0.3 0,0 -0.1,0 -0.1,0 -0.1,0.1 -0.2,0.2 -0.4,0.2 0,0 -0.1,0 -0.1,0.1 -0.1,0.1 -0.3,0.2 -0.4,0.3 0,0 0,0 0,0 -0.1,0.1 -0.3,0.2 -0.5,0.2 0,0 -0.1,0 -0.1,0.1 -0.1,0.1 -0.3,0.1 -0.4,0.2 0,0 -0.1,0 -0.1,0 -0.2,0.1 -0.3,0.1 -0.5,0.2 0,0 -0.1,0 -0.1,0 -0.1,0 -0.3,0.1 -0.4,0.1 0,0 -0.1,0 -0.1,0 -0.2,0 -0.4,0.1 -0.6,0.1 0,0 -0.1,0 -0.1,0 -0.2,0 -0.3,0 -0.5,0.1 -0.1,0 -0.1,0 -0.2,0 -0.2,0 -0.4,0 -0.6,0 -0.2,0 -0.4,0 -0.6,0 -2.8,-0.2 -4.7,-1.5 -5.9,-2.7 0.1,-0.1 0.1,-0.2 0.2,-0.3 L 164,53.8 c -0.1,0.1 -0.2,0.2 -0.3,0.4 0,0 -0.1,0.1 -0.1,0.1 -0.1,0.1 -0.1,0.2 -0.2,0.3 0,0 -0.1,0.1 -0.1,0.1 -0.1,0.1 -0.1,0.2 -0.2,0.3 0,0 -0.1,0.1 -0.1,0.1 -0.1,0.1 -0.1,0.1 -0.2,0.2 -0.1,0.1 -0.1,0.1 -0.1,0.2 -0.1,0.1 -0.1,0.1 -0.2,0.2 -0.1,0.1 -0.1,0.1 -0.2,0.2 -0.1,0.1 -0.2,0.1 -0.2,0.2 -0.1,0.1 -0.1,0.1 -0.2,0.2 -0.1,0.1 -0.2,0.1 -0.3,0.2 -0.1,0 -0.1,0.1 -0.2,0.1 -0.1,0.1 -0.2,0.2 -0.3,0.2 -0.1,0 -0.1,0.1 -0.2,0.1 -0.2,0.1 -0.4,0.2 -0.5,0.3 0,0 -0.1,0 -0.1,0.1 -0.2,0.1 -0.3,0.2 -0.5,0.3 -0.1,0 -0.1,0.1 -0.2,0.1 -0.1,0.1 -0.3,0.1 -0.4,0.2 -0.1,0 -0.2,0.1 -0.3,0.1 -0.1,0 -0.3,0.1 -0.4,0.1 -0.1,0 -0.2,0.1 -0.3,0.1 -0.1,0 -0.3,0.1 -0.5,0.1 -0.1,0 -0.2,0 -0.3,0.1 -0.2,0 -0.3,0.1 -0.5,0.1 -0.1,0 -0.2,0 -0.3,0.1 -0.2,0 -0.4,0 -0.6,0.1 -0.1,0 -0.2,0 -0.3,0 -0.3,0 -0.6,0 -1,0 -0.4,0 -0.9,0 -1.3,-0.1 -2.9,-0.2 -5.2,-1.3 -6.8,-3 0.6,0.6 1.1,1.2 1.7,1.7 1.9,1.9 4.6,3 8.1,3 0.3,0 0.7,0 1,0 0.1,0 0.2,0 0.3,0 0.2,0 0.4,0 0.6,-0.1 0.1,0 0.2,0 0.3,0 0.2,0 0.4,-0.1 0.5,-0.1 0.1,0 0.2,0 0.3,-0.1 0.2,0 0.3,-0.1 0.5,-0.1 0.1,0 0.2,-0.1 0.3,-0.1 0.1,0 0.3,-0.1 0.4,-0.1 0.1,0 0.2,-0.1 0.3,-0.1 0.1,-0.1 0.3,-0.1 0.4,-0.2 0.1,0 0.1,-0.1 0.2,-0.1 0.2,-0.1 0.4,-0.2 0.5,-0.3 0,0 0,0 0.1,0 0.2,-0.1 0.4,-0.2 0.6,-0.3 0,0 0.1,-0.1 0.1,-0.1 0.1,-0.1 0.2,-0.2 0.4,-0.3 0.1,0 0.1,-0.1 0.2,-0.1 0.1,-0.1 0.2,-0.2 0.3,-0.2 0.1,0 0.1,-0.1 0.2,-0.1 0.1,-0.1 0.2,-0.2 0.3,-0.2 0,0 0.1,-0.1 0.1,-0.1 0.1,-0.1 0.2,-0.2 0.2,-0.2 0,0 0.1,-0.1 0.1,-0.1 0.1,-0.1 0.2,-0.2 0.3,-0.3 0,0 0.1,-0.1 0.1,-0.1 0.1,-0.1 0.2,-0.3 0.3,-0.4 0.1,-0.1 0.2,-0.3 0.3,-0.4 0.6,0.6 1.1,1.2 1.7,1.7 1.3,1.3 3.4,2.7 6.5,2.7 0.2,0 0.4,0 0.6,0 0.1,0 0.1,0 0.2,0 0.2,0 0.3,0 0.5,-0.1 0,0 0.1,0 0.1,0 0.2,0 0.4,-0.1 0.6,-0.1 0,0 0.1,0 0.1,0 0.1,0 0.3,-0.1 0.4,-0.1 0,0 0.1,0 0.1,0 0.2,-0.1 0.4,-0.1 0.5,-0.2 0,0 0.1,0 0.1,0 0.1,-0.1 0.3,-0.1 0.4,-0.2 0,0 0.1,0 0.1,-0.1 0.2,-0.1 0.3,-0.1 0.5,-0.2 0,0 0,0 0,0 0.2,-0.1 0.3,-0.2 0.4,-0.2 0,0 0.1,-0.1 0.1,-0.1 0.1,-0.1 0.2,-0.1 0.3,-0.2 0,0 0.1,0 0.1,-0.1 0.1,-0.1 0.3,-0.2 0.4,-0.3 0,0 0.1,-0.1 0.1,-0.1 0.1,-0.1 0.2,-0.2 0.3,-0.2 0,0 0.1,-0.1 0.1,-0.1 0.1,-0.1 0.2,-0.2 0.3,-0.3 0,0 0,0 0.1,-0.1 0.1,-0.1 0.2,-0.2 0.3,-0.2 0,0 0.1,-0.1 0.1,-0.1 0.1,-0.1 0.2,-0.2 0.3,-0.3 0,0 0,0 0,0 0,-0.7 0.1,-0.7 0.2,-0.8 z"
   inkscape:connector-curvature="0" />

		<path
   id="path70"
   d="m 183.9,30.4 c 1.6,0 2.5,0.4 3.1,1 -0.6,-0.6 -1.1,-1.2 -1.7,-1.7 -0.6,-0.6 -1.5,-1 -3.1,-1 h -0.6 l 1.7,1.7 z"
   inkscape:connector-curvature="0" />

		<polygon
   id="polygon72"
   points="197.6,25.5 199.3,27.2 199.3,21.4 197.6,19.6 " />

		<path
   id="path74"
   d="m 197.5,49.6 c 0,0.1 0,0.3 0,0.4 0,0 0,0.1 0,0.1 0,0 0,0.1 0,0.1 0,0 0,0.1 0,0.1 0,0.1 0,0.2 0.1,0.3 0,0 0,0.1 0,0.1 0,0.1 0.1,0.3 0.1,0.4 0,0 0,0.1 0,0.1 0,0.1 0,0.1 0.1,0.2 0,0 0,0.1 0,0.1 0,0.1 0,0.1 0.1,0.2 0,0.1 0.1,0.2 0.1,0.3 0,0 0.1,0.1 0.1,0.1 0,0 0,0 0,0.1 0.1,0.1 0.2,0.2 0.2,0.3 0.6,0.6 1.1,1.2 1.7,1.7 -0.1,-0.1 -0.2,-0.2 -0.3,-0.3 0,0 -0.1,-0.1 -0.1,-0.1 -0.1,-0.1 -0.1,-0.2 -0.1,-0.3 0,-0.1 0,-0.1 -0.1,-0.2 0,-0.1 -0.1,-0.2 -0.1,-0.3 0,0 0,-0.1 0,-0.1 0,-0.1 -0.1,-0.3 -0.1,-0.4 0,0 0,-0.1 0,-0.1 0,-0.1 0,-0.2 -0.1,-0.3 0,0 0,-0.1 0,-0.1 0,-0.1 0,-0.1 0,-0.2 0,-0.1 0,-0.3 0,-0.4 0,-0.1 0,-0.1 0,-0.2 0,-0.2 0,-0.4 0,-0.5 0,-2.5 0.1,-15.8 0.1,-16.5 0,0 0,0 0,-0.1 0,0 0,-0.1 0,-0.1 0,0 0,0 0,-0.1 0,0 0,-0.1 0,-0.1 0,0 0,0 0,-0.1 0,0 0,-0.1 0.1,-0.1 0,0 0,0 0,-0.1 0,0 0,-0.1 0.1,-0.1 0,0 0,0 0,-0.1 0,0 0,-0.1 0.1,-0.1 0,0 0,-0.1 0,-0.1 0,-0.1 0,-0.1 0.1,-0.2 0,0 0,0 0,-0.1 0,-0.1 0.1,-0.1 0.1,-0.2 0,0 0,0 0,-0.1 0,-0.1 0.1,-0.1 0.1,-0.2 0,0 0,0 0,0 0.1,-0.1 0.1,-0.2 0.2,-0.4 0,0 0,0 0,-0.1 0.1,-0.1 0.1,-0.2 0.2,-0.4 0,0 0,0 0,0 0.1,-0.1 0.2,-0.2 0.2,-0.4 0,0 0,0 0.1,-0.1 0.1,-0.1 0.2,-0.2 0.3,-0.4 0,0 0.1,-0.1 0.1,-0.1 0,0 0.1,-0.1 0.1,-0.1 0,0 0.1,-0.1 0.1,-0.1 0,0 0.1,-0.1 0.1,-0.1 0,0 0.1,-0.1 0.1,-0.1 0,0 0.1,-0.1 0.1,-0.1 0,0 0.1,-0.1 0.1,-0.1 0,0 0.1,-0.1 0.1,-0.1 0,0 0.1,-0.1 0.1,-0.1 0,0 0.1,-0.1 0.1,-0.1 0,0 0.1,-0.1 0.1,-0.1 0.1,0 0.1,-0.1 0.2,-0.1 0,0 0.1,-0.1 0.1,-0.1 0.1,0 0.1,-0.1 0.2,-0.1 0,0 0.1,-0.1 0.1,-0.1 0.1,0 0.1,-0.1 0.2,-0.1 0,0 0.1,-0.1 0.1,-0.1 0.1,0 0.1,-0.1 0.2,-0.1 0,0 0.1,0 0.1,-0.1 0.1,0 0.1,-0.1 0.2,-0.1 0.1,0 0.1,0 0.1,-0.1 0.1,0 0.1,-0.1 0.2,-0.1 0.1,0 0.1,0 0.2,-0.1 0.1,0 0.1,0 0.2,-0.1 0.1,0 0.1,0 0.2,0 0.1,0 0.1,0 0.2,-0.1 0.1,0 0.1,0 0.2,0 0.1,0 0.2,0 0.2,0 0.1,0 0.1,0 0.2,0 0.1,0 0.2,0 0.3,0 0,0 0.1,0 0.1,0 0.1,0 0.3,0 0.4,0 1,0 1.8,0.4 2.3,0.9 -0.6,-0.6 -1.1,-1.2 -1.7,-1.7 -0.5,-0.5 -1.3,-0.9 -2.3,-0.9 -0.1,0 -0.3,0 -0.4,0 0,0 -0.1,0 -0.1,0 -0.1,0 -0.2,0 -0.3,0 -0.1,0 -0.1,0 -0.2,0 -0.1,0 -0.2,0 -0.2,0 -0.1,0 -0.1,0 -0.2,0 -0.1,0 -0.1,0 -0.2,0.1 -0.1,0 -0.1,0 -0.2,0.1 -0.1,0 -0.1,0 -0.2,0.1 -0.1,0 -0.1,0 -0.2,0.1 -0.1,0 -0.1,0 -0.2,0.1 -0.1,0 -0.1,0 -0.2,0.1 -0.1,0 -0.1,0.1 -0.2,0.1 -0.1,0 -0.1,0.1 -0.2,0.1 -0.1,0 -0.1,0.1 -0.2,0.1 -0.1,0 -0.1,0.1 -0.1,0.1 -0.1,0 -0.1,0.1 -0.2,0.1 -0.1,0 -0.1,0.1 -0.1,0.1 0,0 -0.1,0.1 -0.1,0.1 -0.1,0 -0.1,0.1 -0.1,0.1 0,0 -0.1,0.1 -0.1,0.1 0,0 -0.1,0.1 -0.1,0.1 0,0 -0.1,0.1 -0.1,0.1 0,0 -0.1,0.1 -0.1,0.1 0,0 -0.1,0.1 -0.1,0.1 0,0 -0.1,0.1 -0.1,0.1 0,0 -0.1,0.1 -0.1,0.1 0,0 -0.1,0.1 -0.1,0.1 0,0 -0.1,0.1 -0.1,0.1 0,0 -0.1,0.1 -0.1,0.1 0,0 -0.1,0.1 -0.1,0.1 0,0 0,0.1 -0.1,0.1 0,0 0,0 0,0 -0.1,0.1 -0.2,0.2 -0.3,0.4 0,0 0,0.1 -0.1,0.1 -0.1,0.1 -0.2,0.2 -0.2,0.3 0,0 0,0 0,0 -0.1,0.1 -0.1,0.2 -0.2,0.4 0,0 0,0.1 -0.1,0.1 -0.1,0.1 -0.1,0.2 -0.2,0.3 0,0 0,0 0,0 0,0 0,0.1 -0.1,0.1 0,0 0,0.1 -0.1,0.1 0,0 -0.1,0.1 -0.1,0.1 0,0 0,0.1 -0.1,0.1 0,0 0,0.1 -0.1,0.1 0,0 0,0.1 0,0.1 0,0 0,0.1 -0.1,0.1 0,0 0,0.1 0,0.1 0,0 0,0.1 -0.1,0.1 0,0 0,0.1 0,0.1 0,0 0,0.1 0,0.1 0,0 0,0.1 0,0.1 0,0 0,0.1 0,0.1 0,0 0,0.1 0,0.1 0,0 0,0.1 0,0.1 0,0 0,0 0,0.1 0,0 0,0 0,0.1 0,0 0,0 0,0 0,0.7 -0.1,13.9 -0.1,16.5 0,0.2 0,0.4 0,0.5 0.3,0.3 0.3,0.3 0.3,0.4 z"
   inkscape:connector-curvature="0" />

		<path
   id="path76"
   d="m 231,30.7 c 0.1,-0.1 0.2,-0.2 0.3,-0.4 0,-0.1 0.1,-0.1 0.1,-0.2 0.1,-0.1 0.1,-0.2 0.2,-0.2 0.1,-0.1 0.1,-0.1 0.2,-0.2 0.1,-0.1 0.1,-0.2 0.2,-0.2 0.1,-0.1 0.1,-0.1 0.2,-0.2 0.1,-0.1 0.1,-0.2 0.2,-0.2 0.1,-0.1 0.1,-0.1 0.2,-0.2 0.1,-0.1 0.2,-0.2 0.2,-0.2 0.1,-0.1 0.1,-0.1 0.2,-0.2 0.1,-0.1 0.2,-0.1 0.3,-0.2 0.1,-0.1 0.2,-0.1 0.2,-0.2 0.1,-0.1 0.2,-0.1 0.3,-0.2 0.1,-0.1 0.2,-0.1 0.2,-0.2 0.1,-0.1 0.2,-0.1 0.3,-0.2 0.1,-0.1 0.2,-0.1 0.3,-0.2 0.1,-0.1 0.2,-0.1 0.3,-0.2 0.1,-0.1 0.2,-0.1 0.3,-0.2 0.1,-0.1 0.2,-0.1 0.3,-0.2 0.1,0 0.2,-0.1 0.3,-0.1 0.1,-0.1 0.2,-0.1 0.4,-0.2 0.1,0 0.2,-0.1 0.3,-0.1 0.1,0 0.3,-0.1 0.4,-0.1 0.1,0 0.2,-0.1 0.3,-0.1 0.1,0 0.3,-0.1 0.4,-0.1 0.1,0 0.2,-0.1 0.3,-0.1 0.2,0 0.3,-0.1 0.5,-0.1 0.1,0 0.2,0 0.3,-0.1 0.2,0 0.4,0 0.6,-0.1 0.1,0 0.2,0 0.3,0 0.3,0 0.6,0 0.9,0 1.9,0 3.2,0.5 4,1.4 -0.6,-0.6 -1.1,-1.2 -1.7,-1.7 -0.8,-0.8 -2.1,-1.4 -4,-1.4 -0.3,0 -0.6,0 -0.9,0 -0.1,0 -0.2,0 -0.3,0 -0.2,0 -0.4,0 -0.6,0.1 -0.1,0 -0.2,0 -0.3,0.1 -0.2,0 -0.3,0.1 -0.5,0.1 -0.1,0 -0.2,0.1 -0.3,0.1 -0.1,0 -0.3,0.1 -0.4,0.1 -0.1,0 -0.2,0.1 -0.3,0.1 -0.1,0 -0.3,0.1 -0.4,0.1 -0.1,0 -0.2,0.1 -0.3,0.1 -0.1,0.1 -0.3,0.1 -0.4,0.2 -0.1,0 -0.2,0.1 -0.3,0.1 -0.1,0.1 -0.2,0.1 -0.3,0.2 -0.1,0.1 -0.2,0.1 -0.3,0.2 -0.1,0.1 -0.2,0.1 -0.3,0.2 -0.1,0.1 -0.2,0.1 -0.3,0.2 -0.1,0.1 -0.2,0.1 -0.3,0.2 -0.1,0.1 -0.2,0.1 -0.2,0.2 -0.1,0.1 -0.2,0.1 -0.3,0.2 -0.1,0.1 -0.1,0.1 -0.2,0.2 -0.1,0.1 -0.2,0.2 -0.3,0.2 -0.1,0.1 -0.1,0.1 -0.2,0.2 -0.1,0.1 -0.2,0.2 -0.3,0.2 -0.1,0.1 -0.1,0.1 -0.2,0.2 -0.1,0.1 -0.2,0.2 -0.2,0.2 -0.1,0.1 -0.1,0.1 -0.2,0.2 -0.1,0.1 -0.1,0.2 -0.2,0.2 -0.1,0.1 -0.1,0.1 -0.2,0.2 -0.1,0.1 -0.1,0.2 -0.2,0.2 -0.1,0.1 -0.1,0.1 -0.1,0.2 0,0 0,0.1 -0.1,0.1 -0.1,0.1 -0.1,0.2 -0.2,0.3 l -3.3,-1.9 1.7,1.7 z"
   inkscape:connector-curvature="0" />

		<polygon
   id="polygon78"
   points="201.3,57.5 181.5,57.5 183.2,59.2 203,59.2 203,55.1 201.3,53.3 " />

		<path
   id="path80"
   d="m 218.2,22.7 c 0.1,0.1 0.2,0.3 0.3,0.4 0,0.1 0.1,0.1 0.1,0.2 0.1,0.2 0.2,0.3 0.3,0.5 0,0 0,0.1 0.1,0.1 0.1,0.2 0.2,0.4 0.3,0.6 0,0 0,0.1 0.1,0.1 0.1,0.2 0.1,0.3 0.2,0.5 0,0 0,0.1 0,0.1 0.1,0.2 0.1,0.4 0.2,0.6 0,0 0,0.1 0,0.1 0,0.2 0.1,0.4 0.1,0.5 0,0 0,0.1 0,0.1 0,0.2 0,0.4 0,0.6 0,4.1 -0.1,18.6 -0.2,20.8 0,0.2 0,0.5 0,0.7 0,0 0,0 0,0.1 0,0.2 0,0.5 0,0.7 0,0 0,0 0,0 0,0 0,0 0,0 0,0.1 0,0.3 0,0.4 0,0 0,0.1 0,0.1 0,0.1 0,0.3 0.1,0.4 0,0 0,0 0,0 0,0.1 0.1,0.2 0.1,0.4 0,0 0,0.1 0,0.1 0,0.1 0.1,0.3 0.1,0.4 0,0 0,0 0,0 0,0 0,0 0,0 0.1,0.1 0.1,0.2 0.2,0.4 0,0 0,0 0,0.1 0.1,0.1 0.1,0.2 0.2,0.4 0,0 0,0 0,0 0,0 0,0 0,0 0.1,0.1 0.2,0.2 0.3,0.3 0.6,0.6 1.1,1.2 1.7,1.7 -0.1,-0.1 -0.2,-0.2 -0.3,-0.3 0,0 0,0 -0.1,-0.1 -0.1,-0.1 -0.2,-0.2 -0.2,-0.4 0,0 0,0 0,-0.1 -0.1,-0.1 -0.1,-0.2 -0.2,-0.4 0,0 0,0 0,0 0,-0.1 -0.1,-0.3 -0.1,-0.4 0,0 0,-0.1 0,-0.1 0,-0.1 -0.1,-0.2 -0.1,-0.4 0,0 0,0 0,0 0,-0.1 -0.1,-0.3 -0.1,-0.4 0,0 0,-0.1 0,-0.1 0,-0.1 0,-0.3 0,-0.4 0,0 0,0 0,0 0,-0.2 0,-0.5 0,-0.7 0,0 0,0 0,-0.1 0,-0.2 0,-0.5 0,-0.7 0,-2.2 0.1,-16.7 0.2,-20.8 0,-0.2 0,-0.4 0,-0.6 0,0 0,0 0,-0.1 0,0 0,-0.1 0,-0.1 0,-0.2 -0.1,-0.3 -0.1,-0.5 0,0 0,-0.1 0,-0.1 0,-0.2 -0.1,-0.4 -0.2,-0.6 0,0 0,-0.1 0,-0.1 0,-0.1 -0.1,-0.2 -0.1,-0.2 0,-0.1 -0.1,-0.2 -0.1,-0.3 0,0 0,-0.1 -0.1,-0.1 -0.1,-0.2 -0.2,-0.4 -0.3,-0.6 0,0 0,-0.1 -0.1,-0.1 -0.1,-0.2 -0.2,-0.3 -0.3,-0.5 0,0 -0.1,-0.1 -0.1,-0.1 0,0 -0.1,-0.1 -0.1,-0.1 -0.1,-0.1 -0.2,-0.2 -0.2,-0.3 0,-0.1 -0.1,-0.1 -0.1,-0.2 -0.2,-0.2 -0.3,-0.4 -0.5,-0.5 -0.6,-0.6 -1.1,-1.2 -1.7,-1.7 0.2,0.2 0.3,0.4 0.5,0.5 0.1,0.1 0.1,0.2 0.2,0.3 z"
   inkscape:connector-curvature="0" />

		<polygon
   id="polygon82"
   points="224.1,57.5 204.2,57.5 205.9,59.2 225.8,59.2 225.9,55 224.1,53.3 " />

		<path
   id="path84"
   d="m 237.3,51.3 c 0,0 0,-0.1 -0.1,-0.1 -0.1,-0.2 -0.2,-0.4 -0.3,-0.5 0,0 -0.1,-0.1 -0.1,-0.1 -0.1,-0.2 -0.2,-0.4 -0.3,-0.7 0,-0.1 0,-0.1 -0.1,-0.2 -0.1,-0.2 -0.1,-0.4 -0.2,-0.6 0,-0.1 0,-0.2 -0.1,-0.2 0,-0.2 -0.1,-0.4 -0.1,-0.5 0,-0.1 0,-0.1 0,-0.2 0,-0.2 -0.1,-0.5 -0.1,-0.7 0,-0.3 0,-0.6 0,-0.8 0,-0.3 0,-0.7 0,-1 0,-0.3 0.1,-0.6 0.1,-0.8 0,0 0,0 0,-0.1 0.1,-0.5 0.2,-1 0.3,-1.5 0,-0.1 0.1,-0.1 0.1,-0.2 0,-0.1 0.1,-0.3 0.1,-0.4 0,-0.1 0.1,-0.2 0.1,-0.2 0.1,-0.1 0.1,-0.2 0.2,-0.3 0,-0.1 0.1,-0.1 0.1,-0.2 0.1,-0.1 0.1,-0.2 0.2,-0.3 0.1,-0.1 0.1,-0.2 0.2,-0.3 0,-0.1 0.1,-0.1 0.1,-0.2 0.1,-0.1 0.1,-0.2 0.2,-0.3 0.1,-0.1 0.1,-0.1 0.1,-0.2 0,-0.1 0.1,-0.1 0.1,-0.1 0.1,-0.1 0.1,-0.1 0.2,-0.2 0,0 0.1,-0.1 0.1,-0.1 0.1,-0.1 0.1,-0.1 0.2,-0.2 0,0 0.1,-0.1 0.1,-0.1 0.1,-0.1 0.1,-0.1 0.2,-0.2 0,0 0.1,-0.1 0.1,-0.1 0.1,0 0.1,-0.1 0.2,-0.1 0,0 0.1,-0.1 0.1,-0.1 0.1,0 0.1,-0.1 0.2,-0.1 0,0 0.1,0 0.1,-0.1 0.1,0 0.1,-0.1 0.2,-0.1 0,0 0.1,0 0.1,0 0.1,0 0.2,-0.1 0.2,-0.1 1.5,-0.8 2.9,-1.1 4.2,-1.1 0.7,0 1.4,0.1 2,0.3 l -1.7,-1.7 c -0.6,-0.2 -1.2,-0.3 -2,-0.3 -1.3,0 -2.7,0.3 -4.2,1.1 -0.1,0 -0.1,0.1 -0.2,0.1 0,0 0,0 -0.1,0 -0.1,0 -0.1,0.1 -0.2,0.1 0,0 -0.1,0 -0.1,0.1 -0.1,0 -0.1,0.1 -0.2,0.1 0,0 -0.1,0.1 -0.1,0.1 -0.1,0 -0.1,0.1 -0.2,0.1 0,0 -0.1,0.1 -0.1,0.1 -0.1,0.1 -0.1,0.1 -0.2,0.2 0,0 -0.1,0.1 -0.1,0.1 -0.1,0.1 -0.1,0.1 -0.2,0.2 0,0 -0.1,0.1 -0.1,0.1 -0.1,0.1 -0.1,0.1 -0.2,0.2 0,0 -0.1,0.1 -0.1,0.1 0,0 0,0 0,0.1 0,0 -0.1,0.1 -0.1,0.1 -0.1,0.1 -0.1,0.2 -0.2,0.3 0,0.1 -0.1,0.1 -0.1,0.2 -0.1,0.1 -0.1,0.2 -0.2,0.3 0,0 0,0.1 -0.1,0.1 0,0.1 -0.1,0.1 -0.1,0.2 0,0.1 -0.1,0.1 -0.1,0.2 -0.1,0.1 -0.1,0.2 -0.2,0.3 0,0.1 -0.1,0.2 -0.1,0.2 0,0 0,0.1 0,0.1 0,0.1 -0.1,0.2 -0.1,0.3 0,0.1 -0.1,0.1 -0.1,0.2 -0.1,0.2 -0.1,0.4 -0.2,0.7 0,0 0,0 0,0.1 -0.1,0.2 -0.1,0.5 -0.1,0.8 0,0.1 0,0.2 0,0.3 0,0.2 0,0.4 -0.1,0.6 0,0 0,0 0,0 0,0 0,0 0,0 0,0.3 0,0.6 0,0.9 0,0.3 0,0.6 0,0.8 0,0 0,0 0,0 0,0.2 0.1,0.5 0.1,0.7 0,0.1 0,0.1 0,0.2 0,0.2 0.1,0.4 0.1,0.5 0,0.1 0,0.2 0.1,0.2 0.1,0.2 0.1,0.4 0.2,0.5 0,0.1 0,0.1 0.1,0.2 0,0 0,0 0,0 0.1,0.2 0.2,0.4 0.3,0.6 0,0.1 0.1,0.1 0.1,0.2 0.1,0.2 0.2,0.4 0.3,0.5 0,0 0,0.1 0.1,0.1 0.1,0.2 0.2,0.3 0.3,0.5 0,0 0,0.1 0.1,0.1 0,0 0.1,0.1 0.1,0.1 0.1,0.2 0.3,0.4 0.5,0.5 0,0 0,0 0,0 0.6,0.6 1.1,1.2 1.7,1.7 -0.2,-0.2 -0.3,-0.3 -0.5,-0.5 0,0 -0.1,-0.1 -0.1,-0.1 -0.1,-0.1 -0.3,-0.3 -0.4,-0.5 z"
   inkscape:connector-curvature="0" />

		<path
   id="path86"
   d="m 254.3,22.3 c 0.1,0.1 0.2,0.2 0.2,0.3 0,0 0.1,0.1 0.1,0.1 0.1,0.1 0.2,0.2 0.2,0.4 0,0.1 0.1,0.1 0.1,0.2 0.1,0.1 0.1,0.2 0.2,0.3 0,0.1 0.1,0.1 0.1,0.2 0.1,0.1 0.1,0.2 0.1,0.3 0,0.1 0.1,0.1 0.1,0.2 0,0.1 0.1,0.2 0.1,0.3 0.1,0.2 0.2,0.5 0.2,0.7 0,0 0,0.1 0,0.1 0.1,0.3 0.1,0.5 0.2,0.8 0,0.1 0,0.1 0,0.2 0,0.2 0.1,0.5 0.1,0.7 0,0 0,0.1 0,0.1 0,0.3 0.1,0.6 0.1,0.8 0,0.1 0,0.2 0,0.2 0,0.2 0,0.3 0,0.5 0,0.1 0,0.2 0,0.3 0,0.2 0,0.3 0,0.5 0,0.1 0,0.2 0,0.3 0,0.2 0,0.4 0,0.5 0,0.1 0,0.1 0,0.2 0,0.2 0,0.5 0,0.8 l -0.1,8.5 -0.1,8.5 c 0,0.1 0,0.2 0,0.3 0,0 0,0.1 0,0.1 0,0 0,0.1 0,0.1 0,0 0,0 0,0 0,0.1 0,0.3 0.1,0.4 0,0 0,0 0,0.1 0,0.1 0.1,0.2 0.1,0.3 0,0 0,0 0,0 0,0 0,0 0,0 0,0 0,0.1 0.1,0.1 0,0 0,0 0,0 0,0 0,0.1 0.1,0.1 0,0 0,0 0,0 0,0 0,0 0,0 0,0 0.1,0.1 0.1,0.1 0.6,0.6 1.1,1.2 1.7,1.7 0,0 -0.1,-0.1 -0.1,-0.1 0,0 0,0 0,0 0,0 -0.1,-0.1 -0.1,-0.1 0,0 0,0 0,-0.1 0,0 0,-0.1 0,-0.1 0,0 0,0 0,0 0,-0.1 -0.1,-0.2 -0.1,-0.3 0,0 0,0 0,-0.1 0,-0.1 0,-0.2 -0.1,-0.4 0,-0.1 0,-0.1 0,-0.2 0,0 0,-0.1 0,-0.1 0,-0.1 0,-0.2 0,-0.3 l 0.1,-8.5 0.1,-8.5 c 0,-0.2 0,-0.5 0,-0.7 0,-0.1 0,-0.2 0,-0.2 0,-0.2 0,-0.3 0,-0.5 0,-0.1 0,-0.2 0,-0.3 0,-0.2 0,-0.3 0,-0.5 0,-0.1 0,-0.2 0,-0.3 0,-0.2 0,-0.3 0,-0.5 0,-0.1 0,-0.1 0,-0.2 0,0 0,0 0,-0.1 0,-0.3 -0.1,-0.6 -0.1,-0.8 0,-0.1 0,-0.1 0,-0.2 0,-0.2 -0.1,-0.5 -0.1,-0.7 0,-0.1 0,-0.1 0,-0.2 -0.1,-0.3 -0.1,-0.5 -0.2,-0.8 0,0 0,-0.1 0,-0.1 -0.1,-0.2 -0.1,-0.5 -0.2,-0.7 0,0 0,-0.1 0,-0.1 0,-0.1 0,-0.1 -0.1,-0.2 0,-0.1 -0.1,-0.1 -0.1,-0.2 0,-0.1 -0.1,-0.2 -0.2,-0.3 0,-0.1 -0.1,-0.1 -0.1,-0.2 -0.1,-0.1 -0.1,-0.2 -0.2,-0.3 0,-0.1 -0.1,-0.1 -0.1,-0.2 -0.1,-0.1 -0.2,-0.3 -0.3,-0.4 0,0 0,-0.1 -0.1,-0.1 0,0 0,0 0,0 -0.1,-0.1 -0.2,-0.2 -0.3,-0.3 0,0 -0.1,-0.1 -0.1,-0.1 -0.1,-0.1 -0.2,-0.2 -0.3,-0.3 0,0 -0.1,-0.1 -0.1,-0.1 -0.6,-0.6 -1.1,-1.2 -1.7,-1.7 0.2,0.2 0.3,0.3 0.4,0.5 0.2,0.2 0.3,0.3 0.3,0.3 z"
   inkscape:connector-curvature="0" />

		<path
   id="path88"
   d="m 261.8,56.4 c 0,-0.1 0,-0.1 0,0 0.1,-0.2 0.2,-0.2 0.3,-0.3 0,0 0,0 0,0 0,0 0,0 0,0 0.1,-0.1 0.1,-0.2 0.2,-0.2 0,0 0,0 0,0 0.1,-0.1 0.1,-0.2 0.2,-0.2 0,0 0,0 0,0 0,-0.1 0.1,-0.1 0.1,-0.2 0,0 0,0 0.1,-0.1 0,0 0.1,-0.1 0.1,-0.1 0,0 0,0 0.1,-0.1 0,0 0.1,-0.1 0.1,-0.1 0,0 0,0 0,-0.1 0,0 0.1,-0.1 0.1,-0.1 0,0 0,0 0,0 0.1,-0.1 0.1,-0.2 0.2,-0.3 l -0.9,-3.7 -1.7,-1.7 0.9,3.7 c 0,0.1 -0.1,0.1 -0.1,0.2 0,0 0,0.1 -0.1,0.1 0,0 0,0 0,0.1 0,0 -0.1,0.1 -0.1,0.1 0,0 0,0 0,0.1 0,0 -0.1,0.1 -0.1,0.1 0,0 0,0 0,0.1 0,0.1 -0.1,0.1 -0.1,0.2 0,0 0,0 0,0.1 0,0.1 -0.1,0.1 -0.1,0.2 0,0 0,0 0,0 -0.1,0.1 -0.1,0.2 -0.2,0.2 0,0 0,0 0,0 -0.1,0.1 -0.1,0.1 -0.2,0.2 0,0 0,0 0,0.1 -0.1,0.1 -0.1,0.2 -0.2,0.2 0,0 0,0 -0.1,0.1 -0.1,0.1 -0.2,0.2 -0.3,0.3 0,0 0,0 0,0 -0.1,0.1 -0.2,0.2 -0.3,0.3 0,0 -0.1,0.1 -0.1,0.1 -0.1,0.1 -0.2,0.2 -0.3,0.3 0,0 0,0 0,0 -0.1,0.1 -0.2,0.2 -0.3,0.3 0,0 -0.1,0 -0.1,0.1 -0.1,0.1 -0.2,0.2 -0.3,0.2 0,0 -0.1,0 -0.1,0.1 -0.1,0.1 -0.3,0.2 -0.4,0.3 0,0 -0.1,0 -0.1,0.1 -0.1,0.1 -0.2,0.1 -0.4,0.2 0,0 -0.1,0 -0.1,0.1 -0.1,0.1 -0.3,0.2 -0.4,0.3 0,0 0,0 0,0 -0.1,0.1 -0.3,0.1 -0.5,0.2 0,0 -0.1,0 -0.1,0.1 -0.1,0.1 -0.3,0.1 -0.4,0.2 0,0 -0.1,0 -0.1,0 -0.2,0.1 -0.3,0.1 -0.5,0.2 0,0 -0.1,0 -0.1,0 -0.1,0 -0.3,0.1 -0.4,0.1 0,0 -0.1,0 -0.1,0 -0.2,0 -0.4,0.1 -0.6,0.1 0,0 -0.1,0 -0.1,0 -0.2,0 -0.3,0 -0.5,0.1 -0.1,0 -0.1,0 -0.2,0 -0.2,0 -0.4,0 -0.6,0 -3.1,0 -5.2,-1.4 -6.5,-2.7 0.1,-0.1 0.1,-0.2 0.2,-0.3 L 244.9,54 c -0.1,0.1 -0.2,0.2 -0.3,0.4 0,0.1 -0.1,0.1 -0.1,0.2 -0.1,0.1 -0.1,0.1 -0.2,0.2 -0.1,0.1 -0.2,0.2 -0.3,0.4 0,0 0,0 -0.1,0.1 -0.1,0.1 -0.2,0.2 -0.3,0.3 0,0 -0.1,0.1 -0.1,0.1 -0.1,0.1 -0.2,0.2 -0.2,0.2 -0.1,0 -0.1,0.1 -0.2,0.1 -0.1,0.1 -0.2,0.2 -0.3,0.2 -0.1,0 -0.1,0.1 -0.2,0.1 -0.1,0.1 -0.2,0.1 -0.3,0.2 -0.1,0 -0.1,0.1 -0.2,0.1 -0.1,0.1 -0.2,0.1 -0.3,0.2 -0.1,0 -0.1,0.1 -0.2,0.1 -0.1,0.1 -0.3,0.2 -0.4,0.3 0,0 -0.1,0 -0.1,0.1 -0.2,0.1 -0.4,0.2 -0.6,0.3 -0.1,0 -0.1,0.1 -0.2,0.1 -0.1,0.1 -0.3,0.1 -0.5,0.2 -0.1,0 -0.2,0.1 -0.3,0.1 -0.1,0.1 -0.3,0.1 -0.4,0.1 -0.1,0 -0.2,0.1 -0.3,0.1 -0.2,0 -0.3,0.1 -0.5,0.1 -0.1,0 -0.2,0 -0.3,0.1 -0.2,0 -0.3,0.1 -0.5,0.1 -0.1,0 -0.2,0 -0.3,0 -0.2,0 -0.4,0 -0.6,0.1 -0.1,0 -0.2,0 -0.3,0 -0.3,0 -0.6,0 -1,0 -3.5,0 -6.2,-1.1 -8.1,-3 0.6,0.6 1.1,1.2 1.7,1.7 1.9,1.9 4.6,3 8.1,3 0.3,0 0.7,0 1,0 0.1,0 0.2,0 0.3,0 0.2,0 0.4,0 0.6,-0.1 0.1,0 0.2,0 0.3,0 0.2,0 0.3,-0.1 0.5,-0.1 0.1,0 0.2,0 0.3,-0.1 0.2,0 0.3,-0.1 0.5,-0.1 0.1,0 0.2,-0.1 0.3,-0.1 0.2,0 0.3,-0.1 0.4,-0.1 0.1,0 0.2,-0.1 0.3,-0.1 0.2,-0.1 0.3,-0.1 0.5,-0.2 0.1,0 0.1,-0.1 0.2,-0.1 0.2,-0.1 0.4,-0.2 0.6,-0.3 0,0 0.1,0 0.1,-0.1 0.2,-0.1 0.3,-0.2 0.5,-0.3 0.1,0 0.1,-0.1 0.2,-0.1 0.1,-0.1 0.2,-0.1 0.3,-0.2 0.1,0 0.1,-0.1 0.2,-0.1 0.1,-0.1 0.2,-0.1 0.3,-0.2 0.1,0 0.1,-0.1 0.2,-0.1 0.1,-0.1 0.2,-0.2 0.3,-0.2 0.1,0 0.1,-0.1 0.2,-0.1 0.1,-0.1 0.2,-0.2 0.2,-0.2 0,0 0.1,-0.1 0.1,-0.1 0.1,-0.1 0.2,-0.2 0.3,-0.3 0,0 0.1,-0.1 0.1,-0.1 0.1,-0.1 0.2,-0.2 0.3,-0.4 0,0 0,0 0,0 0.1,-0.1 0.1,-0.2 0.2,-0.2 0,0 0.1,-0.1 0.1,-0.1 0,0 0,0 0.1,-0.1 0.6,0.6 1.1,1.2 1.7,1.7 1.1,1.1 2.9,2.4 5.4,2.6 0.4,0 0.7,0.1 1.1,0.1 0.2,0 0.4,0 0.6,0 0.1,0 0.1,0 0.2,0 0.2,0 0.3,0 0.5,-0.1 0,0 0.1,0 0.1,0 0.2,0 0.4,-0.1 0.6,-0.1 0,0 0.1,0 0.1,0 0.2,0 0.3,-0.1 0.4,-0.1 0,0 0.1,0 0.1,0 0.2,-0.1 0.4,-0.1 0.5,-0.2 0,0 0.1,0 0.1,0 0.1,-0.1 0.3,-0.1 0.4,-0.2 0,0 0.1,0 0.1,-0.1 0.2,-0.1 0.3,-0.1 0.5,-0.2 0,0 0,0 0,0 0.2,-0.1 0.3,-0.2 0.5,-0.3 0,0 0.1,0 0.1,-0.1 0.1,-0.1 0.2,-0.1 0.4,-0.2 0,0 0,0 0.1,0 0.1,-0.1 0.3,-0.2 0.4,-0.3 0,0 0,0 0.1,-0.1 0.1,-0.1 0.2,-0.2 0.3,-0.2 0,0 0.1,0 0.1,-0.1 0.1,-0.1 0.2,-0.2 0.4,-0.3 0,0 0,0 0,0 0.1,-0.1 0.2,-0.2 0.3,-0.3 0,0 0,0 0.1,-0.1 0.1,-0.1 0.2,-0.2 0.3,-0.3 0,0 0,0 0,0 -0.4,-0.6 -0.3,-0.7 -0.2,-0.8 z"
   inkscape:connector-curvature="0" />

	</g>

	<g
   id="g116">
		<g
   id="g94">
			<path
   id="path92"
   d="M 17.1,0 C 25,0 29.5,3.7 29.8,4.1 30.4,3.5 32.1,1.7 32.1,0.6 h 4 L 36,14.9 H 32.5 C 32.2,14.4 26.8,4.3 17.1,4.3 c -5.9,0 -7.8,3.9 -7.7,6.2 0.1,2.5 1,6.9 12.6,10 14.7,3.9 18.4,12.9 18.4,20.7 C 40.3,49 34.5,57.9 20.7,57.9 11.2,57.9 7.5,53.5 6.9,53.3 6.3,54 4.5,56.3 4.2,57.6 H 0.3 L 0.4,40.2 h 3.8 c 1,3.5 7.3,12.3 16.2,12.3 8.9,0 10.1,-5.2 10.1,-8.1 C 30.5,41.5 28.3,38 17.7,34.7 7.4,31.5 -0.1,25.7 0,15.7 0.1,5.7 9.2,0 17.1,0 Z"
   inkscape:connector-curvature="0"
   style="fill:#d22224" />

		</g>

		<g
   id="g98">
			<path
   id="path96"
   d="m 74.8,45.9 3.1,2.2 c -2.8,6.2 -8.3,10.1 -16,10.1 -9.1,0 -19.6,-8.9 -19.5,-19.9 0,-2.5 0.4,-4.9 1.1,-7.1 2.4,-7.6 10.6,-12.9 17.7,-12.9 10,0 14.7,8.1 16.6,16.4 l -21.9,6.2 c 0.7,3.4 3.5,10.6 9.9,10.6 5.2,0 7.9,-3.9 9,-5.6 z M 54.2,30.5 c 0,1.8 0.1,3.7 0.8,6.1 0.4,-0.1 8.7,-2.3 9.2,-2.5 2.4,-1 2.8,-2.2 2.5,-4.9 -0.6,-4.9 -3.8,-7.4 -6.8,-7.4 -0.4,0 -0.7,0 -1,0.1 -2,0.5 -4.7,2.9 -4.7,8.6"
   inkscape:connector-curvature="0"
   style="fill:#d22224" />

		</g>

		<g
   id="g102">
			<path
   id="path100"
   d="m 128.2,18.5 c 7.1,0 11.3,5.8 11.2,10.2 0,1.8 0,4.6 -0.1,7.5 0,4.3 -0.1,11.2 -0.1,11.9 0,2.4 0.2,5.2 3.4,5.2 h 0.6 v 4.2 h -19.5 v -4.2 h 0.7 c 3,0 3.2,-3.7 3.3,-5.1 0,-0.7 0.1,-7.9 0.1,-11.9 0,-3.3 0,-4.1 0,-4.2 0,-1.1 0.1,-6.1 -4.1,-6.1 -4.9,0 -7.3,4.7 -7.7,5.5 0,0.1 0,1 0,4.6 0,3 -0.1,9.2 -0.1,11.9 0,2.4 0.2,5.2 3.7,5.2 0.5,0 0.5,0 0.5,0 v 4.2 H 101 v -4.2 h 0.6 c 3.2,0 3.2,-3.1 3.2,-5.1 0,-1.1 0.1,-8.2 0.1,-11.9 0,-2.7 0,-3 0,-3.3 0,-0.7 0.1,-6.9 -3.7,-6.9 -4.7,0 -6.9,5.4 -7.2,6 0,0 0,0.9 0,4.1 0,3.7 -0.1,10.6 -0.1,11.9 0,3.5 0.6,5.2 3.1,5.2 h 0.5 v 4.2 H 78.1 V 53.2 H 79 c 3.4,0 3.6,-4 3.6,-5.2 0,-0.8 0.1,-8 0.1,-11.9 0,-2.2 0,-3.4 0,-4.6 0,-3 -2,-3.1 -2.8,-3.1 -0.1,0 -0.1,0 -0.2,0 -0.7,0 -1.6,0 -1.7,0 v -3.9 l 10,-4.9 h 6.1 v 5.8 c 0.7,-0.8 3.9,-6.9 11.2,-6.9 7.3,0 10.2,6.7 10.3,7.1 0.9,-0.7 5.5,-7.1 12.6,-7.1 z"
   inkscape:connector-curvature="0"
   style="fill:#d22224" />

		</g>

		<g
   id="g106">
			<path
   id="path104"
   d="m 179.9,48.9 0.9,3.7 c -0.8,1.2 -3.5,5.6 -9.1,5.6 -5.2,0 -7.7,-4.1 -8,-4.7 -1.4,1.8 -3.7,4.7 -9.4,4.7 -7.6,0 -11.4,-5.2 -11.4,-12.2 0,-5.2 3.3,-9.3 7.3,-11 5.4,-2.3 9,-2.6 13.4,-3.1 0,-3.3 0.2,-8.1 -5.5,-8.1 -4.9,0 -7.8,2.9 -9.6,5.1 L 145.2,27 c 1.7,-2.5 5.8,-8.9 15.4,-8.9 14,0 15.1,6.3 15,13.1 l -0.1,8.5 -0.1,8.6 c 0,1.8 0.7,2 1.4,2 1.3,0.2 2.2,-0.3 3.1,-1.4 z m -16.3,-0.5 0.1,-8.2 v -4 c -0.6,-0.2 -1.2,-0.3 -1.9,-0.3 -1.3,0 -2.7,0.3 -4.1,1.1 -1.2,0.6 -4,2.4 -4,7.7 0,3.4 2.1,7.3 5.2,7.3 0.1,0 0.3,0 0.4,0 3.3,-0.3 3.9,-2.6 4.3,-3.6"
   inkscape:connector-curvature="0"
   style="fill:#d22224" />

		</g>

		<g
   id="g110">
			<path
   id="path108"
   d="m 208.9,18.6 c 6.6,0 11,4.4 11,8.5 0,4.1 -0.1,18.6 -0.2,20.8 0,2.2 0.2,5.4 3.6,5.4 h 0.8 v 4.2 h -19.9 v -4.1 c 0,0 0.2,0 0.6,0 2.9,0 3.3,-3.2 3.3,-4.8 0,-3 0.1,-14.9 0.1,-16.3 0,-1.5 0,-5.8 -3.7,-5.8 -4.5,0 -6.5,4.7 -7,6 0,0.7 -0.1,13.9 -0.1,16.5 0,1.8 0.1,4.4 3.2,4.4 0.1,0 0.5,0 0.6,0 v 4.1 h -19.8 v -4.2 c 0,0 0.2,0 1,0 3.4,0 3.4,-3.2 3.4,-4.5 0,-3.4 0.1,-15.4 0.1,-16.5 0,-1.1 -0.2,-3.7 -4,-3.7 h -0.6 v -4 l 10.6,-5.1 h 5.5 v 5.8 c 1.9,-2.2 5,-6.7 11.5,-6.7 z"
   inkscape:connector-curvature="0"
   style="fill:#d22224" />

		</g>

		<g
   id="g114">
			<path
   id="path112"
   d="m 260.6,48.9 0.9,3.7 c -0.8,1.2 -3.5,5.6 -9,5.6 -5.2,0 -7.7,-4.1 -8,-4.7 -1.4,1.8 -3.7,4.7 -9.4,4.7 -7.6,0 -11.4,-5.2 -11.4,-12.2 0,-5.2 3.3,-9.3 7.3,-11 5.4,-2.3 9,-2.6 13.4,-3.1 0,-3.3 0.2,-8.1 -5.5,-8.1 -4.9,0 -7.8,2.9 -9.6,5.1 L 226,27 c 1.7,-2.5 5.8,-8.9 15.4,-8.9 14,0 15.1,6.3 15,13.1 l -0.1,8.5 -0.1,8.6 c 0,1.8 0.7,2 1.4,2 1.2,0.2 2.1,-0.3 3,-1.4 z m -16.3,-0.5 0.1,-8.2 v -4 c -0.6,-0.2 -1.2,-0.3 -2,-0.3 -1.3,0 -2.7,0.3 -4.2,1.1 -1.1,0.6 -4,2.4 -4,7.7 0,3.4 2.1,7.3 5.2,7.3 0.1,0 0.3,0 0.4,0 3.5,-0.3 4.1,-2.6 4.5,-3.6"
   inkscape:connector-curvature="0"
   style="fill:#d22224" />

		</g>

	</g>

</g>
  </g>
</svg>
