<svg id="Layer_1" data-name="Layer 1" xmlns="http://www.w3.org/2000/svg" viewBox="0 0 255.12 85.04"><defs><style>.cls-1{fill:#010101;fill-rule:evenodd;}</style></defs><title>Artboard 3 copy 28</title><path class="cls-1" d="M228.73,40.93,235.87,33a1.93,1.93,0,0,0,.48-1,1.41,1.41,0,0,0-1.56-1.31h-5.35l0-2.46h18.14V30.7H244.7c-2.32,0-3,.53-5.29,3.51L228.86,45.78v7.84c0,1.49.75,2,2.91,2h5.35v2.56H212.31V55.63h4.12c2.16,0,2.91-.52,2.91-2V45.93L206.75,33c-1.72-2-1.48-2.3-6.28-2.3V28.24h22.14V30.7h-3.08c-1.4,0-2,.11-2,.64s.44.79.71,1.14l8,8.53a1.64,1.64,0,0,0,2.44-.08Z"/><path class="cls-1" d="M88.71,28.09l3.13-.16,1.08,11.15H89.84a11,11,0,0,0-2.9-4A15.31,15.31,0,0,0,76,30.4c-5.09,0-9.7.52-9.7,4.75,0,6.45,29.13,1.47,29.13,13.67,0,6.36-5.78,9.91-17,9.91-3.42,0-11.06-.93-14.74-2.41l-1,2.72H59.75L58.67,46.93h3.1c.95,2.76,3.66,4.41,4.87,5.51,2.1,1.93,7.26,4,11.84,3.91,6.91-.07,9.51-1.5,9.29-5.32-.12-2.19-2.66-2.87-10.24-4.06l-6.43-1c-7.26-1.1-12.45-3.42-12.54-8.51-.11-6,7.35-9.5,17.26-9.4a28.85,28.85,0,0,1,10.43,2.43l2.46-2.35Z"/><path class="cls-1" d="M186.7,46.87l-.06-14.17c0-1.54-.8-2.06-3.08-2.06h-4.07V28.23h17.83v2.41h-3.46c-2.28,0-3.08.52-3.08,2.06V58.11l-3.44.1L157.69,35V53.68c0,1.5.8,2.07,3.08,2.07h4.36v2.36H147.42V55.75h2.93c2.28,0,3.08-.57,3.08-2.07v-21c0-1.54-.8-2.06-3.08-2.06h-2.93V28.23h15.31l24,18.64Z"/><path class="cls-1" d="M123,27.48c-14.52,0-23.61,6-23.61,15.66,0,9.48,9,15.45,23.17,15.45,15.09,0,23.87-5.88,23.87-15.93C146.45,33.63,137,27.48,123,27.48Zm-.32,29.07c-7.33,0-11.55-5-11.55-13.71,0-8.48,4.4-13.51,11.92-13.51,7.21,0,11.43,5.13,11.43,13.86C134.5,51.72,130.22,56.55,122.7,56.55Z"/></svg>