<svg id="Layer_1" data-name="Layer 1" xmlns="http://www.w3.org/2000/svg" viewBox="0 0 255.12 85.04"><defs><style>.cls-1{fill:#010101;}</style></defs><title>Artboard 3 copy 32</title><g id="tm"><path id="M" class="cls-1" d="M244.32,29.51h1.1l.2,1.49h0l.84-1.49h1.1l-.48,2.26h-.71l.36-1.69h0l-.95,1.69h-.62l-.24-1.69h0l-.35,1.69h-.71Z"/><path id="T" class="cls-1" d="M241.49,29.51h2.41l-.11.5H243l-.37,1.76h-.75l.37-1.76h-.83Z"/></g><g id="spirit"><g id="t-2" data-name="t"><path class="cls-1" d="M215.26,29.56h6l2-9.22h11.37l-2,9.22h7.51l-1.6,7.5H231l-2.48,11.7c-.56,2.62,0,3,3.06,3,1.39,0,2.53,0,4.05-.1l-1.51,7.08a67.49,67.49,0,0,1-8.75.53c-7.4,0-10.07-1.82-8.73-8.09l3-14.11h-6Z"/></g><g id="i"><polygon class="cls-1" points="199.82 29.56 211.19 29.56 205.01 58.62 193.65 58.62 199.82 29.56"/><polygon class="cls-1" points="201.99 19.37 213.35 19.37 211.89 26.23 200.53 26.23 201.99 19.37"/></g><g id="r"><polygon class="cls-1" points="169.71 29.56 163.53 58.62 174.59 58.62 180.77 29.56 169.71 29.56"/><path class="cls-1" d="M193.85,28.27c-5.07,0-13.15,5-15.28,13.9l-.55,2h.2c1.61-3.87,5.65-5.93,11.1-5.93a21.72,21.72,0,0,1,4.48.5L196,28.37C195.29,28.31,194.54,28.27,193.85,28.27Z"/></g><g id="i-2" data-name="i"><polygon class="cls-1" points="153.67 29.56 165.03 29.56 158.86 58.62 147.49 58.62 153.67 29.56"/><polygon class="cls-1" points="155.83 19.37 167.2 19.37 165.74 26.23 154.37 26.23 155.83 19.37"/></g><path id="p" class="cls-1" d="M110.78,29.56h11L121,33.42h.11a17.27,17.27,0,0,1,12-4.61c10.3,0,15.79,5.68,13.65,15.76C145,53,137.33,59.79,126.66,59.79c-5,0-8.54-1.66-10-3.8h-.11l-2.79,13.14H102.37Zm14.79,22c5.21,0,8.6-2.57,9.62-7.4s-1.27-7.39-6.47-7.39-8.71,2.89-9.67,7.39S120.27,51.54,125.57,51.54Z"/><path id="s" class="cls-1" d="M78.91,49.56A2.42,2.42,0,0,0,80,52c.9.59,2.39.91,4.85.91s5.31-.49,5.75-2.58c.33-1.55-.71-2-3.42-2.3l-9.88-1.23c-6.47-.81-9.35-3.17-8.3-8.1,1.67-7.88,9-10.35,19.84-10.35,7.72,0,17.18,1.39,16.07,9.65H92.14a2.23,2.23,0,0,0-1.51-2.47,10.06,10.06,0,0,0-3.94-.64c-3.27,0-5.36.75-5.78,2.74-.2.91.38,1.71,3.21,2l9.58,1.08c7.65.85,11,3.27,9.79,8.95C102,56.58,94.81,59.79,82.74,59.79c-8,0-18.62-1.44-17-10.23Z"/></g></svg>