<?xml version="1.0" encoding="UTF-8" standalone="no"?>
<svg
   xmlns:dc="http://purl.org/dc/elements/1.1/"
   xmlns:cc="http://creativecommons.org/ns#"
   xmlns:rdf="http://www.w3.org/1999/02/22-rdf-syntax-ns#"
   xmlns:svg="http://www.w3.org/2000/svg"
   xmlns="http://www.w3.org/2000/svg"
   xmlns:xlink="http://www.w3.org/1999/xlink"
   xmlns:sodipodi="http://sodipodi.sourceforge.net/DTD/sodipodi-0.dtd"
   xmlns:inkscape="http://www.inkscape.org/namespaces/inkscape"
   id="Layer_1"
   data-name="Layer 1"
   viewBox="0 0 255.12 85.04"
   version="1.1"
   sodipodi:docname="Sprint.svg"
   inkscape:version="0.92.4 (5da689c313, 2019-01-14)">
  <metadata
     id="metadata35">
    <rdf:RDF>
      <cc:Work
         rdf:about="">
        <dc:format>image/svg+xml</dc:format>
        <dc:type
           rdf:resource="http://purl.org/dc/dcmitype/StillImage" />
        <dc:title>Artboard 3 copy 40</dc:title>
      </cc:Work>
    </rdf:RDF>
  </metadata>
  <sodipodi:namedview
     pagecolor="#ffffff"
     bordercolor="#666666"
     borderopacity="1"
     objecttolerance="10"
     gridtolerance="10"
     guidetolerance="10"
     inkscape:pageopacity="0"
     inkscape:pageshadow="2"
     inkscape:window-width="1366"
     inkscape:window-height="705"
     id="namedview33"
     showgrid="false"
     inkscape:zoom="1.28"
     inkscape:cx="60.674694"
     inkscape:cy="77.905991"
     inkscape:window-x="-8"
     inkscape:window-y="-8"
     inkscape:window-maximized="1"
     inkscape:current-layer="Layer_1-7" />
  <defs
     id="defs12">
    <style
       id="style10">.cls-1{fill:#2b5097;fill-rule:evenodd;}</style>
    <clipPath
       clip-path="url(#SVGID_23_)"
       id="SVGID_24_-2">
      <use
         height="100%"
         width="100%"
         y="0"
         x="0"
         style="overflow:visible"
         id="use91-7"
         overflow="visible"
         xlink:href="#SVGID_15_" />
    </clipPath>
    <clipPath
       clip-path="url(#SVGID_23_)"
       id="clipPath3453">
      <use
         height="100%"
         width="100%"
         y="0"
         x="0"
         style="overflow:visible"
         id="use3455"
         overflow="visible"
         xlink:href="#SVGID_15_" />
    </clipPath>
    <clipPath
       clip-path="url(#SVGID_23_)"
       id="clipPath3457">
      <use
         height="100%"
         width="100%"
         y="0"
         x="0"
         style="overflow:visible"
         id="use3459"
         overflow="visible"
         xlink:href="#SVGID_15_" />
    </clipPath>
    <clipPath
       clip-path="url(#SVGID_23_)"
       id="clipPath3461">
      <use
         height="100%"
         width="100%"
         y="0"
         x="0"
         style="overflow:visible"
         id="use3463"
         overflow="visible"
         xlink:href="#SVGID_15_" />
    </clipPath>
    <clipPath
       clip-path="url(#SVGID_23_)"
       id="clipPath3465">
      <use
         height="100%"
         width="100%"
         y="0"
         x="0"
         style="overflow:visible"
         id="use3467"
         overflow="visible"
         xlink:href="#SVGID_15_" />
    </clipPath>
    <clipPath
       clip-path="url(#SVGID_23_)"
       id="clipPath3469">
      <use
         height="100%"
         width="100%"
         y="0"
         x="0"
         style="overflow:visible"
         id="use3471"
         overflow="visible"
         xlink:href="#SVGID_15_" />
    </clipPath>
    <clipPath
       clip-path="url(#SVGID_23_)"
       id="clipPath3473">
      <use
         height="100%"
         width="100%"
         y="0"
         x="0"
         style="overflow:visible"
         id="use3475"
         overflow="visible"
         xlink:href="#SVGID_15_" />
    </clipPath>
    <clipPath
       clip-path="url(#SVGID_23_)"
       id="clipPath3477">
      <use
         height="100%"
         width="100%"
         y="0"
         x="0"
         style="overflow:visible"
         id="use3479"
         overflow="visible"
         xlink:href="#SVGID_15_" />
    </clipPath>
    <clipPath
       id="SVGID_6_-3">
      <use
         height="100%"
         width="100%"
         y="0"
         x="0"
         style="overflow:visible"
         id="use33-6"
         overflow="visible"
         xlink:href="#SVGID_5_" />
    </clipPath>
    <clipPath
       clip-path="url(#SVGID_23_)"
       id="clipPath3483">
      <use
         height="100%"
         width="100%"
         y="0"
         x="0"
         style="overflow:visible"
         id="use3485"
         overflow="visible"
         xlink:href="#SVGID_15_" />
    </clipPath>
    <clipPath
       clip-path="url(#SVGID_23_)"
       id="SVGID_24_-2-4">
      <use
         height="100%"
         width="100%"
         y="0"
         x="0"
         style="overflow:visible"
         id="use91-7-4"
         overflow="visible"
         xlink:href="#SVGID_15_" />
    </clipPath>
    <clipPath
       clip-path="url(#SVGID_23_)"
       id="clipPath3626">
      <use
         height="100%"
         width="100%"
         y="0"
         x="0"
         style="overflow:visible"
         id="use3628"
         overflow="visible"
         xlink:href="#SVGID_15_" />
    </clipPath>
    <clipPath
       clip-path="url(#SVGID_23_)"
       id="clipPath3630">
      <use
         height="100%"
         width="100%"
         y="0"
         x="0"
         style="overflow:visible"
         id="use3632"
         overflow="visible"
         xlink:href="#SVGID_15_" />
    </clipPath>
    <clipPath
       clip-path="url(#SVGID_23_)"
       id="clipPath3634">
      <use
         height="100%"
         width="100%"
         y="0"
         x="0"
         style="overflow:visible"
         id="use3636"
         overflow="visible"
         xlink:href="#SVGID_15_" />
    </clipPath>
    <clipPath
       clip-path="url(#SVGID_23_)"
       id="clipPath3638">
      <use
         height="100%"
         width="100%"
         y="0"
         x="0"
         style="overflow:visible"
         id="use3640"
         overflow="visible"
         xlink:href="#SVGID_15_" />
    </clipPath>
    <clipPath
       clip-path="url(#SVGID_23_)"
       id="clipPath3642">
      <use
         height="100%"
         width="100%"
         y="0"
         x="0"
         style="overflow:visible"
         id="use3644"
         overflow="visible"
         xlink:href="#SVGID_15_" />
    </clipPath>
    <clipPath
       clip-path="url(#SVGID_23_)"
       id="clipPath3646">
      <use
         height="100%"
         width="100%"
         y="0"
         x="0"
         style="overflow:visible"
         id="use3648"
         overflow="visible"
         xlink:href="#SVGID_15_" />
    </clipPath>
    <clipPath
       clip-path="url(#SVGID_23_)"
       id="clipPath3650">
      <use
         height="100%"
         width="100%"
         y="0"
         x="0"
         style="overflow:visible"
         id="use3652"
         overflow="visible"
         xlink:href="#SVGID_15_" />
    </clipPath>
    <clipPath
       clip-path="url(#SVGID_23_)"
       id="SVGID_24_-2-8">
      <use
         height="100%"
         width="100%"
         y="0"
         x="0"
         style="overflow:visible"
         id="use91-7-7"
         overflow="visible"
         xlink:href="#SVGID_15_" />
    </clipPath>
    <clipPath
       clip-path="url(#SVGID_23_)"
       id="clipPath3790">
      <use
         height="100%"
         width="100%"
         y="0"
         x="0"
         style="overflow:visible"
         id="use3792"
         overflow="visible"
         xlink:href="#SVGID_15_" />
    </clipPath>
    <clipPath
       clip-path="url(#SVGID_23_)"
       id="clipPath3794">
      <use
         height="100%"
         width="100%"
         y="0"
         x="0"
         style="overflow:visible"
         id="use3796"
         overflow="visible"
         xlink:href="#SVGID_15_" />
    </clipPath>
    <clipPath
       clip-path="url(#SVGID_23_)"
       id="clipPath3798">
      <use
         height="100%"
         width="100%"
         y="0"
         x="0"
         style="overflow:visible"
         id="use3800"
         overflow="visible"
         xlink:href="#SVGID_15_" />
    </clipPath>
    <clipPath
       clip-path="url(#SVGID_23_)"
       id="clipPath3802">
      <use
         height="100%"
         width="100%"
         y="0"
         x="0"
         style="overflow:visible"
         id="use3804"
         overflow="visible"
         xlink:href="#SVGID_15_" />
    </clipPath>
    <clipPath
       clip-path="url(#SVGID_23_)"
       id="clipPath3806">
      <use
         height="100%"
         width="100%"
         y="0"
         x="0"
         style="overflow:visible"
         id="use3808"
         overflow="visible"
         xlink:href="#SVGID_15_" />
    </clipPath>
    <clipPath
       clip-path="url(#SVGID_23_)"
       id="clipPath3810">
      <use
         height="100%"
         width="100%"
         y="0"
         x="0"
         style="overflow:visible"
         id="use3812"
         overflow="visible"
         xlink:href="#SVGID_15_" />
    </clipPath>
    <clipPath
       clip-path="url(#SVGID_23_)"
       id="clipPath3814">
      <use
         height="100%"
         width="100%"
         y="0"
         x="0"
         style="overflow:visible"
         id="use3816"
         overflow="visible"
         xlink:href="#SVGID_15_" />
    </clipPath>
    <clipPath
       clip-path="url(#SVGID_23_)"
       id="clipPath3818">
      <use
         height="100%"
         width="100%"
         y="0"
         x="0"
         style="overflow:visible"
         id="use3820"
         overflow="visible"
         xlink:href="#SVGID_15_" />
    </clipPath>
    <clipPath
       id="SVGID_6_-3-4">
      <use
         height="100%"
         width="100%"
         y="0"
         x="0"
         style="overflow:visible"
         id="use33-6-5"
         overflow="visible"
         xlink:href="#SVGID_5_" />
    </clipPath>
    <clipPath
       clip-path="url(#SVGID_23_)"
       id="SVGID_24_-2-8-1">
      <use
         height="100%"
         width="100%"
         y="0"
         x="0"
         style="overflow:visible"
         id="use91-7-7-4"
         overflow="visible"
         xlink:href="#SVGID_15_" />
    </clipPath>
    <clipPath
       id="SVGID_6_-3-4-6">
      <use
         height="100%"
         width="100%"
         y="0"
         x="0"
         style="overflow:visible"
         id="use33-6-5-6"
         overflow="visible"
         xlink:href="#SVGID_5_" />
    </clipPath>
    <clipPath
       clip-path="url(#SVGID_23_)"
       id="SVGID_24_-2-8-3">
      <use
         height="100%"
         width="100%"
         y="0"
         x="0"
         style="overflow:visible"
         id="use91-7-7-0"
         overflow="visible"
         xlink:href="#SVGID_15_" />
    </clipPath>
    <clipPath
       clip-path="url(#SVGID_23_)"
       id="clipPath3951">
      <use
         height="100%"
         width="100%"
         y="0"
         x="0"
         style="overflow:visible"
         id="use3953"
         overflow="visible"
         xlink:href="#SVGID_15_" />
    </clipPath>
    <clipPath
       clip-path="url(#SVGID_23_)"
       id="clipPath3955">
      <use
         height="100%"
         width="100%"
         y="0"
         x="0"
         style="overflow:visible"
         id="use3957"
         overflow="visible"
         xlink:href="#SVGID_15_" />
    </clipPath>
    <clipPath
       clip-path="url(#SVGID_23_)"
       id="clipPath3959">
      <use
         height="100%"
         width="100%"
         y="0"
         x="0"
         style="overflow:visible"
         id="use3961"
         overflow="visible"
         xlink:href="#SVGID_15_" />
    </clipPath>
    <clipPath
       clip-path="url(#SVGID_23_)"
       id="clipPath3963">
      <use
         height="100%"
         width="100%"
         y="0"
         x="0"
         style="overflow:visible"
         id="use3965"
         overflow="visible"
         xlink:href="#SVGID_15_" />
    </clipPath>
    <clipPath
       clip-path="url(#SVGID_23_)"
       id="clipPath3967">
      <use
         height="100%"
         width="100%"
         y="0"
         x="0"
         style="overflow:visible"
         id="use3969"
         overflow="visible"
         xlink:href="#SVGID_15_" />
    </clipPath>
    <clipPath
       clip-path="url(#SVGID_23_)"
       id="clipPath3971">
      <use
         height="100%"
         width="100%"
         y="0"
         x="0"
         style="overflow:visible"
         id="use3973"
         overflow="visible"
         xlink:href="#SVGID_15_" />
    </clipPath>
    <clipPath
       clip-path="url(#SVGID_23_)"
       id="clipPath3975">
      <use
         height="100%"
         width="100%"
         y="0"
         x="0"
         style="overflow:visible"
         id="use3977"
         overflow="visible"
         xlink:href="#SVGID_15_" />
    </clipPath>
    <rect
       height="500"
       width="800"
       y="-176"
       x="-130.438"
       id="SVGID_1_" />
    <rect
       height="500"
       width="800"
       y="-176"
       x="-130.438"
       id="SVGID_3_" />
    <rect
       height="146.554"
       width="144.311"
       y="0.72299999"
       x="0.47600001"
       id="SVGID_5_" />
    <rect
       height="500"
       width="800"
       y="-176"
       x="-130.438"
       id="SVGID_7_" />
    <rect
       height="500"
       width="800"
       y="-176"
       x="-130.438"
       id="SVGID_8_" />
    <rect
       height="500"
       width="800"
       y="-176"
       x="-130.438"
       id="SVGID_9_" />
    <rect
       height="500"
       width="800"
       y="-176"
       x="-130.438"
       id="SVGID_10_" />
    <rect
       height="500"
       width="800"
       y="-176"
       x="-130.438"
       id="SVGID_11_" />
    <rect
       height="500"
       width="800"
       y="-176"
       x="-130.438"
       id="SVGID_12_" />
    <rect
       height="500"
       width="800"
       y="-176"
       x="-130.438"
       id="SVGID_13_" />
    <rect
       height="500"
       width="800"
       y="-176"
       x="-130.438"
       id="SVGID_14_" />
    <rect
       height="500"
       width="800"
       y="-176"
       x="-130.438"
       id="SVGID_15_" />
    <clipPath
       id="_clipPath_f0UbNDBXQ8aHAFPmOgnXs5adxYD8xIe2">
      <rect
         id="rect252"
         height="30"
         width="121" />
    </clipPath>
  </defs>
  <title
     id="title14">Artboard 3 copy 40</title>
  <style
     id="style401"
     type="text/css">
	.st0{stroke:#000000;stroke-width:0.7024;stroke-miterlimit:10;}
	.st1{fill-rule:evenodd;clip-rule:evenodd;fill:url(#SVGID_1_);}
	.st2{fill-rule:evenodd;clip-rule:evenodd;fill:url(#SVGID_2_);}
	.st3{fill-rule:evenodd;clip-rule:evenodd;fill:url(#SVGID_3_);}
</style>
  <g
     id="g524"
     transform="matrix(0.32763442,0,0,0.33108194,-3.3589898,-13.966892)">
    <g
       id="Layer_1-7">
      <g
         id="g431" />
      <g
         id="g133"
         transform="matrix(1.6590493,0,0,1.6468579,262.87906,74.39661)">
        <path
           style="fill:#000000;stroke:none"
           inkscape:connector-curvature="0"
           id="path3"
           d="m 12.139,90.511 c -3.9390002,0 -7.7990002,-0.479 -10.9370002,-1.292 l 0.487,-8.277 c 3.053,1.123 7.313,2.011 11.2540002,2.011 5.952,0 10.775,-2.492 10.775,-8.359 C 23.718,63.172 -2.4963459e-7,68.002 -2.4963459e-7,50.466 -2.4963459e-7,41.141 7.3159998,34.632 19.942,34.632 c 3.214,0 6.51,0.398 9.808,0.959 l -0.485,7.802 c -3.132,-0.963 -6.591,-1.527 -9.806,-1.527 -6.754,0 -10.2110002,3.133 -10.2110002,7.637 0,10.856 23.7200002,6.839 23.7200002,23.798 -0.005,9.974 -7.882,17.21 -20.829,17.21" />
        <path
           style="fill:#000000;stroke:none"
           inkscape:connector-curvature="0"
           id="path5"
           d="m 54.106,90.264 c -2.249,0 -3.938,-0.076 -6.03,-0.479 v 17.398 H 39.475 V 49.746 h 8.12 c 0,2.094 -0.082,5.309 -0.484,7.476 h 0.162 c 2.25,-5.068 6.833,-8.283 12.944,-8.283 9.487,0 14.712,6.75 14.712,18.814 0.001,14.076 -7.473,22.511 -20.823,22.511 m 3.861,-34.246 c -6.433,0 -9.891,7.557 -9.891,14.384 v 12.311 c 1.851,0.563 3.86,0.804 6.272,0.804 6.833,0 11.497,-4.182 11.497,-14.958 0,-8.038 -2.491,-12.541 -7.878,-12.541 z" />
        <path
           style="fill:#000000;stroke:none"
           inkscape:connector-curvature="0"
           id="path7"
           d="M 102.519,57.381 C 94.561,55.936 90.701,61.485 90.701,73.466 V 89.704 H 82.094 V 49.746 H 90.3 c 0,2.246 -0.246,5.791 -0.808,8.844 h 0.162 c 1.771,-5.388 5.79,-10.377 13.27,-9.651 l -0.405,8.442" />
        <path
           style="fill:#000000;stroke:none"
           inkscape:connector-curvature="0"
           id="path9"
           d="m 114.803,43.797 c -3.056,0 -5.55,-2.414 -5.55,-5.392 0,-2.971 2.494,-5.385 5.55,-5.385 2.974,0 5.467,2.333 5.467,5.385 0,2.978 -2.493,5.392 -5.467,5.392 m 4.26,45.907 h -8.6 V 49.746 h 8.6 z" />
        <path
           style="fill:#000000;stroke:none"
           inkscape:connector-curvature="0"
           id="path11"
           d="M 154.45,89.704 V 63.975 c 0,-4.983 -1.374,-7.875 -5.952,-7.875 -6.03,0 -10.457,6.345 -10.457,14.302 v 19.302 h -8.602 V 49.746 h 8.203 c 0,2.094 -0.162,5.546 -0.564,7.796 l 0.083,0.075 c 2.33,-5.14 7.157,-8.679 13.91,-8.679 9.084,0 11.9,5.711 11.9,12.787 v 27.979 h -8.521" />
        <path
           style="fill:#000000;stroke:none"
           inkscape:connector-curvature="0"
           id="path13"
           d="m 186.675,90.425 c -8.524,0 -11.099,-3.294 -11.099,-12.214 V 56.417 h -7.634 v -6.671 h 7.634 V 37.04 l 8.523,-2.333 v 15.039 h 10.532 v 6.671 h -10.448 v 19.137 c 0,5.954 1.205,7.558 5.224,7.558 1.768,0 3.699,-0.241 5.225,-0.643 v 7.076 c -2.331,0.487 -5.306,0.88 -7.957,0.88" />
        <path
           style="fill:#ffdd05;fill-opacity:1;stroke:none"
           inkscape:connector-curvature="0"
           id="path15"
           d="m 233.712,78.636 c 11.72,-15.086 20.939,-32.809 20.939,-45.537 0,-6.652 -4.765,-11.295 -10.978,-14.823 0.122,13.831 -4.669,46.263 -9.961,60.36" />
        <path
           style="fill:#ffdd05;fill-opacity:1;stroke:none"
           inkscape:connector-curvature="0"
           id="path17"
           d="m 195.279,115.809 c 27.469,-9.189 67.29,-30.598 94.985,-49.725 2.324,-1.599 4.135,-3.085 4.135,-5.684 0,-4.519 -8.276,-10.576 -12.292,-12.988 -21.792,22.653 -65.163,56.596 -86.828,68.397" />
        <path
           style="fill:#ffdd05;fill-opacity:1;stroke:none"
           inkscape:connector-curvature="0"
           id="path19"
           d="m 220.76,96.567 c 16.938,-11.709 41.545,-33.74 49.873,-45.727 1.963,-2.82 3.416,-4.454 3.416,-7.405 0,-4.839 -5.643,-8.382 -9.703,-10.849 -9.726,22.924 -31.579,51.469 -43.586,63.981" />
        <path
           style="fill:#ffdd05;fill-opacity:1;stroke:none"
           inkscape:connector-curvature="0"
           id="path21"
           d="m 236.192,64.087 c 2.191,-14.476 0.903,-31.952 -1.894,-42.913 -1.52,-5.969 -6.901,-12.706 -11.88,-14.812 6.526,18.522 12.128,44.898 13.774,57.725" />
        <path
           style="fill:#ffdd05;fill-opacity:1;stroke:none"
           inkscape:connector-curvature="0"
           id="path23"
           d="M 231.368,43.779 C 226.236,29.909 213.447,0.99700001 194.633,-6.166 206.88,7.351 225.05,34.172 231.368,43.779" />
      </g>
    </g>
    <g
       id="Layer_2" />
  </g>
</svg>
