<?xml version="1.0" encoding="UTF-8" standalone="no"?>
<svg
   xmlns:dc="http://purl.org/dc/elements/1.1/"
   xmlns:cc="http://creativecommons.org/ns#"
   xmlns:rdf="http://www.w3.org/1999/02/22-rdf-syntax-ns#"
   xmlns:svg="http://www.w3.org/2000/svg"
   xmlns="http://www.w3.org/2000/svg"
   xmlns:xlink="http://www.w3.org/1999/xlink"
   xmlns:sodipodi="http://sodipodi.sourceforge.net/DTD/sodipodi-0.dtd"
   xmlns:inkscape="http://www.inkscape.org/namespaces/inkscape"
   id="Layer_1"
   data-name="Layer 1"
   viewBox="0 0 255.12 85.04"
   version="1.1"
   sodipodi:docname="TheRealReal.svg"
   inkscape:version="0.92.4 (5da689c313, 2019-01-14)">
  <metadata
     id="metadata35">
    <rdf:RDF>
      <cc:Work
         rdf:about="">
        <dc:format>image/svg+xml</dc:format>
        <dc:type
           rdf:resource="http://purl.org/dc/dcmitype/StillImage" />
        <dc:title>Artboard 3 copy 40</dc:title>
      </cc:Work>
    </rdf:RDF>
  </metadata>
  <sodipodi:namedview
     pagecolor="#ffffff"
     bordercolor="#666666"
     borderopacity="1"
     objecttolerance="10"
     gridtolerance="10"
     guidetolerance="10"
     inkscape:pageopacity="0"
     inkscape:pageshadow="2"
     inkscape:window-width="1366"
     inkscape:window-height="705"
     id="namedview33"
     showgrid="false"
     inkscape:zoom="1.28"
     inkscape:cx="60.674694"
     inkscape:cy="77.905991"
     inkscape:window-x="-8"
     inkscape:window-y="-8"
     inkscape:window-maximized="1"
     inkscape:current-layer="Layer_1-7" />
  <defs
     id="defs12">
    <style
       id="style10">.cls-1{fill:#2b5097;fill-rule:evenodd;}</style>
    <clipPath
       clip-path="url(#SVGID_23_)"
       id="SVGID_24_-2">
      <use
         height="100%"
         width="100%"
         y="0"
         x="0"
         style="overflow:visible"
         id="use91-7"
         overflow="visible"
         xlink:href="#SVGID_15_" />
    </clipPath>
    <clipPath
       clip-path="url(#SVGID_23_)"
       id="clipPath3453">
      <use
         height="100%"
         width="100%"
         y="0"
         x="0"
         style="overflow:visible"
         id="use3455"
         overflow="visible"
         xlink:href="#SVGID_15_" />
    </clipPath>
    <clipPath
       clip-path="url(#SVGID_23_)"
       id="clipPath3457">
      <use
         height="100%"
         width="100%"
         y="0"
         x="0"
         style="overflow:visible"
         id="use3459"
         overflow="visible"
         xlink:href="#SVGID_15_" />
    </clipPath>
    <clipPath
       clip-path="url(#SVGID_23_)"
       id="clipPath3461">
      <use
         height="100%"
         width="100%"
         y="0"
         x="0"
         style="overflow:visible"
         id="use3463"
         overflow="visible"
         xlink:href="#SVGID_15_" />
    </clipPath>
    <clipPath
       clip-path="url(#SVGID_23_)"
       id="clipPath3465">
      <use
         height="100%"
         width="100%"
         y="0"
         x="0"
         style="overflow:visible"
         id="use3467"
         overflow="visible"
         xlink:href="#SVGID_15_" />
    </clipPath>
    <clipPath
       clip-path="url(#SVGID_23_)"
       id="clipPath3469">
      <use
         height="100%"
         width="100%"
         y="0"
         x="0"
         style="overflow:visible"
         id="use3471"
         overflow="visible"
         xlink:href="#SVGID_15_" />
    </clipPath>
    <clipPath
       clip-path="url(#SVGID_23_)"
       id="clipPath3473">
      <use
         height="100%"
         width="100%"
         y="0"
         x="0"
         style="overflow:visible"
         id="use3475"
         overflow="visible"
         xlink:href="#SVGID_15_" />
    </clipPath>
    <clipPath
       clip-path="url(#SVGID_23_)"
       id="clipPath3477">
      <use
         height="100%"
         width="100%"
         y="0"
         x="0"
         style="overflow:visible"
         id="use3479"
         overflow="visible"
         xlink:href="#SVGID_15_" />
    </clipPath>
    <clipPath
       id="SVGID_6_-3">
      <use
         height="100%"
         width="100%"
         y="0"
         x="0"
         style="overflow:visible"
         id="use33-6"
         overflow="visible"
         xlink:href="#SVGID_5_" />
    </clipPath>
    <clipPath
       clip-path="url(#SVGID_23_)"
       id="clipPath3483">
      <use
         height="100%"
         width="100%"
         y="0"
         x="0"
         style="overflow:visible"
         id="use3485"
         overflow="visible"
         xlink:href="#SVGID_15_" />
    </clipPath>
    <clipPath
       clip-path="url(#SVGID_23_)"
       id="SVGID_24_-2-4">
      <use
         height="100%"
         width="100%"
         y="0"
         x="0"
         style="overflow:visible"
         id="use91-7-4"
         overflow="visible"
         xlink:href="#SVGID_15_" />
    </clipPath>
    <clipPath
       clip-path="url(#SVGID_23_)"
       id="clipPath3626">
      <use
         height="100%"
         width="100%"
         y="0"
         x="0"
         style="overflow:visible"
         id="use3628"
         overflow="visible"
         xlink:href="#SVGID_15_" />
    </clipPath>
    <clipPath
       clip-path="url(#SVGID_23_)"
       id="clipPath3630">
      <use
         height="100%"
         width="100%"
         y="0"
         x="0"
         style="overflow:visible"
         id="use3632"
         overflow="visible"
         xlink:href="#SVGID_15_" />
    </clipPath>
    <clipPath
       clip-path="url(#SVGID_23_)"
       id="clipPath3634">
      <use
         height="100%"
         width="100%"
         y="0"
         x="0"
         style="overflow:visible"
         id="use3636"
         overflow="visible"
         xlink:href="#SVGID_15_" />
    </clipPath>
    <clipPath
       clip-path="url(#SVGID_23_)"
       id="clipPath3638">
      <use
         height="100%"
         width="100%"
         y="0"
         x="0"
         style="overflow:visible"
         id="use3640"
         overflow="visible"
         xlink:href="#SVGID_15_" />
    </clipPath>
    <clipPath
       clip-path="url(#SVGID_23_)"
       id="clipPath3642">
      <use
         height="100%"
         width="100%"
         y="0"
         x="0"
         style="overflow:visible"
         id="use3644"
         overflow="visible"
         xlink:href="#SVGID_15_" />
    </clipPath>
    <clipPath
       clip-path="url(#SVGID_23_)"
       id="clipPath3646">
      <use
         height="100%"
         width="100%"
         y="0"
         x="0"
         style="overflow:visible"
         id="use3648"
         overflow="visible"
         xlink:href="#SVGID_15_" />
    </clipPath>
    <clipPath
       clip-path="url(#SVGID_23_)"
       id="clipPath3650">
      <use
         height="100%"
         width="100%"
         y="0"
         x="0"
         style="overflow:visible"
         id="use3652"
         overflow="visible"
         xlink:href="#SVGID_15_" />
    </clipPath>
    <clipPath
       clip-path="url(#SVGID_23_)"
       id="SVGID_24_-2-8">
      <use
         height="100%"
         width="100%"
         y="0"
         x="0"
         style="overflow:visible"
         id="use91-7-7"
         overflow="visible"
         xlink:href="#SVGID_15_" />
    </clipPath>
    <clipPath
       clip-path="url(#SVGID_23_)"
       id="clipPath3790">
      <use
         height="100%"
         width="100%"
         y="0"
         x="0"
         style="overflow:visible"
         id="use3792"
         overflow="visible"
         xlink:href="#SVGID_15_" />
    </clipPath>
    <clipPath
       clip-path="url(#SVGID_23_)"
       id="clipPath3794">
      <use
         height="100%"
         width="100%"
         y="0"
         x="0"
         style="overflow:visible"
         id="use3796"
         overflow="visible"
         xlink:href="#SVGID_15_" />
    </clipPath>
    <clipPath
       clip-path="url(#SVGID_23_)"
       id="clipPath3798">
      <use
         height="100%"
         width="100%"
         y="0"
         x="0"
         style="overflow:visible"
         id="use3800"
         overflow="visible"
         xlink:href="#SVGID_15_" />
    </clipPath>
    <clipPath
       clip-path="url(#SVGID_23_)"
       id="clipPath3802">
      <use
         height="100%"
         width="100%"
         y="0"
         x="0"
         style="overflow:visible"
         id="use3804"
         overflow="visible"
         xlink:href="#SVGID_15_" />
    </clipPath>
    <clipPath
       clip-path="url(#SVGID_23_)"
       id="clipPath3806">
      <use
         height="100%"
         width="100%"
         y="0"
         x="0"
         style="overflow:visible"
         id="use3808"
         overflow="visible"
         xlink:href="#SVGID_15_" />
    </clipPath>
    <clipPath
       clip-path="url(#SVGID_23_)"
       id="clipPath3810">
      <use
         height="100%"
         width="100%"
         y="0"
         x="0"
         style="overflow:visible"
         id="use3812"
         overflow="visible"
         xlink:href="#SVGID_15_" />
    </clipPath>
    <clipPath
       clip-path="url(#SVGID_23_)"
       id="clipPath3814">
      <use
         height="100%"
         width="100%"
         y="0"
         x="0"
         style="overflow:visible"
         id="use3816"
         overflow="visible"
         xlink:href="#SVGID_15_" />
    </clipPath>
    <clipPath
       clip-path="url(#SVGID_23_)"
       id="clipPath3818">
      <use
         height="100%"
         width="100%"
         y="0"
         x="0"
         style="overflow:visible"
         id="use3820"
         overflow="visible"
         xlink:href="#SVGID_15_" />
    </clipPath>
    <clipPath
       id="SVGID_6_-3-4">
      <use
         height="100%"
         width="100%"
         y="0"
         x="0"
         style="overflow:visible"
         id="use33-6-5"
         overflow="visible"
         xlink:href="#SVGID_5_" />
    </clipPath>
    <clipPath
       clip-path="url(#SVGID_23_)"
       id="SVGID_24_-2-8-1">
      <use
         height="100%"
         width="100%"
         y="0"
         x="0"
         style="overflow:visible"
         id="use91-7-7-4"
         overflow="visible"
         xlink:href="#SVGID_15_" />
    </clipPath>
    <clipPath
       id="SVGID_6_-3-4-6">
      <use
         height="100%"
         width="100%"
         y="0"
         x="0"
         style="overflow:visible"
         id="use33-6-5-6"
         overflow="visible"
         xlink:href="#SVGID_5_" />
    </clipPath>
    <clipPath
       clip-path="url(#SVGID_23_)"
       id="SVGID_24_-2-8-3">
      <use
         height="100%"
         width="100%"
         y="0"
         x="0"
         style="overflow:visible"
         id="use91-7-7-0"
         overflow="visible"
         xlink:href="#SVGID_15_" />
    </clipPath>
    <clipPath
       clip-path="url(#SVGID_23_)"
       id="clipPath3951">
      <use
         height="100%"
         width="100%"
         y="0"
         x="0"
         style="overflow:visible"
         id="use3953"
         overflow="visible"
         xlink:href="#SVGID_15_" />
    </clipPath>
    <clipPath
       clip-path="url(#SVGID_23_)"
       id="clipPath3955">
      <use
         height="100%"
         width="100%"
         y="0"
         x="0"
         style="overflow:visible"
         id="use3957"
         overflow="visible"
         xlink:href="#SVGID_15_" />
    </clipPath>
    <clipPath
       clip-path="url(#SVGID_23_)"
       id="clipPath3959">
      <use
         height="100%"
         width="100%"
         y="0"
         x="0"
         style="overflow:visible"
         id="use3961"
         overflow="visible"
         xlink:href="#SVGID_15_" />
    </clipPath>
    <clipPath
       clip-path="url(#SVGID_23_)"
       id="clipPath3963">
      <use
         height="100%"
         width="100%"
         y="0"
         x="0"
         style="overflow:visible"
         id="use3965"
         overflow="visible"
         xlink:href="#SVGID_15_" />
    </clipPath>
    <clipPath
       clip-path="url(#SVGID_23_)"
       id="clipPath3967">
      <use
         height="100%"
         width="100%"
         y="0"
         x="0"
         style="overflow:visible"
         id="use3969"
         overflow="visible"
         xlink:href="#SVGID_15_" />
    </clipPath>
    <clipPath
       clip-path="url(#SVGID_23_)"
       id="clipPath3971">
      <use
         height="100%"
         width="100%"
         y="0"
         x="0"
         style="overflow:visible"
         id="use3973"
         overflow="visible"
         xlink:href="#SVGID_15_" />
    </clipPath>
    <clipPath
       clip-path="url(#SVGID_23_)"
       id="clipPath3975">
      <use
         height="100%"
         width="100%"
         y="0"
         x="0"
         style="overflow:visible"
         id="use3977"
         overflow="visible"
         xlink:href="#SVGID_15_" />
    </clipPath>
    <rect
       height="500"
       width="800"
       y="-176"
       x="-130.438"
       id="SVGID_1_" />
    <rect
       height="500"
       width="800"
       y="-176"
       x="-130.438"
       id="SVGID_3_" />
    <rect
       height="146.554"
       width="144.311"
       y="0.72299999"
       x="0.47600001"
       id="SVGID_5_" />
    <rect
       height="500"
       width="800"
       y="-176"
       x="-130.438"
       id="SVGID_7_" />
    <rect
       height="500"
       width="800"
       y="-176"
       x="-130.438"
       id="SVGID_8_" />
    <rect
       height="500"
       width="800"
       y="-176"
       x="-130.438"
       id="SVGID_9_" />
    <rect
       height="500"
       width="800"
       y="-176"
       x="-130.438"
       id="SVGID_10_" />
    <rect
       height="500"
       width="800"
       y="-176"
       x="-130.438"
       id="SVGID_11_" />
    <rect
       height="500"
       width="800"
       y="-176"
       x="-130.438"
       id="SVGID_12_" />
    <rect
       height="500"
       width="800"
       y="-176"
       x="-130.438"
       id="SVGID_13_" />
    <rect
       height="500"
       width="800"
       y="-176"
       x="-130.438"
       id="SVGID_14_" />
    <rect
       height="500"
       width="800"
       y="-176"
       x="-130.438"
       id="SVGID_15_" />
    <clipPath
       id="_clipPath_f0UbNDBXQ8aHAFPmOgnXs5adxYD8xIe2">
      <rect
         id="rect252"
         height="30"
         width="121" />
    </clipPath>
  </defs>
  <title
     id="title14">Artboard 3 copy 40</title>
  <style
     id="style401"
     type="text/css">
	.st0{stroke:#000000;stroke-width:0.7024;stroke-miterlimit:10;}
	.st1{fill-rule:evenodd;clip-rule:evenodd;fill:url(#SVGID_1_);}
	.st2{fill-rule:evenodd;clip-rule:evenodd;fill:url(#SVGID_2_);}
	.st3{fill-rule:evenodd;clip-rule:evenodd;fill:url(#SVGID_3_);}
</style>
  <g
     id="g524"
     transform="matrix(0.32763442,0,0,0.33108194,-3.3589898,-13.966892)">
    <g
       id="Layer_1-7">
      <g
         id="g431" />
      <path
         id="path107"
         d="m 726.26999,149.41275 v 51.36162 c 0,11.48458 0,12.76064 -9.04811,14.03671 v 1.91409 h 29.08322 v -1.91409 c -8.72496,-0.95705 -9.04811,-2.55213 -9.04811,-14.03671 V 154.198 c 0,-11.48459 0,-18.18393 0.32315,-24.24523 l -20.35826,6.69934 v 1.91409 c 9.04811,0 9.04811,0 9.04811,10.84655 m -31.6684,57.10391 c -2.90832,3.19016 -6.46294,5.42327 -10.66385,5.42327 -6.78608,0 -11.31014,-6.06131 -11.63329,-11.48458 -0.32314,-4.78525 2.26203,-7.33738 6.78609,-10.20853 1.93888,-0.95705 6.46293,-3.82819 15.8342,-7.01835 z m 0.32315,3.19016 c 0.32315,5.42327 4.52406,8.29442 9.04811,8.29442 5.4935,0 8.40183,-4.14721 11.31014,-7.9754 l -0.96944,-0.95705 c -1.61574,1.27606 -3.23147,2.23311 -4.8472,2.23311 -2.90832,0 -4.20092,-0.95705 -3.87777,-7.01836 l 0.6463,-28.71146 c 0.32315,-14.67475 -9.04811,-18.82196 -19.38882,-18.82196 -14.54161,0 -24.23601,10.52754 -24.88231,20.73606 h 10.98699 c -0.64629,-9.57049 0.6463,-16.58885 11.31015,-16.58885 7.43238,0 11.63329,3.8282 11.63329,15.6318 v 2.55213 c -8.40182,3.50917 -14.54162,6.38032 -17.44994,7.65638 -11.63329,5.42328 -18.09622,9.88952 -18.09622,16.90787 0,8.61344 9.37126,14.67475 17.77307,14.67475 3.87777,0 6.7861,-0.63804 9.37127,-2.23312 1.93888,-1.59508 4.8472,-4.14721 7.43238,-6.38032 M 629.32591,160.2593 c 7.10923,0 10.66385,5.10426 10.987,12.44163 h -25.85176 c 2.58518,-9.57048 9.04811,-12.44163 14.86476,-12.44163 m 24.55916,40.83408 c -3.87775,3.8282 -9.6944,7.33737 -18.09623,7.33737 -14.54161,0 -21.97399,-11.80359 -21.97399,-27.75441 v -3.50918 h 40.07022 c -1.61573,-12.76065 -10.987,-20.73605 -22.62028,-20.73605 -15.18791,0 -27.46749,13.71769 -27.46749,31.26358 0,17.5459 8.40182,30.62557 26.82119,30.62557 12.92588,0 20.68141,-9.25147 24.55918,-15.95081 z M 549.18547,140.4803 h 8.07867 c 13.89532,0 21.3277,3.82819 21.3277,16.26982 0,12.44163 -7.43238,16.58885 -21.3277,16.58885 h -8.07867 z m 8.07867,37.00588 34.89987,39.23899 h 14.86476 l -35.86931,-40.19604 c 15.51105,-2.87115 20.6814,-11.16557 20.6814,-19.45999 0,-14.67474 -15.1879,-20.41703 -34.25357,-20.41703 H 525.2726 v 1.91409 c 9.6944,1.27607 10.98699,1.59508 10.98699,14.03671 v 47.85244 c 0,12.44163 -1.29259,12.76065 -10.98699,14.03671 v 1.9141 h 34.89987 v -1.9141 c -9.69441,-1.27606 -10.987,-1.59508 -10.987,-14.03671 v -22.96917 z m -60.42848,-28.07343 v 51.36162 c 0,11.48458 0,12.76064 -9.04811,14.03671 v 1.91409 h 29.08322 v -1.91409 c -8.72496,-0.95705 -9.04811,-2.55213 -9.04811,-14.03671 V 154.198 c 0,-11.48459 0,-18.18393 0.32315,-24.24523 l -20.35826,6.69934 v 1.91409 c 9.04811,0 9.04811,0 9.04811,10.84655 m -31.6684,57.10391 c -2.90832,3.19016 -6.46294,5.42327 -10.66385,5.42327 -6.78608,0 -11.31014,-6.06131 -11.63328,-11.48458 -0.32315,-4.78525 2.26202,-7.33738 6.78608,-10.20853 1.93888,-0.95705 6.46293,-3.82819 15.8342,-7.01835 z m 0.32315,3.19016 c 0.32315,5.42327 4.52406,8.29442 9.04811,8.29442 5.4935,0 8.40183,-4.14721 11.31015,-7.9754 l -0.96944,-0.95705 c -1.61573,1.27606 -3.23148,2.23311 -4.84721,2.23311 -2.90832,0 -4.2009,-0.95705 -3.87777,-7.01836 l 0.6463,-28.71146 c 0.32315,-14.67475 -9.04811,-18.82196 -19.38881,-18.82196 -14.54161,0 -24.23602,10.52754 -24.88232,20.73606 h 10.987 c -0.64629,-9.57049 0.64629,-16.58885 11.31014,-16.58885 7.43238,0 11.63329,3.8282 11.63329,15.6318 v 2.55213 c -8.40182,3.50917 -14.54161,6.38032 -17.44994,7.65638 -11.63328,5.42328 -18.09622,9.88952 -18.09622,16.90787 0,8.61344 9.37126,14.67475 17.77307,14.67475 3.87777,0 6.7861,-0.63804 9.37127,-2.23312 1.93888,-1.59508 4.84721,-4.14721 7.43238,-6.38032 M 399.89158,160.2593 c 7.10923,0 10.66385,5.10426 10.987,12.44163 h -25.85176 c 2.26203,-9.57048 9.04811,-12.44163 14.86476,-12.44163 m 24.55917,40.83408 c -3.87776,3.8282 -9.69441,7.33737 -18.09623,7.33737 -14.54162,0 -21.974,-11.80359 -21.974,-27.75441 v -3.50918 h 40.07023 c -1.61573,-12.76065 -10.98699,-20.73605 -22.62029,-20.73605 -15.18791,0 -27.46749,13.71769 -27.46749,31.26358 0,17.5459 8.40182,30.62557 26.8212,30.62557 12.92587,0 20.6814,-9.25147 24.55917,-15.95081 z M 319.75114,140.4803 h 7.75553 c 13.89532,0 21.3277,3.82819 21.3277,16.26982 0,12.44163 -7.43238,16.58885 -21.3277,16.58885 h -8.07868 V 140.4803 Z m 8.07867,37.00588 34.89987,39.23899 h 14.86476 l -35.86931,-40.19604 c 15.51105,-2.87115 20.6814,-11.16557 20.6814,-19.45999 0,-14.67474 -15.1879,-20.41703 -34.25357,-20.41703 h -32.31469 v 1.91409 c 9.69441,1.27607 10.98699,1.59508 10.98699,14.03671 v 47.85244 c 0,12.44163 -1.29258,12.76065 -10.98699,14.03671 v 1.9141 h 34.89987 v -1.9141 c -9.69441,-1.27606 -10.987,-1.59508 -10.987,-14.03671 V 177.48618 Z M 257.06063,160.2593 c 7.10924,0 10.66385,5.10426 10.987,12.44163 h -25.85176 c 2.26203,-9.57048 8.72497,-12.44163 14.86476,-12.44163 m 24.23603,40.83408 c -3.87777,3.8282 -9.69441,7.33737 -18.09623,7.33737 -14.54161,0 -21.97399,-11.80359 -21.97399,-27.75441 v -3.50918 h 40.07022 c -1.61574,-12.76065 -10.987,-20.73605 -22.62029,-20.73605 -15.18791,0 -27.46749,13.71769 -27.46749,31.26358 0,17.5459 8.40181,30.62557 26.82119,30.62557 12.92588,0 20.68141,-9.25147 24.55917,-15.95081 z m -114.07088,15.63179 h 29.08323 v -1.91409 c -8.72497,-0.95705 -9.04812,-2.55213 -9.04812,-14.03671 v -31.58262 c 2.58518,-3.50917 7.75553,-5.10425 12.27958,-5.10425 7.75553,0 11.6333,5.10425 11.6333,15.31277 v 21.3741 c 0,11.48458 0,12.76064 -9.04812,14.03671 v 1.91409 h 29.08323 v -1.91409 c -8.72497,-0.95705 -9.04812,-2.55213 -9.04812,-14.03671 v -23.60721 c 0,-14.67474 -7.43238,-21.05507 -17.12679,-21.05507 -8.40181,0 -13.89531,5.10426 -17.77308,9.8895 v -16.26982 c 0,-11.48458 0,-14.35573 0.32315,-20.09802 l -17.77308,6.69934 H 129.4176 c -6.78609,0 -16.4805,0 -24.55918,-0.31902 l -3.23146,24.24523 h 2.26203 c 6.13979,-18.18392 11.31014,-20.41703 28.11379,-20.41703 h 3.55461 v 60.61308 c 0,11.48458 -1.29259,13.07966 -12.27959,14.03671 v 2.23311 h 36.83875 v -2.23311 c -10.98699,-0.95705 -12.27958,-2.55213 -12.27958,-14.03671 v -60.61308 h 3.55462 c 24.88231,0 24.88231,0 24.88231,7.65639 v 53.27571 c 0,11.48458 0,12.76064 -9.04812,14.03671 z"
         inkscape:connector-curvature="0"
         style="fill:#231f20;stroke-width:3.21074939" />
    </g>
    <g
       id="Layer_2" />
  </g>
</svg>
