<?xml version="1.0" encoding="UTF-8" standalone="no"?>
<svg
   xmlns:dc="http://purl.org/dc/elements/1.1/"
   xmlns:cc="http://creativecommons.org/ns#"
   xmlns:rdf="http://www.w3.org/1999/02/22-rdf-syntax-ns#"
   xmlns:svg="http://www.w3.org/2000/svg"
   xmlns="http://www.w3.org/2000/svg"
   xmlns:sodipodi="http://sodipodi.sourceforge.net/DTD/sodipodi-0.dtd"
   xmlns:inkscape="http://www.inkscape.org/namespaces/inkscape"
   id="Layer_1"
   data-name="Layer 1"
   viewBox="0 0 255.12 85.04"
   version="1.1"
   sodipodi:docname="UHC.svg"
   inkscape:version="0.92.4 (5da689c313, 2019-01-14)">
  <metadata
     id="metadata62">
    <rdf:RDF>
      <cc:Work
         rdf:about="">
        <dc:format>image/svg+xml</dc:format>
        <dc:type
           rdf:resource="http://purl.org/dc/dcmitype/StillImage" />
        <dc:title>Artboard 3 copy 40</dc:title>
      </cc:Work>
    </rdf:RDF>
  </metadata>
  <sodipodi:namedview
     pagecolor="#ffffff"
     bordercolor="#666666"
     borderopacity="1"
     objecttolerance="10"
     gridtolerance="10"
     guidetolerance="10"
     inkscape:pageopacity="0"
     inkscape:pageshadow="2"
     inkscape:window-width="1366"
     inkscape:window-height="705"
     id="namedview60"
     showgrid="false"
     inkscape:zoom="2.373393"
     inkscape:cx="151.96483"
     inkscape:cy="22.231617"
     inkscape:window-x="1912"
     inkscape:window-y="131"
     inkscape:window-maximized="1"
     inkscape:current-layer="Layer_1" />
  <defs
     id="defs39">
    <style
       id="style37">.cls-1{fill:#2b5097;fill-rule:evenodd;}</style>
  </defs>
  <title
     id="title41">Artboard 3 copy 40</title>
  <style
     id="style75"
     type="text/css">
	.st0{fill:#060E9F;}
	.st1{fill:#778692;}
</style>
  <g
     id="g119"
     transform="matrix(0.40364301,0,0,0.49211326,-3.7096354,-124.44311)">
	<path
   id="path77"
   d="m 99,316.3 h 20.3 v 2.7 c -5.5,0.3 -6,1.3 -6,5.7 v 36.5 c 0,7.9 4.5,11.9 10.8,11.9 7.2,0 11.6,-4.6 11.6,-12.1 v -35.5 c 0,-4.4 -1.3,-6.3 -6.5,-6.6 v -2.7 h 16.2 v 2.7 c -5.2,0.3 -6.5,2.2 -6.5,6.6 v 33.6 c 0,10.5 -4.6,16.7 -16.4,16.7 -11.9,0 -17.4,-6.4 -17.4,-17 v -34.1 c 0,-4.4 -0.5,-5.4 -6,-5.7 v -2.7 z"
   class="st0"
   inkscape:connector-curvature="0"
   style="fill:#060e9f" />

	<path
   id="path79"
   d="m 144.2,374.5 v -2.7 c 4.1,-0.2 5.4,-1.7 5.4,-4.2 v -26.5 c 0,-3.7 -1,-4.3 -5.6,-4.4 V 334 l 12.4,-0.6 v 8.2 h 0.2 c 2.3,-4.7 5.6,-8.7 11.4,-8.7 7,0 10.3,4.6 10.3,12 v 22.5 c 0,2.9 1.2,4.1 5.2,4.2 v 2.7 H 171 v -30.2 c 0,-5.6 -2.1,-7.5 -5,-7.5 -4.5,0 -9.1,5.9 -9.1,14.2 v 16.4 c 0,2.5 1.4,4.1 5.4,4.2 v 2.7 h -18.1 z"
   class="st0"
   inkscape:connector-curvature="0"
   style="fill:#060e9f" />

	<path
   id="path81"
   d="m 185.4,374.5 v -2.7 c 4.1,-0.2 5.4,-1.7 5.4,-4.2 v -27 c 0,-3.6 -1,-4.2 -5.4,-4.4 v -2.7 l 12.7,-0.5 v 34.6 c 0,2.5 1.4,4.1 5.4,4.2 v 2.7 z m 12.7,-53.6 c 0,3.2 -1.8,5.4 -4.3,5.4 -2.5,0 -4.3,-2.2 -4.3,-5.4 0,-3.2 1.8,-5.4 4.3,-5.4 2.6,0 4.3,2.2 4.3,5.4"
   class="st0"
   inkscape:connector-curvature="0"
   style="fill:#060e9f" />

	<path
   id="path83"
   d="M 216.6,318.4 V 334 h 10.2 v 3.2 h -10.2 v 29.9 c 0,3.7 1.3,5.3 3.6,5.3 2.8,0 4.9,-1.8 4.9,-10.8 v -2.4 h 2.7 v 4 c 0,8.6 -3.1,12.4 -9.5,12.4 -5.6,0 -9,-3.5 -9,-10.3 v -28 H 204 v -2.5 c 6.1,-2.5 9.3,-5.4 9.8,-16.3 h 2.8 z"
   class="st0"
   inkscape:connector-curvature="0"
   style="fill:#060e9f" />

	<path
   id="path85"
   d="m 239.2,350.8 c 0,-10.9 3.2,-15.1 8,-15.1 4.5,0 7,4.2 7,15.1 z m 23.4,3.2 c 0,-12.2 -5.9,-21 -15.3,-21 -9.6,0 -16.3,8.8 -16.3,21.2 0,10.6 7,21.3 17.4,21.3 9.5,0 13.6,-7.4 14.4,-14.9 l -2.7,-0.5 c -0.8,5.8 -3.5,12.2 -10.8,12.2 -5.7,0 -10,-6.5 -10,-18.3 z"
   class="st0"
   inkscape:connector-curvature="0"
   style="fill:#060e9f" />

	<path
   id="path87"
   d="m 275.1,354.5 c 0,-13.1 3,-18.3 7.7,-18.3 5.2,0 8.3,6.3 8.3,18.3 0,14.6 -4.5,18.3 -9,18.3 -4.2,0 -7,-5.2 -7,-18.3 M 285.6,319 c 4.4,0.2 5.5,0.8 5.5,4.4 v 15.2 l -0.2,0.1 c -1.7,-3.3 -4.6,-5.7 -8.5,-5.7 -8.9,0 -15.6,9.1 -15.6,21.4 0,13.3 7,21.1 14.6,21.1 5.2,0 8,-3 9.8,-7 h 0.2 v 6 l 11.9,-0.5 v -2.7 c -3.4,0.1 -4.9,-1.3 -4.9,-5.9 v -49.7 l -12.8,0.5 z"
   class="st0"
   inkscape:connector-curvature="0"
   style="fill:#060e9f" />

	<path
   id="path89"
   d="m 305.4,374.5 v -2.7 c 5.1,-0.3 5.9,-1.4 5.9,-5.8 v -41.3 c 0,-4.4 -0.9,-5.4 -5.9,-5.7 v -2.7 h 20.5 v 2.7 c -5.2,0.3 -6.3,1.3 -6.3,5.7 v 17.6 h 18.3 v -17.6 c 0,-4.4 -1,-5.4 -6.3,-5.7 v -2.7 h 20.5 v 2.7 c -5.1,0.3 -5.9,1.3 -5.9,5.7 V 366 c 0,4.4 0.9,5.4 5.9,5.8 v 2.7 h -20.5 v -2.7 c 5.2,-0.3 6.3,-1.4 6.3,-5.8 V 345.5 H 319.6 V 366 c 0,4.4 1,5.4 6.3,5.8 v 2.7 z"
   class="st0"
   inkscape:connector-curvature="0"
   style="fill:#060e9f" />

	<path
   id="path91"
   d="m 361.7,350.8 c 0,-10.9 3.2,-15.1 8,-15.1 4.5,0 7,4.2 7,15.1 z m 23.4,3.2 c 0,-12.2 -5.9,-21 -15.3,-21 -9.6,0 -16.4,8.8 -16.4,21.2 0,10.6 6.9,21.3 17.5,21.3 9.5,0 13.6,-7.4 14.4,-14.9 l -2.7,-0.5 c -0.8,5.8 -3.5,12.2 -10.8,12.2 -5.7,0 -10,-6.5 -10,-18.3 z"
   class="st0"
   inkscape:connector-curvature="0"
   style="fill:#060e9f" />

	<path
   id="path93"
   d="m 406.9,357.7 c 0,9.6 -3.9,14.7 -8.2,14.7 -2.6,0 -4.7,-2.2 -4.7,-6.7 0,-7.2 6.1,-10.4 12.9,-12.8 z m 11.5,5.1 c -0.2,6.1 -0.8,8 -2.5,8 -1.2,0 -1.8,-1.1 -1.8,-3.6 v -23.6 c 0,-6.3 -3.6,-10.7 -13.1,-10.7 -7.4,0 -12.8,4.6 -12.8,10.3 0,3.4 1.7,5.1 4.1,5.1 2.4,0 4.2,-1.9 4.2,-4.9 0,-2.5 -0.8,-4.5 -3.6,-4.7 1.8,-2.1 4.2,-3.1 7.2,-3.1 4.5,0 6.7,2.1 6.7,7 v 6.9 c -7.3,2.7 -20.6,6.7 -20.6,16.4 0,5.6 3.8,9.6 10.3,9.6 5.9,0 8.5,-2.8 10.5,-6.6 h 0.2 c 0.5,4.6 2.8,6.6 6.9,6.6 5.2,0 7,-3.8 7,-12.7 z"
   class="st0"
   inkscape:connector-curvature="0"
   style="fill:#060e9f" />

	<path
   id="path95"
   d="m 420,374.5 v -2.7 c 4.1,-0.2 5.4,-1.7 5.4,-4.2 v -44.1 c 0,-2.9 -1.4,-4.4 -5.6,-4.6 v -2.7 l 12.9,-0.5 v 51.8 c 0,2.5 1.4,4.1 5.4,4.2 v 2.7 H 420 Z"
   class="st0"
   inkscape:connector-curvature="0"
   style="fill:#060e9f" />

	<path
   id="path97"
   d="M 450.4,318.4 V 334 h 10.2 v 3.2 h -10.2 v 29.9 c 0,3.7 1.3,5.3 3.6,5.3 2.8,0 4.9,-1.8 4.9,-10.8 v -2.4 h 2.7 v 4 c 0,8.6 -3.1,12.4 -9.5,12.4 -5.6,0 -9,-3.5 -9,-10.3 v -28 h -5.3 v -2.5 c 6.1,-2.5 9.3,-5.4 9.8,-16.3 h 2.8 z"
   class="st0"
   inkscape:connector-curvature="0"
   style="fill:#060e9f" />

	<path
   id="path99"
   d="m 461.3,374.5 v -2.7 c 4.1,-0.2 5.4,-1.7 5.4,-4.2 v -44.2 c 0,-3.6 -1,-4.2 -5.6,-4.4 v -2.6 l 12.9,-0.5 v 24.9 h 0.2 c 1.7,-3.7 4.9,-7.6 10.6,-7.6 6.5,0 10.6,4.6 10.6,12 v 22.5 c 0,2.5 1.4,4.1 5.3,4.2 v 2.7 h -12.5 v -29.7 c 0,-5.9 -2.1,-7.9 -5.2,-7.9 -4.2,0 -8.9,5.6 -8.9,13.7 v 16.9 c 0,2.5 1.4,4.1 5.4,4.2 v 2.7 z"
   class="st0"
   inkscape:connector-curvature="0"
   style="fill:#060e9f" />

	<path
   id="path101"
   d="m 532.1,360.5 c -0.8,8 -4.5,15.2 -13.8,15.2 -8.6,0 -16.5,-7.7 -16.5,-20.2 0,-10.6 7.3,-22.5 17.6,-22.5 7.2,0 11.8,4.5 11.8,11.1 0,4.1 -1.3,6.3 -4.3,6.3 -2.4,0 -4,-2 -4,-5.1 0,-3.6 1.3,-5.1 3.5,-5.1 0.6,0 0.9,0.3 1.3,0.3 l 0.2,-0.2 c -1.3,-3.1 -4,-4.7 -7.1,-4.7 -6.3,0 -10.6,6.4 -10.6,18.4 0,14.3 4.4,18.4 9.4,18.4 6.9,0 9.1,-6.3 10,-12.3 z"
   class="st0"
   inkscape:connector-curvature="0"
   style="fill:#060e9f" />

	<path
   id="path103"
   d="m 555.8,357.7 c 0,9.6 -3.9,14.8 -8.3,14.8 -2.7,0 -4.7,-2.2 -4.7,-6.7 0,-7.3 6.1,-10.5 13,-12.9 z m 11.5,5.3 c -0.2,6.2 -0.8,8.1 -2.5,8.1 -1.2,0 -1.8,-1.1 -1.8,-3.6 v -23.8 c 0,-6.4 -3.6,-10.7 -13.2,-10.7 -7.4,0 -12.8,4.6 -12.8,10.4 0,3.4 1.7,5.1 4.1,5.1 2.4,0 4.2,-1.9 4.2,-5 0,-2.5 -0.8,-4.5 -3.5,-4.8 1.8,-2.1 4.2,-3.1 7.2,-3.1 4.5,0 6.8,2.1 6.8,7 v 7 c -7.3,2.7 -20.8,6.7 -20.8,16.4 0,5.6 3.8,9.6 10.4,9.6 6,0 8.5,-2.8 10.6,-6.7 h 0.2 c 0.5,4.6 2.8,6.7 6.9,6.7 5.2,0 7,-3.8 7,-12.8 z"
   class="st0"
   inkscape:connector-curvature="0"
   style="fill:#060e9f" />

	<path
   id="path105"
   d="m 571,374.6 v -2.7 c 3.6,-0.2 4.9,-1.7 4.9,-4.3 v -23.2 c 0,-5.8 -1,-7.7 -5.3,-7.8 v -2.7 l 11.7,-0.5 v 9.8 h 0.2 c 1.1,-4.4 4.1,-10.3 9.2,-10.3 3.1,0 6.2,2.6 6.2,7.4 0,3.7 -1.8,5.5 -4,5.5 -1.9,0 -3.8,-1.2 -3.8,-5 0,-2.1 1.2,-4.2 3.6,-4.2 -0.4,-0.7 -1.3,-1 -2.2,-1 -5.7,0.1 -8.3,12.6 -8.3,20 v 12.1 c 0,2.6 1.3,4.1 7.1,4.3 v 2.7 H 571 Z"
   class="st0"
   inkscape:connector-curvature="0"
   style="fill:#060e9f" />

	<path
   id="path107"
   d="m 606.2,350.9 c 0,-11 3.2,-15.3 8.1,-15.3 4.5,0 7.1,4.3 7.1,15.3 z m 23.4,3.2 c 0,-12.4 -5.9,-21.2 -15.3,-21.2 -9.6,0 -16.3,8.9 -16.3,21.5 0,10.6 6.9,21.3 17.5,21.3 9.5,0 13.6,-7.4 14.4,-14.9 l -2.7,-0.5 c -0.8,5.8 -3.5,12.2 -10.9,12.2 -5.7,0 -10,-6.4 -10,-18.3 h 23.3 z"
   class="st0"
   inkscape:connector-curvature="0"
   style="fill:#060e9f" />

	<path
   id="path109"
   d="m 632.7,323.8 c 3,0 5.4,2.4 5.4,5.4 0,3 -2.4,5.4 -5.4,5.4 -3,0 -5.4,-2.4 -5.4,-5.4 0,-3 2.4,-5.4 5.4,-5.4 m 0,-0.9 c -3.5,0 -6.4,2.8 -6.4,6.3 0,3.5 2.8,6.4 6.4,6.4 3.5,0 6.3,-2.8 6.3,-6.4 0,-3.5 -2.9,-6.3 -6.3,-6.3 m -1.2,6.7 h 1.2 c 0.3,0 1,0 1.1,0.8 0.1,1 0,1.9 0.3,2.4 h 1.2 c -0.2,-0.5 -0.3,-1.6 -0.3,-1.9 0,-1.5 -0.4,-1.8 -1.3,-1.8 v 0 c 0.9,-0.2 1.6,-0.8 1.6,-1.7 0,-0.9 -0.6,-1.8 -2,-1.8 h -2.9 v 7.3 h 1.2 v -3.3 z m 0,-3.2 h 1.5 c 0.8,0 1.1,0.6 1.1,1.1 0,0.6 -0.3,1.2 -1.1,1.2 h -1.5 z"
   class="st0"
   inkscape:connector-curvature="0"
   style="fill:#060e9f" />

	<path
   id="path111"
   d="m 25.3,374.5 v 0 h 0.1 c 0.1,0 0.1,0 0.1,0 0.1,0 0.1,0 0.2,0 0.1,0 0.1,0 0.1,0 0.1,0 0.1,0 0.2,0 0.1,0 0.1,0 0.2,0 0,0 0.1,0 0.1,0 0.1,0 0.1,0 0.2,0 0,0 0.1,0 0.1,0 0.1,0 0.2,0 0.2,0 0,0 0.1,0 0.1,0 0.1,0 0.2,0 0.2,0 0.1,0 0.1,0 0.1,0 0.1,0 0.2,0 0.3,-0.1 0,0 0.1,0 0.1,0 0.1,0 0.2,0 0.3,-0.1 0,0 0.1,0 0.1,-0.1 0.1,0 0.2,-0.1 0.3,-0.1 0,0 0.1,0 0.1,-0.1 0.1,0 0.2,-0.1 0.3,-0.1 0.1,0 0.1,0 0.1,-0.1 0.1,0 0.2,-0.1 0.3,-0.1 0,0 0.1,0 0.1,-0.1 0.1,-0.1 0.2,-0.1 0.3,-0.2 0,0 0.1,0 0.1,-0.1 0.1,0 0.2,-0.1 0.3,-0.2 0,0 0.1,-0.1 0.1,-0.1 0.1,-0.1 0.2,-0.1 0.3,-0.2 0,0 0.1,-0.1 0.1,-0.1 0.1,-0.1 0.2,-0.1 0.3,-0.2 0,0 0.1,-0.1 0.2,-0.1 0.1,-0.1 0.2,-0.2 0.3,-0.3 0.1,0 0.1,-0.1 0.1,-0.1 0.1,-0.1 0.2,-0.2 0.3,-0.3 0.1,-0.1 0.1,-0.1 0.2,-0.2 0.1,-0.1 0.2,-0.2 0.3,-0.3 0.1,-0.1 0.1,-0.1 0.2,-0.2 0.1,-0.1 0.2,-0.2 0.3,-0.3 0.1,-0.1 0.1,-0.1 0.2,-0.2 0.1,-0.1 0.2,-0.2 0.3,-0.3 0.1,-0.1 0.1,-0.1 0.2,-0.2 0.1,-0.1 0.2,-0.2 0.3,-0.4 0.1,-0.1 0.1,-0.2 0.2,-0.2 0.1,-0.1 0.2,-0.3 0.3,-0.4 0.1,-0.1 0.1,-0.2 0.2,-0.3 0.1,-0.1 0.2,-0.3 0.3,-0.4 0.1,-0.1 0.1,-0.2 0.2,-0.3 0.1,-0.1 0.2,-0.3 0.3,-0.4 0.1,-0.1 0.1,-0.2 0.2,-0.3 0.1,-0.2 0.2,-0.3 0.3,-0.5 0.1,-0.1 0.1,-0.2 0.2,-0.4 0.1,-0.2 0.2,-0.3 0.3,-0.5 0.1,-0.1 0.1,-0.3 0.2,-0.4 0.1,-0.2 0.2,-0.3 0.2,-0.5 0.1,-0.2 0.1,-0.3 0.2,-0.5 0.1,-0.2 0.1,-0.3 0.2,-0.5 0.1,-0.2 0.1,-0.3 0.2,-0.5 0.1,-0.2 0.1,-0.4 0.2,-0.5 0.1,-0.2 0.1,-0.3 0.2,-0.5 0.1,-0.2 0.2,-0.4 0.2,-0.6 0.1,-0.2 0.2,-0.5 0.2,-0.7 0,-0.2 0.1,-0.3 0.1,-0.4 0.1,-0.4 0.2,-0.8 0.4,-1.2 1.7,-6.1 2.1,-18.4 2.1,-26.5 V 280.9 L 15,294.5 v 53.8 c 0,20.5 3.7,25.4 8.3,26.3 0,0 0,0 -0.1,0 z"
   class="st0"
   inkscape:connector-curvature="0"
   style="fill:#060e9f" />

	<path
   id="path113"
   d="m 31.7,380.1 c 10.1,-1.3 15.9,-12.5 17.3,-18 2.2,-7.6 2.7,-17 2.7,-27.6 V 275 l -10.8,5.8 5.7,1.3 v 47.7 c 0,12.3 -0.3,23.1 -2.3,30.2 -2.8,10.1 -7.9,14.2 -11.5,15.5 l -9.1,-1 c 0,0 0,0 -0.1,0 1,2.9 3.2,5.1 5.8,5.5 z"
   class="st1"
   inkscape:connector-curvature="0"
   style="fill:#778692" />

	<path
   id="path115"
   d="m 29.4,379.9 c 0.9,2.4 3.2,4.6 5.7,5.1 l 2.3,0.2 c 10.5,-0.1 17.4,-10.3 19.8,-15.7 3.6,-8 5.3,-19.3 5.3,-35.5 v -64.9 l -10.9,5.9 5.8,1.3 v 55.4 c 0,13.8 -0.6,25.6 -3.9,34.3 -2.9,7.5 -8.2,13.4 -14.7,15 l -7.1,-0.8 z"
   class="st1"
   inkscape:connector-curvature="0"
   style="fill:#778692" />

	<path
   id="path117"
   d="m 62.5,269.1 5.9,1.3 v 61.2 c 0,18.8 -1.9,31.6 -6.1,40.3 -3.9,8.1 -10.5,13.3 -16.8,14.4 l -8.1,-1 -2.3,-0.2 c 2,3.3 5.4,5 9.1,5.2 5.1,0.2 9.2,-2 13.1,-4.6 12.4,-8.6 16.3,-27.7 16.3,-53.6 v -69 z"
   class="st1"
   inkscape:connector-curvature="0"
   style="fill:#778692" />

</g>
</svg>
