<svg id="Layer_1" data-name="Layer 1" xmlns="http://www.w3.org/2000/svg" xmlns:xlink="http://www.w3.org/1999/xlink" viewBox="0 0 255.12 85.04"><defs><style>.cls-1{fill:none;}.cls-2{clip-path:url(#clip-path);}.cls-3{fill:#260d0e;}.cls-4{fill:#eea720;}</style><clipPath id="clip-path"><rect class="cls-1" x="-0.44" y="-0.48" width="262" height="89"/></clipPath></defs><title>Artboard 3 copy 33</title><g class="cls-2"><path class="cls-3" d="M204.67-6.48s-98.18-1-87,108c64.7,8,143.91,1,143.91,1l-1.12-109Z"/><path class="cls-4" d="M245.56-5.92S134.8-4.07,116.68,88.52C114.44,46.13,126.56-47.93,245.56-5.92Z"/></g><path class="cls-4" d="M195.55,78.52c-.09,0-.14,0-.16,0a1,1,0,0,0-.92-.33q-3,0-6,0a.86.86,0,0,0-.8.31.17.17,0,0,1-.17.06c-.09-.11,0-.27,0-.41,0-3.21,0-6.42,0-9.63V32.14a.86.86,0,0,0,0-.16.56.56,0,0,1,.32-.6,15.44,15.44,0,0,1,4.66-2,20.79,20.79,0,0,1,6.81-.49c.6.06,1.18.25,1.77.35a10.44,10.44,0,0,1,2.7.95,3.89,3.89,0,0,1,1.07.68c.21.2.5.28.73.46a13.3,13.3,0,0,1,4,5.45A21.74,21.74,0,0,1,210.85,42a29.8,29.8,0,0,1,.21,6,25.16,25.16,0,0,1-1.29,7,16,16,0,0,1-2.55,4.81,10.61,10.61,0,0,1-6.79,4.08,13.78,13.78,0,0,1-4.44,0l-.2,0c-.16,0-.24,0-.23.19s0,.25,0,.38V78.52Zm0-32h0v10c0,.11,0,.22,0,.33a.22.22,0,0,0,.22.24,9.4,9.4,0,0,0,1.68.19,4.21,4.21,0,0,0,3.59-1.9,8.13,8.13,0,0,0,1-2.23,17.61,17.61,0,0,0,.73-4.43,37,37,0,0,0-.3-7.87,8.94,8.94,0,0,0-1.2-3.39,3.8,3.8,0,0,0-1.74-1.53,5.55,5.55,0,0,0-3.81-.11.25.25,0,0,0-.22.29V46.49Z"/><path class="cls-4" d="M184.81,45.36q0,7.65,0,15.29a.74.74,0,0,1-.39.73,18.07,18.07,0,0,1-6.57,2.47,23.55,23.55,0,0,1-5.1.31,12.13,12.13,0,0,1-5-1.19,8.44,8.44,0,0,1-3.94-4.08,13.52,13.52,0,0,1-1.15-4.5,25.88,25.88,0,0,1-.09-2.64V30.1c0-.6-.06-.54.53-.54h7.31c.19,0,.29.06.27.26s0,.22,0,.33V52.47a9.55,9.55,0,0,0,.23,2.33,3.53,3.53,0,0,0,1.49,2.11,1.26,1.26,0,0,0,.47.12,5.72,5.72,0,0,0,3.4-.28c.48-.17.47-.18.47-.68V29.78c0-.15.06-.22.22-.22h7.4a1.92,1.92,0,0,0,.24,0c.16,0,.24.06.23.22s0,.25,0,.37V45.36Z"/><path class="cls-4" d="M212.05,53.91a1.54,1.54,0,0,1,.47.37,12.28,12.28,0,0,0,4.6,2.69,6.48,6.48,0,0,0,3.12.31,4.47,4.47,0,0,0,1.13-.34A2.87,2.87,0,0,0,223,54.72a3.64,3.64,0,0,0-.92-3.29,10.07,10.07,0,0,0-1.22-1,28,28,0,0,0-2.7-1.72,20.21,20.21,0,0,1-2.63-1.87A11.71,11.71,0,0,1,213.08,44a9.84,9.84,0,0,1-1-2.25,6.33,6.33,0,0,1-.18-1.13,11.62,11.62,0,0,1,.09-4.24,9.2,9.2,0,0,1,4.39-6,11.22,11.22,0,0,1,6.93-1.55,12.94,12.94,0,0,1,5.76,1.84c.24.15.46.32.69.46a.59.59,0,0,1,.29.58c0,1.67,0,3.34,0,5v2.17c-.18,0-.24-.17-.33-.26a11,11,0,0,0-3.53-2.6,7.14,7.14,0,0,0-3.58-.67,3.66,3.66,0,0,0-2.55,1.2,1.44,1.44,0,0,0-.16.33,3.21,3.21,0,0,0,.91,4.08,12.53,12.53,0,0,0,1.6,1.09c1,.61,2.05,1.19,3,1.85a17.08,17.08,0,0,1,3.16,2.66,11.82,11.82,0,0,1,1.49,2.2,9.43,9.43,0,0,1,1,4.48,11.66,11.66,0,0,1-.6,4.23,9.58,9.58,0,0,1-1.63,2.93A9.22,9.22,0,0,1,226,62.83a11.45,11.45,0,0,1-4.36,1.28,18,18,0,0,1-4.27-.22,14.17,14.17,0,0,1-2.86-.82,13.92,13.92,0,0,1-2.29-1.13.33.33,0,0,1-.19-.29,1.48,1.48,0,0,1,0-.21V53.91Z"/></svg>