<?xml version="1.0" encoding="UTF-8" standalone="no"?>
<svg
   xmlns:dc="http://purl.org/dc/elements/1.1/"
   xmlns:cc="http://creativecommons.org/ns#"
   xmlns:rdf="http://www.w3.org/1999/02/22-rdf-syntax-ns#"
   xmlns:svg="http://www.w3.org/2000/svg"
   xmlns="http://www.w3.org/2000/svg"
   xmlns:sodipodi="http://sodipodi.sourceforge.net/DTD/sodipodi-0.dtd"
   xmlns:inkscape="http://www.inkscape.org/namespaces/inkscape"
   id="Layer_1"
   data-name="Layer 1"
   viewBox="0 0 255.12 85.04"
   version="1.1"
   sodipodi:docname="UPS Colombia.svg"
   inkscape:version="0.92.4 (5da689c313, 2019-01-14)">
  <metadata
     id="metadata26">
    <rdf:RDF>
      <cc:Work
         rdf:about="">
        <dc:format>image/svg+xml</dc:format>
        <dc:type
           rdf:resource="http://purl.org/dc/dcmitype/StillImage" />
        <dc:title>Artboard 3 copy 33</dc:title>
      </cc:Work>
    </rdf:RDF>
  </metadata>
  <sodipodi:namedview
     pagecolor="#ffffff"
     bordercolor="#666666"
     borderopacity="1"
     objecttolerance="10"
     gridtolerance="10"
     guidetolerance="10"
     inkscape:pageopacity="0"
     inkscape:pageshadow="2"
     inkscape:window-width="1366"
     inkscape:window-height="705"
     id="namedview24"
     showgrid="false"
     inkscape:zoom="0.96731057"
     inkscape:cx="85.688592"
     inkscape:cy="25.94753"
     inkscape:window-x="-8"
     inkscape:window-y="-8"
     inkscape:window-maximized="1"
     inkscape:current-layer="Layer_1" />
  <defs
     id="defs7">
    <style
       id="style2">.cls-1{fill:none;}.cls-2{clip-path:url(#clip-path);}.cls-3{fill:#260d0e;}.cls-4{fill:#eea720;}</style>
    <clipPath
       id="clip-path">
      <rect
         class="cls-1"
         x="-0.44"
         y="-0.48"
         width="262"
         height="89"
         id="rect4" />
    </clipPath>
  </defs>
  <title
     id="title9">Artboard 3 copy 33</title>
  <g
     class="cls-2"
     clip-path="url(#clip-path)"
     id="g15"
     transform="matrix(0.94545073,0,0,0.92889679,-108.61391,3.0672529)">
    <path
       class="cls-3"
       d="m 204.67,-6.48 c 0,0 -98.18,-1 -87,108 64.7,8 143.91,1 143.91,1 l -1.12,-109 z"
       id="path11"
       inkscape:connector-curvature="0"
       style="fill:#260d0e" />
    <path
       class="cls-4"
       d="m 245.56,-5.92 c 0,0 -110.76,1.85 -128.88,94.44 -2.24,-42.39 9.88,-136.45 128.88,-94.44 z"
       id="path13"
       inkscape:connector-curvature="0"
       style="fill:#eea720" />
  </g>
  <path
     class="cls-4"
     d="m 70.155005,78.705949 c -0.07931,0 -0.123371,0 -0.140996,0 a 0.88122545,0.97618178 0 0 0 -0.810727,-0.32214 q -2.643677,0 -5.287353,0 a 0.75785389,0.83951633 0 0 0 -0.70498,0.302616 0.14980833,0.1659509 0 0 1 -0.149809,0.05857 c -0.07931,-0.10738 0,-0.263569 0,-0.400235 0,-3.133543 0,-6.267087 0,-9.40063 V 33.430638 a 0.75785389,0.83951633 0 0 0 0,-0.156189 0.49348625,0.54666179 0 0 1 0.281993,-0.585709 13.606121,15.072247 0 0 1 4.10651,-1.952364 18.320677,20.294819 0 0 1 6.001145,-0.478329 c 0.528736,0.05857 1.039846,0.244046 1.559769,0.341664 a 9.1999937,10.191338 0 0 1 2.379309,0.927372 3.427967,3.7973471 0 0 1 0.942911,0.663804 c 0.185058,0.195236 0.440613,0.273331 0.643295,0.449044 a 11.720298,12.983218 0 0 1 3.524902,5.32019 19.157841,21.222192 0 0 1 1.136781,5.095669 26.260518,29.090217 0 0 1 0.185057,5.857091 22.171632,24.560734 0 0 1 -1.136781,6.833272 14.099607,15.618908 0 0 1 -2.247125,4.695435 9.349802,10.357289 0 0 1 -5.983521,3.982821 12.143287,13.451785 0 0 1 -3.912641,0 h -0.176245 c -0.140996,0 -0.211494,0 -0.202681,0.185475 0.0088,0.185474 0,0.244045 0,0.370949 v 13.725116 z m 0,-31.237817 v 0 9.761818 c 0,0.10738 0,0.21476 0,0.32214 a 0.1938696,0.21475999 0 0 0 0.19387,0.234283 8.2835192,9.1761087 0 0 0 1.480459,0.185475 3.7099591,4.1097253 0 0 0 3.163599,-1.854746 7.1643629,7.9363578 0 0 0 0.881225,-2.176885 15.51838,17.190561 0 0 0 0.643295,-4.324485 32.605342,36.118726 0 0 0 -0.264368,-7.682551 7.8781555,8.7270651 0 0 0 -1.05747,-3.309256 3.3486567,3.7094908 0 0 0 -1.533332,-1.493558 4.8908012,5.4178089 0 0 0 -3.357469,-0.10738 0.22030636,0.24404544 0 0 0 -0.19387,0.283093 v 10.132766 z"
     id="path17"
     inkscape:connector-curvature="0"
     style="fill:#eea720;stroke-width:0.92748922" />
  <path
     class="cls-4"
     d="m 60.690644,46.335761 q 0,7.467791 0,14.925819 a 0.65210683,0.72237451 0 0 1 -0.343678,0.712613 15.923744,17.639605 0 0 1 -5.789651,2.411169 20.752859,22.989081 0 0 1 -4.49425,0.302616 A 10.689265,11.841085 0 0 1 45.656938,63.526322 7.4375428,8.2389742 0 0 1 42.18491,59.5435 11.914168,13.197978 0 0 1 41.1715,55.150682 22.806115,25.263584 0 0 1 41.09219,52.573562 V 31.439227 c 0,-0.585709 -0.05287,-0.527138 0.467049,-0.527138 h 6.441758 c 0.167433,0 0.255556,0.05857 0.237931,0.253807 -0.01762,0.195236 0,0.21476 0,0.32214 v 21.788377 a 8.415703,9.322536 0 0 0 0.202682,2.274504 3.1107258,3.4459217 0 0 0 1.313026,2.059743 1.1103441,1.229989 0 0 0 0.414176,0.117142 5.0406096,5.5837598 0 0 0 2.996167,-0.273331 c 0.422988,-0.165951 0.414176,-0.175712 0.414176,-0.663803 V 31.126849 c 0,-0.146427 0.05287,-0.21476 0.193869,-0.21476 h 6.521068 a 1.6919529,1.874269 0 0 0 0.211495,0 c 0.140996,0 0.211494,0.05857 0.202681,0.21476 -0.0088,0.156189 0,0.244045 0,0.361187 v 14.847725 z"
     id="path19"
     inkscape:connector-curvature="0"
     style="fill:#eea720;stroke-width:0.92748922" />
  <path
     class="cls-4"
     d="m 84.695225,54.682115 a 1.3570872,1.5033199 0 0 1 0.414176,0.361187 10.821449,11.987512 0 0 0 4.053637,2.625929 5.7103409,6.3256579 0 0 0 2.749424,0.302617 3.9390778,4.3635325 0 0 0 0.995784,-0.331902 2.529117,2.8016417 0 0 0 1.436398,-2.167124 3.2076606,3.5533017 0 0 0 -0.810728,-3.211638 8.8739403,9.8301505 0 0 0 -1.075095,-0.976181 24.674313,27.33309 0 0 0 -2.379308,-1.679033 17.809566,19.728634 0 0 1 -2.317623,-1.82546 10.31915,11.431089 0 0 1 -2.159003,-2.772356 8.6712584,9.6056287 0 0 1 -0.881225,-2.196409 5.5781571,6.1792306 0 0 1 -0.158621,-1.103086 10.23984,11.343232 0 0 1 0.07931,-4.13901 8.1072741,8.9808723 0 0 1 3.868579,-5.857091 9.8873495,10.95276 0 0 1 6.106893,-1.513082 11.403057,12.631792 0 0 1 5.075858,1.796175 c 0.211494,0.146427 0.405369,0.312378 0.608049,0.449043 a 0.51992301,0.57594725 0 0 1 0.25555,0.566186 c 0,1.630223 0,3.260447 0,4.880909 v 2.118314 c -0.15862,0 -0.21149,-0.165951 -0.2908,-0.253807 a 9.6934799,10.738 0 0 0 -3.110728,-2.538073 6.2919497,6.9699379 0 0 0 -3.154787,-0.654042 3.2252851,3.5728253 0 0 0 -2.247125,1.171418 1.2689646,1.4057018 0 0 0 -0.140996,0.32214 2.8287337,3.1335435 0 0 0 0.801915,3.982822 11.041755,12.231558 0 0 0 1.409961,1.064038 c 0.881225,0.595471 1.806512,1.161657 2.643676,1.805937 a 15.051331,16.673185 0 0 1 2.784673,2.596643 10.416085,11.538469 0 0 1 1.313031,2.1476 8.309956,9.2053942 0 0 1 0.88122,4.373294 10.275089,11.38228 0 0 1 -0.52873,4.129249 8.4421398,9.3518214 0 0 1 -1.436403,2.860213 8.1248986,9.000396 0 0 1 -2.493868,2.372122 10.090031,11.177281 0 0 1 -3.842143,1.249512 15.862058,17.571272 0 0 1 -3.762832,-0.21476 12.486965,13.832496 0 0 1 -2.520305,-0.800469 12.266658,13.58845 0 0 1 -2.018006,-1.103085 0.2908044,0.32213999 0 0 1 -0.167433,-0.283093 1.3042137,1.444749 0 0 1 0,-0.204998 v -7.350649 z"
     id="path21"
     inkscape:connector-curvature="0"
     style="fill:#eea720;stroke-width:0.92748922" />
  <g
     style="fill-rule:evenodd"
     id="g71"
     transform="matrix(1.25,0,0,1.25,-45.26044,-24.094419)">
    <g
       transform="translate(-88.771172,-387.07637)"
       id="g4">
      <g
         id="g6">
        <g
           id="g8"
           transform="matrix(0.30247282,0,0,0.27161857,67.497752,291.00441)">
          <path
             inkscape:connector-curvature="0"
             id="path26"
             d="m 578.13263,553.95109 c 0,12.55558 7.18384,20.97973 17.82216,20.97973 3.73025,0 7.32255,-1.2966 10.63833,-3.80744 1.03586,-0.80995 1.65789,-2.18686 1.65789,-3.56378 0,-2.34885 -1.65789,-4.05042 -3.52333,-4.05042 -0.69037,0 -1.38136,0.24298 -2.00339,0.72963 -2.21031,1.6199 -4.42061,2.75383 -6.7695,2.75383 -6.70052,0 -10.49974,-5.18436 -10.49974,-13.04155 v -16.44265 c 0,-7.85719 3.79922,-13.04155 10.49974,-13.04155 2.34889,0 4.62817,1.05294 6.83911,2.67352 0.62139,0.40429 1.24341,0.64796 1.8648,0.64796 2.00339,0 3.59231,-1.78257 3.59231,-3.96944 0,-1.37691 -0.62203,-2.67283 -1.65789,-3.48278 -3.31578,-2.51084 -6.90808,-3.80676 -10.63833,-3.80676 -10.63832,0 -17.82216,8.42347 -17.82216,20.97905 z m 62.89614,-4.6977 c 0,-4.94138 -1.38136,-9.23411 -4.00677,-12.31191 -2.62478,-3.07849 -6.28605,-4.69839 -10.49974,-4.69839 -4.2137,0 -7.87497,1.6199 -10.49975,4.69839 -2.62541,3.0778 -4.00677,7.37053 -4.00677,12.31191 v 8.66713 c 0,4.9407 1.38136,9.23411 4.00677,12.31192 2.62478,3.07848 6.28605,4.69838 10.49975,4.69838 4.21369,0 7.87496,-1.6199 10.49974,-4.69838 2.62541,-3.07781 4.00677,-7.37122 4.00677,-12.31192 z m -7.11499,9.39609 c 0,5.42666 -2.69439,8.58614 -7.39152,8.58614 -4.69714,0 -7.39153,-3.15948 -7.39153,-8.58614 v -10.04405 c 0,-5.50834 2.69439,-8.66714 7.39153,-8.66714 4.55919,0 7.39152,3.56377 7.39152,8.66714 z m 13.71206,12.06893 c 0,2.34885 1.58891,4.21241 3.59166,4.21241 1.93441,0 3.52333,-1.86356 3.52333,-4.21241 v -49.97728 c 0,-2.34886 -1.58892,-4.21174 -3.52333,-4.21174 -2.00275,0 -3.59166,1.86288 -3.59166,4.21174 z m 42.72509,-21.46502 c 0,-4.94138 -1.38136,-9.23411 -4.00678,-12.31191 -2.62477,-3.07849 -6.28605,-4.69839 -10.49974,-4.69839 -4.21369,0 -7.87497,1.6199 -10.49974,4.69839 -2.62542,3.0778 -4.00678,7.37053 -4.00678,12.31191 v 8.66713 c 0,4.9407 1.38136,9.23411 4.00678,12.31192 2.62477,3.07848 6.28605,4.69838 10.49974,4.69838 4.21369,0 7.87497,-1.6199 10.49974,-4.69838 2.62542,-3.07781 4.00678,-7.37122 4.00678,-12.31192 z m -7.115,9.39609 c 0,5.42666 -2.69438,8.58614 -7.39152,8.58614 -4.69713,0 -7.39152,-3.15948 -7.39152,-8.58614 v -10.04405 c 0,-5.50834 2.69439,-8.66714 7.39152,-8.66714 4.55919,0 7.39152,3.56377 7.39152,8.66714 z m 51.36003,12.06893 c 0,2.34885 1.51994,4.21241 3.52333,4.21241 2.00275,0 3.59166,-1.86356 3.59166,-4.21241 v -23.16592 c 0,-8.74813 -5.59505,-15.3094 -13.05554,-15.3094 -3.45436,0 -6.83911,1.13393 -9.67144,3.32079 -2.14133,-2.10587 -5.04263,-3.32079 -8.35841,-3.32079 -4.00613,0 -7.52946,0.72895 -11.12177,2.34885 -1.72686,0.80995 -2.9013,2.75451 -2.9013,4.94137 v 31.1851 c 0,2.34885 1.58892,4.21241 3.5923,4.21241 1.93442,0 3.5227,-1.86356 3.5227,-4.21241 v -29.64619 c 2.21094,-0.72896 3.73088,-1.13393 6.21707,-1.13393 3.03989,0 5.66467,1.21492 5.66467,5.91263 v 24.86749 c 0,2.34885 1.58891,4.21241 3.52333,4.21241 2.00274,0 3.59166,-1.86356 3.59166,-4.21241 v -28.67425 c 1.7275,-1.29592 3.79922,-2.10587 5.94119,-2.10587 3.24616,0 5.94055,3.1588 5.94055,6.96624 z m 42.03473,-22.27497 c 0,-4.69839 -1.31303,-8.91013 -3.79986,-11.82594 -2.48683,-2.9975 -5.52608,-4.37441 -9.60182,-4.37441 -2.27928,0 -5.04264,0.97194 -7.18397,2.10587 v -13.60783 c 0,-2.34886 -1.58891,-4.21174 -3.52333,-4.21174 -2.00339,0 -3.59166,1.86288 -3.59166,4.21174 v 47.14245 c 0,2.26786 1.24341,4.21174 3.03924,4.94069 3.45372,1.3776 7.04603,2.10655 10.77627,2.10655 4.07575,0 7.52947,-1.53958 10.0163,-4.53639 2.48683,-2.91582 3.86883,-6.96557 3.86883,-11.74495 z m -7.11563,10.93499 c 0,5.02237 -2.48683,7.85719 -6.7695,7.85719 -2.27991,0 -4.49022,-0.32398 -6.70052,-0.97194 v -23.40957 c 1.93442,-1.86289 4.21369,-2.91582 6.70052,-2.91582 4.28267,0 6.7695,2.91582 6.7695,7.85719 z m 21.72561,-38.15133 c 0,-2.59184 -1.79584,-4.69771 -4.00678,-4.69771 -2.2103,0 -4.00614,2.10587 -4.00614,4.69771 0,2.59183 1.79584,4.69838 4.00614,4.69838 2.21094,0 4.00678,-2.10655 4.00678,-4.69838 z m -7.59844,49.49131 c 0,2.34885 1.65788,4.21241 3.59166,4.21241 2.00339,0 3.52333,-1.86356 3.52333,-4.21241 v -34.26359 c 0,-2.34885 -1.51994,-4.21173 -3.52333,-4.21173 -1.93378,0 -3.59166,1.86288 -3.59166,4.21173 z m 40.92862,-24.70482 c 0,-7.20923 -4.21369,-13.7705 -11.95008,-13.7705 -4.97366,0 -8.22046,0.72895 -11.95071,3.2398 -1.17444,0.81063 -1.7275,2.26853 -1.7275,3.72644 0,2.02488 1.51995,3.64478 3.38539,3.64478 0.62139,0 1.38136,-0.32398 1.93441,-0.72896 2.41722,-1.70089 4.21369,-2.18686 7.45986,-2.18686 3.5923,0 5.73363,2.67283 5.73363,6.0753 v 2.83482 h -7.11499 c -4.21369,0 -7.52947,1.21493 -9.87835,3.56378 -2.34825,2.26786 -3.59231,5.34634 -3.59231,9.3151 0,3.96943 1.24406,7.29022 3.59231,9.63907 2.34888,2.34954 5.66466,3.56446 9.87835,3.56446 3.86819,0 7.80599,-0.72895 11.19074,-2.10655 1.79583,-0.72895 3.03925,-2.67283 3.03925,-4.94069 z m -7.115,20.1691 c -2.2103,0.64796 -4.7661,1.05293 -7.11499,1.05293 -6.00952,0 -6.35502,-4.05042 -6.35502,-5.50833 0,-1.37692 0.3455,-5.18368 6.35502,-5.18368 h 7.11499 z"
             style="fill:#2c2c2b;stroke:none;stroke-width:0.65929633" />
        </g>
      </g>
    </g>
  </g>
</svg>
