<?xml version="1.0" encoding="UTF-8" standalone="no"?>
<svg
   xmlns:dc="http://purl.org/dc/elements/1.1/"
   xmlns:cc="http://creativecommons.org/ns#"
   xmlns:rdf="http://www.w3.org/1999/02/22-rdf-syntax-ns#"
   xmlns:svg="http://www.w3.org/2000/svg"
   xmlns="http://www.w3.org/2000/svg"
   xmlns:xlink="http://www.w3.org/1999/xlink"
   xmlns:sodipodi="http://sodipodi.sourceforge.net/DTD/sodipodi-0.dtd"
   xmlns:inkscape="http://www.inkscape.org/namespaces/inkscape"
   id="Layer_1"
   data-name="Layer 1"
   viewBox="0 0 255.12 85.04"
   version="1.1"
   sodipodi:docname="VRBO.svg"
   inkscape:version="0.92.4 (5da689c313, 2019-01-14)">
  <metadata
     id="metadata35">
    <rdf:RDF>
      <cc:Work
         rdf:about="">
        <dc:format>image/svg+xml</dc:format>
        <dc:type
           rdf:resource="http://purl.org/dc/dcmitype/StillImage" />
        <dc:title>Artboard 3 copy 40</dc:title>
      </cc:Work>
    </rdf:RDF>
  </metadata>
  <sodipodi:namedview
     pagecolor="#ffffff"
     bordercolor="#666666"
     borderopacity="1"
     objecttolerance="10"
     gridtolerance="10"
     guidetolerance="10"
     inkscape:pageopacity="0"
     inkscape:pageshadow="2"
     inkscape:window-width="683"
     inkscape:window-height="705"
     id="namedview33"
     showgrid="false"
     inkscape:zoom="1.28"
     inkscape:cx="60.674694"
     inkscape:cy="77.905991"
     inkscape:window-x="-8"
     inkscape:window-y="-8"
     inkscape:window-maximized="0"
     inkscape:current-layer="Layer_1-7" />
  <defs
     id="defs12">
    <style
       id="style10">.cls-1{fill:#2b5097;fill-rule:evenodd;}</style>
    <clipPath
       clip-path="url(#SVGID_23_)"
       id="SVGID_24_-2">
      <use
         height="100%"
         width="100%"
         y="0"
         x="0"
         style="overflow:visible"
         id="use91-7"
         overflow="visible"
         xlink:href="#SVGID_15_" />
    </clipPath>
    <clipPath
       clip-path="url(#SVGID_23_)"
       id="clipPath3453">
      <use
         height="100%"
         width="100%"
         y="0"
         x="0"
         style="overflow:visible"
         id="use3455"
         overflow="visible"
         xlink:href="#SVGID_15_" />
    </clipPath>
    <clipPath
       clip-path="url(#SVGID_23_)"
       id="clipPath3457">
      <use
         height="100%"
         width="100%"
         y="0"
         x="0"
         style="overflow:visible"
         id="use3459"
         overflow="visible"
         xlink:href="#SVGID_15_" />
    </clipPath>
    <clipPath
       clip-path="url(#SVGID_23_)"
       id="clipPath3461">
      <use
         height="100%"
         width="100%"
         y="0"
         x="0"
         style="overflow:visible"
         id="use3463"
         overflow="visible"
         xlink:href="#SVGID_15_" />
    </clipPath>
    <clipPath
       clip-path="url(#SVGID_23_)"
       id="clipPath3465">
      <use
         height="100%"
         width="100%"
         y="0"
         x="0"
         style="overflow:visible"
         id="use3467"
         overflow="visible"
         xlink:href="#SVGID_15_" />
    </clipPath>
    <clipPath
       clip-path="url(#SVGID_23_)"
       id="clipPath3469">
      <use
         height="100%"
         width="100%"
         y="0"
         x="0"
         style="overflow:visible"
         id="use3471"
         overflow="visible"
         xlink:href="#SVGID_15_" />
    </clipPath>
    <clipPath
       clip-path="url(#SVGID_23_)"
       id="clipPath3473">
      <use
         height="100%"
         width="100%"
         y="0"
         x="0"
         style="overflow:visible"
         id="use3475"
         overflow="visible"
         xlink:href="#SVGID_15_" />
    </clipPath>
    <clipPath
       clip-path="url(#SVGID_23_)"
       id="clipPath3477">
      <use
         height="100%"
         width="100%"
         y="0"
         x="0"
         style="overflow:visible"
         id="use3479"
         overflow="visible"
         xlink:href="#SVGID_15_" />
    </clipPath>
    <clipPath
       id="SVGID_6_-3">
      <use
         height="100%"
         width="100%"
         y="0"
         x="0"
         style="overflow:visible"
         id="use33-6"
         overflow="visible"
         xlink:href="#SVGID_5_" />
    </clipPath>
    <clipPath
       clip-path="url(#SVGID_23_)"
       id="clipPath3483">
      <use
         height="100%"
         width="100%"
         y="0"
         x="0"
         style="overflow:visible"
         id="use3485"
         overflow="visible"
         xlink:href="#SVGID_15_" />
    </clipPath>
    <clipPath
       clip-path="url(#SVGID_23_)"
       id="SVGID_24_-2-4">
      <use
         height="100%"
         width="100%"
         y="0"
         x="0"
         style="overflow:visible"
         id="use91-7-4"
         overflow="visible"
         xlink:href="#SVGID_15_" />
    </clipPath>
    <clipPath
       clip-path="url(#SVGID_23_)"
       id="clipPath3626">
      <use
         height="100%"
         width="100%"
         y="0"
         x="0"
         style="overflow:visible"
         id="use3628"
         overflow="visible"
         xlink:href="#SVGID_15_" />
    </clipPath>
    <clipPath
       clip-path="url(#SVGID_23_)"
       id="clipPath3630">
      <use
         height="100%"
         width="100%"
         y="0"
         x="0"
         style="overflow:visible"
         id="use3632"
         overflow="visible"
         xlink:href="#SVGID_15_" />
    </clipPath>
    <clipPath
       clip-path="url(#SVGID_23_)"
       id="clipPath3634">
      <use
         height="100%"
         width="100%"
         y="0"
         x="0"
         style="overflow:visible"
         id="use3636"
         overflow="visible"
         xlink:href="#SVGID_15_" />
    </clipPath>
    <clipPath
       clip-path="url(#SVGID_23_)"
       id="clipPath3638">
      <use
         height="100%"
         width="100%"
         y="0"
         x="0"
         style="overflow:visible"
         id="use3640"
         overflow="visible"
         xlink:href="#SVGID_15_" />
    </clipPath>
    <clipPath
       clip-path="url(#SVGID_23_)"
       id="clipPath3642">
      <use
         height="100%"
         width="100%"
         y="0"
         x="0"
         style="overflow:visible"
         id="use3644"
         overflow="visible"
         xlink:href="#SVGID_15_" />
    </clipPath>
    <clipPath
       clip-path="url(#SVGID_23_)"
       id="clipPath3646">
      <use
         height="100%"
         width="100%"
         y="0"
         x="0"
         style="overflow:visible"
         id="use3648"
         overflow="visible"
         xlink:href="#SVGID_15_" />
    </clipPath>
    <clipPath
       clip-path="url(#SVGID_23_)"
       id="clipPath3650">
      <use
         height="100%"
         width="100%"
         y="0"
         x="0"
         style="overflow:visible"
         id="use3652"
         overflow="visible"
         xlink:href="#SVGID_15_" />
    </clipPath>
    <clipPath
       clip-path="url(#SVGID_23_)"
       id="SVGID_24_-2-8">
      <use
         height="100%"
         width="100%"
         y="0"
         x="0"
         style="overflow:visible"
         id="use91-7-7"
         overflow="visible"
         xlink:href="#SVGID_15_" />
    </clipPath>
    <clipPath
       clip-path="url(#SVGID_23_)"
       id="clipPath3790">
      <use
         height="100%"
         width="100%"
         y="0"
         x="0"
         style="overflow:visible"
         id="use3792"
         overflow="visible"
         xlink:href="#SVGID_15_" />
    </clipPath>
    <clipPath
       clip-path="url(#SVGID_23_)"
       id="clipPath3794">
      <use
         height="100%"
         width="100%"
         y="0"
         x="0"
         style="overflow:visible"
         id="use3796"
         overflow="visible"
         xlink:href="#SVGID_15_" />
    </clipPath>
    <clipPath
       clip-path="url(#SVGID_23_)"
       id="clipPath3798">
      <use
         height="100%"
         width="100%"
         y="0"
         x="0"
         style="overflow:visible"
         id="use3800"
         overflow="visible"
         xlink:href="#SVGID_15_" />
    </clipPath>
    <clipPath
       clip-path="url(#SVGID_23_)"
       id="clipPath3802">
      <use
         height="100%"
         width="100%"
         y="0"
         x="0"
         style="overflow:visible"
         id="use3804"
         overflow="visible"
         xlink:href="#SVGID_15_" />
    </clipPath>
    <clipPath
       clip-path="url(#SVGID_23_)"
       id="clipPath3806">
      <use
         height="100%"
         width="100%"
         y="0"
         x="0"
         style="overflow:visible"
         id="use3808"
         overflow="visible"
         xlink:href="#SVGID_15_" />
    </clipPath>
    <clipPath
       clip-path="url(#SVGID_23_)"
       id="clipPath3810">
      <use
         height="100%"
         width="100%"
         y="0"
         x="0"
         style="overflow:visible"
         id="use3812"
         overflow="visible"
         xlink:href="#SVGID_15_" />
    </clipPath>
    <clipPath
       clip-path="url(#SVGID_23_)"
       id="clipPath3814">
      <use
         height="100%"
         width="100%"
         y="0"
         x="0"
         style="overflow:visible"
         id="use3816"
         overflow="visible"
         xlink:href="#SVGID_15_" />
    </clipPath>
    <clipPath
       clip-path="url(#SVGID_23_)"
       id="clipPath3818">
      <use
         height="100%"
         width="100%"
         y="0"
         x="0"
         style="overflow:visible"
         id="use3820"
         overflow="visible"
         xlink:href="#SVGID_15_" />
    </clipPath>
    <clipPath
       id="SVGID_6_-3-4">
      <use
         height="100%"
         width="100%"
         y="0"
         x="0"
         style="overflow:visible"
         id="use33-6-5"
         overflow="visible"
         xlink:href="#SVGID_5_" />
    </clipPath>
    <clipPath
       clip-path="url(#SVGID_23_)"
       id="SVGID_24_-2-8-1">
      <use
         height="100%"
         width="100%"
         y="0"
         x="0"
         style="overflow:visible"
         id="use91-7-7-4"
         overflow="visible"
         xlink:href="#SVGID_15_" />
    </clipPath>
    <clipPath
       id="SVGID_6_-3-4-6">
      <use
         height="100%"
         width="100%"
         y="0"
         x="0"
         style="overflow:visible"
         id="use33-6-5-6"
         overflow="visible"
         xlink:href="#SVGID_5_" />
    </clipPath>
    <clipPath
       clip-path="url(#SVGID_23_)"
       id="SVGID_24_-2-8-3">
      <use
         height="100%"
         width="100%"
         y="0"
         x="0"
         style="overflow:visible"
         id="use91-7-7-0"
         overflow="visible"
         xlink:href="#SVGID_15_" />
    </clipPath>
    <clipPath
       clip-path="url(#SVGID_23_)"
       id="clipPath3951">
      <use
         height="100%"
         width="100%"
         y="0"
         x="0"
         style="overflow:visible"
         id="use3953"
         overflow="visible"
         xlink:href="#SVGID_15_" />
    </clipPath>
    <clipPath
       clip-path="url(#SVGID_23_)"
       id="clipPath3955">
      <use
         height="100%"
         width="100%"
         y="0"
         x="0"
         style="overflow:visible"
         id="use3957"
         overflow="visible"
         xlink:href="#SVGID_15_" />
    </clipPath>
    <clipPath
       clip-path="url(#SVGID_23_)"
       id="clipPath3959">
      <use
         height="100%"
         width="100%"
         y="0"
         x="0"
         style="overflow:visible"
         id="use3961"
         overflow="visible"
         xlink:href="#SVGID_15_" />
    </clipPath>
    <clipPath
       clip-path="url(#SVGID_23_)"
       id="clipPath3963">
      <use
         height="100%"
         width="100%"
         y="0"
         x="0"
         style="overflow:visible"
         id="use3965"
         overflow="visible"
         xlink:href="#SVGID_15_" />
    </clipPath>
    <clipPath
       clip-path="url(#SVGID_23_)"
       id="clipPath3967">
      <use
         height="100%"
         width="100%"
         y="0"
         x="0"
         style="overflow:visible"
         id="use3969"
         overflow="visible"
         xlink:href="#SVGID_15_" />
    </clipPath>
    <clipPath
       clip-path="url(#SVGID_23_)"
       id="clipPath3971">
      <use
         height="100%"
         width="100%"
         y="0"
         x="0"
         style="overflow:visible"
         id="use3973"
         overflow="visible"
         xlink:href="#SVGID_15_" />
    </clipPath>
    <clipPath
       clip-path="url(#SVGID_23_)"
       id="clipPath3975">
      <use
         height="100%"
         width="100%"
         y="0"
         x="0"
         style="overflow:visible"
         id="use3977"
         overflow="visible"
         xlink:href="#SVGID_15_" />
    </clipPath>
    <rect
       height="500"
       width="800"
       y="-176"
       x="-130.438"
       id="SVGID_1_" />
    <rect
       height="500"
       width="800"
       y="-176"
       x="-130.438"
       id="SVGID_3_" />
    <rect
       height="146.554"
       width="144.311"
       y="0.72299999"
       x="0.47600001"
       id="SVGID_5_" />
    <rect
       height="500"
       width="800"
       y="-176"
       x="-130.438"
       id="SVGID_7_" />
    <rect
       height="500"
       width="800"
       y="-176"
       x="-130.438"
       id="SVGID_8_" />
    <rect
       height="500"
       width="800"
       y="-176"
       x="-130.438"
       id="SVGID_9_" />
    <rect
       height="500"
       width="800"
       y="-176"
       x="-130.438"
       id="SVGID_10_" />
    <rect
       height="500"
       width="800"
       y="-176"
       x="-130.438"
       id="SVGID_11_" />
    <rect
       height="500"
       width="800"
       y="-176"
       x="-130.438"
       id="SVGID_12_" />
    <rect
       height="500"
       width="800"
       y="-176"
       x="-130.438"
       id="SVGID_13_" />
    <rect
       height="500"
       width="800"
       y="-176"
       x="-130.438"
       id="SVGID_14_" />
    <rect
       height="500"
       width="800"
       y="-176"
       x="-130.438"
       id="SVGID_15_" />
    <clipPath
       id="_clipPath_f0UbNDBXQ8aHAFPmOgnXs5adxYD8xIe2">
      <rect
         id="rect252"
         height="30"
         width="121" />
    </clipPath>
  </defs>
  <title
     id="title14">Artboard 3 copy 40</title>
  <style
     id="style401"
     type="text/css">
	.st0{stroke:#000000;stroke-width:0.7024;stroke-miterlimit:10;}
	.st1{fill-rule:evenodd;clip-rule:evenodd;fill:url(#SVGID_1_);}
	.st2{fill-rule:evenodd;clip-rule:evenodd;fill:url(#SVGID_2_);}
	.st3{fill-rule:evenodd;clip-rule:evenodd;fill:url(#SVGID_3_);}
</style>
  <g
     id="g524"
     transform="matrix(0.32763442,0,0,0.33108194,-3.3589898,-13.966892)">
    <g
       id="Layer_1-7">
      <g
         id="g431" />
      <g
         id="g175"
         transform="matrix(4.2959124,0,0,3.7871701,188.52622,104.87521)">
        <path
           id="path107"
           d="m 110,12.93 v 0.06 c 7.73,0.65 10,6.14 9.89,9.33 C 119.71,31.56 112.55,39 101,39.91 v 0.05 c 12.69,-0.76 20.12,-7.32 20.28,-16.72 -0.02,-3.46 -2.54,-9.8 -11.28,-10.31 z"
           inkscape:connector-curvature="0"
           style="fill:#245abc" />
        <path
           id="path109"
           d="m 101,39.8 a 18.92,18.92 0 0 0 17.65,-18.44 c 0,-2.92 -2,-7.72 -8.72,-8.26 v 0.05 c 5.56,0.59 7.52,4.64 7.48,7.29 -0.16,8.91 -7.07,18.35 -16.35,19.3 z"
           inkscape:connector-curvature="0"
           style="fill:#245abc" />
        <path
           id="path111"
           d="m 101.08,39.63 c 8.21,-0.85 14.82,-11.41 15,-20.16 0,-2.37 -1.51,-5.68 -6.2,-6.21 v 0.06 c 3.69,0.56 5,3.13 5,5.24 -0.15,8.57 -6.59,20.07 -13.66,21 z"
           inkscape:connector-curvature="0"
           style="fill:#245abc" />
        <path
           id="path113"
           d="m 101.19,39.4 v 0.07 c 6,-0.87 12.19,-13.48 12.34,-21.88 a 4,4 0 0 0 -3.73,-4.15 v 0.06 a 2.93,2.93 0 0 1 2.43,3.18 C 112,24.89 106,38.51 101.19,39.4 Z m -3.77,-3.26 c 0.14,-7.9 6.37,-21.78 11,-22.72 v -0.07 c -5.8,0.86 -12.21,13.69 -12.36,21.83 a 3.93,3.93 0 0 0 3.74,4.22 v -0.06 a 2.8,2.8 0 0 1 -2.38,-3.2 z"
           inkscape:connector-curvature="0"
           style="fill:#245abc" />
        <path
           id="path115"
           d="m 94.87,34.26 c 0.15,-8.35 6.86,-20.07 13.68,-21 V 13.2 c -8,0.85 -14.83,11.57 -15,20.1 0,2.38 1.56,5.9 6.2,6.28 v -0.06 c -3.62,-0.47 -4.92,-3.15 -4.88,-5.26 z"
           inkscape:connector-curvature="0"
           style="fill:#245abc" />
        <path
           id="path117"
           d="m 92.32,32.38 c 0.15,-8.75 7.28,-18.35 16.31,-19.3 V 13.02 A 19.26,19.26 0 0 0 91,31.41 c 0,2.92 2,7.88 8.73,8.32 V 39.67 C 93.93,39.15 92.28,35 92.32,32.38 Z"
           inkscape:connector-curvature="0"
           style="fill:#245abc" />
        <path
           id="path119"
           d="m 89.77,30.5 c 0.16,-9.19 8.08,-16.71 18.94,-17.58 v -0.06 c -12.16,0.75 -20.12,7.31 -20.28,16.67 -0.07,3.46 2.46,9.86 11.19,10.36 -7.62,-0.6 -9.9,-6.2 -9.85,-9.39 z M 83.59,13.06 c -4.19,-0.57 -9.25,1.89 -12.1,6.21 l 0.05,0.07 c 2.7,-3.88 7.26,-6.19 11,-5.67 2.52,0.34 4.25,2.25 3.9,6 -0.89,9.55 -8.94,20.28 -21.82,20.25 v 0.07 A 22.63,22.63 0 0 0 88,19.7 c 0.35,-4.14 -1.57,-6.25 -4.41,-6.64 z"
           inkscape:connector-curvature="0"
           style="fill:#245abc" />
        <path
           id="path121"
           d="m 84.93,19.63 c 0.31,-3.29 -1.16,-5 -3.47,-5.31 -3.33,-0.45 -7.38,1.58 -9.83,5.15 l 0.05,0.06 c 2.25,-3.08 5.85,-5 8.74,-4.6 2,0.27 3.32,1.77 3,4.67 C 82.65,27.82 74.81,39.12 64.66,39.75 76,39.74 84.09,28.59 84.93,19.63 Z"
           inkscape:connector-curvature="0"
           style="fill:#245abc" />
        <path
           id="path123"
           d="m 64.8,39.55 v 0.06 C 74.25,38.48 81.25,27 82,19.56 c 0.22,-2.44 -0.9,-3.74 -2.57,-4 -2.52,-0.35 -5.66,1.35 -7.6,4.07 v 0.06 c 1.85,-2.39 4.43,-3.81 6.47,-3.53 1.44,0.2 2.32,1.29 2.13,3.28 -0.63,6.78 -7.06,18.32 -15.63,20.11 z"
           inkscape:connector-curvature="0"
           style="fill:#245abc" />
        <path
           id="path125"
           d="m 64.91,39.32 v 0.09 c 7,-1.88 13.49,-14 14,-20 0.14,-1.53 -0.54,-2.43 -1.66,-2.58 -1.67,-0.23 -3.79,1 -5.34,3 v 0.06 c 1.29,-1.54 3,-2.63 4.25,-2.46 0.81,0.11 1.34,0.82 1.23,1.95 C 77,24.62 71,36.72 64.91,39.32 Z m -1.1,-6.81 a 20.91,20.91 0 0 0 -1.58,5.12 1.91,1.91 0 0 0 1,1.62 1.88,1.88 0 0 0 0.3,0.12 V 39.28 A 1.19,1.19 0 0 1 63.19,38.2 25.43,25.43 0 0 1 65,33 L 78,0 76.17,0.36 c 0.1,0.42 -3.41,9.05 -3.55,9.48 z"
           inkscape:connector-curvature="0"
           style="fill:#245abc" />
        <path
           id="path127"
           d="M 61.42,31.48 A 22.37,22.37 0 0 0 60,36.41 c -0.16,1.81 1.42,2.79 3.54,3.11 v -0.06 c -1.45,-0.26 -2.57,-1 -2.44,-2.4 a 25.35,25.35 0 0 1 1.52,-5 L 71.28,9.78 c 0.21,-0.59 3.5,-8.55 3,-9.06 L 72.5,1.08 v 0.1 c 0.07,1.94 -2.18,7.25 -2.64,8.5 z"
           inkscape:connector-curvature="0"
           style="fill:#245abc" />
        <path
           id="path129"
           d="M 67.16,9.57 59,30.46 a 19.13,19.13 0 0 0 -1.38,4.61 c -0.22,2.55 1.87,4.31 5.78,4.58 A 10.2,10.2 0 0 1 61.04,39.1 3,3 0 0 1 58.77,35.82 20.07,20.07 0 0 1 60.23,31 L 68.55,9.62 c 0.42,-1.13 2.8,-6.53 2.23,-8.18 l -1.72,0.34 v 0.1 C 70,3.17 67.71,8.17 67.16,9.57 Z"
           inkscape:connector-curvature="0"
           style="fill:#245abc" />
        <path
           id="path131"
           d="m 64.2,10 -7.54,19.44 a 16.07,16.07 0 0 0 -1.26,4.34 c -0.27,3.19 2.5,5.8 8,6 -4.61,-0.26 -7.12,-2.44 -6.87,-5.32 A 16.82,16.82 0 0 1 57.85,30 l 7.79,-20 c 0.7,-1.83 2.77,-6.32 1.65,-7.82 l -1.77,0.36 v 0.1 C 66.72,4.29 65,8 64.2,10 Z"
           inkscape:connector-curvature="0"
           style="fill:#245abc" />
        <path
           id="path133"
           d="m 63.32,39.9 c -6.21,-0.27 -9.34,-3.3 -9,-6.82 A 15,15 0 0 1 55.46,29 L 62.65,10.42 C 63.55,8.1 65.23,4.6 63.91,2.87 l -1.63,0.34 v 0.1 c 1.39,1.56 0.1,4.12 -0.85,6.71 l -7.16,18.4 a 13.27,13.27 0 0 0 -1.11,4 c -0.34,3.83 3.07,7.3 10.14,7.51 z M 55.14,16.48 c -0.13,-2.47 -1.59,-3.6 -3.36,-3.6 -3.22,0 -6,2.54 -7.75,6 v -1.22 c -0.14,-2.69 -2,-4.78 -5.31,-4.78 -7,0 -10.45,4.61 -11.6,9.83 h 0.06 c 1.22,-4.89 4.48,-9.3 10.77,-9.3 a 4.4,4.4 0 0 1 4.79,4.31 c 0.17,3.17 -0.88,5.64 -2,8.49 l -5.1,13.33 H 37 l 5.1,-13.22 c 0.34,-0.91 0.66,-1.76 0.95,-2.58 1,-2.1 2.25,-4.25 2.9,-4.25 0.48,0 0.63,0.41 0.66,0.78 A 11.28,11.28 0 0 1 45.1,25.94 L 45.16,26 a 10.54,10.54 0 0 0 2.63,-6.3 c 0,-0.69 -0.34,-1.18 -1,-1.18 -1.09,0 -2.48,2.24 -3.5,4.61 0.12,-0.38 0.22,-0.76 0.32,-1.13 1.09,-2.37 2.6,-4.39 4,-4.39 0.86,0 1.38,0.59 1.43,1.56 0.12,2.36 -2,5.8 -3.78,6.93 l 0.06,0.06 c 2.42,-1.08 5.08,-4.63 4.93,-7.53 -0.07,-1.29 -0.75,-2 -1.83,-2 -1.78,0 -3.5,2.07 -4.69,4.63 0,-0.2 0.08,-0.4 0.11,-0.61 1.33,-2.75 3.28,-4.93 5.45,-4.93 1.18,0 2.08,0.8 2.16,2.36 0.19,3.44 -3.06,7.1 -6,8.17 l 0.06,0.06 c 3.61,-0.92 7.38,-4.79 7.17,-8.77 -0.1,-1.88 -1.17,-2.79 -2.56,-2.79 C 47.62,14.76 45.39,17 44,20 v -0.49 c 1.59,-3.22 4.1,-5.66 7,-5.66 1.56,0 2.85,1 3,3.18 0.24,4.57 -4,8.44 -8.32,9.41 l 0.06,0.05 c 5,-0.76 9.67,-4.9 9.4,-10.01 z"
           inkscape:connector-curvature="0"
           style="fill:#245abc" />
        <path
           id="path135"
           d="M 41.49,17.82 A 4,4 0 0 0 37.2,13.9 c -5.58,0 -8.79,4.15 -9.92,8.81 h 0.07 c 1.24,-4.34 4.08,-8.27 9.07,-8.27 a 3.46,3.46 0 0 1 3.78,3.44 c 0.14,2.63 -1.1,5.53 -2.09,8.17 l -5.26,13.49 h 1.4 L 39.4,26.16 c 1.1,-2.75 2.24,-5.49 2.09,-8.34 z"
           inkscape:connector-curvature="0"
           style="fill:#245abc" />
        <path
           id="path137"
           d="m 39,17.93 a 3,3 0 0 0 -3.28,-3 c -4.38,0 -7.06,3.78 -8.22,7.79 h 0.06 c 1.23,-3.73 3.75,-7.25 7.39,-7.25 A 2.56,2.56 0 0 1 37.69,18 c 0.11,2.09 -1.33,5.48 -2.28,7.85 L 30,39.54 h 1.45 l 5.31,-13.6 C 37.7,23.47 39.1,20.35 39,17.93 Z"
           inkscape:connector-curvature="0"
           style="fill:#245abc" />
        <path
           id="path139"
           d="M 36.45,18.09 A 2.08,2.08 0 0 0 34.19,16 c -3,0 -5.39,3.26 -6.53,6.71 h 0.07 c 1.19,-3.08 3.23,-6.18 5.68,-6.18 a 1.57,1.57 0 0 1 1.75,1.62 c 0.09,1.66 -1.59,5.43 -2.39,7.52 L 27.21,39.54 H 28.6 L 34.06,25.78 C 35,23.58 36.55,20 36.45,18.09 Z"
           inkscape:connector-curvature="0"
           style="fill:#245abc" />
        <path
           id="path141"
           d="M 33.93,18.25 A 1.15,1.15 0 0 0 32.69,17 c -1.77,0 -3.68,2.79 -4.83,5.69 h 0.07 c 1.16,-2.58 2.95,-5.16 4,-5.16 0.43,0 0.71,0.22 0.74,0.76 0.06,1.13 -1.82,5.37 -2.58,7.2 l -5.66,14 h 1.4 L 31.44,25.57 C 32.23,23.63 34,19.6 33.93,18.25 Z M 18.64,30.12 19.54,28.23 16.49,12.67 C 15.64,8.29 16.66,6.38 20.1,5.72 V 5.66 h -3.18 c -0.92,0.46 -2.87,1.84 -1.78,7 z"
           inkscape:connector-curvature="0"
           style="fill:#245abc" />
        <path
           id="path143"
           d="M 16.84,33.88 17.73,32 13.73,12.57 C 12.98,8.8 13.3,6.84 14.55,5.72 V 5.66 h -2.16 c -0.66,1.41 -0.86,2.82 -0.1,6.55 z m -1.84,3.75 0.89,-1.86 -5,-23.61 C 10.01,8.49 10.21,6.81 10.57,5.66 H 8.66 a 21.46,21.46 0 0 0 0.76,5.88 z M 6.91,5.66 H 4.66 v 0.06 c 1,1.22 1.3,2.71 2.1,6 l 6,27.83 h 1.35 l -6,-27.92 A 51.08,51.08 0 0 1 6.91,5.66 Z m -4.5,0 H 0 v 0.06 c 2.2,0.87 3.28,2.54 4.15,6.45 l 5.93,27.37 h 1.35 L 5.46,12 C 4.43,7.22 3.35,6.34 2.41,5.66 Z m 30.66,0 C 30.23,7.32 28.54,10.39 25,18 l 0.09,0.05 C 29.18,10.39 31.51,7.34 36.79,5.75 V 5.66 Z m -8.27,12.19 0.09,0.06 C 28.25,10 29.13,7.79 30.5,5.72 V 5.66 H 27.78 V 5.74 C 28.06,8.91 27,11.83 24.8,17.85 Z"
           inkscape:connector-curvature="0"
           style="fill:#245abc" />
        <path
           id="path145"
           d="m 24.62,17.73 0.09,0.06 C 26.84,10.7 27.53,7.57 25.65,5.66 H 23 v 0.06 c 3,1.06 3.62,4.09 1.62,12.01 z M 122,14.76 v 1.35 h -0.2 v -1.35 h -0.58 v -0.19 h 1.38 v 0.19 z m 2.3,1.35 V 14.8 l -0.48,1.29 h -0.23 l -0.43,-1.29 v 1.31 h -0.19 l 0.06,-1.54 h 0.35 l 0.4,1.29 0.46,-1.29 h 0.32 l 0.06,1.54 z"
           inkscape:connector-curvature="0"
           style="fill:#245abc" />
      </g>
    </g>
    <g
       id="Layer_2" />
  </g>
</svg>
