<?xml version="1.0" encoding="UTF-8" standalone="no"?>
<svg
   xmlns:dc="http://purl.org/dc/elements/1.1/"
   xmlns:cc="http://creativecommons.org/ns#"
   xmlns:rdf="http://www.w3.org/1999/02/22-rdf-syntax-ns#"
   xmlns:svg="http://www.w3.org/2000/svg"
   xmlns="http://www.w3.org/2000/svg"
   xmlns:sodipodi="http://sodipodi.sourceforge.net/DTD/sodipodi-0.dtd"
   xmlns:inkscape="http://www.inkscape.org/namespaces/inkscape"
   id="Layer_1"
   data-name="Layer 1"
   viewBox="0 0 1370 1508"
   version="1.1"
   sodipodi:docname="logovertical2.svg"
   inkscape:version="0.92.4 (5da689c313, 2019-01-14)">
  <metadata
     id="metadata944">
    <rdf:RDF>
      <cc:Work
         rdf:about="">
        <dc:format>image/svg+xml</dc:format>
        <dc:type
           rdf:resource="http://purl.org/dc/dcmitype/StillImage" />
        <dc:title>Artboard 88 copy</dc:title>
      </cc:Work>
    </rdf:RDF>
  </metadata>
  <sodipodi:namedview
     pagecolor="#ffffff"
     bordercolor="#666666"
     borderopacity="1"
     objecttolerance="10"
     gridtolerance="10"
     guidetolerance="10"
     inkscape:pageopacity="0"
     inkscape:pageshadow="2"
     inkscape:window-width="1366"
     inkscape:window-height="705"
     id="namedview942"
     showgrid="false"
     inkscape:zoom="0.35543767"
     inkscape:cx="687.81343"
     inkscape:cy="754"
     inkscape:window-x="-8"
     inkscape:window-y="-8"
     inkscape:window-maximized="1"
     inkscape:current-layer="Layer_1" />
  <defs
     id="defs905">
    <style
       id="style903">.cls-1{fill:#2b5097;}.cls-2,.cls-3{fill:none;stroke:#2b5097;stroke-miterlimit:10;}.cls-2{stroke-width:7.01px;}.cls-3{stroke-linecap:round;stroke-width:24.52px;}.cls-4{fill:#b3b3b4;}</style>
  </defs>
  <title
     id="title907">Artboard 88 copy</title>
  <path
     class="cls-1"
     d="M687.9,1227c-27.3,0-40.32,19.54-40.32,53.34v4.26c0,33.06,13,53.6,40.32,53.6,27.05,0,40.32-20.54,40.32-53.6v-4.26C728.22,1246.49,715,1227,687.9,1227Z"
     id="path909" />
  <path
     class="cls-1"
     d="M967.16,1227c-27.3,0-40.32,19.54-40.32,53.34v4.26c0,33.06,13,53.6,40.32,53.6,27.05,0,40.32-20.54,40.32-53.6v-4.26C1007.48,1246.49,994.21,1227,967.16,1227Z"
     id="path911" />
  <path
     class="cls-1"
     d="M1083.87,1127.36H316.43a138.32,138.32,0,0,0-138.32,138.32h0A138.32,138.32,0,0,0,316.43,1404h767.44a138.32,138.32,0,0,0,138.32-138.32h0A138.32,138.32,0,0,0,1083.87,1127.36Zm-705,220.81a204.89,204.89,0,0,1-36.57,3.25c-53.09,0-74.38-31.55-74.38-90.16V1256c0-58.35,22-89.9,74.88-89.9,12.78,0,22.79,1.5,35.57,4,4,1,5.5,2,4.75,6.26l-.75,2.26c-.75,4-1.75,5.51-5.51,5a134.87,134.87,0,0,0-30.8-3.51c-45.83,0-59.36,28.55-59.36,75.88v5.76c0,47.59,14.53,75.64,59.36,75.64a171.94,171.94,0,0,0,31.3-3c3.76-.5,5,.75,5.52,5.26l.49,2.25C384.34,1346.41,381.33,1347.67,378.83,1348.17Zm136.5-4.76c0,3.75-1.75,5.51-5.26,5.51h-5.76c-3.76,0-5.51-1.76-5.51-5.51V1262c0-20.54-9.27-34.32-32.06-34.32-13.52,0-31.55,4.76-38.07,8v107.69c0,3.75-1.75,5.51-5.51,5.51h-5.75c-3.76,0-5.51-1.76-5.51-5.51V1167.85c0-3.76,1.75-5.51,5.51-5.51h5.75c3.76,0,5.51,1.75,5.51,5.51v54.09c13-4.76,28.81-8.26,42.58-8.26,31.31,0,44.08,18.53,44.08,46.83Zm103.94-121L619,1224c-.75,4.5-1.25,5.26-4.76,5-5.76-1.25-12.52-1.5-19-1.5-8.27,0-20.79,1.76-28.55,5.26v110.7c0,3.75-1.76,5.51-5.51,5.51h-5.76c-3.76,0-5.51-1.76-5.51-5.51V1227c0-3,1.25-5.26,5.26-6.51,12-5.26,25.29-6.76,38.82-6.76a104.47,104.47,0,0,1,22.29,2C620.27,1216.44,620,1218.44,619.27,1222.44ZM746,1284.55c0,41.83-19.53,66.87-58.1,66.87s-58.1-25-58.1-66.87v-4.26c0-42.07,19.53-66.61,58.1-66.61s58.1,24.54,58.1,66.61Zm133.25,58.86c0,3.75-1.76,5.51-5.26,5.51h-5.76c-3.76,0-5.51-1.76-5.51-5.51V1262c0-20.54-9.27-34.32-32.06-34.32-13.52,0-31.56,4.76-38.07,8v107.69c0,3.75-1.75,5.51-5.51,5.51h-5.76c-3.75,0-5.51-1.76-5.51-5.51V1232c0-3.76,1.76-6.26,5.26-8,10.27-4.76,31.31-10.27,50.84-10.27,33.56,0,47.34,18.28,47.34,46.33Zm146-58.86c0,41.83-19.53,66.87-58.1,66.87s-58.1-25-58.1-66.87v-4.26c0-42.07,19.53-66.61,58.1-66.61s58.1,24.54,58.1,66.61Zm62.62,66.87c-14,0-29.55-2.25-37.81-3.5-4.51-.5-5.26-1.51-5.26-6v-1.75c0-5.26,2.25-6,6-5.51,6,1,21,3.51,35.56,3.51,28,0,35.06-11,35.06-24.55,0-44.58-74.63-20.78-74.63-67.87,0-26.79,22.54-32,49.34-32,19.53,0,30.55,2.25,33.81,3,3.51.5,4.76,1.5,4.26,6.26l-.5,2c-.51,5.26-1.76,5.51-5,5-6.51-1.26-13-3-29.8-3-19.54,0-35.32,3.26-35.32,18.78,0,33.81,74.88,12,74.88,67.37C1138.47,1338.4,1119.94,1351.42,1087.88,1351.42Z"
     id="path913" />
  <line
     class="cls-2"
     x1="724.44"
     y1="299.16"
     x2="724.44"
     y2="389.5"
     id="line915" />
  <line
     class="cls-2"
     x1="724.44"
     y1="888.16"
     x2="724.44"
     y2="978.5"
     id="line917" />
  <line
     class="cls-2"
     x1="1073.61"
     y1="629.33"
     x2="983.27"
     y2="629.33"
     id="line919" />
  <line
     class="cls-2"
     x1="478.61"
     y1="629.33"
     x2="388.27"
     y2="629.33"
     id="line921" />
  <line
     class="cls-2"
     x1="958.53"
     y1="398.05"
     x2="894.65"
     y2="461.93"
     id="line923" />
  <line
     class="cls-2"
     x1="542.04"
     y1="814.54"
     x2="478.16"
     y2="878.42"
     id="line925" />
  <line
     class="cls-2"
     x1="971.96"
     y1="878.42"
     x2="908.08"
     y2="814.54"
     id="line927" />
  <line
     class="cls-2"
     x1="551.23"
     y1="457.69"
     x2="487.35"
     y2="393.81"
     id="line929" />
  <path
     class="cls-1"
     d="M461.81,897.85C319.94,754.76,320.94,522.92,464,381.05S839,240.18,980.84,383.28s140.87,374.94-2.23,516.8S603.68,1041,461.81,897.85ZM952.88,411C826.3,283.33,619.44,282.44,491.77,409s-128.57,333.43-2,461.11,333.43,128.57,461.11,2S1079.46,538.69,952.88,411Z"
     id="path933" />
  <path
     class="cls-1"
     d="M407.2,952c-171.71-173.21-170.5-453.83,2.71-625.54l23.89,24.09c-159.93,158.55-161,417.64-2.49,577.56s417.63,161,577.55,2.49,161-417.63,2.49-577.55l24.1-23.9C1207.17,502.35,1206,783,1032.75,954.69S578.92,1125.2,407.2,952Z"
     id="path935" />
  <path
     class="cls-4"
     d="M893.07,270.53l14.6-31.38a444,444,0,0,0-364.8-4l13.91,31.68A409.27,409.27,0,0,1,893.07,270.53Z"
     id="path937" />
  <path
     class="cls-1"
     d="M994.71,213.24l23.53-50.57c-185.69-86.38-400.87-88.5-588-6.4l22.42,51.07A659.74,659.74,0,0,1,994.71,213.24Z"
     id="path939" />
</svg>
