<svg id="Layer_1" data-name="Layer 1" xmlns="http://www.w3.org/2000/svg" viewBox="0 0 2925 1200"><defs><style>.cls-1{fill:#2b5097;}.cls-2,.cls-3{fill:none;stroke:#2b5097;stroke-miterlimit:10;}.cls-2{stroke-width:7.01px;}.cls-3{stroke-linecap:round;stroke-width:24.52px;}.cls-4{fill:#b3b3b4;}</style></defs><title>Artboard 91 copy</title><path class="cls-1" d="M2351.94,579.63c-48.32,0-71.37,34.58-71.37,94.42v7.53c0,58.52,23,94.86,71.37,94.86,47.87,0,71.37-36.34,71.37-94.86v-7.53C2423.31,614.21,2399.81,579.63,2351.94,579.63Z"/><path class="cls-1" d="M1857.71,579.63c-48.32,0-71.37,34.58-71.37,94.42v7.53c0,58.52,23.05,94.86,71.37,94.86,47.87,0,71.36-36.34,71.36-94.86v-7.53C1929.07,614.21,1905.58,579.63,1857.71,579.63Z"/><path class="cls-1" d="M2576.69,374.53H905.76a6.82,6.82,0,0,0-6.64,8.59c22.76,77.89,97.34,173,97.34,266.67C996.46,749.94,916,837.72,892.18,923a1.61,1.61,0,0,0,1.57,2H2576.69c152,0,275.26-123.24,275.26-275.27h0C2852,497.77,2728.71,374.53,2576.69,374.53Zm-1266,419.64c-20.39,4-45.21,5.77-64.71,5.77-94,0-131.65-55.86-131.65-159.58v-9.31c0-103.28,39-159.13,132.53-159.13,22.61,0,40.34,2.66,62.95,7.09,7.09,1.77,9.75,3.55,8.42,11.08l-1.33,4c-1.33,7.09-3.1,9.75-9.75,8.87a239,239,0,0,0-54.52-6.21c-81.12,0-105.06,50.53-105.06,134.31v10.2c0,84.22,25.71,133.86,105.06,133.86a303.57,303.57,0,0,0,55.4-5.32c6.65-.88,8.87,1.33,9.76,9.31l.88,4C1320.48,791.07,1315.16,793.29,1310.72,794.17Zm241.58-8.42c0,6.65-3.1,9.75-9.31,9.75H1532.8c-6.65,0-9.76-3.1-9.76-9.75V641.69c0-36.35-16.4-60.73-56.73-60.73-23.94,0-55.86,8.42-67.38,14.19v190.6c0,6.65-3.1,9.75-9.75,9.75H1379c-6.65,0-9.75-3.1-9.75-9.75V475c0-6.65,3.1-9.75,9.75-9.75h10.2c6.65,0,9.75,3.1,9.75,9.75v95.75c23-8.43,51-14.63,75.35-14.63,55.41,0,78,32.8,78,82.89Zm184-214.1-.44,2.66c-1.33,8-2.22,9.31-8.42,8.87-10.2-2.22-22.17-2.66-33.69-2.66-14.63,0-36.79,3.1-50.54,9.31V785.75c0,6.65-3.1,9.75-9.75,9.75h-10.19c-6.65,0-9.75-3.1-9.75-9.75V579.63c0-5.32,2.21-9.31,9.3-11.52,21.28-9.31,44.77-12,68.71-12,17.29,0,28.81,1.33,39.45,3.55C1738,561,1737.58,564.56,1736.25,571.65Zm224.29,109.93c0,74-34.57,118.36-102.83,118.36s-102.84-44.33-102.84-118.36v-7.53c0-74.47,34.57-117.91,102.84-117.91s102.83,43.44,102.83,117.91Zm235.82,104.17c0,6.65-3.11,9.75-9.31,9.75h-10.2c-6.64,0-9.75-3.1-9.75-9.75V641.69c0-36.35-16.4-60.73-56.74-60.73-23.93,0-55.85,8.42-67.37,14.19v190.6c0,6.65-3.11,9.75-9.75,9.75H2023c-6.65,0-9.75-3.1-9.75-9.75V588.5c0-6.65,3.1-11.08,9.31-14.19,18.17-8.42,55.41-18.17,90-18.17,59.4,0,83.78,32.36,83.78,82Zm258.42-104.17c0,74-34.58,118.36-102.84,118.36S2249.1,755.61,2249.1,681.58v-7.53c0-74.47,34.58-117.91,102.84-117.91s102.84,43.44,102.84,117.91ZM2565.6,799.94c-24.83,0-52.31-4-66.94-6.21-8-.89-9.3-2.66-9.3-10.64V780c0-9.31,4-10.64,10.63-9.75,10.64,1.77,37.24,6.2,63,6.2,49.64,0,62.06-19.5,62.06-43.44,0-78.9-132.1-36.79-132.1-120.12,0-47.43,39.9-56.74,87.33-56.74,34.57,0,54.07,4,59.84,5.32,6.2.88,8.42,2.66,7.53,11.08l-.88,3.55c-.89,9.3-3.11,9.75-8.87,8.86-11.52-2.21-23-5.32-52.75-5.32-34.57,0-62.5,5.76-62.5,33.25,0,59.84,132.54,21.27,132.54,119.24C2655.14,776.89,2622.34,799.94,2565.6,799.94Z"/><line class="cls-2" x1="570.44" y1="303.16" x2="570.44" y2="393.5"/><line class="cls-2" x1="570.44" y1="892.16" x2="570.44" y2="982.5"/><line class="cls-2" x1="919.61" y1="633.33" x2="829.27" y2="633.33"/><line class="cls-2" x1="324.61" y1="633.33" x2="234.27" y2="633.33"/><line class="cls-2" x1="804.53" y1="402.05" x2="740.65" y2="465.93"/><line class="cls-2" x1="388.04" y1="818.54" x2="324.16" y2="882.42"/><line class="cls-2" x1="817.96" y1="882.42" x2="754.08" y2="818.54"/><line class="cls-2" x1="397.23" y1="461.69" x2="333.35" y2="397.81"/><polyline class="cls-3" points="510.89 635.94 559.93 691.99 643.5 595.63"/><path class="cls-1" d="M307.81,901.85C165.94,758.76,166.94,526.92,310,385.05S685,244.18,826.84,387.28s140.87,374.94-2.23,516.8S449.68,1045,307.81,901.85ZM798.88,415C672.3,287.33,465.44,286.44,337.77,413s-128.57,333.43-2,461.11,333.43,128.57,461.11,2S925.46,542.69,798.88,415Z"/><path class="cls-1" d="M253.2,956C81.49,782.78,82.7,502.16,255.91,330.45l23.89,24.09c-159.93,158.55-161,417.64-2.49,577.56s417.63,161,577.55,2.49S1015.89,517,857.35,357l24.1-23.9C1053.17,506.35,1052,787,878.75,958.69S424.92,1129.2,253.2,956Z"/><path class="cls-4" d="M739.07,274.53l14.6-31.38a444,444,0,0,0-364.8-4l13.91,31.68A409.27,409.27,0,0,1,739.07,274.53Z"/><path class="cls-1" d="M840.71,217.24l23.53-50.57c-185.69-86.38-400.87-88.5-588-6.4l22.42,51.07A659.74,659.74,0,0,1,840.71,217.24Z"/></svg>